<?xml version="1.0" encoding="UTF-8" standalone="no"?>
<!DOCTYPE svg PUBLIC "-//W3C//DTD SVG 1.1//EN" "http://www.w3.org/Graphics/SVG/1.1/DTD/svg11.dtd">
<svg>
<metadata>
Created by FontForge 20090914 at Fri Feb  8 09:50:55 2013
 By www-data
Copyright (c) 2006 ParachuteÂ¨, www.parachute.gr.  All rights reserved.
</metadata>
<defs>
<font id="pf_agora_sans_pro_thinregular" horiz-adv-x="1058">
  <font-face font-family="PF Agora Sans Pro Thin Regular" font-weight="200" font-stretch="normal" units-per-em="2048" panose-1="2 0 5 0 0 0 0 2 0 4" ascent="1536" descent="-512" x-height="995" cap-height="1399" bbox="-84 -492.001 1982 1815" underline-thickness="102" underline-position="-102" unicode-range="U+000D-U+E000"/>
<missing-glyph horiz-adv-x="748" d="M68 0v1365h544v-1365h-544zM136 68h408v1229h-408v-1229z"/>
    <glyph glyph-name=".notdef" horiz-adv-x="748" d="M68 0v1365h544v-1365h-544zM136 68h408v1229h-408v-1229z"/>
    <glyph glyph-name="glyph1" horiz-adv-x="2048"/>
    <glyph glyph-name="glyph1" horiz-adv-x="2048"/>
    <glyph glyph-name="uni000D" unicode="" horiz-adv-x="2048"/>
    <glyph glyph-name="space" unicode=" " horiz-adv-x="532"/>
    <glyph glyph-name="exclam" unicode="!" horiz-adv-x="403" d="M133 59c0 20.667 7.83203 38.167 23.499 52.5s33.834 21.5 54.501 21.5s38.5 -7.16699 53.5 -21.5s22.5 -31.833 22.5 -52.5c0 -23.333 -7.5 -42.333 -22.5 -57s-32.167 -22 -51.5 -22c-22 0 -40.833 7.5 -56.5 22.5s-23.5 33.833 -23.5 56.5zM165.999 1417h86l-2 -641 l-12 -444h-54l-14 444z"/>
    <glyph glyph-name="quotedbl" unicode="&quot;" horiz-adv-x="421" d="M82 1399h90l-20 -377h-46zM260 1399h88l-20 -377h-49z"/>
    <glyph glyph-name="numbersign" unicode="#" horiz-adv-x="1044" d="M90 420l11.999 54.999h150c4 22 9.83301 50.667 17.5 86l23.5 110.5c8 38.333 16.167 75.333 24.5 111s14.5 64.834 18.5 87.501h-158l15 54h155l16.5 77l21.5 100l21.5 100l16.5 77h59l-75 -354h352l16 77l21.5 100l21.5 100c6.66699 32 12.334 57.667 17.001 77h61 l-76 -354h162l-12 -54h-162c-4 -23.333 -10.167 -52.666 -18.5 -87.999s-16.5 -72.166 -24.5 -110.499l-23.5 -110.5c-7.66699 -35.333 -13.5 -64 -17.5 -86h168l-12 -55h-168l-20.5 -93.5l-25 -116.5l-24.5 -116.5c-8 -37.667 -14 -68.834 -18 -93.501h-62l88 420h-352 c-4 -24.667 -10.167 -55.834 -18.5 -93.501s-16.5 -76.5 -24.5 -116.5s-16.167 -78.833 -24.5 -116.5l-20.5 -93.5h-61l90 420h-150zM310.999 474.999l353 -0.000976562c4 22 9.66699 50.667 17 86l23.5 110.5l24.5 111c8 35.667 14.333 64.834 19 87.501h-353z"/>
    <glyph glyph-name="dollar" unicode="$" d="M121 104l33.002 68c61.333 -31.333 113.166 -52.833 155.499 -64.5s81.166 -20.167 116.499 -25.5v618c-40.667 15.333 -78.5 31.833 -113.5 49.5s-65.5 38.834 -91.5 63.501s-46.5 54 -61.5 88s-22.5 74.333 -22.5 121c0 94 27.667 168.667 83 224s124 92 206 110v135 h53v-1647h-53v164c-54.667 5.33301 -109 16.666 -163 33.999s-101.333 38 -142 62zM217.002 1032c0 -36.667 5.50098 -68.332 16.501 -94.999s25.667 -49.5 44 -68.5s40.166 -35 65.499 -48s53 -25.833 83 -38.5v498c-58.667 -15.333 -108.167 -42.833 -148.5 -82.5 s-60.5 -94.834 -60.5 -165.501zM553.003 -155.998v1647h53v-129c40.667 -2.66699 83.334 -9.83398 128.001 -21.501s84.667 -28.5 120 -50.5l-27 -67c-46.667 23.333 -87 39 -121 47s-67.333 14 -100 18v-563l125 -55.5c41.333 -19 77.666 -41.833 108.999 -68.5 s56.5 -58.667 75.5 -96s28.5 -83.333 28.5 -138c0 -53.333 -8.5 -100.5 -25.5 -141.5s-40.833 -75.833 -71.5 -104.5s-66.5 -51.834 -107.5 -69.501s-85.5 -30.167 -133.5 -37.5v-170h-53zM606.003 86.0039c82 13.333 145.499 43.001 190.499 89.001s67.5 112.667 67.5 200 c0 35.333 -6.5 66.666 -19.5 93.999s-31 51.5 -54 72.5s-50.167 39.833 -81.5 56.5s-65.666 31.667 -102.999 45v-557z"/>
    <glyph glyph-name="percent" unicode="%" horiz-adv-x="1597" d="M63 944c0 44 3.83398 90.5039 11.501 139.504s22.834 94.667 45.501 137s55.167 77.166 97.5 104.499s97.5 41 165.5 41c69.333 0 124.166 -14.333 164.499 -43s70.833 -64.5 91.5 -107.5s33.667 -88.833 39 -137.5s8 -92.667 8 -132 c0 -48 -4.83301 -95.833 -14.5 -143.5s-26 -91.334 -49 -131.001s-54.333 -71.667 -94 -96s-89.5 -36.5 -149.5 -36.5c-68 0 -122.833 11.833 -164.5 35.5s-73.834 54.667 -96.501 93s-37.5 81.666 -44.5 129.999s-10.5 97.166 -10.5 146.499zM139.001 940.004 c0 -46.667 3.16797 -90.8311 9.50098 -132.498s18 -77.834 35 -108.501s41.5 -54.834 73.5 -72.501s74 -26.5 126 -26.5c46.667 0 85 10.667 115 32s53.5 48.333 70.5 81s28.5 69.5 34.5 110.5s9 81.167 9 120.5c0 30 -1.66699 65.833 -5 107.5s-12.5 81 -27.5 118 s-37.833 68.5 -68.5 94.5s-73.334 39 -128.001 39s-98 -12.333 -130 -37s-56.5 -55.5 -73.5 -92.5s-28 -76.667 -33 -119s-7.5 -80.5 -7.5 -114.5zM471.002 -46.9932l580 1477h65l-575 -1477h-70zM909.002 397.007c0 44 3.83496 90.8301 11.502 140.497 s22.667 95.334 45 137.001s54.666 76.5 96.999 104.5s97.833 42 166.5 42c69.333 0 124.166 -14.333 164.499 -43s70.833 -64.5 91.5 -107.5s33.667 -89.167 39 -138.5s8 -93.666 8 -132.999c0 -46.667 -4.83301 -94.167 -14.5 -142.5s-26 -91.833 -49 -130.5 s-54.333 -70.667 -94 -96s-89.5 -38 -149.5 -38c-68 0 -123 11.833 -165 35.5s-74.167 54.667 -96.5 93s-37 81.833 -44 130.5s-10.5 97.334 -10.5 146.001zM985.004 395.004c0 -48 3.16797 -92.3281 9.50098 -132.995s18 -76.834 35 -108.501s41.5 -56.334 73.5 -74.001 s74 -26.5 126 -26.5c46.667 0 85 10.667 115 32s53.5 48.666 70.5 81.999s28.5 70.166 34.5 110.499s9 80.166 9 119.499c0 31.333 -1.66699 67.833 -5 109.5s-12.5 81 -27.5 118s-37.833 68.5 -68.5 94.5s-73.334 39 -128.001 39s-98 -12.333 -130 -37 s-56.667 -55.5 -74 -92.5s-28.333 -76.667 -33 -119s-7 -80.5 -7 -114.5z"/>
    <glyph glyph-name="ampersand" unicode="&amp;" horiz-adv-x="1423" d="M55 362c0 94 31.5 176.673 94.5 248.006s150.5 138.333 262.5 201c-42 56 -72.333 109.667 -91 161s-28 94 -28 128c0 39.333 6.16699 76.166 18.5 110.499s30 63.666 53 87.999s51 43.666 84 57.999s69.833 21.5 110.5 21.5c44 0 82.333 -6.5 115 -19.5 s59.834 -30.667 81.501 -53s38 -48.833 49 -79.5s16.5 -63.334 16.5 -98.001c0 -65.333 -25.5 -126.666 -76.5 -183.999s-125.833 -112 -224.5 -164c62.667 -94 129.834 -186.667 201.501 -278s147.167 -178 226.5 -260c34 32.667 66.167 67.667 96.5 105s57 79.333 80 126 s42 98 57 154s25.167 118.667 30.5 188h72c-8 -144.667 -38.333 -266.834 -91 -366.501s-116.667 -184.834 -192 -255.501c48 -48 100.667 -91.5 158 -130.5s110.666 -69.5 159.999 -91.5l-37 -63c-22 9.33301 -47.333 22.5 -76 39.5s-58.334 36.167 -89.001 57.5 s-61.334 44 -92.001 68s-59 48.667 -85 74c-69.333 -54.667 -144.666 -95.834 -225.999 -123.501s-160.333 -41.5 -237 -41.5c-58.667 0 -113.5 7.83301 -164.5 23.5s-95.667 39.167 -134 70.5s-68.5 70.833 -90.5 118.5s-33 103.5 -33 167.5zM135 367.006 c0 -54.667 8.83105 -101.831 26.498 -141.498s42 -72.834 73 -99.501s66.5 -46.5 106.5 -59.5s82.667 -19.5 128 -19.5c66.667 0 134.167 10.333 202.5 31s141.5 59.667 219.5 117c-35.333 36.667 -69.166 74.167 -101.499 112.5l-95.5 112.5l-128 164 c-41.333 54.667 -79.666 109.334 -114.999 164.001c-45.333 -24.667 -87.5 -50.334 -126.5 -77.001s-72.5 -55.334 -100.5 -86.001s-49.833 -64.167 -65.5 -100.5s-23.5 -75.5 -23.5 -117.5zM376.998 1110.01c0 -39.333 9.16895 -80.834 27.502 -124.501 s45.166 -91.5 80.499 -143.5c35.333 16.667 68.833 35.5 100.5 56.5s59 43.833 82 68.5s41.333 50.167 55 76.5s20.5 53.833 20.5 82.5c0 53.333 -16.667 96.833 -50 130.5s-80.666 50.5 -141.999 50.5c-32.667 0 -60.334 -6.83301 -83.001 -20.5 s-40.834 -30.5 -54.501 -50.5s-23.167 -41.167 -28.5 -63.5s-8 -43.166 -8 -62.499z"/>
    <glyph glyph-name="quotesingle" unicode="'" horiz-adv-x="307" d="M109 1399h90l-21 -377h-47z"/>
    <glyph glyph-name="parenleft" unicode="(" horiz-adv-x="538" d="M121 588c0 116 11.501 222.501 34.501 319.501s50.333 182.667 82 257s63.5 136.333 95.5 186s56.333 86.167 73 109.5l34 -24c-15.333 -22 -35.5 -57.333 -60.5 -106s-50.5 -108.834 -76.5 -180.501s-48.167 -154.5 -66.5 -248.5s-27.5 -198.333 -27.5 -313 c0 -130 9.16699 -245.833 27.5 -347.5s40.166 -190.334 65.499 -266.001s51 -138.5 77 -188.5s46.333 -88 61 -114l-34 -24c-15.333 22 -39 58.5 -71 109.5s-63.667 115.833 -95 194.5s-59 170.834 -83 276.501s-36 225.5 -36 359.5z"/>
    <glyph glyph-name="parenright" unicode=")" horiz-adv-x="538" d="M92 -328c15.333 26 36 63.999 62 113.999s51.5 112.833 76.5 188.5s46.833 164.334 65.5 266.001s28 217.5 28 347.5c0 114.667 -9.33301 219 -28 313s-40.5 176.833 -65.5 248.5s-50.5 131.834 -76.5 180.501s-46 84 -60 106l35 24 c16.667 -23.333 40.667 -59.833 72 -109.5s62.666 -111.667 93.999 -186s58.666 -160 81.999 -257s35 -203.5 35 -319.5c0 -134 -12 -253.833 -36 -359.5s-51.667 -197.834 -83 -276.501s-62.666 -143.5 -93.999 -194.5s-54.666 -87.5 -69.999 -109.5z"/>
    <glyph glyph-name="asterisk" unicode="*" horiz-adv-x="698" d="M80 1159c1.33301 19.333 4.33398 37.5 9.00098 54.5s12.667 32.5 24 46.5l223 -105l-33 244c18 4 36.333 6 55 6c9.33301 0 18.166 -0.333008 26.499 -1s16.833 -2.33398 25.5 -5.00098l-35 -244l111.5 49.5l111.5 50.5c10.667 -15.333 18.5 -31 23.5 -47 s7.5 -33 7.5 -51l-123 -20.5l-123 -20.5l168 -178c-22 -31.333 -49.333 -51.666 -82 -60.999l-117 217l-110 -217c-34 9.33301 -62.667 29 -86 59l166 182z"/>
    <glyph glyph-name="plus" unicode="+" d="M156 571v72h340v334h73v-334h338v-72h-338v-346h-73v346h-340z"/>
    <glyph glyph-name="comma" unicode="," horiz-adv-x="296" d="M68 -188c23.333 27.333 39.6699 57.667 49.0029 91s14.666 63.666 15.999 90.999c-19.333 2.66699 -34.333 9.66699 -45 21s-16 26 -16 44c0 20.667 6.83301 38.5 20.5 53.5s30.5 22.5 50.5 22.5c23.333 0 42.5 -8.16699 57.5 -24.5s22.5 -39.5 22.5 -69.5 c0 -19.333 -3 -40.833 -9 -64.5s-14.833 -47.5 -26.5 -71.5s-25.334 -46.667 -41.001 -68s-33.834 -38.666 -54.501 -51.999z"/>
    <glyph glyph-name="hyphen" unicode="-" horiz-adv-x="684" d="M104 481v80h476v-80h-476z"/>
    <glyph glyph-name="period" unicode="." horiz-adv-x="327" d="M90 66c0 19.333 7.16699 36 21.5 50s31.166 21 50.499 21s36 -7 50 -21s21 -30.667 21 -50s-7.16699 -36.5 -21.5 -51.5s-30.833 -22.5 -49.5 -22.5c-19.333 0 -36.166 7.5 -50.499 22.5s-21.5 32.167 -21.5 51.5z"/>
    <glyph glyph-name="slash" unicode="/" horiz-adv-x="645" d="M18 -53l531 1483h67l-526 -1483h-72z"/>
    <glyph glyph-name="zero" unicode="0" d="M57 664c0 74 5.83105 152.499 17.498 235.499s34.667 160 69 231s82.833 130 145.5 177s146 70.5 250 70.5c70.667 0 131 -11.167 181 -33.5s92.333 -52.666 127 -90.999s62.334 -82 83.001 -131s36 -99.5 46 -151.5s16.667 -104.167 20 -156.5s5 -100.5 5 -144.5 c0 -78 -7.16699 -157.667 -21.5 -239s-39.166 -155 -74.499 -221s-83 -119.833 -143 -161.5s-135 -62.5 -225 -62.5c-104 0 -187.333 19.667 -250 59s-111.167 91.5 -145.5 156.5s-57 137.833 -68 218.5s-16.5 162 -16.5 244zM142.998 658.999 c0 -82 5.16895 -159.503 15.502 -232.503s29.833 -136.667 58.5 -191s68.667 -97.666 120 -129.999s118.666 -48.5 201.999 -48.5c76.667 0 139.167 18.5 187.5 55.5s86.5 84.833 114.5 143.5s47.333 124 58 196s16 142.667 16 212c0 36.667 -1 77.834 -3 123.501 s-7 92.334 -15 140.001s-19.833 93.834 -35.5 138.501s-37.5 84.667 -65.5 120s-62.833 63.666 -104.5 84.999s-92.5 32 -152.5 32c-88.667 0 -159.334 -22 -212.001 -66s-92.667 -98.333 -120 -163s-44.833 -134.5 -52.5 -209.5s-11.5 -143.5 -11.5 -205.5z"/>
    <glyph glyph-name="one" unicode="1" d="M213 1223v61l315 72h86v-1356h-82v1260z"/>
    <glyph glyph-name="two" unicode="2" d="M61 0l0.00195312 68.0068l175 163l197 195.5c64.667 66.333 122.667 132.666 174 198.999s92.333 131.666 123 195.999s46 126.5 46 186.5c0 50.667 -7.83301 93.667 -23.5 129s-37.167 64.666 -64.5 87.999s-59.333 40.333 -96 51s-76.334 16 -119.001 16 c-52 0 -108.667 -8.83301 -170 -26.5s-122 -46.834 -182 -87.501l-37 61c65.333 46.667 132.833 80.167 202.5 100.5s135.167 30.5 196.5 30.5c53.333 0 103.166 -6.83301 149.499 -20.5s87 -34.834 122 -63.501s62.333 -64.834 82 -108.501s29.5 -96.167 29.5 -157.5 c0 -72.667 -17.667 -145.834 -53 -219.501s-80.333 -145.667 -135 -216s-113.667 -137.833 -177 -202.5l-182 -179l-68.5 -65l-66.5 -66l734 -2v-70h-857z"/>
    <glyph glyph-name="three" unicode="3" d="M74 51l24.0039 66.0039c75.333 -24.667 142.666 -40.834 201.999 -48.501s108 -11.5 146 -11.5c57.333 0 110.333 7.16699 159 21.5s90.667 36.166 126 65.499s63 66.666 83 111.999s30 99.333 30 162c0 100 -35.833 176.5 -107.5 229.5s-171.834 79.5 -300.501 79.5 c-24.667 0 -47.5 -0.666992 -68.5 -2s-42.5 -4 -64.5 -8l-24 59l485 498l-6 6h-631v74h750l16 -60l-483 -489l2 -4c10.667 1.33301 21.5 2 32.5 2h32.5c69.333 0 132.166 -8.16699 188.499 -24.5s104.166 -41 143.499 -74s70 -73.333 92 -121s33 -102.834 33 -165.501 c0 -72.667 -12.333 -136 -37 -190s-58.5 -99 -101.5 -135s-92.833 -63.167 -149.5 -81.5s-116.334 -27.5 -179.001 -27.5c-78 0 -148.667 5.33301 -212 16s-123.666 27.667 -180.999 51z"/>
    <glyph glyph-name="four" unicode="4" d="M45 391v76l337 443l337 444h90v-891h203v-72h-203c0 -65.333 0.333008 -130.5 1 -195.5s1 -130.167 1 -195.5h-86v391h-680zM131 463l596.001 0.000976562v780c-6.66699 -6.66699 -24.334 -28.834 -53.001 -66.501l-103.5 -135l-130 -171l-133 -175.5l-112 -146.5z"/>
    <glyph glyph-name="five" unicode="5" d="M94 53l26.998 66c68 -23.333 130 -39.5 186 -48.5s104.667 -13.5 146 -13.5c125.333 0 224.833 29 298.5 87s110.5 150 110.5 276c0 56 -9.5 105.167 -28.5 147.5s-45.167 77.5 -78.5 105.5s-72.333 48.833 -117 62.5s-92 20.5 -142 20.5 c-39.333 0 -81.666 -5.5 -126.999 -16.5s-87 -26.167 -125 -45.5l-60 39c6.66699 104 12.5 207.5 17.5 310.5l15.5 310.5h676v-74h-602l-29 -506c12 4 25.333 9.16699 40 15.5s32.167 12.5 52.5 18.5s44.5 11 72.5 15s61.667 6 101 6c49.333 0 99.333 -7.16699 150 -21.5 s96 -37.833 136 -70.5s73 -75 99 -127s39 -115.333 39 -190c0 -75.333 -12.167 -140.333 -36.5 -195s-57.666 -100 -99.999 -136s-91.5 -62.833 -147.5 -80.5s-115.667 -26.5 -179 -26.5c-150 0 -281.667 23.667 -395 71z"/>
    <glyph glyph-name="six" unicode="6" d="M106 621c0 110.667 10.999 212.334 32.999 305.001s54.167 172.167 96.5 238.5s95.166 117.833 158.499 154.5s136.666 55 219.999 55c65.333 0 121.666 -6.16699 168.999 -18.5s86.666 -25.833 117.999 -40.5l-27 -66c-53.333 20.667 -101.666 34.334 -144.999 41.001 s-82.333 10 -117 10c-56 0 -105.167 -10.5 -147.5 -31.5s-78.5 -48.167 -108.5 -81.5s-55.167 -71.5 -75.5 -114.5s-36.666 -85.667 -48.999 -128s-21.166 -82.666 -26.499 -120.999s-8.66602 -70.5 -9.99902 -96.5l6 -6c48 30 104 55.5 168 76.5s135 31.5 213 31.5 c52 0 101.833 -7.16699 149.5 -21.5s89.834 -37.833 126.501 -70.5s66 -75.334 88 -128.001s33 -116.334 33 -191.001c0 -66.667 -10.167 -126.667 -30.5 -180s-49.333 -98.833 -87 -136.5s-83.167 -66.334 -136.5 -86.001s-112 -29.5 -176 -29.5 c-88.667 0 -161.667 16.667 -219 50s-102.5 79 -135.5 137s-56 125.667 -69 203s-19.5 159 -19.5 245zM194.999 580c0 -49.333 3.33301 -104.001 10 -164.001s22.334 -116.667 47.001 -170s60.834 -98.166 108.501 -134.499s111.834 -54.5 192.501 -54.5 c53.333 0 101.166 8.66699 143.499 26s78.166 41.666 107.499 72.999s51.833 68.166 67.5 110.499s23.5 89.5 23.5 141.5c0 50.667 -5.83301 97.334 -17.5 140.001s-30.167 79.5 -55.5 110.5s-58.833 55 -100.5 72s-92.5 25.5 -152.5 25.5 c-57.333 0 -108.5 -6.16699 -153.5 -18.5s-83.5 -25.666 -115.5 -39.999s-56.833 -28 -74.5 -41s-27.834 -20.167 -30.501 -21.5v-55z"/>
    <glyph glyph-name="seven" unicode="7" d="M125 1282v74h786v-74l-573 -1282h-86l577 1282h-704z"/>
    <glyph glyph-name="eight" unicode="8" d="M78 322c0 83.333 22.1709 165.169 66.5039 245.502s114.166 149.166 209.499 206.499c-68 35.333 -119 75.333 -153 120s-51 97.667 -51 159c0 42 9.16699 82.833 27.5 122.5s44.5 74.5 78.5 104.5s75 53.833 123 71.5s101.333 26.5 160 26.5 c45.333 0 90.666 -5.83301 135.999 -17.5s86.833 -30 124.5 -55s68.5 -57.333 92.5 -97s36 -87.5 36 -143.5s-16.167 -115.333 -48.5 -178s-89.833 -123.334 -172.5 -182.001c78 -38 139 -85.5 183 -142.5s66 -126.5 66 -208.5c0 -48 -9.16699 -94 -27.5 -138 s-45.833 -83.167 -82.5 -117.5s-82.334 -61.666 -137.001 -81.999s-118.334 -30.5 -191.001 -30.5c-78 0 -144.5 9.5 -199.5 28.5s-100.333 44.167 -136 75.5s-62 67.166 -79 107.499s-25.5 81.833 -25.5 124.5zM164.004 332.003 c0 -32.667 6.16211 -65.4961 18.4951 -98.4961s32.833 -62.833 61.5 -89.5s65.834 -48.167 111.501 -64.5s101.834 -24.5 168.501 -24.5c60 0 111.833 9 155.5 27s79.834 41 108.501 69s49.834 59.667 63.501 95s20.5 70.666 20.5 105.999 c0 57.333 -11.5 105.166 -34.5 143.499s-55 71.166 -96 98.499s-88.833 52.166 -143.5 74.499l-176 70.5c-91.333 -56 -157.166 -120.5 -197.499 -193.5s-60.5 -144.167 -60.5 -213.5zM237.999 1053.01c0 -44 11.8311 -81.666 35.498 -112.999s54.334 -59 92.001 -83 s80 -45.5 127 -64.5l138.5 -55.5c80.667 57.333 136.667 113 168 167s47 103 47 147c0 28.667 -5.5 58 -16.5 88s-28.833 57.167 -53.5 81.5s-56.667 44.833 -96 61.5s-88.666 25 -147.999 25c-56 0 -103 -9.33301 -141 -28s-68.333 -41.334 -91 -68.001 s-38.667 -54.167 -48 -82.5s-14 -53.5 -14 -75.5z"/>
    <glyph glyph-name="nine" unicode="9" d="M74 942c0 66.667 10.1689 126.667 30.502 180s49.333 98.833 87 136.5s82.834 66.334 135.501 86.001s111.667 29.5 177 29.5c88.667 0 161.334 -16.667 218.001 -50s101.334 -79 134.001 -137s55.5 -125.667 68.5 -203s19.5 -159 19.5 -245 c0 -110.667 -10.833 -212 -32.5 -304s-53.667 -171.167 -96 -237.5s-95.333 -117.833 -159 -154.5s-137.167 -55 -220.5 -55c-65.333 0 -125 5.83301 -179 17.5s-96.667 24.834 -128 39.501l27 66c53.333 -20.667 105.166 -34.5 155.499 -41.5s92.5 -10.5 126.5 -10.5 c56 0 105.167 10.667 147.5 32s78.5 48.666 108.5 81.999s55.333 71.5 76 114.5s37.167 85.667 49.5 128s21.166 82.666 26.499 120.999s8.66602 70.5 9.99902 96.5c-1.33301 1.33301 -2 2.33301 -2 3s-1.33301 1.66699 -4 3 c-46.667 -31.333 -102.334 -57.666 -167.001 -78.999s-135.334 -32 -212.001 -32c-53.333 0 -103.833 7.5 -151.5 22.5s-89.667 39 -126 72s-65.333 75.667 -87 128s-32.5 116.166 -32.5 191.499zM158.002 952c0 -52 5.33203 -98.998 15.999 -140.998 s28.667 -78.5 54 -109.5s58.833 -55 100.5 -72s92.5 -25.5 152.5 -25.5c57.333 0 109 6.16699 155 18.5s84.667 25.666 116 39.999s55.833 28 73.5 41s27.834 20.167 30.501 21.5v55c0 48 -3.33301 102 -10 162s-22.334 116.667 -47.001 170s-60.5 98 -107.5 134 s-110.833 54 -191.5 54c-109.333 0 -193.666 -32.333 -252.999 -97s-89 -148.334 -89 -251.001z"/>
    <glyph glyph-name="colon" unicode=":" horiz-adv-x="325" d="M92 68c0 19.333 7.16895 36 21.502 50s31.166 21 50.499 21s36.166 -7 50.499 -21s21.5 -30.667 21.5 -50s-6.83301 -36.5 -20.5 -51.5s-30.167 -22.5 -49.5 -22.5c-20.667 0 -38.167 7.5 -52.5 22.5s-21.5 32.167 -21.5 51.5zM92.002 700 c0 19.333 7.16895 36.166 21.502 50.499s31.166 21.5 50.499 21.5s36.166 -7.16699 50.499 -21.5s21.5 -31.166 21.5 -50.499c0 -20.667 -6.83301 -38 -20.5 -52s-30.167 -21 -49.5 -21c-20.667 0 -38.167 7.5 -52.5 22.5s-21.5 31.833 -21.5 50.5z"/>
    <glyph glyph-name="semicolon" unicode=";" horiz-adv-x="325" d="M84 -186c23.333 27.333 39.667 57.333 49 90s15 62.667 17 90c-18 2.66699 -32.5 9.66699 -43.5 21s-16.5 26 -16.5 44c0 20.667 6.5 38.5 19.5 53.5s30.5 22.5 52.5 22.5c23.333 0 42.5 -8.16699 57.5 -24.5s22.5 -39.5 22.5 -69.5 c0 -19.333 -3.16699 -40.833 -9.5 -64.5s-15.333 -47.167 -27 -70.5s-25.667 -46 -42 -68s-34.5 -39.667 -54.5 -53zM92.001 700c0 19.333 7.16895 36.166 21.502 50.499s31.166 21.5 50.499 21.5s36.166 -7.16699 50.499 -21.5s21.5 -31.166 21.5 -50.499 c0 -20.667 -6.83301 -38 -20.5 -52s-30.167 -21 -49.5 -21c-20.667 0 -38.167 7.5 -52.5 22.5s-21.5 31.833 -21.5 50.5z"/>
    <glyph glyph-name="less" unicode="&lt;" d="M156 569v74l753 389v-82l-680 -342l680 -346v-84z"/>
    <glyph glyph-name="equal" unicode="=" d="M147 436v70h762v-70h-762zM147 723v72h762v-72h-762z"/>
    <glyph glyph-name="greater" unicode="&gt;" d="M156 178v84l680 346l-680 342v82l753 -389v-74z"/>
    <glyph glyph-name="question" unicode="?" horiz-adv-x="847" d="M88 1376c61.333 22 122.001 37.501 182.001 46.501s114 13.5 162 13.5c121.333 0 212.166 -23.167 272.499 -69.5s90.5 -110.5 90.5 -192.5c0 -64 -19.167 -120.667 -57.5 -170s-82.166 -94 -131.499 -134c-88.667 -72.667 -156.5 -136.167 -203.5 -190.5 s-70.5 -112.833 -70.5 -175.5c0 -44 6 -94.667 18 -152c-13.333 -2.66699 -25.833 -5 -37.5 -7s-23.834 -4.33301 -36.501 -7c-8 39.333 -13.667 73.666 -17 102.999s-5 54.333 -5 75c0 65.333 21.167 127.833 63.5 187.5s109.833 125.5 202.5 197.5 c56 45.333 100.333 88.5 133 129.5s49 87.167 49 138.5c0 35.333 -6.66699 65.333 -20 90s-32 44.5 -56 59.5s-52 26 -84 33s-67.333 10.5 -106 10.5c-42 0 -89.333 -3.83301 -142 -11.5s-113.667 -22.167 -183 -43.5c-9.33301 26 -17 49 -23 69zM276.001 59.001 c0 19.333 7.66797 36.166 23.001 50.499s33 21.5 53 21.5c20.667 0 38.5 -7.16699 53.5 -21.5s22.5 -31.166 22.5 -50.499c0 -23.333 -7.5 -41.333 -22.5 -54s-32.167 -19 -51.5 -19c-20.667 0 -38.834 6.83301 -54.501 20.5s-23.5 31.167 -23.5 52.5z"/>
    <glyph glyph-name="at" unicode="@" horiz-adv-x="1753" d="M152 680c0 104 20.3389 200.001 61.0059 288.001s96.167 164 166.5 228s152.333 113.833 246 149.5s192.5 53.5 296.5 53.5c108 0 205.167 -15.333 291.5 -46s159.333 -74.334 219 -131.001s105.5 -125 137.5 -205s48 -169.667 48 -269 c0 -72.667 -9.83301 -135 -29.5 -187s-45.334 -95 -77.001 -129s-66.167 -59.167 -103.5 -75.5s-74.666 -24.5 -111.999 -24.5c-20.667 0 -41.834 1.66699 -63.501 5s-42.334 9.16602 -62.001 17.499s-37.334 20 -53.001 35s-28.5 33.833 -38.5 56.5 c-31.333 -30 -71.833 -56.5 -121.5 -79.5s-103.834 -34.5 -162.501 -34.5c-42 0 -76.833 7.16699 -104.5 21.5s-49 32 -64 53s-25.5 44.167 -31.5 69.5s-9 49 -9 71c0 36.667 6.5 68 19.5 94s31 47.833 54 65.5s49.833 31.334 80.5 41.001s64.667 15.834 102 18.501l223 16 v74c0 72.667 -13 123 -39 151s-71.667 42 -137 42c-75.333 0 -154 -15 -236 -45c-2.66699 4 -6 12.5 -10 25.5s-6.66699 22.167 -8 27.5c39.333 19.333 83 34 131 44s95.667 15 143 15c72.667 0 128.167 -17.667 166.5 -53s57.5 -94 57.5 -176v-342 c0 -48 14.333 -85.333 43 -112s68.667 -40 120 -40c28.667 0 58.5 6.5 89.5 19.5s58.667 33.5 83 61.5s44.333 64.167 60 108.5s23.5 98.5 23.5 162.5c0 95.333 -15 180.333 -45 255s-72.667 137.334 -128 188.001s-121.833 88.834 -199.5 114.501s-163.5 38.5 -257.5 38.5 c-95.333 0 -185.833 -16.667 -271.5 -50s-160.834 -79.333 -225.501 -138s-115.834 -128.334 -153.501 -209.001s-56.5 -167.334 -56.5 -260.001c0 -95.333 16.333 -183.333 49 -264s78 -150.334 136 -209.001s126.667 -104.334 206 -137.001s164.666 -49 255.999 -49 c38 0 75.833 2.33301 113.5 7s79.167 14.334 124.5 29.001l18 -55c-32.667 -10.667 -71.167 -20.5 -115.5 -29.5s-88.5 -13.5 -132.5 -13.5c-105.333 0 -201.5 17.833 -288.5 53.5s-162.667 85.167 -227 148.5s-114.166 139 -149.499 227s-53 184 -53 288zM657.006 551.001 c0 -46.667 12.334 -85 37.001 -115s65 -45 121 -45c38 0 79 8.83301 123 26.5s86.333 44.5 127 80.5v229l-231 -18c-50.667 -2.66699 -92.834 -17.667 -126.501 -45s-50.5 -65 -50.5 -113z"/>
    <glyph glyph-name="A" unicode="A" horiz-adv-x="1093" d="M35 0l452 1397h117l453 -1397h-92l-64 195.5l-63 195.5h-588c-22 -65.333 -42.833 -130.5 -62.5 -195.5l-60.5 -195.5h-92zM274 465h541l-182 573l-43.5 137.5l-42.5 139.5h-6c-27.333 -94 -56 -186.333 -86 -277z"/>
    <glyph glyph-name="B" unicode="B" horiz-adv-x="1167" d="M164 0l-0.000976562 1397h444c66.667 0 124.667 -8.5 174 -25.5s90.333 -41 123 -72s57.334 -67.667 74.001 -110s25 -88.5 25 -138.5c0 -23.333 -2.16699 -49 -6.5 -77s-13.666 -56.333 -27.999 -85s-34.5 -56.334 -60.5 -83.001s-61.333 -50.334 -106 -71.001v-10 c49.333 -15.333 89.666 -36.5 120.999 -63.5s56.166 -57 74.499 -90s31.333 -67.167 39 -102.5s11.5 -68 11.5 -98c0 -56 -9.66699 -106.833 -29 -152.5s-45.666 -84.667 -78.999 -117s-72.5 -57.333 -117.5 -75s-92.833 -26.5 -143.5 -26.5h-516zM253.999 74.002 l394.998 -0.000976562c54.667 0 101.834 8.5 141.501 25.5s71.834 39.5 96.501 67.5s42.667 60.833 54 98.5s17 76.834 17 117.501c0 39.333 -7.5 77.5 -22.5 114.5s-36.5 69.5 -64.5 97.5s-61 50.5 -99 67.5s-80.333 25.5 -127 25.5h-391v-614zM253.997 764.001 l358 0.00292969c90 0 162.667 25.167 218 75.5s83 117.166 83 200.499c0 40.667 -6 78.167 -18 112.5s-31 64.166 -57 89.499s-59.167 45.166 -99.5 59.499s-88.5 21.5 -144.5 21.5h-340v-559z"/>
    <glyph glyph-name="C" unicode="C" horiz-adv-x="1136" d="M123 690c0 75.333 7.83105 155.669 23.498 241.002s44.334 164.166 86.001 236.499s99.334 132.333 173.001 180s168.5 71.5 284.5 71.5c74 0 140.667 -5 200 -15s108 -22.667 146 -38l-22 -72c-52 16.667 -105.667 29 -161 37s-107 12 -155 12 c-84.667 0 -157.334 -15.667 -218.001 -47s-110.834 -75.666 -150.501 -132.999s-68.667 -126.166 -87 -206.499s-27.5 -170.5 -27.5 -270.5c0 -79.333 5.83301 -156.5 17.5 -231.5s34.5 -141.5 68.5 -199.5s82.833 -104.833 146.5 -140.5s146.5 -53.5 248.5 -53.5 c18 0 41 1.16699 69 3.5s57.667 5.16602 89 8.49902s63.333 8 96 14s62.667 13.333 90 22l21 -66c-23.333 -8 -50.666 -15.833 -81.999 -23.5s-64.166 -13.834 -98.499 -18.501s-68.5 -8.33398 -102.5 -11.001s-66 -4 -96 -4c-102.667 0 -189.5 16.333 -260.5 49 s-128.667 79.667 -173 141s-76.333 135.333 -96 222s-29.5 184 -29.5 292z"/>
    <glyph glyph-name="D" unicode="D" horiz-adv-x="1249" d="M164 0l0.000976562 1399h416c108 0 197 -18.833 267 -56.5s125.833 -88.167 167.5 -151.5s70.667 -137.333 87 -222s24.5 -173.667 24.5 -267c0 -96.667 -8.83301 -187.334 -26.5 -272.001s-48.334 -159 -92.001 -223s-102 -114.5 -175 -151.5 s-164.833 -55.5 -275.5 -55.5h-393zM254.001 76.001l289.001 0.00195312c20.667 0 47 1 79 3s66 8.5 102 19.5s72.5 28.667 109.5 53s70.5 59.166 100.5 104.499s54.167 102.666 72.5 171.999s27.5 155.333 27.5 258c0 104 -8.5 192.167 -25.5 264.5s-39.167 132 -66.5 179 s-58.333 83.833 -93 110.5s-69.834 46.167 -105.501 58.5s-69.5 19.833 -101.5 22.5s-59.667 4 -83 4h-305v-1249z"/>
    <glyph glyph-name="E" unicode="E" horiz-adv-x="1048" d="M164 0v1399h776v-74h-686v-547h594v-73h-594v-631h721v-74h-811z"/>
    <glyph glyph-name="F" unicode="F" horiz-adv-x="991" d="M164 0v1399h774v-76h-684v-547h590v-76h-590v-700h-90z"/>
    <glyph glyph-name="G" unicode="G" horiz-adv-x="1222" d="M123 690c0 75.333 8.83008 155.667 26.4971 241s49 164.166 94 236.499s105.833 132.333 182.5 180s174.334 71.5 293.001 71.5c72.667 0 140 -5 202 -15s112 -22.667 150 -38l-18 -70c-56 15.333 -112.667 27 -170 35s-110 12 -158 12 c-86 0 -161.167 -15.667 -225.5 -47s-117.666 -75.666 -159.999 -132.999s-73.666 -126.5 -93.999 -207.5s-30.5 -171.5 -30.5 -271.5c0 -79.333 6.16699 -156.166 18.5 -230.499s35.833 -140.5 70.5 -198.5s83.834 -104.5 147.501 -139.5s147.167 -52.5 250.5 -52.5 c19.333 0 41.666 1.16699 66.999 3.5s51.333 5.16602 78 8.49902s52.667 7.33301 78 12s47.333 10.334 66 17.001v596h88v-657c-65.333 -20.667 -130.833 -35.334 -196.5 -44.001s-131.167 -13 -196.5 -13c-102.667 0 -189.834 16.333 -261.501 49s-129.667 79.667 -174 141 s-76.666 135.333 -96.999 222s-30.5 184 -30.5 292z"/>
    <glyph glyph-name="H" unicode="H" horiz-adv-x="1249" d="M164 0v1399h92v-621h737v621h92v-1399h-92v700h-737v-700h-92z"/>
    <glyph glyph-name="I" unicode="I" horiz-adv-x="456" d="M184 0v1399h88v-1399h-88z"/>
    <glyph glyph-name="J" unicode="J" horiz-adv-x="548" d="M-84 -299c60 35.333 111.503 69.834 154.503 103.501s78.167 70.5 105.5 110.5s47.5 84.667 60.5 134s19.5 107.333 19.5 174v1176h88v-1172c0 -80.667 -8.83301 -151.334 -26.5 -212.001s-43.334 -114.5 -77.001 -161.5s-75.334 -88 -125.001 -123 s-105.834 -67.5 -168.501 -97.5z"/>
    <glyph glyph-name="K" unicode="K" horiz-adv-x="1091" d="M164 0v1399h90v-697l682 697h113l-555 -561l563 -838h-103l-520 772l-180 -180v-592h-90z"/>
    <glyph glyph-name="L" unicode="L" horiz-adv-x="1079" d="M201 0v1399h90l2 -1325h751v-74h-843z"/>
    <glyph glyph-name="M" unicode="M" horiz-adv-x="1593" d="M164 0v1397h100l221.5 -490.5l221.5 -492.5l86 -199h8l90 201l219 487l110.5 248l112.5 246h94v-1397h-86c0 202 -0.333008 403.333 -1 604s-1 402.667 -1 606h-6l-78 -174l-413 -913h-92l-412 905l-82 189h-6v-1217h-86z"/>
    <glyph glyph-name="N" unicode="N" horiz-adv-x="1318" d="M164 0l-0.00195312 1399h94l662 -1026l137 -215h8v1241h90l-2 -1399h-88l-653 1010l-152 243c-1.33301 0 -2.66602 -0.333008 -3.99902 -1s-2.66602 -1 -3.99902 -1v-1251h-88z"/>
    <glyph glyph-name="O" unicode="O" horiz-adv-x="1357" d="M123 686c0 95.333 9.50293 187.169 28.5029 275.502s50.333 166.166 94 233.499s102 121.5 175 162.5s163.5 61.5 271.5 61.5c109.333 0 199.166 -20.5 269.499 -61.5s125.666 -95.167 165.999 -162.5s68.333 -144.833 84 -232.5s23.5 -177.834 23.5 -270.501 c0 -101.333 -11.333 -194.5 -34 -279.5s-56.834 -159 -102.501 -222s-102.334 -112.5 -170.001 -148.5s-146.5 -54.667 -236.5 -56c-105.333 0 -194.166 16 -266.499 48s-131 78.333 -176 139s-77.333 134 -97 220s-29.5 183.667 -29.5 293zM215.003 682.003 c0 -203.333 36.833 -358.333 110.5 -465s192.5 -160 356.5 -160c78 0 146 16.5 204 49.5s105.667 78.167 143 135.5s65.333 124.166 84 200.499s28 157.5 28 243.5c0 72.667 -5.5 147.834 -16.5 225.501s-32.167 149 -63.5 214s-76.666 118.333 -135.999 160 s-137 62.5 -233 62.5c-96.667 0 -175.834 -19.167 -237.501 -57.5s-110.167 -89 -145.5 -152s-59.833 -134 -73.5 -213s-20.5 -160.167 -20.5 -243.5z"/>
    <glyph glyph-name="P" unicode="P" horiz-adv-x="1040" d="M164 0l-0.00195312 1399h418c56 0 108.833 -7.83301 158.5 -23.5s93 -39.667 130 -72s66 -73 87 -122s31.5 -106.833 31.5 -173.5c0 -40.667 -5.5 -85 -16.5 -133s-31.167 -92.167 -60.5 -132.5s-69.166 -74.166 -119.499 -101.499s-115.166 -41 -194.499 -41h-344 l2 -600h-92zM253.998 673.999h338.001c36.667 0 73.167 5.16699 109.5 15.5s69.166 28 98.499 53s52.833 58.333 70.5 100s26.5 94.5 26.5 158.5c0 54.667 -8.16699 102.5 -24.5 143.5s-38.5 74.833 -66.5 101.5s-60.833 46.5 -98.5 59.5s-78.167 19.5 -121.5 19.5h-332 v-651z"/>
    <glyph glyph-name="Q" unicode="Q" horiz-adv-x="1357" d="M123 686c0 95.333 9.50195 187.172 28.502 275.505s50.333 166.166 94 233.499s102 121.5 175 162.5s163.5 61.5 271.5 61.5c109.333 0 199.166 -20.5 269.499 -61.5s125.666 -95.167 165.999 -162.5s68.333 -144.833 84 -232.5s23.5 -177.834 23.5 -270.501 c0 -82 -7.5 -159.5 -22.5 -232.5s-37.833 -138.5 -68.5 -196.5s-68.5 -108.167 -113.5 -150.5s-97.833 -74.5 -158.5 -96.5l349 -88l-35 -92l-46 15.5c-22.667 7.66699 -49.334 16.167 -80.001 25.5l-98.5 31.5l-98.5 32l-80.5 25.5 c-23 7.33301 -38.167 12.666 -45.5 15.999c-6.66699 1.33301 -14.167 1.66602 -22.5 0.999023s-15.833 -0.333984 -22.5 0.999023c-105.333 1.33301 -194.166 18.333 -266.499 51s-131 79 -176 139s-77.333 133 -97 219s-29.5 183.667 -29.5 293zM215.002 682.006 c0 -203.333 36.833 -358.334 110.5 -465.001s192.5 -160 356.5 -160c78 0 146 16.5 204 49.5s105.667 78.167 143 135.5s65.333 124.166 84 200.499s28 157.5 28 243.5c0 72.667 -5.5 147.834 -16.5 225.501s-32.167 148.667 -63.5 213s-76.666 117.333 -135.999 159 s-137 62.5 -233 62.5c-96.667 0 -175.834 -19.167 -237.501 -57.5s-110.167 -88.666 -145.5 -150.999s-59.833 -133.333 -73.5 -213s-20.5 -160.5 -20.5 -242.5z"/>
    <glyph glyph-name="R" unicode="R" horiz-adv-x="1124" d="M164 0l-0.00292969 1399h418c72.667 0 134.834 -9.66699 186.501 -29s93.834 -45.666 126.501 -78.999s56.834 -72.5 72.501 -117.5s23.5 -92.833 23.5 -143.5c0 -38 -4.66699 -76.833 -14 -116.5s-24.333 -76.167 -45 -109.5s-47 -62.666 -79 -87.999 s-70.667 -43.333 -116 -54c57.333 -18 100 -47.5 128 -88.5s50.333 -90.167 67 -147.5l123 -426h-92l-119 410c-15.333 46.667 -32.833 84.5 -52.5 113.5s-42.167 52 -67.5 69s-53 29 -83 36s-61.333 10.5 -94 10.5h-293v-639h-90zM253.997 712.998h332.001 c94 0 169.667 24.833 227 74.5s86 128.5 86 236.5c0 50.667 -7.83301 94.667 -23.5 132s-37.834 68.333 -66.501 93s-62.5 43.167 -101.5 55.5s-81.5 18.5 -127.5 18.5h-326v-610z"/>
    <glyph glyph-name="S" unicode="S" horiz-adv-x="1089" d="M88 86l33 70.0078c76.667 -38 146.667 -63.333 210 -76s123.666 -19 180.999 -19c125.333 0 222.833 23.667 292.5 71s104.5 127.666 104.5 240.999c0 49.333 -8.83301 90.666 -26.5 123.999s-41.834 61.166 -72.501 83.499s-67.167 41 -109.5 56 s-88.833 29.5 -139.5 43.5c-60 15.333 -116.667 31.833 -170 49.5s-100.5 39.834 -141.5 66.501s-73.333 59.667 -97 99s-35.5 89 -35.5 149s10.5 113.667 31.5 161s51 87 90 119s85.167 56.167 138.5 72.5s112 24.5 176 24.5c46.667 0 102 -4 166 -12s126.667 -25 188 -51 l-28 -74c-69.333 23.333 -130.833 39 -184.5 47s-104.167 12 -151.5 12c-48 0 -92.167 -6 -132.5 -18s-75.5 -30.333 -105.5 -55s-53.167 -55.834 -69.5 -93.501s-24.5 -81.834 -24.5 -132.501c0 -45.333 10.167 -82.833 30.5 -112.5s47.333 -54.834 81 -75.501 s72 -37.834 115 -51.501s86.833 -26.5 131.5 -38.5c50.667 -13.333 101.667 -28.333 153 -45s97.833 -39.334 139.5 -68.001s75.334 -65.167 101.001 -109.5s38.5 -101.833 38.5 -172.5c0 -69.333 -12.5 -128.333 -37.5 -177s-59.333 -88.334 -103 -119.001 s-95 -53.167 -154 -67.5s-121.833 -21.5 -188.5 -21.5c-72.667 0 -147.167 7.83301 -223.5 23.5s-145.166 41.167 -206.499 76.5z"/>
    <glyph glyph-name="T" unicode="T" horiz-adv-x="1064" d="M39 1323v76h985v-76h-446l-3 -1323h-86v1323h-450z"/>
    <glyph glyph-name="U" unicode="U" horiz-adv-x="1325" d="M160 494l0.000976562 904.999h86l2 -901c0 -292 138 -438.333 414 -439c136.667 0 240 37 310 111s105 183.333 105 328v901h90v-905c0 -75.333 -10.5 -144 -31.5 -206s-52.333 -115.667 -94 -161s-94.334 -80.166 -158.001 -104.499s-138.5 -36.5 -224.5 -36.5 c-174.667 0 -301.5 45 -380.5 135s-118.5 214.333 -118.5 373z"/>
    <glyph glyph-name="V" unicode="V" horiz-adv-x="1050" d="M35 1399h94l315 -1039l78 -268h8l80 275l316 1032h90l-434 -1399h-113z"/>
    <glyph glyph-name="W" unicode="W" horiz-adv-x="1615" d="M35 1397l88.002 -0.000976562l34.5 -146.5l56.5 -237.5l66.5 -282.5l65.5 -277.5l53.5 -225.5c15 -64.333 24.5 -106.166 28.5 -125.499h8l96 414l209 881h93l56.5 -208l63 -234.5l63.5 -232.5l56 -204c1.33301 -6.66699 5.16602 -20.667 11.499 -42 s13.166 -46 20.499 -74l24.5 -90c9 -32 17.167 -62.333 24.5 -91l19.5 -75.5c5.66699 -21.667 9.16699 -36.167 10.5 -43.5h8l50.5 212c17 70.667 32.833 142 47.5 214l102.5 434.5l102.5 434.5h86l-170 -706.5l-168 -690.5h-113l-114.5 428l-116.5 432l-52.5 198.5 l-53.5 198.5h-11l-92 -397l-89 -374l-112 -486h-116z"/>
    <glyph glyph-name="X" unicode="X" horiz-adv-x="1046" d="M33 0l436 723l-408 674h99l362 -606l365 606h96l-204.5 -338l-205.5 -338l219.5 -361.5l219.5 -359.5h-101l-391 653l-391 -653h-96z"/>
    <glyph glyph-name="Y" unicode="Y" horiz-adv-x="980" d="M27 1399h98l233 -443l121 -239h8l121 227l248 455h96l-422 -760v-639h-92v633z"/>
    <glyph glyph-name="Z" unicode="Z" horiz-adv-x="991" d="M35 0v78l782 1245h-733v76h838v-78l-781 -1243h815v-78h-921z"/>
    <glyph glyph-name="bracketleft" unicode="[" horiz-adv-x="481" d="M123 -328v1753h283v-73h-197v-1606h197v-74h-283z"/>
    <glyph glyph-name="backslash" unicode="\" horiz-adv-x="645" d="M18 1430h68l530 -1483h-69z"/>
    <glyph glyph-name="bracketright" unicode="]" horiz-adv-x="481" d="M80 -254h196v1606h-196v73h280v-1753h-280v74z"/>
    <glyph glyph-name="asciicircum" unicode="^" horiz-adv-x="866" d="M55 813c5.33301 10.667 17.333 30.833 36 60.5l62.5 104.5l74.5 126.5l75 127l61.5 104.5c17.667 29.333 29.167 49.666 34.5 60.999h74l33.5 -59.5l59.5 -106l73 -127l72.5 -126.5l59.5 -105.5c17.333 -30.333 29.333 -50.166 36 -59.499h-80l-295 512l-293 -512h-84z "/>
    <glyph glyph-name="underscore" unicode="_" horiz-adv-x="1024" d="M0 -184h1024v-60h-1024v60z"/>
    <glyph glyph-name="grave" unicode="`" horiz-adv-x="966" d="M272 1397l76 65l219 -303l-45 -37z"/>
    <glyph glyph-name="a" unicode="a" horiz-adv-x="1007" d="M82 260c0 46.667 8.49609 87.332 25.4961 121.999s40.5 64 70.5 88s66.167 42.5 108.5 55.5s88.833 20.833 139.5 23.5c8 0 26.333 1 55 3s59.834 3.66699 93.501 5s64.834 2.66602 93.501 3.99902s46.334 2 53.001 2v92c0 50.667 -3.5 93.834 -10.5 129.501 s-19.667 64.667 -38 87s-42.833 38.666 -73.5 48.999s-69.334 15.5 -116.001 15.5c-50.667 0 -102.5 -5.83301 -155.5 -17.5s-104.833 -27.167 -155.5 -46.5l-22 62c57.333 23.333 116.666 41.5 177.999 54.5s119.333 19.5 174 19.5c98 0 173 -24.333 225 -73 s78 -131.667 78 -249v-614h135c2.66699 -8 4 -16.5 4 -25.5s0.666992 -17.833 2 -26.5c-23.333 -10.667 -47.166 -18 -71.499 -22s-46.166 -6 -65.499 -6c-39.333 0 -64.166 9.83301 -74.499 29.5s-15.5 50.834 -15.5 93.501l-4 2c-44 -32.667 -84 -58 -120 -76 s-69 -30.667 -99 -38s-56.333 -11.666 -79 -12.999s-42.334 -2 -59.001 -2c-54.667 0 -99.667 8.5 -135 25.5s-63.666 38.833 -84.999 65.5s-36 56 -44 88s-12 63 -12 93zM169.996 269.998c0 -143.333 75 -215.001 225 -215.001c50.667 0 103 12.667 157 38 s110.333 62 169 110v297l-299 -17c-82 -4 -144.5 -24.667 -187.5 -62s-64.5 -87.666 -64.5 -150.999z"/>
    <glyph glyph-name="b" unicode="b" horiz-adv-x="989" d="M121 66v1386h84v-344v-41c0 -16.667 -0.333008 -34.167 -1 -52.5s-1 -36 -1 -53v-41.5l4 -5c69.333 35.333 129.333 60.333 180 75s98.334 22 143.001 22c69.333 0 127 -13.333 173 -40s83 -63.167 111 -109.5s47.5 -101.333 58.5 -165s16.5 -133.167 16.5 -208.5 c0 -69.333 -6.83301 -134.333 -20.5 -195s-35.834 -113.834 -66.501 -159.501s-71.667 -81.5 -123 -107.5s-113.666 -39 -186.999 -39c-70.667 0 -136.834 7.16699 -198.501 21.5s-119.167 33.166 -172.5 56.499zM205 115.002c52 -22 101.5 -37.167 148.5 -45.5 s90.833 -12.5 131.5 -12.5c98 0 175.5 32.5 232.5 97.5s85.5 175.167 85.5 330.5c0 87.333 -6.5 160.5 -19.5 219.5s-31.833 105.833 -56.5 140.5s-54.167 59.167 -88.5 73.5s-72.5 21.5 -114.5 21.5c-56 0 -112.333 -11 -169 -33s-106.667 -45 -150 -69v-723z"/>
    <glyph glyph-name="c" unicode="c" horiz-adv-x="899" d="M100 481c0 50.667 5.50098 106.668 16.501 168.001s31.833 119 62.5 173s73.667 99.167 129 135.5s127.333 54.5 216 54.5c48 0 95.833 -3.83301 143.5 -11.5s92.167 -20.167 133.5 -37.5l-25 -68c-50.667 19.333 -96.334 31.666 -137.001 36.999s-77 8 -109 8 c-58.667 0 -109.5 -11 -152.5 -33s-78.5 -53 -106.5 -93s-48.833 -88.167 -62.5 -144.5s-20.5 -118.5 -20.5 -186.5c0 -57.333 5.16699 -111.833 15.5 -163.5s27.833 -97 52.5 -136s57.5 -69.833 98.5 -92.5s92.833 -34 155.5 -34c56 0 106.5 5.83301 151.5 17.5 s95.5 29.167 151.5 52.5l23 -61c-39.333 -22 -87.5 -40.833 -144.5 -56.5s-117.5 -23.5 -181.5 -23.5c-75.333 0 -138.833 12.167 -190.5 36.5s-94 58.833 -127 103.5s-56.667 97 -71 157s-21.5 126 -21.5 198z"/>
    <glyph glyph-name="d" unicode="d" horiz-adv-x="991" d="M100 475c0 75.333 6.83203 145.667 20.499 211s35.834 122 66.501 170s70.667 85.667 120 113s108.666 41 177.999 41c39.333 0 85.333 -5.83301 138 -17.5s106.334 -33.167 161.001 -64.5v522h82v-1450h-82v106c-1.33301 0 -2 0.5 -2 1.5s-0.666992 1.5 -2 1.5 c-46.667 -36.667 -97.834 -66 -153.501 -88s-112.167 -33 -169.5 -33c-66.667 0 -123 12.5 -169 37.5s-82.667 59.5 -110 103.5s-47.166 95.667 -59.499 155s-18.5 123 -18.5 191zM187.999 473.001c0 -79.333 6.83691 -145.501 20.5039 -198.501s33.167 -95.667 58.5 -128 s56.166 -55.333 92.499 -69s76.166 -20.5 119.499 -20.5c24.667 0 51 3.5 79 10.5s55.667 16.667 83 29s53.666 26.333 78.999 42s46.666 32.167 63.999 49.5v662c-35.333 22 -79.333 41.833 -132 59.5s-106 26.5 -160 26.5c-42 0 -81.667 -7.83301 -119 -23.5 s-69.5 -41.667 -96.5 -78s-48.5 -84.166 -64.5 -143.499s-24 -132 -24 -218z"/>
    <glyph glyph-name="e" unicode="e" horiz-adv-x="972" d="M100 492c0 39.333 4.50293 88.335 13.5029 147.002s27.5 115.667 55.5 171s69 102.5 123 141.5s126 58.5 216 58.5c64 0 117.5 -9.66699 160.5 -29s78.167 -44 105.5 -74s48.166 -63.333 62.499 -100s24.666 -72.834 30.999 -108.501s9.83301 -68.167 10.5 -97.5 s1 -52.333 1 -69v-47h-691c0 -57.333 4.5 -111.5 13.5 -162.5s25.5 -96.333 49.5 -136s56.833 -71.167 98.5 -94.5s94.5 -35 158.5 -35c60 0 113.833 5.83301 161.5 17.5s99.5 31.5 155.5 59.5l25 -60c-56 -30 -110.667 -52.167 -164 -66.5s-112 -21.5 -176 -21.5 c-82 0 -149.667 13.333 -203 40s-95.333 63.167 -126 109.5s-51.834 100.166 -63.501 161.499s-17.5 126.333 -17.5 195zM190.003 551.002h605c0 57.333 -4.83301 109.833 -14.5 157.5s-25.5 89 -47.5 124s-51.333 62.333 -88 82s-82.334 29.5 -137.001 29.5 c-57.333 0 -105.166 -10.833 -143.499 -32.5s-69.833 -51 -94.5 -88s-43 -79 -55 -126s-20.333 -95.833 -25 -146.5z"/>
    <glyph glyph-name="f" unicode="f" horiz-adv-x="655" d="M76 928l0.00195312 49l141 27v184c0 98 25.333 169.5 76 214.5s121.667 67.5 213 67.5c23.333 0 49.666 -1.33301 78.999 -4s57.666 -7.33398 84.999 -14.001l-13 -63c-22 2.66699 -45.5 5.33398 -70.5 8.00098s-47.167 4 -66.5 4c-75.333 0 -131 -15.333 -167 -46 s-54 -85 -54 -163v-195h299v-69h-299l-2 -928h-80v928h-141z"/>
    <glyph glyph-name="g" unicode="g" horiz-adv-x="1036" d="M92 -156c0 58.667 13.333 111.333 40 158s57 80.667 91 102c-44 5.33301 -75.833 19.666 -95.5 42.999s-29.5 53 -29.5 89c0 30 5.83301 54.5 17.5 73.5s26.334 34.333 44.001 46s37.167 19.834 58.5 24.501s42.333 7.66699 63 9l2 4 c-40.667 19.333 -76.167 52.5 -106.5 99.5s-45.5 106.167 -45.5 177.5c0 61.333 11 113.833 33 157.5s50.333 79.167 85 106.5s73.5 47.166 116.5 59.499s85.833 18.5 128.5 18.5c28.667 0 58 -1.33301 88 -4s59.333 -9 88 -19h299v-65h-185l-2 -6 c35.333 -27.333 61.333 -62.5 78 -105.5s25 -88.5 25 -136.5c0 -106.667 -35.833 -189.334 -107.5 -248.001s-166.834 -88 -285.501 -88h-123c-26 0 -50.667 -1 -74 -3s-43.5 -6.5 -60.5 -13.5s-30.667 -16.167 -41 -27.5s-15.5 -27.333 -15.5 -48 c0 -57.333 43.667 -86 131 -86h281c122.667 0 211.667 -25.667 267 -77s83 -120.666 83 -207.999c0 -52 -11.333 -97.667 -34 -137s-53.667 -73 -93 -101s-86.333 -49.167 -141 -63.5s-114 -21.5 -178 -21.5c-78 0 -143 8.16699 -195 24.5s-93.333 37.833 -124 64.5 s-52.167 57.334 -64.5 92.001s-18.5 71 -18.5 109zM176 -137.001c0 -31.333 4.5 -61.333 13.5 -90s25.667 -54.334 50 -77.001s57.666 -40.5 99.999 -53.5s97.833 -19.5 166.5 -19.5c50.667 0 97.5 5.83301 140.5 17.5s79.833 28 110.5 49s54.834 47.333 72.501 79 s26.5 67.167 26.5 106.5c0 24.667 -3 49.667 -9 75s-19 48.833 -39 70.5s-48.333 39.334 -85 53.001s-85 20.5 -145 20.5h-254c-23.333 -9.33301 -44.333 -22.5 -63 -39.5s-34 -36.167 -46 -57.5s-21.5 -43.5 -28.5 -66.5s-10.5 -45.5 -10.5 -67.5zM215 671.999 c0 -79.333 24.499 -143.167 73.499 -191.5s112.5 -72.5 190.5 -72.5c96.667 0 174.5 22.167 233.5 66.5s88.5 111.5 88.5 201.5c0 28.667 -4.83301 59 -14.5 91s-25.667 61 -48 87s-52.666 47.5 -90.999 64.5s-85.5 25.5 -141.5 25.5c-94 0 -166 -24.5 -216 -73.5 s-75 -115.167 -75 -198.5z"/>
    <glyph glyph-name="h" unicode="h" horiz-adv-x="974" d="M121 0v1452h84v-293v-59.5c0 -23 -0.333008 -46.5 -1 -70.5l-2 -69.5c-0.666992 -22.333 -1 -41.833 -1 -58.5l8 -6c69.333 36.667 137.166 65.334 203.499 86.001s123.5 31 171.5 31c65.333 0 116.166 -10 152.499 -30s63.333 -44.667 81 -74 s28.167 -61.666 31.5 -96.999s5 -69.333 5 -102v-709h-86v678c0 38 -2 73 -6 105s-12.833 59.667 -26.5 83s-34.167 41.166 -61.5 53.499s-63.666 18.5 -108.999 18.5c-57.333 0 -118.666 -12.333 -183.999 -37s-124 -51.334 -176 -80.001v-821h-84z"/>
    <glyph glyph-name="i" unicode="i" horiz-adv-x="425" d="M145 1249c0 19.333 6.5 35.833 19.5 49.5s28.5 20.5 46.5 20.5c19.333 0 35.833 -6.83301 49.5 -20.5s20.5 -30.167 20.5 -49.5c0 -18 -6.83301 -33.333 -20.5 -46s-30.167 -19 -49.5 -19c-18 0 -33.5 6.5 -46.5 19.5s-19.5 28.167 -19.5 45.5zM170 0l2 997h82v-997h-84z "/>
    <glyph glyph-name="j" unicode="j" horiz-adv-x="442" d="M-53 -381c49.333 26 89.333 51.667 120 77s54.834 51.666 72.501 78.999s29.834 57 36.501 89s10 69 10 111l-2 1022h84v-1007c-1.33301 -56 -6.33301 -105.167 -15 -147.5s-24.334 -80.333 -47.001 -114s-52.834 -64 -90.501 -91s-85.167 -52.833 -142.5 -77.5 c-2.66699 6.66699 -7 16.834 -13 30.501s-10.333 23.167 -13 28.5zM160 1249c0 19.333 6.5 35.833 19.5 49.5s28.167 20.5 45.5 20.5c19.333 0 35.833 -6.83301 49.5 -20.5s20.5 -30.167 20.5 -49.5c0 -18 -6.83301 -33.333 -20.5 -46s-30.167 -19 -49.5 -19 c-18 0 -33.333 6.33301 -46 19s-19 28 -19 46z"/>
    <glyph glyph-name="k" unicode="k" horiz-adv-x="849" d="M121 0l-0.000976562 1450h84v-672l-4 -262c2.66699 0 4.33398 -0.333008 5.00098 -1s1.66699 -1 3 -1l147 145l342 336h103l-395 -387l61 -82c8 -10.667 21.333 -29.667 40 -57l63.5 -94l74.5 -111.5l75 -112l63.5 -94.5c18.333 -27.333 31.5 -46.333 39.5 -57h-96 l-189.5 277.5l-187.5 279.5c-23.333 -24.667 -47.5 -48.834 -72.5 -72.501s-49.167 -47.834 -72.5 -72.501v-412h-84z"/>
    <glyph glyph-name="l" unicode="l" horiz-adv-x="391" d="M152 0v1452h86v-1452h-86z"/>
    <glyph glyph-name="m" unicode="m" horiz-adv-x="1587" d="M123 0l0.000976562 997h80c0 -12 0.333008 -28.167 1 -48.5s1 -36.166 1 -47.499c1.33301 0 2.66602 -0.666992 3.99902 -2s2.66602 -2 3.99902 -2c64 36.667 127.167 65 189.5 85s117.833 30 166.5 30c69.333 0 122.833 -11.667 160.5 -35 s64.834 -54.666 81.501 -93.999c75.333 44 145 76.5 209 97.5s120.667 31.5 170 31.5c64 0 114.167 -9 150.5 -27s63.666 -41 81.999 -69s29.833 -58.667 34.5 -92s7 -65.666 7 -96.999v-727h-84v676c0 39.333 -1.66699 75 -5 107s-11.833 59.667 -25.5 83 s-34.167 41.166 -61.5 53.499s-64.666 18.5 -111.999 18.5c-27.333 0 -56.5 -3.33301 -87.5 -10s-61.833 -15.834 -92.5 -27.501s-60.334 -24.334 -89.001 -38.001s-55.334 -27.5 -80.001 -41.5c2.66699 -18 4.83398 -35.833 6.50098 -53.5s2.5 -33.834 2.5 -48.501v-719 h-86v686c0 38 -2.16699 72.5 -6.5 103.5s-13.333 57.333 -27 79s-33.5 38.334 -59.5 50.001s-60.667 17.5 -104 17.5c-57.333 0 -116.666 -12 -177.999 -36s-117.333 -50.333 -168 -79v-821h-84z"/>
    <glyph glyph-name="n" unicode="n" horiz-adv-x="974" d="M123 0l0.000976562 997.004h82c0 -12 0.333008 -27.833 1 -47.5s1 -35.834 1 -48.501c0 -1.33301 0.666992 -2 2 -2s2 -0.333008 2 -1s0.666992 -1 2 -1c64 36.667 129.833 65 197.5 85s125.5 30 173.5 30c62.667 0 112 -8.5 148 -25.5s63 -39.167 81 -66.5 s29.333 -57.833 34 -91.5s7 -66.167 7 -97.5v-731h-86v676c0 39.333 -1.33301 75 -4 107s-10.5 59.667 -23.5 83s-33.167 41.166 -60.5 53.499s-65 18.5 -113 18.5c-27.333 0 -57 -3.33301 -89 -10s-63.667 -15.834 -95 -27.501s-62.333 -24.334 -93 -38.001 s-58.334 -27.5 -83.001 -41.5v-821h-84z"/>
    <glyph glyph-name="o" unicode="o" horiz-adv-x="1007" d="M100 487c0 64 7.16797 127.167 21.501 189.5s38 118.166 71 167.499s75.667 89.333 128 120s116.833 46 193.5 46c78 0 142.5 -15 193.5 -45s91.167 -69.667 120.5 -119s49.833 -105 61.5 -167s17.5 -124.333 17.5 -187c0 -61.333 -5.83301 -122.166 -17.5 -182.499 s-32.834 -114.333 -63.501 -162s-72.167 -86.5 -124.5 -116.5s-118.833 -45 -199.5 -45c-78 0 -143 14 -195 42s-93.333 65.167 -124 111.5s-52.167 99.5 -64.5 159.5s-18.5 122.667 -18.5 188zM188.001 485c0 -56 4.17285 -109.498 12.5059 -160.498 s24.166 -96.333 47.499 -136s56.166 -71.5 98.499 -95.5s98.166 -36 167.499 -36c62.667 0 114.167 13 154.5 39s71.833 59.833 94.5 101.5s38 88 46 139s12 101.167 12 150.5s-3.66699 100.666 -11 153.999s-22.333 102.166 -45 146.499s-53.834 80.833 -93.501 109.5 s-92.167 43 -157.5 43s-118.833 -13.667 -160.5 -41s-74.834 -62.5 -99.501 -105.5s-41.834 -91.833 -51.501 -146.5s-14.5 -108.667 -14.5 -162z"/>
    <glyph glyph-name="p" unicode="p" horiz-adv-x="989" d="M121 -432l0.00195312 1429h78c0 -13.333 0.333008 -31 1 -53s1 -39 1 -51l6 -6c48 36.667 99.5 66.334 154.5 89.001s111.167 34 168.5 34c66.667 0 123 -12.667 169 -38s82.667 -60.166 110 -104.499s47.166 -96.166 59.499 -155.499s18.5 -124 18.5 -194 c0 -75.333 -6.83301 -145 -20.5 -209s-35.834 -119.833 -66.501 -167.5s-70.667 -85.167 -120 -112.5s-108.666 -41 -177.999 -41c-39.333 0 -85.333 5.33301 -138 16s-106.334 32 -161.001 64v-500h-82zM203.002 144.997c35.333 -23.333 79.3281 -43.833 131.995 -61.5 s106.334 -26.5 161.001 -26.5c42 0 81.5 7.83301 118.5 23.5s69.167 42 96.5 79s48.833 85.167 64.5 144.5s23.5 132 23.5 218c0 78 -6.83301 143.667 -20.5 197s-33.167 96 -58.5 128s-56.166 54.833 -92.499 68.5s-76.166 20.5 -119.499 20.5 c-24.667 0 -51 -3.5 -79 -10.5s-55.667 -16.5 -83 -28.5s-53.666 -26 -78.999 -42s-46.666 -32.667 -63.999 -50v-660z"/>
    <glyph glyph-name="q" unicode="q" horiz-adv-x="991" d="M102 494c0 70.667 6.83203 137.334 20.499 200.001s36 117.667 67 165s72 84.666 123 111.999s114.167 41 189.5 41c72.667 0 139 -7.5 199 -22.5s115.667 -34.167 167 -57.5v-1364h-82l-2 266c0 39.333 0.333008 78.833 1 118.5s1 79.5 1 119.5l-8 6 c-68 -35.333 -126.667 -59.833 -176 -73.5s-95.666 -20.5 -138.999 -20.5c-69.333 0 -127.333 12.5 -174 37.5s-83.667 60.5 -111 106.5s-46.833 100 -58.5 162s-17.5 130 -17.5 204zM185.999 508c0 -87.333 6.49902 -160 19.499 -218s31.833 -104.5 56.5 -139.5 s54.5 -60 89.5 -75s73.5 -22.5 115.5 -22.5c54.667 0 110.334 11.333 167.001 34s106.667 45.667 150 69v729c-50.667 22 -99.167 36.667 -145.5 44s-89.833 11 -130.5 11c-98 0 -175.833 -33.5 -233.5 -100.5s-87.167 -177.5 -88.5 -331.5z"/>
    <glyph glyph-name="r" unicode="r" horiz-adv-x="600" d="M143 0v996.997h86c0 -15.333 -0.666992 -37.166 -2 -65.499s-2 -50.166 -2 -65.499l8 -2c19.333 16.667 43 34.167 71 52.5s56.667 35 86 50s58 27.333 86 37s52.333 14.5 73 14.5c8 0 15.5 -2 22.5 -6s10.5 -13 10.5 -27c0 -9.33301 -2.83301 -23.666 -8.5 -42.999 s-12.5 -34.333 -20.5 -45c-8 -1.33301 -27.833 -5.83301 -59.5 -13.5l-101.5 -24.5l-101 -24.5c-31.333 -7.66699 -51.333 -12.167 -60 -13.5v-821h-88z"/>
    <glyph glyph-name="s" unicode="s" horiz-adv-x="856" d="M88 59l31.002 62.001c57.333 -28.667 110.166 -47.167 158.499 -55.5s91.166 -12.5 128.499 -12.5c39.333 0 76 4.16699 110 12.5s63.667 20.666 89 36.999s45.166 37.166 59.499 62.499s21.5 55.666 21.5 90.999c0 31.333 -7.16699 58.333 -21.5 81 s-33.166 42.5 -56.499 59.5s-50 31.333 -80 43s-60.667 22.834 -92 33.501c-40.667 13.333 -80.5 27.666 -119.5 42.999s-73.5 33.5 -103.5 54.5s-53.833 46.167 -71.5 75.5s-26.5 64.666 -26.5 105.999c0 46.667 8.5 86.334 25.5 119.001s40.5 59.167 70.5 79.5 s64.5 35.333 103.5 45s80.167 14.5 123.5 14.5c31.333 0 72.666 -3.83301 123.999 -11.5s99 -22.5 143 -44.5c-2.66699 -5.33301 -7.16699 -16.166 -13.5 -32.499s-10.833 -27.166 -13.5 -32.499c-48 19.333 -92.167 32.666 -132.5 39.999s-76.833 11 -109.5 11 c-68 0 -124.833 -15 -170.5 -45s-68.5 -78.333 -68.5 -145c0 -27.333 7.83301 -51.666 23.5 -72.999s35 -39.833 58 -55.5s48.5 -29 76.5 -40s54.333 -20.5 79 -28.5c40.667 -13.333 81.167 -27.333 121.5 -42s76.333 -32.5 108 -53.5s57 -47.5 76 -79.5s28.5 -72 28.5 -120 s-9.5 -89 -28.5 -123s-45 -62.333 -78 -85s-71.333 -39 -115 -49s-89.167 -15 -136.5 -15c-57.333 0 -114.666 5.66699 -171.999 17s-107.333 30 -150 56z"/>
    <glyph glyph-name="t" unicode="t" horiz-adv-x="655" d="M61 928l0.000976562 47.002l144 31l26 188l56 8v-205h291v-69h-291v-697c0 -24.667 2 -47.167 6 -67.5s11.5 -38 22.5 -53s26.667 -26.667 47 -35s46.166 -12.5 77.499 -12.5c49.333 0 113 11.667 191 35l16 -57c-32.667 -15.333 -68.167 -27.333 -106.5 -36 s-76.5 -13 -114.5 -13c-31.333 0 -60.666 3.66699 -87.999 11s-50.833 19.166 -70.5 35.499s-35.334 38.166 -47.001 65.499s-17.5 61 -17.5 101v723h-142z"/>
    <glyph glyph-name="u" unicode="u" horiz-adv-x="958" d="M123 281l-0.00292969 716.001h84v-686c0 -40.667 1.66699 -77 5 -109s11.833 -59.333 25.5 -82s33.834 -39.834 60.501 -51.501s63.334 -17.5 110.001 -17.5c45.333 0 100 12.333 164 37s124.667 63 182 115l-2 794h84v-997h-82v125l-6 4 c-39.333 -32.667 -76.833 -59 -112.5 -79s-69 -35 -100 -45s-58.667 -16.667 -83 -20s-44.166 -5 -59.499 -5c-68 0 -120.167 9.5 -156.5 28.5s-63 43.5 -80 73.5s-26.833 62.667 -29.5 98s-4 69 -4 101z"/>
    <glyph glyph-name="v" unicode="v" horiz-adv-x="819" d="M27 995h88l104 -326.5l107 -338.5l37.5 -127c13 -44 26.167 -86.333 39.5 -127h9l35.5 115.5l46.5 146.5l108 335l103 322h88l-171 -509.5l-165 -485.5h-105l-157.5 486.5z"/>
    <glyph glyph-name="w" unicode="w" horiz-adv-x="1363" d="M27 997h86l166 -610l77 -305h9l90 324l172 591h86l207 -651l79 -264h9l71 274l172 641h86l-280 -997h-103l-198 621l-82 272h-6l-70 -250l-188 -643h-105z"/>
    <glyph glyph-name="x" unicode="x" horiz-adv-x="800" d="M16 0l165 263l167 263l-148.5 236l-146.5 233h94l250 -407l250 407h92l-295 -465l338 -530h-96l-289 469l-288 -469h-93z"/>
    <glyph glyph-name="y" unicode="y" horiz-adv-x="858" d="M-16 -418l13.9951 67.998c42 -8 74.333 -13.833 97 -17.5s45.667 -5.5 69 -5.5c18 0 35.167 1 51.5 3s31.333 7.83301 45 17.5s26.834 24.834 39.501 45.501s25.334 49.334 38.001 86.001l72 223h-45l-34 101.5l-59.5 179l-72.5 217l-74 217l-60.5 179.5l-33.5 101h84 c2.66699 -9.33301 9.16699 -30 19.5 -62l37 -112.5l45 -137.5l45 -137.5l37.5 -112.5c10.667 -32 17.334 -52.667 20.001 -62l103 -316h8c2.66699 6.66699 7.16699 19.667 13.5 39l22.5 72l29.5 96l34.5 113l197 620h86c-4 -15.333 -12.5 -42.333 -25.5 -81l-46 -142 l-59.5 -184.5l-65.5 -204.5l-65.5 -204.5l-60.5 -183.5l-46 -142.5c-12.333 -39.667 -21.166 -66.167 -26.499 -79.5c-22 -68 -49.667 -121.833 -83 -161.5s-83 -59.5 -149 -59.5c-20.667 1.33301 -47.667 3.33301 -81 6s-73.666 10 -120.999 22z"/>
    <glyph glyph-name="z" unicode="z" horiz-adv-x="811" d="M31 0v66l616 854l-4 6h-561v71h668v-73l-613 -848l4 -8l629 2v-70h-739z"/>
    <glyph glyph-name="braceleft" unicode="{" horiz-adv-x="483" d="M63 582l-0.00488281 57.002c30 5.33301 54.333 15.833 73 31.5s32.834 34.5 42.501 56.5s16.167 45.667 19.5 71s5 50.666 5 75.999v340c0 23.333 2 48 6 74s11.5 49.667 22.5 71s26 38.833 45 52.5s43.5 20.5 73.5 20.5h80v-74h-45c-35.333 0 -60.166 -11 -74.499 -33 s-21.5 -54 -21.5 -96v-359c0 -26 -1.66699 -52.5 -5 -79.5s-9.16602 -52.167 -17.499 -75.5s-20 -44.166 -35 -62.499s-34.167 -31.833 -57.5 -40.5c26 -13.333 46.833 -29.166 62.5 -47.499s27.334 -38.833 35.001 -61.5s12.5 -48 14.5 -76s3 -58.333 3 -91v-471 c0 -18 0.666992 -34.5 2 -49.5s5 -28.333 11 -40s14.833 -20.834 26.5 -27.501s27.167 -10 46.5 -10h55v-72h-84c-28.667 0 -52.167 5.5 -70.5 16.5s-33 25.333 -44 43s-18.5 37.5 -22.5 59.5s-6 43.667 -6 65v498c0 22 -1.33301 45.333 -4 70s-8.5 48.167 -17.5 70.5 s-22.667 41.666 -41 57.999s-44.166 28.166 -77.499 35.499z"/>
    <glyph glyph-name="bar" unicode="|" horiz-adv-x="430" d="M176 -279v1706h72v-1706h-72z"/>
    <glyph glyph-name="braceright" unicode="}" horiz-adv-x="483" d="M61 -262l56.001 0.00195312c38 0 61.5 12.333 70.5 37s13.5 54.667 13.5 90v471c0 66.667 6.16699 122.5 18.5 167.5s44.833 81.167 97.5 108.5c-24.667 8 -44.334 21.333 -59.001 40s-26.167 39.667 -34.5 63s-14.166 48.5 -17.499 75.5s-5 53.5 -5 79.5v359 c0 42 -6.83301 74 -20.5 96s-38.5 33 -74.5 33h-45v74h78c30 0 54.667 -6.83301 74 -20.5s34.333 -31.167 45 -52.5s18.167 -45 22.5 -71s6.5 -50.667 6.5 -74v-340c0 -26 1.66699 -51.5 5 -76.5s10.166 -48.5 20.499 -70.5s24.333 -40.833 42 -56.5 s41.5 -26.167 71.5 -31.5v-57c-32.667 -6.66699 -58.167 -18.334 -76.5 -35.001s-32 -36.167 -41 -58.5s-14.833 -45.833 -17.5 -70.5s-4 -48 -4 -70v-498c0 -22 -2.16699 -43.833 -6.5 -65.5s-11.5 -41.334 -21.5 -59.001s-24.667 -32 -44 -43s-43.333 -16.5 -72 -16.5h-82 v72z"/>
    <glyph glyph-name="asciitilde" unicode="~" d="M141 530c22 45.333 44.998 78.667 68.998 100s53.667 32 89 32c30 0 67.5 -4.16699 112.5 -12.5s91.167 -17.666 138.5 -27.999s92.5 -19.5 135.5 -27.5s77.167 -12 102.5 -12l103 82l37 -27c-19.333 -44 -40.666 -76.5 -63.999 -97.5s-52 -31.5 -86 -31.5 c-36.667 0 -77.167 4 -121.5 12s-88.666 17.167 -132.999 27.5s-87 19.666 -128 27.999s-76.5 12.5 -106.5 12.5l-107 -86z"/>
    <glyph glyph-name="uni00A0" unicode=" " horiz-adv-x="532"/>
    <glyph glyph-name="cent" unicode="¢" d="M166 481c0 48 4.83301 101.001 14.5 159.001s27.667 113.333 54 166s64.166 98 113.499 136s113 60.667 191 68v153h59v-151c48 0 94.5 -4.16699 139.5 -12.5s87.167 -20.5 126.5 -36.5l-24 -68c-48 19.333 -92.5 31.666 -133.5 36.999s-77.167 8 -108.5 8v-883 c49.333 1.33301 95.166 7.83301 137.499 19.5s89.5 28.5 141.5 50.5l22 -61c-38 -20.667 -83 -38.167 -135 -52.5s-107.333 -22.833 -166 -25.5v-168h-59v168c-69.333 4 -127.666 19 -174.999 45s-85.666 60.833 -114.999 104.5s-50.5 94.5 -63.5 152.5 s-19.5 121.667 -19.5 191zM252 483.001c0 -56 4.5 -108.499 13.5 -157.499s24.333 -92.667 46 -131s51 -69.333 88 -93s83.5 -37.834 139.5 -42.501v875c-98 -13.333 -170.333 -60.5 -217 -141.5s-70 -184.167 -70 -309.5z"/>
    <glyph glyph-name="sterling" unicode="£" d="M96 0l2.00098 73.998c31.333 13.333 57.666 34 78.999 62s38.166 59.833 50.499 95.5s21.5 72.834 27.5 111.501s9.66699 76 11 112l10 204h-145v66h150l10 250c2.66699 53.333 10.5 103.5 23.5 150.5s33.5 88.667 61.5 125s64.833 64.666 110.5 84.999 s102.5 30.5 170.5 30.5c54.667 0 110.667 -4.83301 168 -14.5s105.333 -23.167 144 -40.5l-27 -68c-54.667 19.333 -104.167 32.333 -148.5 39s-88.166 10 -131.499 10c-57.333 0 -104.5 -8.16699 -141.5 -24.5s-65.833 -39.166 -86.5 -68.499 s-35.334 -63.833 -44.001 -103.5s-14.334 -82.5 -17.001 -128.5l-11 -242h412v-66h-416l-8 -204c-1.33301 -35.333 -4.66602 -71.5 -9.99902 -108.5s-13.166 -73 -23.499 -108s-23.333 -67.167 -39 -96.5s-35.167 -52.666 -58.5 -69.999h733v-72h-856z"/>
    <glyph glyph-name="yen" unicode="¥" d="M92 1356l94 0.00195312c2.66699 -6.66699 9.5 -21 20.5 -43l38 -77l46 -95l47 -95.5l39 -77c11 -21.667 17.833 -35.834 20.5 -42.501l127 -250h6c4 5.33301 12.167 20.333 24.5 45l40 79l41 78.5c13 24.333 20.833 40.166 23.5 47.499l18.5 35.5l40 78.5l52.5 100.5 l52.5 100.5l40 79l18.5 36h92l-38 -72.5l-70 -130.5l-85 -158l-84 -157.5l-68.5 -129l-37.5 -71.5h328v-59h-779v59h324zM139 430.002v55h779v-55h-349v-430h-86l-2 430h-342z"/>
    <glyph glyph-name="dieresis" unicode="¨" horiz-adv-x="956" d="M233 1241c0 19.333 6.16699 34.833 18.5 46.5s26.833 17.5 43.5 17.5c19.333 0 35 -5.83301 47 -17.5s18 -27.167 18 -46.5c0 -18 -6 -32.667 -18 -44s-27.667 -17 -47 -17c-18 0 -32.833 5.66699 -44.5 17s-17.5 26 -17.5 44zM539 1241c0 19.333 6 34.833 18 46.5 s26.333 17.5 43 17.5c19.333 0 35.166 -5.83301 47.499 -17.5s18.5 -27.167 18.5 -46.5c0 -18 -6.16699 -32.667 -18.5 -44s-28.166 -17 -47.499 -17c-18 0 -32.667 5.66699 -44 17s-17 26 -17 44z"/>
    <glyph glyph-name="copyright" unicode="©" horiz-adv-x="1687" d="M115 684c0 100 19.333 194.333 58 283s91.167 166 157.5 232s144.166 118.167 233.499 156.5s185.333 57.5 288 57.5c101.333 0 197 -19.167 287 -57.5s168.833 -90.5 236.5 -156.5s120.834 -143.333 159.501 -232s58 -183 58 -283c0 -101.333 -19.333 -196.333 -58 -285 s-91.834 -166 -159.501 -232s-146.5 -118.167 -236.5 -156.5s-185.667 -57.5 -287 -57.5c-102.667 0 -198.667 19.167 -288 57.5s-167.166 90.5 -233.499 156.5s-118.833 143.333 -157.5 232s-58 183.667 -58 285zM172 684c0 -92.667 18.167 -179.667 54.5 -261 s85.166 -152.333 146.499 -213s133.333 -108.834 216 -144.501s170.334 -53.5 263.001 -53.5c94 0 182.333 17.833 265 53.5s154.667 83.834 216 144.501s109.833 131.667 145.5 213s53.5 168.333 53.5 261s-17.833 180 -53.5 262s-84.167 153.333 -145.5 214 s-133.333 108.5 -216 143.5s-171 52.5 -265 52.5c-92.667 0 -180.334 -17.5 -263.001 -52.5s-154.667 -82.833 -216 -143.5s-110.166 -132 -146.499 -214s-54.5 -169.333 -54.5 -262zM446 668c0 52 6.16406 108.668 18.4971 170.001s34.333 118.666 66 171.999 s75 98 130 134s125.5 54 211.5 54c54.667 0 102.834 -3.66699 144.501 -11s76.167 -16.666 103.5 -27.999l-18 -61c-40.667 15.333 -79.834 25.666 -117.501 30.999s-73.5 8 -107.5 8c-60 0 -112.333 -11.333 -157 -34s-81.667 -54.5 -111 -95.5s-51.5 -90.5 -66.5 -148.5 s-22.5 -122.333 -22.5 -193c0 -60 4.83301 -117 14.5 -171s27.834 -101.5 54.501 -142.5s62.834 -73.833 108.501 -98.5s105.5 -37 179.5 -37c28.667 0 66.167 2.66699 112.5 8s89.166 14.333 128.499 27l17 -55c-31.333 -13.333 -72.666 -23.833 -123.999 -31.5 s-99.666 -11.5 -144.999 -11.5c-75.333 0 -139.5 11.833 -192.5 35.5s-96.167 57.667 -129.5 102s-58 98.333 -74 162s-24 135.167 -24 214.5z"/>
    <glyph glyph-name="guillemotleft" unicode="«" horiz-adv-x="788" d="M135 338v68l283 299l39 -33l-228 -301l230 -299l-39 -33zM369 338v68l282 299l39 -33l-229 -301l231 -299l-39 -33z"/>
    <glyph glyph-name="uni00AD" unicode="­" horiz-adv-x="684" d="M104 481v80h476v-80h-476z"/>
    <glyph glyph-name="registered" unicode="®" horiz-adv-x="1163" d="M94 971c0 65.333 12.668 126.668 38.001 184.001s59.5 107.5 102.5 150.5s93.5 77.167 151.5 102.5s119.667 38 185 38s127.166 -12.667 185.499 -38s109.333 -59.5 153 -102.5s78.167 -93.167 103.5 -150.5s38 -118.666 38 -183.999 c0 -66.667 -12.667 -128.834 -38 -186.501s-59.833 -107.667 -103.5 -150s-94.5 -75.333 -152.5 -99s-120 -35.5 -186 -35.5c-65.333 0 -127 11.5 -185 34.5s-108.5 55.667 -151.5 98s-77.167 92.166 -102.5 149.499s-38 120.333 -38 189zM145.001 971.002 c0 -60 11.001 -115.999 33.001 -167.999s52.167 -96.833 90.5 -134.5s83.333 -67.334 135 -89.001s107.5 -32.5 167.5 -32.5s116 10.5 168 31.5s97.5 50.333 136.5 88s69.667 82.5 92 134.5s33.5 108.667 33.5 170c0 58.667 -11.167 113.834 -33.5 165.501s-53 97 -92 136 s-84.833 69.833 -137.5 92.5s-108.334 34 -167.001 34s-113.5 -11.333 -164.5 -34s-96 -53.5 -135 -92.5s-69.833 -84.333 -92.5 -136s-34 -106.834 -34 -165.501zM412.002 678.003v593.999h182c52 0 95.333 -12.667 130 -38s52 -66.666 52 -123.999 c0 -28.667 -7.83301 -59 -23.5 -91s-47.5 -55.667 -95.5 -71l125 -270h-63l-121 266h-129v-266h-57zM469.002 991.002h127c31.333 0 59.333 7.5 84 22.5s37 46.5 37 94.5c0 44 -12 74.5 -36 91.5s-52.333 25.5 -85 25.5h-127v-234z"/>
    <glyph glyph-name="acute" unicode="´" horiz-adv-x="968" d="M311 1157l219 303l74 -63l-250 -275z"/>
    <glyph glyph-name="cedilla" unicode="¸" horiz-adv-x="1038" d="M420 -444c96.667 6.66699 164.501 23.999 203.501 51.999s58.5 59.667 58.5 95c0 31.333 -16 55.166 -48 71.499s-71.333 24.5 -118 24.5h-53c-9.33301 10.667 -16.333 21 -21 31l84 105.5c27.333 35 56 69.5 86 103.5l39 -27l-63.5 -77.5 c-21.667 -25.667 -42.834 -52.167 -63.501 -79.5c68 0 125.333 -11 172 -33s70 -59.667 70 -113s-27.333 -100.166 -82 -140.499s-142 -60.5 -262 -60.5c0 8 -0.333008 15.833 -1 23.5s-1 15.834 -1 24.501z"/>
    <glyph glyph-name="guillemotright" unicode="»" horiz-adv-x="788" d="M119 72l229 299l-227 301l39 33l282 -299v-68l-284 -299zM352 72l230 299l-230 301l41 33l281 -299v-68l-283 -299z"/>
    <glyph glyph-name="circumflex" unicode="ˆ" horiz-adv-x="976" d="M156 1149l276 264h74l276 -262l-28 -35l-285 205l-285 -207z"/>
    <glyph glyph-name="ring" unicode="˚" horiz-adv-x="976" d="M303 1300c0 49.333 17.8311 92.168 53.498 128.501s80.834 54.5 135.501 54.5s98.667 -17.833 132 -53.5s50 -78.834 50 -129.501s-17 -93.334 -51 -128.001s-77.667 -52 -131 -52c-57.333 0 -103.166 17.833 -137.499 53.5s-51.5 77.834 -51.5 126.501zM366.998 1296 c0 -36.667 10.833 -66.167 32.5 -88.5s52.5 -33.5 92.5 -33.5c36.667 0 65.834 11.167 87.501 33.5s32.5 51.833 32.5 88.5s-10.833 67 -32.5 91s-50.834 36 -87.501 36c-39.333 0 -70 -11.5 -92 -34.5s-33 -53.833 -33 -92.5z"/>
    <glyph glyph-name="tilde" unicode="˜" horiz-adv-x="976" d="M195 1208c13.333 38 33.3281 68.667 59.9951 92s56.334 35 89.001 35c22 0 46.333 -4 73 -12s53.334 -16.5 80.001 -25.5l77.5 -25.5c25 -8 47.167 -12 66.5 -12l100 81l35 -24c-13.333 -35.333 -32 -65.666 -56 -90.999s-52.333 -38 -85 -38c-22 0 -46.667 4 -74 12 s-54.666 17.167 -81.999 27.5s-53.666 19.666 -78.999 27.999s-46.666 12.5 -63.999 12.5l-105 -84z"/>
    <glyph glyph-name="afii10023" unicode="Ё" horiz-adv-x="1048" d="M164 0v1399h776v-74h-686v-547h594v-73h-594v-631h721v-74h-811zM334 1542c0 18 6.16699 33.167 18.5 45.5s26.5 18.5 42.5 18.5c19.333 0 35.166 -6.16699 47.499 -18.5s18.5 -27.5 18.5 -45.5c0 -19.333 -6.16699 -34.666 -18.5 -45.999s-28.166 -17 -47.499 -17 c-18 0 -32.667 5.66699 -44 17s-17 26.666 -17 45.999zM639 1542c0 18 6.16699 33.167 18.5 45.5s26.5 18.5 42.5 18.5c19.333 0 35.166 -6.16699 47.499 -18.5s18.5 -27.5 18.5 -45.5c0 -19.333 -6.16699 -34.666 -18.5 -45.999s-28.166 -17 -47.499 -17 c-18 0 -32.667 5.66699 -44 17s-17 26.666 -17 45.999z"/>
    <glyph glyph-name="afii10051" unicode="Ђ" horiz-adv-x="1462" d="M41 1323l-0.000976562 75.9961h1079v-76h-545v-555c28.667 12 59.834 23.5 93.501 34.5s67.834 20.333 102.501 28s69.5 13.834 104.5 18.501s67.5 7 97.5 7c70.667 0 131.667 -11.333 183 -34s93.333 -52.667 126 -90s56.5 -80.166 71.5 -128.499 s22.5 -97.833 22.5 -148.5c0 -78 -10.5 -149.833 -31.5 -215.5s-48.667 -124.667 -83 -177s-72.666 -98.666 -114.999 -138.999s-84.5 -74.833 -126.5 -103.5l-39 53c42 28.667 81.5 62.834 118.5 102.501s69.5 83.334 97.5 131.001s50.167 99.167 66.5 154.5 s24.5 113.666 24.5 174.999c0 110.667 -28.333 196 -85 256s-140.334 90 -251.001 90c-57.333 0 -120.833 -8.5 -190.5 -25.5s-131.834 -37.167 -186.501 -60.5v-696h-88v1323h-446z"/>
    <glyph glyph-name="afii10052" unicode="Ѓ" horiz-adv-x="966" d="M164 0v1399h774v-76h-684l-2 -1323h-88zM467 1505l219 305l74 -65l-248 -272z"/>
    <glyph glyph-name="afii10053" unicode="Є" horiz-adv-x="1136" d="M123 688c0 75.333 7.83594 155.667 23.5029 241s44.334 164.5 86.001 237.5s99.334 133.333 173.001 181s167.834 71.5 282.501 71.5c74 0 140.667 -5.5 200 -16.5s108 -23.167 146 -36.5l-22 -72c-52 16.667 -105.667 29 -161 37s-107 12 -155 12 c-78 0 -145.833 -13.5 -203.5 -40.5s-106.334 -65.5 -146.001 -115.5s-70.167 -110.167 -91.5 -180.5s-34 -149.166 -38 -236.499c94 1.33301 188.167 3 282.5 5s189.166 4.33301 284.499 7v-86l-285.5 4c-95 1.33301 -189.5 2 -283.5 2v-33.5 c0 -11.667 0.666992 -22.834 2 -33.501c2.66699 -74 10.5 -145.5 23.5 -214.5s37 -130 72 -183s82.833 -96 143.5 -129s140 -49.5 238 -49.5c18 0 41 1.16699 69 3.5s57.667 5.16602 89 8.49902s63.333 8 96 14s62.667 13 90 21l21 -65c-23.333 -8 -50.333 -15.5 -81 -22.5 s-63.167 -12.833 -97.5 -17.5s-68.833 -8.33398 -103.5 -11.001s-66.334 -4 -95.001 -4c-102.667 0 -189.834 16.333 -261.501 49s-129.334 79.334 -173.001 140.001s-75.334 134.334 -95.001 221.001s-29.5 184 -29.5 292z"/>
    <glyph glyph-name="afii10054" unicode="Ѕ" horiz-adv-x="1089" d="M88 86l33 70.0078c76.667 -38 146.667 -63.333 210 -76s123.666 -19 180.999 -19c125.333 0 222.833 23.667 292.5 71s104.5 127.666 104.5 240.999c0 49.333 -8.83301 90.666 -26.5 123.999s-41.834 61.166 -72.501 83.499s-67.167 41 -109.5 56 s-88.833 29.5 -139.5 43.5c-60 15.333 -116.667 31.833 -170 49.5s-100.5 39.834 -141.5 66.501s-73.333 59.667 -97 99s-35.5 89 -35.5 149s10.5 113.667 31.5 161s51 87 90 119s85.167 56.167 138.5 72.5s112 24.5 176 24.5c46.667 0 102 -4 166 -12s126.667 -25 188 -51 l-28 -74c-69.333 23.333 -130.833 39 -184.5 47s-104.167 12 -151.5 12c-48 0 -92.167 -6 -132.5 -18s-75.5 -30.333 -105.5 -55s-53.167 -55.834 -69.5 -93.501s-24.5 -81.834 -24.5 -132.501c0 -45.333 10.167 -82.833 30.5 -112.5s47.333 -54.834 81 -75.501 s72 -37.834 115 -51.501s86.833 -26.5 131.5 -38.5c50.667 -13.333 101.667 -28.333 153 -45s97.833 -39.334 139.5 -68.001s75.334 -65.167 101.001 -109.5s38.5 -101.833 38.5 -172.5c0 -69.333 -12.5 -128.333 -37.5 -177s-59.333 -88.334 -103 -119.001 s-95 -53.167 -154 -67.5s-121.833 -21.5 -188.5 -21.5c-72.667 0 -147.167 7.83301 -223.5 23.5s-145.166 41.167 -206.499 76.5z"/>
    <glyph glyph-name="afii10055" unicode="І" horiz-adv-x="456" d="M184 0v1399h88v-1399h-88z"/>
    <glyph glyph-name="afii10056" unicode="Ї" horiz-adv-x="456" d="M12 1542c0 18 6.16699 33.167 18.5 45.5s26.833 18.5 43.5 18.5c19.333 0 35 -6.16699 47 -18.5s18 -27.5 18 -45.5c0 -19.333 -6.16699 -34.666 -18.5 -45.999s-27.833 -17 -46.5 -17c-18 0 -32.833 5.66699 -44.5 17s-17.5 26.666 -17.5 45.999zM184 0v1399h88v-1399 h-88zM317 1542c0 18 6.16699 33.167 18.5 45.5s26.833 18.5 43.5 18.5c19.333 0 35 -6.16699 47 -18.5s18 -27.5 18 -45.5c0 -19.333 -6 -34.666 -18 -45.999s-27.667 -17 -47 -17c-18 0 -32.833 5.66699 -44.5 17s-17.5 26.666 -17.5 45.999z"/>
    <glyph glyph-name="afii10057" unicode="Ј" horiz-adv-x="548" d="M-84 -299c60 35.333 111.503 69.834 154.503 103.501s78.167 70.5 105.5 110.5s47.5 84.667 60.5 134s19.5 107.333 19.5 174v1176h88v-1172c0 -80.667 -8.83301 -151.334 -26.5 -212.001s-43.334 -114.5 -77.001 -161.5s-75.334 -88 -125.001 -123 s-105.834 -67.5 -168.501 -97.5z"/>
    <glyph glyph-name="afii10058" unicode="Љ" horiz-adv-x="1894" d="M20 23c79.333 30 140.833 71.499 184.5 124.499s76.5 121.167 98.5 204.5s36.333 184 43 302l23 415l16 330h612v-602h402c78 0 143.167 -12 195.5 -36s94.5 -55.167 126.5 -93.5s55.167 -80.666 69.5 -126.999s21.5 -92.166 21.5 -137.499 c0 -66.667 -10.5 -125.167 -31.5 -175.5s-49.333 -92.333 -85 -126s-77.667 -59 -126 -76s-99.833 -25.5 -154.5 -25.5h-508v1325h-446l-15 -276c-8 -155.333 -16 -295 -24 -419s-24.333 -231.333 -49 -322s-62.667 -165.334 -114 -224.001s-124 -101 -218 -127zM997 71.999 l416 -0.000976562c44 0 84.667 6.83301 122 20.5s69.666 34.167 96.999 61.5s48.833 61.333 64.5 102s23.5 88.334 23.5 143.001c0 62.667 -9.83301 114.834 -29.5 156.501s-45.167 75.167 -76.5 100.5s-66.166 43.166 -104.499 53.499s-76.5 15.5 -114.5 15.5h-398v-653z "/>
    <glyph glyph-name="afii10059" unicode="Њ" horiz-adv-x="1867" d="M164 0l0.000976562 1399h92v-602h625v602h92v-602h403c78 0 143 -12 195 -36s94 -55.167 126 -93.5s54.833 -80.666 68.5 -126.999s20.5 -92.166 20.5 -137.499c0 -66.667 -10.333 -125.167 -31 -175.5s-48.667 -92.333 -84 -126s-76.833 -59 -124.5 -76 s-98.834 -25.5 -153.501 -25.5h-510v723h-627v-723h-92zM973.001 71.998l418.002 -0.00292969c44 0 84.333 6.83301 121 20.5s68.667 34.167 96 61.5s48.833 61.333 64.5 102s23.5 88.334 23.5 143.001c0 62.667 -9.66699 114.834 -29 156.501s-44.333 74.834 -75 99.501 s-65.334 42.167 -104.001 52.5s-77.334 15.5 -116.001 15.5h-399v-651z"/>
    <glyph glyph-name="afii10060" unicode="Ћ" horiz-adv-x="1501" d="M41 1323v76.001h1063v-76h-545v-561c83.333 36.667 162.833 63.167 238.5 79.5s138.167 24.5 187.5 24.5c69.333 0 127.333 -8.83301 174 -26.5s84 -40.834 112 -69.501s48.167 -61.5 60.5 -98.5s18.5 -73.833 18.5 -110.5v-561h-88v530 c0 83.333 -22.667 147.666 -68 192.999s-121 68 -227 68c-28.667 0 -61.167 -3.16699 -97.5 -9.5s-73.333 -14.666 -111 -24.999s-74.167 -21.5 -109.5 -33.5s-66 -25 -92 -39v-684h-88v1323h-428z"/>
    <glyph glyph-name="afii10061" unicode="Ќ" horiz-adv-x="1118" d="M164 0l-0.00292969 1399h90v-617h293c26 0 52 3.5 78 10.5s50.833 18.667 74.5 35s45.834 38.833 66.501 67.5s38.334 65.667 53.001 111l127 391h84l-117 -377c-23.333 -68 -50.666 -126.333 -81.999 -175s-73.333 -80.334 -126 -95.001 c69.333 -15.333 120.333 -47.166 153 -95.499s58.667 -106.833 78 -175.5l141 -479h-90l-141 471c-15.333 46.667 -32.5 85.334 -51.5 116.001s-40.167 54.5 -63.5 71.5s-48.333 29 -75 36s-55 10.5 -85 10.5h-317v-705h-90zM470.997 1509l219 306l74 -66l-248 -272z"/>
    <glyph glyph-name="afii10062" unicode="Ў" horiz-adv-x="1075" d="M53 1397l92 0.000976562l119 -290.5l119 -291.5l81 -208.5l81 -209.5h8l131 342l252 658h90l-471 -1215c-23.333 -61.333 -53.666 -109 -90.999 -143s-82 -51 -134 -51c-18 0 -42 1 -72 3s-71.667 9.66699 -125 23l23 76c27.333 -6.66699 54.166 -12.334 80.499 -17.001 s51.166 -7 74.499 -7c40.667 0 73.834 11.167 99.501 33.5s48.5 61.5 68.5 117.5l45 121h-35zM256 1667l62.999 41.001c32.667 -48 70 -87.333 112 -118s84.667 -46 128 -46c32.667 0 71.834 10.333 117.501 31s99.5 61.667 161.5 123l34 -27 c-56 -76.667 -110.833 -129.334 -164.5 -158.001s-105.167 -43 -154.5 -43c-31.333 0 -61.333 5.5 -90 16.5s-55.667 25.833 -81 44.5s-48.5 39.5 -69.5 62.5s-39.833 47.5 -56.5 73.5z"/>
    <glyph glyph-name="afii10145" unicode="Џ" horiz-adv-x="1249" d="M164 0v1397h90v-1325h739v1325h90v-1397h-413v-334h-82v334h-424z"/>
    <glyph glyph-name="afii10017" unicode="А" horiz-adv-x="1093" d="M35 0l452 1397h117l453 -1397h-92l-64 195.5l-63 195.5h-588c-22 -65.333 -42.833 -130.5 -62.5 -195.5l-60.5 -195.5h-92zM274 465h541l-182 573l-43.5 137.5l-42.5 139.5h-6c-27.333 -94 -56 -186.333 -86 -277z"/>
    <glyph glyph-name="afii10018" unicode="Б" horiz-adv-x="1136" d="M150 0l0.000976562 1399h759v-74h-667v-528h403c78 0 143.333 -11.667 196 -35s95 -53.833 127 -91.5s54.5 -79.334 67.5 -125.001s19.5 -90.834 19.5 -135.501c0 -66.667 -10.333 -125.667 -31 -177s-48.667 -94.166 -84 -128.499s-77.333 -60.333 -126 -78 s-100.334 -26.5 -155.001 -26.5h-509zM242.001 72.001l420 0.00195312c86 0 158 28 216 84s87 138.333 87 247c0 62.667 -9.66699 114.667 -29 156s-44.333 74.166 -75 98.499s-65.5 41.666 -104.5 51.999s-77.5 15.5 -115.5 15.5h-399v-653z"/>
    <glyph glyph-name="afii10019" unicode="В" horiz-adv-x="1167" d="M164 0l-0.000976562 1397h444c66.667 0 124.667 -8.5 174 -25.5s90.333 -41 123 -72s57.334 -67.667 74.001 -110s25 -88.5 25 -138.5c0 -23.333 -2.16699 -49 -6.5 -77s-13.666 -56.333 -27.999 -85s-34.5 -56.334 -60.5 -83.001s-61.333 -50.334 -106 -71.001v-10 c49.333 -15.333 89.666 -36.5 120.999 -63.5s56.166 -57 74.499 -90s31.333 -67.167 39 -102.5s11.5 -68 11.5 -98c0 -56 -9.66699 -106.833 -29 -152.5s-45.666 -84.667 -78.999 -117s-72.5 -57.333 -117.5 -75s-92.833 -26.5 -143.5 -26.5h-516zM253.999 74.002 l394.998 -0.000976562c54.667 0 101.834 8.5 141.501 25.5s71.834 39.5 96.501 67.5s42.667 60.833 54 98.5s17 76.834 17 117.501c0 39.333 -7.5 77.5 -22.5 114.5s-36.5 69.5 -64.5 97.5s-61 50.5 -99 67.5s-80.333 25.5 -127 25.5h-391v-614zM253.997 764.001 l358 0.00292969c90 0 162.667 25.167 218 75.5s83 117.166 83 200.499c0 40.667 -6 78.167 -18 112.5s-31 64.166 -57 89.499s-59.167 45.166 -99.5 59.499s-88.5 21.5 -144.5 21.5h-340v-559z"/>
    <glyph glyph-name="afii10020" unicode="Г" horiz-adv-x="966" d="M164 0v1399h774v-76h-684l-2 -1323h-88z"/>
    <glyph glyph-name="afii10021" unicode="Д" horiz-adv-x="1327" d="M27 72h95.999c57.333 39.333 102.666 94.833 135.999 166.5s59.333 154.667 78 249s32.334 196.333 41.001 306s16.334 223.5 23.001 341.5l17 264h700v-1327h115v-396h-74v324h-1057v-324h-75v396zM235.999 72l792 0.000976562v1253h-532l-13 -201 c-8 -117.333 -16.5 -229.833 -25.5 -337.5s-22 -207.334 -39 -299.001s-39.833 -173 -68.5 -244s-66.667 -128.167 -114 -171.5z"/>
    <glyph glyph-name="afii10022" unicode="Е" horiz-adv-x="1048" d="M164 0v1399h776v-74h-686v-547h594v-73h-594v-631h721v-74h-811z"/>
    <glyph glyph-name="afii10024" unicode="Ж" horiz-adv-x="1779" d="M61 0l142 479.001c19.333 68 45.333 126.333 78 175s83.667 80.667 153 96c-53.333 15.333 -95.666 47.166 -126.999 95.499s-58 106.5 -80 174.5l-118 377h84l126 -391c13.333 -45.333 30.333 -82.333 51 -111s43 -51.167 67 -67.5s49 -28 75 -35s52 -10.5 78 -10.5h256 v617h88v-617h256c26 0 52 3.5 78 10.5s50.833 18.667 74.5 35s45.5 38.833 65.5 67.5s37.333 65.667 52 111l127 391h82l-117 -377c-22 -68 -48.667 -126.333 -80 -175s-74.333 -80.334 -129 -95.001c69.333 -15.333 120.5 -47.166 153.5 -95.499 s59.833 -106.833 80.5 -175.5l139 -479h-86l-141 471c-15.333 46.667 -32.5 85.334 -51.5 116.001s-40.5 54.834 -64.5 72.501s-49.333 30 -76 37s-55 10.5 -85 10.5h-278v-707h-88v707h-279c-30 0 -58.333 -3.5 -85 -10.5s-51.834 -19.333 -75.501 -37 s-45.167 -41.834 -64.5 -72.501s-36.333 -69.334 -51 -116.001l-139 -471h-91z"/>
    <glyph glyph-name="afii10025" unicode="З" horiz-adv-x="1095" d="M49 63l24.998 65.999c76.667 -26 148.667 -43.5 216 -52.5s121 -13.5 161 -13.5c140.667 0 250.834 30.833 330.501 92.5s119.5 150.5 119.5 266.5c0 98 -35.167 175 -105.5 231s-170.166 84 -299.499 84h-164v72h164c116 0 206 26.333 270 79s96 122.667 96 210 c0 79.333 -32.667 140.5 -98 183.5s-153.333 64.5 -264 64.5c-19.333 0 -42.666 -1.16699 -69.999 -3.5s-57.333 -6.5 -90 -12.5s-67.5 -14.833 -104.5 -26.5s-73.833 -26.167 -110.5 -43.5l-29 65c58.667 31.333 123.5 54.833 194.5 70.5s145.5 23.5 223.5 23.5 c140.667 0 249.5 -28.667 326.5 -86s115.5 -135 115.5 -233c0 -75.333 -23.5 -141.666 -70.5 -198.999s-105.833 -96.333 -176.5 -117l-2 -10c82 -19.333 150.167 -58 204.5 -116s81.5 -136.667 81.5 -236c0 -69.333 -13.333 -131 -40 -185s-63.167 -99.5 -109.5 -136.5 s-100.833 -65 -163.5 -84s-130.334 -28.5 -203.001 -28.5c-78 0 -154.5 6.5 -229.5 19.5s-141.167 31.5 -198.5 55.5z"/>
    <glyph glyph-name="afii10026" unicode="И" horiz-adv-x="1280" d="M164 0v1397h88v-1241h8l768 1243l88 -2v-1397h-88v1247h-6l-768 -1247h-90z"/>
    <glyph glyph-name="afii10027" unicode="Й" horiz-adv-x="1280" d="M164 0v1397h88v-1241h8l768 1243l88 -2v-1397h-88v1247h-6l-768 -1247h-90zM317 1708l63.998 40.999c32.667 -48 69.834 -87 111.501 -117s84.5 -45 128.5 -45c32.667 0 71.834 10.333 117.501 31s99.167 61 160.5 121l35 -29c-56 -75.333 -111 -127.666 -165 -156.999 s-105.667 -44 -155 -44c-31.333 0 -61.333 5.5 -90 16.5s-55.5 25.667 -80.5 44s-48.167 39.5 -69.5 63.5s-40.333 49 -57 75z"/>
    <glyph glyph-name="afii10028" unicode="К" horiz-adv-x="1118" d="M164 0l-0.00292969 1399h90v-617h293c26 0 52 3.5 78 10.5s50.833 18.667 74.5 35s45.834 38.833 66.501 67.5s38.334 65.667 53.001 111l127 391h84l-117 -377c-23.333 -68 -50.666 -126.333 -81.999 -175s-73.333 -80.334 -126 -95.001 c69.333 -15.333 120.333 -47.166 153 -95.499s58.667 -106.833 78 -175.5l141 -479h-90l-141 471c-15.333 46.667 -32.5 85.334 -51.5 116.001s-40.167 54.5 -63.5 71.5s-48.333 29 -75 36s-55 10.5 -85 10.5h-317v-705h-90z"/>
    <glyph glyph-name="afii10029" unicode="Л" horiz-adv-x="1226" d="M20 23c80.667 32.667 142.833 75.832 186.5 129.499s76.167 121.834 97.5 204.501s35 182.334 41 299.001l22 413l16 330h680v-1399h-94v1325h-508l-15 -276c-8 -155.333 -16 -295 -24 -419s-24.333 -231.333 -49 -322s-62.667 -165.334 -114 -224.001 s-124 -101 -218 -127z"/>
    <glyph glyph-name="afii10030" unicode="М" horiz-adv-x="1593" d="M164 0v1397h100l221.5 -490.5l221.5 -492.5l86 -199h8l90 201l219 487l110.5 248l112.5 246h94v-1397h-86c0 202 -0.333008 403.333 -1 604s-1 402.667 -1 606h-6l-78 -174l-413 -913h-92l-412 905l-82 189h-6v-1217h-86z"/>
    <glyph glyph-name="afii10031" unicode="Н" horiz-adv-x="1249" d="M164 0v1399h92v-621h737v621h92v-1399h-92v700h-737v-700h-92z"/>
    <glyph glyph-name="afii10032" unicode="О" horiz-adv-x="1357" d="M123 686c0 95.333 9.50293 187.169 28.5029 275.502s50.333 166.166 94 233.499s102 121.5 175 162.5s163.5 61.5 271.5 61.5c109.333 0 199.166 -20.5 269.499 -61.5s125.666 -95.167 165.999 -162.5s68.333 -144.833 84 -232.5s23.5 -177.834 23.5 -270.501 c0 -101.333 -11.333 -194.5 -34 -279.5s-56.834 -159 -102.501 -222s-102.334 -112.5 -170.001 -148.5s-146.5 -54.667 -236.5 -56c-105.333 0 -194.166 16 -266.499 48s-131 78.333 -176 139s-77.333 134 -97 220s-29.5 183.667 -29.5 293zM215.003 682.003 c0 -203.333 36.833 -358.333 110.5 -465s192.5 -160 356.5 -160c78 0 146 16.5 204 49.5s105.667 78.167 143 135.5s65.333 124.166 84 200.499s28 157.5 28 243.5c0 72.667 -5.5 147.834 -16.5 225.501s-32.167 149 -63.5 214s-76.666 118.333 -135.999 160 s-137 62.5 -233 62.5c-96.667 0 -175.834 -19.167 -237.501 -57.5s-110.167 -89 -145.5 -152s-59.833 -134 -73.5 -213s-20.5 -160.167 -20.5 -243.5z"/>
    <glyph glyph-name="afii10033" unicode="П" horiz-adv-x="1249" d="M164 0v1399h921v-1399h-92v1319h-737v-1319h-92z"/>
    <glyph glyph-name="afii10034" unicode="Р" horiz-adv-x="1040" d="M164 0l-0.00195312 1399h418c56 0 108.833 -7.83301 158.5 -23.5s93 -39.667 130 -72s66 -73 87 -122s31.5 -106.833 31.5 -173.5c0 -40.667 -5.5 -85 -16.5 -133s-31.167 -92.167 -60.5 -132.5s-69.166 -74.166 -119.499 -101.499s-115.166 -41 -194.499 -41h-344 l2 -600h-92zM253.998 673.999h338.001c36.667 0 73.167 5.16699 109.5 15.5s69.166 28 98.499 53s52.833 58.333 70.5 100s26.5 94.5 26.5 158.5c0 54.667 -8.16699 102.5 -24.5 143.5s-38.5 74.833 -66.5 101.5s-60.833 46.5 -98.5 59.5s-78.167 19.5 -121.5 19.5h-332 v-651z"/>
    <glyph glyph-name="afii10035" unicode="С" horiz-adv-x="1136" d="M123 690c0 75.333 7.83105 155.669 23.498 241.002s44.334 164.166 86.001 236.499s99.334 132.333 173.001 180s168.5 71.5 284.5 71.5c74 0 140.667 -5 200 -15s108 -22.667 146 -38l-22 -72c-52 16.667 -105.667 29 -161 37s-107 12 -155 12 c-84.667 0 -157.334 -15.667 -218.001 -47s-110.834 -75.666 -150.501 -132.999s-68.667 -126.166 -87 -206.499s-27.5 -170.5 -27.5 -270.5c0 -79.333 5.83301 -156.5 17.5 -231.5s34.5 -141.5 68.5 -199.5s82.833 -104.833 146.5 -140.5s146.5 -53.5 248.5 -53.5 c18 0 41 1.16699 69 3.5s57.667 5.16602 89 8.49902s63.333 8 96 14s62.667 13.333 90 22l21 -66c-23.333 -8 -50.666 -15.833 -81.999 -23.5s-64.166 -13.834 -98.499 -18.501s-68.5 -8.33398 -102.5 -11.001s-66 -4 -96 -4c-102.667 0 -189.5 16.333 -260.5 49 s-128.667 79.667 -173 141s-76.333 135.333 -96 222s-29.5 184 -29.5 292z"/>
    <glyph glyph-name="afii10036" unicode="Т" horiz-adv-x="1064" d="M39 1323v76h985v-76h-446l-3 -1323h-86v1323h-450z"/>
    <glyph glyph-name="afii10037" unicode="У" horiz-adv-x="1075" d="M53 1397l92 0.000976562l119 -290.5l119 -291.5l81 -208.5l81 -209.5h8l131 342l252 658h90l-471 -1215c-23.333 -61.333 -53.666 -109 -90.999 -143s-82 -51 -134 -51c-18 0 -42 1 -72 3s-71.667 9.66699 -125 23l23 76c27.333 -6.66699 54.166 -12.334 80.499 -17.001 s51.166 -7 74.499 -7c40.667 0 73.834 11.167 99.501 33.5s48.5 61.5 68.5 117.5l45 121h-35z"/>
    <glyph glyph-name="afii10038" unicode="Ф" horiz-adv-x="1585" d="M96 711c0 65.333 12.665 129.332 37.998 191.999s64.666 119.334 117.999 170.001s122 92.334 206 125.001s184.667 51.667 302 57v142h86v-142c117.333 -4 217 -22 299 -54s148.5 -73.333 199.5 -124s87.833 -107 110.5 -169s34 -125.667 34 -191 c0 -74 -14.667 -143 -44 -207s-71.666 -120 -126.999 -168s-122.666 -86.667 -201.999 -116s-169.333 -45.333 -270 -48v-178h-86v178c-117.333 5.33301 -218 21.666 -302 48.999s-152.667 64 -206 110s-92.666 100.667 -117.999 164s-38 133.333 -38 210zM183.998 706.999 c0 -146 49.832 -256.668 149.499 -332.001s241.834 -117 426.501 -125v934c-102.667 -5.33301 -190.5 -21.666 -263.5 -48.999s-132.333 -62.833 -178 -106.5s-79.5 -93.167 -101.5 -148.5s-33 -113 -33 -173zM845.997 249.998 c87.333 2.66699 165.168 16.3301 233.501 40.9971s126.333 57.834 174 99.501s84.167 89.834 109.5 144.501s38 113.334 38 176.001c0 53.333 -8.83301 106.833 -26.5 160.5s-47.667 103 -90 148s-99.333 82.667 -171 113s-160.834 47.5 -267.501 51.5v-934z"/>
    <glyph glyph-name="afii10039" unicode="Х" horiz-adv-x="1046" d="M33 0l436 723l-408 674h99l362 -606l365 606h96l-204.5 -338l-205.5 -338l219.5 -361.5l219.5 -359.5h-101l-391 653l-391 -653h-96z"/>
    <glyph glyph-name="afii10040" unicode="Ц" horiz-adv-x="1296" d="M164 0v1397h90v-1325h739v1325h90l2 -1325h136v-396h-80v324h-977z"/>
    <glyph glyph-name="afii10041" unicode="Ч" horiz-adv-x="1181" d="M117 870l-0.000976562 527h90v-494c0 -83.333 22.5 -147.5 67.5 -192.5s122.167 -67.5 231.5 -67.5c28.667 0 60.334 1.33301 95.001 4s70.5 7.16699 107.5 13.5s74.333 14.5 112 24.5s73.5 22.667 107.5 38v674h90v-1397h-90v645c-40.667 -16.667 -82.667 -30 -126 -40 s-84.333 -18.167 -123 -24.5s-74.5 -10.5 -107.5 -12.5s-58.833 -3 -77.5 -3c-69.333 0 -128.333 8.83301 -177 26.5s-87.667 41 -117 70s-50.5 61.5 -63.5 97.5s-19.5 73 -19.5 111z"/>
    <glyph glyph-name="afii10042" unicode="Ш" horiz-adv-x="1761" d="M164 0v1399h90v-1327h588v1327h88v-1327h575l2 1327h88l2 -1399h-1433z"/>
    <glyph glyph-name="afii10043" unicode="Щ" horiz-adv-x="1808" d="M164 0v1399h90v-1327h588v1327h88v-1327h575l2 1327h90v-1327h136v-396h-80v324h-1489z"/>
    <glyph glyph-name="afii10044" unicode="Ъ" horiz-adv-x="1476" d="M25 1323l0.000976562 75.998h548v-602h412c76.667 0 141.167 -12 193.5 -36s94.666 -55.167 126.999 -93.5s55.333 -80.666 69 -126.999s20.5 -92.166 20.5 -137.499c0 -66.667 -10.333 -125.167 -31 -175.5s-49 -92.333 -85 -126s-78 -59 -126 -76 s-99.333 -25.5 -154 -25.5h-516v1323h-458zM573.001 71.998l426 -0.000976562c86 0 158.167 27.333 216.5 82s87.5 136.334 87.5 245.001c0 62.667 -9.66699 114.834 -29 156.501s-44.333 75.167 -75 100.5s-65.167 43.166 -103.5 53.499s-76.5 15.5 -114.5 15.5h-408v-653z "/>
    <glyph glyph-name="afii10045" unicode="Ы" horiz-adv-x="1517" d="M164 0v1399h90v-602h408c78 0 143.167 -12.333 195.5 -37s94.5 -55.834 126.5 -93.501s55.167 -80 69.5 -127s21.5 -93.167 21.5 -138.5c0 -66.667 -10.5 -125.167 -31.5 -175.5s-49.333 -92.333 -85 -126s-77.667 -58.667 -126 -75s-99.833 -24.5 -154.5 -24.5h-514z M254 72.001l422.003 -0.000976562c44 0 84.667 6.83301 122 20.5s70 34.167 98 61.5s49.833 61.333 65.5 102s23.5 88.334 23.5 143.001c0 62.667 -9.83301 114.834 -29.5 156.501s-45.334 75.167 -77.001 100.5s-66.834 43.166 -105.501 53.499s-77.334 15.5 -116.001 15.5 h-403v-653zM1264 0v1399h90v-1399h-90z"/>
    <glyph glyph-name="afii10046" unicode="Ь" horiz-adv-x="1157" d="M164 0v1399h90v-602h408c78 0 143.167 -12.333 195.5 -37s94.5 -55.834 126.5 -93.501s55.167 -80 69.5 -127s21.5 -93.167 21.5 -138.5c0 -66.667 -10.5 -125.167 -31.5 -175.5s-49.333 -92.333 -85 -126s-77.667 -58.667 -126 -75s-99.833 -24.5 -154.5 -24.5h-514z M254 72.001l422.003 -0.000976562c44 0 84.667 6.83301 122 20.5s70 34.167 98 61.5s49.833 61.333 65.5 102s23.5 88.334 23.5 143.001c0 62.667 -9.83301 114.834 -29.5 156.501s-45.334 75.167 -77.001 100.5s-66.834 43.166 -105.501 53.499s-77.334 15.5 -116.001 15.5 h-403v-653z"/>
    <glyph glyph-name="afii10047" unicode="Э" horiz-adv-x="1124" d="M55 41l21.0029 70.0029c68 -20.667 132 -34.167 192 -40.5s109.333 -9.5 148 -9.5c101.333 0 184 19.5 248 58.5s114 90 150 153s60.5 133.667 73.5 212s19.5 156.5 19.5 234.5c-8 0 -27 -0.333008 -57 -1s-65.167 -1.66699 -105.5 -3s-83.333 -2.33301 -129 -3 s-88.667 -1.33398 -129 -2.00098s-75.5 -1.33398 -105.5 -2.00098s-49 -1 -57 -1v88c8 0 27 -0.333008 57 -1s65.167 -1.33398 105.5 -2.00098s83.333 -1.5 129 -2.5s88.667 -1.83301 129 -2.5s75.166 -1.33398 104.499 -2.00098s48.666 -1 57.999 -1 c-2.66699 84.667 -12.5 161.5 -29.5 230.5s-43.667 127.833 -80 176.5s-83.166 86.167 -140.499 112.5s-126.666 39.5 -207.999 39.5c-45.333 0 -97.333 -4 -156 -12s-115.334 -20.333 -170.001 -37l-19 70c36.667 15.333 86.5 28.333 149.5 39s128.167 16 195.5 16 c116 0 210.167 -20.833 282.5 -62.5s128.666 -95.167 168.999 -160.5s67.166 -138.666 80.499 -219.999s20 -161 20 -239c0 -105.333 -10.5 -203.333 -31.5 -294s-54.333 -170.167 -100 -238.5s-104.667 -121.833 -177 -160.5s-159.833 -58 -262.5 -58 c-75.333 0 -145.333 5 -210 15s-119.667 23.333 -165 40z"/>
    <glyph glyph-name="afii10048" unicode="Ю" horiz-adv-x="1759" d="M164 0l0.00195312 1397h88v-623h315c4 86 16.333 168 37 246s52.167 146.333 94.5 205s97.333 105.334 165 140.001s151.167 52 250.5 52c109.333 0 198.166 -20.5 266.499 -61.5s121.166 -95.167 158.499 -162.5s62.833 -144.833 76.5 -232.5 s20.5 -177.834 20.5 -270.501c0 -101.333 -10.167 -194.5 -30.5 -279.5s-52 -158.667 -95 -221s-97.333 -111.5 -163 -147.5s-143.5 -54.667 -233.5 -56c-102.667 0 -189 16.333 -259 49s-126.5 79.667 -169.5 141s-73.833 136.5 -92.5 225.5s-28 188.5 -28 298.5h-313v-700 h-88zM657.002 680c0 -101.333 8.00098 -190.832 24.001 -268.499s41.667 -142.834 77 -195.501s81.333 -92.334 138 -119.001s126 -40 208 -40c78 0 145 16.5 201 49.5s101.667 77.833 137 134.5s61.166 123.167 77.499 199.5s24.5 157.5 24.5 243.5 c0 72.667 -4.33301 147.834 -13 225.501s-27.667 149 -57 214s-72.833 118.333 -130.5 160s-134.167 62.5 -229.5 62.5c-96.667 0 -174.667 -19.167 -234 -57.5s-105.5 -89 -138.5 -152s-55.333 -134 -67 -213s-17.5 -160.167 -17.5 -243.5z"/>
    <glyph glyph-name="afii10049" unicode="Я" horiz-adv-x="1142" d="M82 0l121.001 426.004c18 57.333 41.5 106.5 70.5 147.5s72.167 70.5 129.5 88.5c-45.333 10.667 -83.833 27.667 -115.5 51s-57.834 50.666 -78.501 81.999s-35.334 66.166 -44.001 104.499s-13 77.166 -13 116.499c0 50.667 7.83301 99.167 23.5 145.5 s39.834 87.166 72.501 122.499s75 63.333 127 84s114 31 186 31h418v-1399h-90v639h-283c-34 0 -67 -3.5 -99 -10.5s-61.333 -19 -88 -36s-51 -40.167 -73 -69.5s-39.667 -67 -53 -113l-121 -410h-90zM244.001 1014c0 -108 29.0029 -185.166 87.0029 -231.499 s133.333 -69.5 226 -69.5h332v610h-326c-46.667 0 -89.334 -6.5 -128.001 -19.5s-72.334 -32.5 -101.001 -58.5s-50.834 -58.333 -66.501 -97s-23.5 -83.334 -23.5 -134.001z"/>
    <glyph glyph-name="afii10065" unicode="а" horiz-adv-x="1007" d="M82 260c0 46.667 8.49609 87.332 25.4961 121.999s40.5 64 70.5 88s66.167 42.5 108.5 55.5s88.833 20.833 139.5 23.5c8 0 26.333 1 55 3s59.834 3.66699 93.501 5s64.834 2.66602 93.501 3.99902s46.334 2 53.001 2v92c0 50.667 -3.5 93.834 -10.5 129.501 s-19.667 64.667 -38 87s-42.833 38.666 -73.5 48.999s-69.334 15.5 -116.001 15.5c-50.667 0 -102.5 -5.83301 -155.5 -17.5s-104.833 -27.167 -155.5 -46.5l-22 62c57.333 23.333 116.666 41.5 177.999 54.5s119.333 19.5 174 19.5c98 0 173 -24.333 225 -73 s78 -131.667 78 -249v-614h135c2.66699 -8 4 -16.5 4 -25.5s0.666992 -17.833 2 -26.5c-23.333 -10.667 -47.166 -18 -71.499 -22s-46.166 -6 -65.499 -6c-39.333 0 -64.166 9.83301 -74.499 29.5s-15.5 50.834 -15.5 93.501l-4 2c-44 -32.667 -84 -58 -120 -76 s-69 -30.667 -99 -38s-56.333 -11.666 -79 -12.999s-42.334 -2 -59.001 -2c-54.667 0 -99.667 8.5 -135 25.5s-63.666 38.833 -84.999 65.5s-36 56 -44 88s-12 63 -12 93zM169.996 269.998c0 -143.333 75 -215.001 225 -215.001c50.667 0 103 12.667 157 38 s110.333 62 169 110v297l-299 -17c-82 -4 -144.5 -24.667 -187.5 -62s-64.5 -87.666 -64.5 -150.999z"/>
    <glyph glyph-name="afii10066" unicode="б" horiz-adv-x="968" d="M82 481c0 102.667 1.66406 191.163 4.99707 265.496s9.66602 134.833 18.999 181.5c19.333 96.667 55.666 181 108.999 253s132 129 236 171c22 8 48.167 18.167 78.5 30.5l94 39l93.5 41c30 13.667 55.333 25.834 76 36.501l32 -63l-81 -39 c-29.333 -14 -58.666 -27.167 -87.999 -39.5l-86 -35.5c-28 -11.333 -52.667 -22 -74 -32c-60 -23.333 -110.167 -52 -150.5 -86s-73.166 -72.833 -98.499 -116.5s-44.5 -92.167 -57.5 -145.5s-21.5 -110.666 -25.5 -171.999h4c31.333 65.333 76 117.833 134 157.5 s126.667 59.5 206 59.5c75.333 0 137.5 -15 186.5 -45s87.833 -68.833 116.5 -116.5s48.5 -100.5 59.5 -158.5s16.5 -115.667 16.5 -173c0 -60 -6.16699 -120.167 -18.5 -180.5s-33.833 -114.666 -64.5 -162.999s-72.667 -87.833 -126 -118.5s-121.666 -46 -204.999 -46 c-79.333 0 -144.166 15 -194.499 45s-90.166 68.5 -119.499 115.5s-49.5 99.833 -60.5 158.5s-16.5 117.334 -16.5 176.001zM169.997 478.996c0 -49.333 3.33496 -99.1699 10.002 -149.503s21 -96 43 -137s53.833 -74.5 95.5 -100.5s96.5 -39 164.5 -39 c66.667 0 120.667 13.333 162 40s73.5 60.834 96.5 102.501s38.667 88.167 47 139.5s12.5 101.333 12.5 150c0 40.667 -3.83301 86.334 -11.5 137.001s-22.334 97.834 -44.001 141.501s-52.334 80.667 -92.001 111s-91.5 45.5 -155.5 45.5s-117 -14 -159 -42 s-75.5 -63.833 -100.5 -107.5s-42.667 -91.5 -53 -143.5s-15.5 -101.333 -15.5 -148z"/>
    <glyph glyph-name="afii10067" unicode="в" horiz-adv-x="931" d="M121 0v997h389c106.667 0 185.834 -23.167 237.501 -69.5s77.5 -106.166 77.5 -179.499c0 -18 -2 -37.333 -6 -58s-11.833 -40.834 -23.5 -60.501s-27.334 -38.334 -47.001 -56.001s-45.167 -33.5 -76.5 -47.5c36.667 -10.667 67 -25.5 91 -44.5 s43.167 -40.167 57.5 -63.5s24.166 -47.666 29.499 -72.999s8 -49 8 -71c0 -40.667 -7.5 -77.667 -22.5 -111s-35.833 -62 -62.5 -86s-57.667 -42.833 -93 -56.5s-73.666 -20.5 -114.999 -20.5h-444zM205 72l333.999 -0.000976562c42 0 78 6.16699 108 18.5 s54.667 28.333 74 48s33.333 42.167 42 67.5s13 51.666 13 78.999c0 26 -5.5 50.833 -16.5 74.5s-26.667 44.834 -47 63.501s-45.166 33.334 -74.499 44.001s-63 16 -101 16h-332v-411zM204.999 552.999l311 -0.000976562c65.333 0 118.833 16.667 160.5 50 s62.5 78 62.5 134c0 54.667 -19 99.834 -57 135.501s-100 53.5 -186 53.5h-291v-373z"/>
    <glyph glyph-name="afii10068" unicode="г" horiz-adv-x="757" d="M121 0v997h620v-71h-538v-926h-82z"/>
    <glyph glyph-name="afii10069" unicode="д" horiz-adv-x="1048" d="M20 70h86c40.667 28.667 73.167 68.5 97.5 119.5s43.333 109.667 57 176s23.167 137 28.5 212s10 150.167 14 225.5l10 194h572v-927h84v-338h-70v268h-807v-268h-72v338zM205 70h595.999v856h-418l-8 -138c-4 -74 -8.5 -146.667 -13.5 -218s-13.333 -138.833 -25 -202.5 s-27.667 -121 -48 -172s-48.166 -92.833 -83.499 -125.5z"/>
    <glyph glyph-name="afii10070" unicode="е" horiz-adv-x="972" d="M100 492c0 39.333 4.50293 88.335 13.5029 147.002s27.5 115.667 55.5 171s69 102.5 123 141.5s126 58.5 216 58.5c64 0 117.5 -9.66699 160.5 -29s78.167 -44 105.5 -74s48.166 -63.333 62.499 -100s24.666 -72.834 30.999 -108.501s9.83301 -68.167 10.5 -97.5 s1 -52.333 1 -69v-47h-691c0 -57.333 4.5 -111.5 13.5 -162.5s25.5 -96.333 49.5 -136s56.833 -71.167 98.5 -94.5s94.5 -35 158.5 -35c60 0 113.833 5.83301 161.5 17.5s99.5 31.167 155.5 58.5l25 -59c-56 -30 -110.667 -52.167 -164 -66.5s-112 -21.5 -176 -21.5 c-82 0 -149.667 13.333 -203 40s-95.333 63.167 -126 109.5s-51.834 100.166 -63.501 161.499s-17.5 126.333 -17.5 195zM190.003 551.002h605c0 57.333 -4.83301 109.833 -14.5 157.5s-25.5 89 -47.5 124s-51.333 62.333 -88 82s-82.334 29.5 -137.001 29.5 c-57.333 0 -105.166 -10.833 -143.499 -32.5s-69.833 -51 -94.5 -88s-43 -79 -55 -126s-20.333 -95.833 -25 -146.5z"/>
    <glyph glyph-name="afii10072" unicode="ж" horiz-adv-x="1423" d="M55 0l115 338.003c16.667 48 35.5 88.667 56.5 122s55.5 56.666 103.5 69.999c-36.667 12 -65 34.833 -85 68.5s-39 74.5 -57 122.5l-100 280h80l104 -290c13.333 -36.667 29 -65.334 47 -86.001s37.333 -35.834 58 -45.501s42.834 -15.5 66.501 -17.5s49.167 -3 76.5 -3 h150v442h82v-442h147c27.333 0 53 1 77 3s46.167 7.83301 66.5 17.5s39.333 24.667 57 45s33.5 49.166 47.5 86.499l106 290h80l-100 -280c-16.667 -48 -35.167 -88.667 -55.5 -122s-49.5 -56.333 -87.5 -69c48 -13.333 82.833 -36.666 104.5 -69.999s40.5 -74 56.5 -122 l115 -338h-84l-113 330c-12 40.667 -26.5 72 -43.5 94s-36.833 38 -59.5 48s-47.334 16.167 -74.001 18.5s-55 3.5 -85 3.5h-155v-494h-82v494h-156c-31.333 0 -60.333 -1.16699 -87 -3.5s-50.834 -8.5 -72.501 -18.5s-41.167 -26 -58.5 -48s-32.666 -52.667 -45.999 -92 l-113 -332h-82z"/>
    <glyph glyph-name="afii10073" unicode="з" horiz-adv-x="862" d="M49 43l23.0039 61.001c45.333 -16.667 94.5 -29.667 147.5 -39s104.167 -14 153.5 -14c92.667 0 168.667 19.833 228 59.5s89 101.834 89 186.501c0 35.333 -8.16699 66.333 -24.5 93s-37.833 48.834 -64.5 66.501s-58 31 -94 40s-73.333 13.5 -112 13.5h-139v63h123 c83.333 0 150.166 17.167 200.499 51.5s75.5 82.833 75.5 145.5c0 57.333 -22.5 100.333 -67.5 129s-107.833 43 -188.5 43c-44 0 -89 -5.16699 -135 -15.5s-99.333 -27.833 -160 -52.5l-22 62c48 23.333 101 41.833 159 55.5s115 20.5 171 20.5 c101.333 0 181.166 -20.167 239.499 -60.5s87.5 -99.5 87.5 -177.5c0 -57.333 -17.667 -105.833 -53 -145.5s-80.333 -66.834 -135 -81.501v-2c30 -6.66699 58.333 -16.834 85 -30.501s50.167 -30.834 70.5 -51.501s36.666 -45.334 48.999 -74.001s18.5 -60 18.5 -94 c0 -49.333 -9.5 -93.166 -28.5 -131.499s-46 -70.666 -81 -96.999s-76.333 -46.333 -124 -60s-100.834 -20.5 -159.501 -20.5c-54.667 0 -112 4.66699 -172 14s-113.333 23.666 -160 42.999z"/>
    <glyph glyph-name="afii10074" unicode="и" horiz-adv-x="993" d="M121 0v995h82v-866h6l76 114.5l75 112.5l431 639h79v-995h-82v872h-6l-71.5 -107l-81.5 -126l-112.5 -169l-114 -171l-108.5 -161l-93 -138h-80z"/>
    <glyph glyph-name="afii10075" unicode="й" horiz-adv-x="993" d="M121 0v995h82v-866h6l76 114.5l75 112.5l431 639h79v-995h-82v872h-6l-71.5 -107l-81.5 -126l-112.5 -169l-114 -171l-108.5 -161l-93 -138h-80zM188 1343l63.998 40.999c32.667 -48 69.834 -86.833 111.501 -116.5s84.5 -44.5 128.5 -44.5 c32.667 0 71.834 10.167 117.501 30.5s99.167 60.5 160.5 120.5l35 -28c-56 -75.333 -111 -127.666 -165 -156.999s-105.667 -44 -155 -44c-31.333 0 -61.333 5.5 -90 16.5s-55.667 25.667 -81 44s-48.5 39.5 -69.5 63.5s-39.833 48.667 -56.5 74z"/>
    <glyph glyph-name="afii10076" unicode="к" horiz-adv-x="901" d="M121 0v1001h82v-442h241c39.333 0 76.166 9.83301 110.499 29.5s62.5 60.5 84.5 122.5l53.5 145.5l52.5 144.5h80l-100 -280c-16.667 -48 -35.167 -88.667 -55.5 -122s-49.5 -56.333 -87.5 -69c48 -13.333 82.833 -36.666 104.5 -69.999s40.5 -74 56.5 -122 c2.66699 -6.66699 9.5 -26.834 20.5 -60.501l37 -108.5l37 -108.5c11 -33.667 17.833 -53.834 20.5 -60.501h-82l-112 332v-2c-23.333 66.667 -52.166 110.667 -86.499 132s-74.5 32 -120.5 32h-254v-494h-82z"/>
    <glyph glyph-name="afii10077" unicode="л" horiz-adv-x="968" d="M14 33c54.667 20.667 97.6689 49.999 129.002 87.999s55.666 86.667 72.999 146s29.333 129.333 36 210s13.334 174.334 20.001 281.001l15 239h561v-997h-84v926h-404l-12 -174c-6.66699 -102.667 -13.834 -197.667 -21.501 -285s-21.334 -164.5 -41.001 -231.5 s-49 -123 -88 -168s-93.167 -77.167 -162.5 -96.5z"/>
    <glyph glyph-name="afii10078" unicode="м" horiz-adv-x="1251" d="M121 0c0 166.667 0.333008 332.5 1 497.5s1 330.833 1 497.5h88l80 -152.5l88 -177l92 -184.5l90 -172l72 -137h2l133 272l274 551h86v-995h-81v844h-3l-30.5 -63.5l-30.5 -63.5l-315 -631h-70l-78 147l-89 173.5l-91 176.5l-84 160l-53 107h-4v-850h-78z"/>
    <glyph glyph-name="afii10079" unicode="н" horiz-adv-x="974" d="M121 0v997h84v-432h563v432h84v-997h-84v492h-563v-492h-84z"/>
    <glyph glyph-name="afii10080" unicode="о" horiz-adv-x="1007" d="M100 487c0 64 7.16797 127.167 21.501 189.5s38 118.166 71 167.499s75.667 89.333 128 120s116.833 46 193.5 46c78 0 142.5 -15 193.5 -45s91.167 -69.667 120.5 -119s49.833 -105 61.5 -167s17.5 -124.333 17.5 -187c0 -61.333 -5.83301 -122.166 -17.5 -182.499 s-32.834 -114.333 -63.501 -162s-72.167 -86.5 -124.5 -116.5s-118.833 -45 -199.5 -45c-78 0 -143 14 -195 42s-93.333 65.167 -124 111.5s-52.167 99.5 -64.5 159.5s-18.5 122.667 -18.5 188zM188.001 485c0 -56 4.17285 -109.498 12.5059 -160.498 s24.166 -96.333 47.499 -136s56.166 -71.5 98.499 -95.5s98.166 -36 167.499 -36c62.667 0 114.167 13 154.5 39s71.833 59.833 94.5 101.5s38 88 46 139s12 101.167 12 150.5s-3.66699 100.666 -11 153.999s-22.333 102.166 -45 146.499s-53.834 80.833 -93.501 109.5 s-92.167 43 -157.5 43s-118.833 -13.667 -160.5 -41s-74.834 -62.5 -99.501 -105.5s-41.834 -91.833 -51.501 -146.5s-14.5 -108.667 -14.5 -162z"/>
    <glyph glyph-name="afii10081" unicode="п" horiz-adv-x="976" d="M121 0v995h731v-101.5v-178c0 -67.667 0.333008 -140 1 -217s1 -149.667 1 -218v-179v-101.5h-86v926h-561v-926h-86z"/>
    <glyph glyph-name="afii10082" unicode="р" horiz-adv-x="989" d="M121 -432l0.00195312 1429h78c0 -13.333 0.333008 -31 1 -53s1 -39 1 -51l6 -6c48 36.667 99.5 66.334 154.5 89.001s111.167 34 168.5 34c66.667 0 123 -12.667 169 -38s82.667 -60.166 110 -104.499s47.166 -96.166 59.499 -155.499s18.5 -124 18.5 -194 c0 -75.333 -6.83301 -145 -20.5 -209s-35.834 -119.833 -66.501 -167.5s-70.667 -85.167 -120 -112.5s-108.666 -41 -177.999 -41c-39.333 0 -85.333 5.33301 -138 16s-106.334 32 -161.001 64v-500h-82zM203.002 144.997c35.333 -23.333 79.3281 -43.833 131.995 -61.5 s106.334 -26.5 161.001 -26.5c42 0 81.5 7.83301 118.5 23.5s69.167 42 96.5 79s48.833 85.167 64.5 144.5s23.5 132 23.5 218c0 78 -6.83301 143.667 -20.5 197s-33.167 96 -58.5 128s-56.166 54.833 -92.499 68.5s-76.166 20.5 -119.499 20.5 c-24.667 0 -51 -3.5 -79 -10.5s-55.667 -16.5 -83 -28.5s-53.666 -26 -78.999 -42s-46.666 -32.667 -63.999 -50v-660z"/>
    <glyph glyph-name="afii10083" unicode="с" horiz-adv-x="899" d="M100 481c0 50.667 5.50098 106.668 16.501 168.001s31.833 119 62.5 173s73.667 99.167 129 135.5s127.333 54.5 216 54.5c48 0 95.833 -3.83301 143.5 -11.5s92.167 -20.167 133.5 -37.5l-25 -68c-50.667 19.333 -96.334 31.666 -137.001 36.999s-77 8 -109 8 c-58.667 0 -109.5 -11 -152.5 -33s-78.5 -53 -106.5 -93s-48.833 -88.167 -62.5 -144.5s-20.5 -118.5 -20.5 -186.5c0 -57.333 5.16699 -111.833 15.5 -163.5s27.833 -97 52.5 -136s57.5 -69.833 98.5 -92.5s92.833 -34 155.5 -34c56 0 106.5 5.83301 151.5 17.5 s95.5 29.167 151.5 52.5l23 -61c-39.333 -22 -87.5 -40.833 -144.5 -56.5s-117.5 -23.5 -181.5 -23.5c-75.333 0 -138.833 12.167 -190.5 36.5s-94 58.833 -127 103.5s-56.667 97 -71 157s-21.5 126 -21.5 198z"/>
    <glyph glyph-name="afii10084" unicode="т" horiz-adv-x="851" d="M35 926v71h780v-71h-348v-926h-82v926h-350z"/>
    <glyph glyph-name="afii10085" unicode="у" horiz-adv-x="858" d="M-16 -418l13.9951 67.998c42 -8 74.333 -13.833 97 -17.5s45.667 -5.5 69 -5.5c18 0 35.167 1 51.5 3s31.333 7.83301 45 17.5s26.834 24.834 39.501 45.501s25.334 49.334 38.001 86.001l72 223h-45l-34 101.5l-59.5 179l-72.5 217l-74 217l-60.5 179.5l-33.5 101h84 c2.66699 -9.33301 9.16699 -30 19.5 -62l37 -112.5l45 -137.5l45 -137.5l37.5 -112.5c10.667 -32 17.334 -52.667 20.001 -62l103 -314h8c2.66699 6.66699 7.16699 19.667 13.5 39l22.5 72l29.5 95l34.5 112l197 620h86c-4 -15.333 -12.5 -42.333 -25.5 -81l-46 -142 l-59.5 -184.5l-65.5 -204.5l-65.5 -204.5l-60.5 -183.5l-46 -142.5c-12.333 -39.667 -21.166 -66.167 -26.499 -79.5c-22 -68 -49.667 -121.833 -83 -161.5s-83 -59.5 -149 -59.5c-20.667 1.33301 -47.667 3.33301 -81 6s-73.666 10 -120.999 22z"/>
    <glyph glyph-name="afii10086" unicode="ф" horiz-adv-x="1280" d="M82 485c0 70.667 9.49609 137.163 28.4961 199.496s49.333 116.333 91 162s95.334 82.834 161.001 111.501s144.834 45.334 237.501 50.001v442h82v-442c92.667 -2.66699 171.834 -16.334 237.501 -41.001s119 -59.167 160 -103.5s71 -96.666 90 -156.999 s28.5 -126.5 28.5 -198.5c0 -69.333 -8.83301 -135.166 -26.5 -197.499s-47 -116.666 -88 -162.999s-94.333 -83.833 -160 -112.5s-146.167 -45 -241.5 -49l-2 -408h-80v408c-100 4 -183 19.333 -249 46s-119.167 62.167 -159.5 106.5s-68.666 95.833 -84.999 154.5 s-24.5 122.667 -24.5 192zM163.996 491.996c0 -62.667 6.49902 -119.999 19.499 -171.999s35.833 -97.167 68.5 -135.5s77.334 -68.833 134.001 -91.5s128 -36 214 -40v885c-82 -4 -151 -18.333 -207 -43s-101 -56.834 -135 -96.501s-58.167 -85.667 -72.5 -138 s-21.5 -108.5 -21.5 -168.5zM681.995 52.9971c86 4 157 18.6641 213 43.9971s100.333 58.166 133 98.499s55.5 86.5 68.5 138.5s19.5 106.667 19.5 164c0 58.667 -6.16699 113.834 -18.5 165.501s-34.833 97.334 -67.5 137.001s-77 71.834 -133 96.501 s-127.667 38.334 -215 41.001v-885z"/>
    <glyph glyph-name="afii10087" unicode="х" horiz-adv-x="800" d="M16 0l165 263l167 263l-148.5 236l-146.5 233h94l250 -407l250 407h92l-295 -465l338 -530h-96l-289 469l-288 -469h-93z"/>
    <glyph glyph-name="afii10088" unicode="ц" horiz-adv-x="1026" d="M121 0v997h82v-925h567v925h82v-925h109v-342h-72v270h-768z"/>
    <glyph glyph-name="afii10089" unicode="ч" horiz-adv-x="919" d="M84 696l0.000976562 300.998h82v-270c0 -40.667 2 -77.167 6 -109.5s13.167 -59.666 27.5 -81.999s34.5 -39.333 60.5 -51s61.667 -17.5 107 -17.5c24.667 0 51.167 1.66699 79.5 5s58 9.5 89 18.5s61.5 21 91.5 36s58.667 33.5 86 55.5v415h84v-997h-84v508 c-64 -44 -127.5 -73.833 -190.5 -89.5s-118.5 -23.5 -166.5 -23.5c-68 0 -120.167 9.66699 -156.5 29s-63.333 44 -81 74s-27.834 62.333 -30.501 97s-4 68.334 -4 101.001z"/>
    <glyph glyph-name="afii10090" unicode="ш" horiz-adv-x="1376" d="M123 0v997h82v-925h444v925h84v-925h441v925h81v-997h-1132z"/>
    <glyph glyph-name="afii10091" unicode="щ" horiz-adv-x="1417" d="M123 0v997h82v-925h444v925h84v-925h441v925h81v-925h107v-342h-72v270h-1167z"/>
    <glyph glyph-name="afii10092" unicode="ъ" horiz-adv-x="1191" d="M25 926l-0.000976562 71.001h436v-407h352c61.333 0 112.166 -9.16699 152.499 -27.5s72.833 -41.833 97.5 -70.5s42 -60.5 52 -95.5s15 -68.833 15 -101.5c0 -48 -8.16699 -90.333 -24.5 -127s-38.166 -67.334 -65.499 -92.001s-59.666 -43.5 -96.999 -56.5 s-77.333 -19.5 -120 -19.5h-444v926h-354zM460.999 70.001h355.998c66.667 0 121.667 19 165 57s65 94 65 168c0 42 -7.16699 77.333 -21.5 106s-33.166 52 -56.499 70s-49.666 30.667 -78.999 38s-59 11 -89 11h-340v-450z"/>
    <glyph glyph-name="afii10093" unicode="ы" horiz-adv-x="1216" d="M121 0v997.001h84v-407h352c61.333 0 112.166 -9.16699 152.499 -27.5s72.833 -41.833 97.5 -70.5s42 -60.5 52 -95.5s15 -68.833 15 -101.5c0 -48 -8.16699 -90.333 -24.5 -127s-38.166 -67.334 -65.499 -92.001s-60 -43.5 -98 -56.5s-78.333 -19.5 -121 -19.5h-444z M205 72.001h355.998c65.333 0 120 18.667 164 56s66 93 66 167c0 42 -7.16699 77.333 -21.5 106s-33.166 52 -56.499 70s-49.666 30.667 -78.999 38s-59 11 -89 11h-340v-448zM1012 0.000976562v997h84v-997h-84z"/>
    <glyph glyph-name="afii10094" unicode="ь" horiz-adv-x="935" d="M121 0v997.001h84v-407h352c61.333 0 112.166 -9.16699 152.499 -27.5s72.833 -41.833 97.5 -70.5s42 -60.5 52 -95.5s15 -68.833 15 -101.5c0 -48 -8.16699 -90.333 -24.5 -127s-38.166 -67.334 -65.499 -92.001s-60 -43.5 -98 -56.5s-78.333 -19.5 -121 -19.5h-444z M205 72.001h355.998c65.333 0 120 18.667 164 56s66 93 66 167c0 42 -7.16699 77.333 -21.5 106s-33.166 52 -56.499 70s-49.666 30.667 -78.999 38s-59 11 -89 11h-340v-448z"/>
    <glyph glyph-name="afii10095" unicode="э" horiz-adv-x="882" d="M47 63l26.9971 57.999c27.333 -12 52.166 -22.167 74.499 -30.5s44.833 -15 67.5 -20s45.5 -8.83301 68.5 -11.5s48.833 -4 77.5 -4c57.333 0 106.833 12 148.5 36s76.167 56.5 103.5 97.5s47.5 88.167 60.5 141.5s19.5 109.333 19.5 168l-424 -4v71l426 -8 c-4 114.667 -33 207.5 -87 278.5s-135.333 106.5 -244 106.5c-31.333 0 -67.166 -2 -107.499 -6s-89.166 -17 -146.499 -39l-23 61c36.667 16.667 79.667 29.834 129 39.501s100 14.5 152 14.5c87.333 0 158.333 -16.167 213 -48.5s96.667 -73 126 -122s49 -102.5 59 -160.5 s15 -113.667 15 -167c0 -68 -7.83301 -133.833 -23.5 -197.5s-40.5 -120 -74.5 -169s-77.667 -88.167 -131 -117.5s-117.666 -44 -192.999 -44c-62.667 0 -120.167 7.16699 -172.5 21.5s-99.166 32.833 -140.499 55.5z"/>
    <glyph glyph-name="afii10096" unicode="ю" horiz-adv-x="1286" d="M121 0v994.997h80v-436h196c4 57.333 14.667 113.333 32 168s41.666 102.834 72.999 144.501s71.666 75.167 120.999 100.5s108 38 176 38c78 0 141.833 -15.833 191.5 -47.5s88.834 -72 117.501 -121s48.5 -104.167 59.5 -165.5s16.5 -122.666 16.5 -183.999 c0 -58.667 -5.83301 -118.167 -17.5 -178.5s-32.167 -114.666 -61.5 -162.999s-70 -87.833 -122 -118.5s-117.667 -46 -197 -46c-78 0 -142.167 15 -192.5 45s-90.166 69.167 -119.499 117.5s-49.833 102.833 -61.5 163.5s-17.5 122 -17.5 184h-194v-496h-80zM481 482.997 c0 -52 3.49902 -103.499 10.499 -154.499s21.667 -96.667 44 -137s54.333 -73.166 96 -98.499s97.5 -38 167.5 -38c62.667 0 113.5 13.667 152.5 41s69.333 62.166 91 104.499s36.334 88.666 44.001 138.999s11.5 98.833 11.5 145.5c0 48 -3.5 98.667 -10.5 152 s-21.333 102.5 -43 147.5s-52 82.167 -91 111.5s-90.5 44 -154.5 44s-116.5 -14 -157.5 -42s-73.5 -63.833 -97.5 -107.5s-40.5 -92.5 -49.5 -146.5s-13.5 -107.667 -13.5 -161z"/>
    <glyph glyph-name="afii10097" unicode="я" horiz-adv-x="950" d="M63 0l105 305c12 38 28.667 71.5 50 100.5s53 50.833 95 65.5c-69.333 19.333 -118.333 51.5 -147 96.5s-43 95.5 -43 151.5c0 32.667 5.5 65.667 16.5 99s29 63 54 89s58.333 47.167 100 63.5s92.5 24.5 152.5 24.5h381v-995h-84v444h-254 c-53.333 0 -101.333 -10.167 -144 -30.5s-75 -61.833 -97 -124.5l-98 -289h-87zM209 719c0 -36.667 6.50098 -68.001 19.501 -94.001s30.667 -47.167 53 -63.5s48.666 -28.333 78.999 -36s63.166 -11.5 98.499 -11.5h284v412h-288 c-75.333 0 -135.166 -16.167 -179.499 -48.5s-66.5 -85.166 -66.5 -158.499z"/>
    <glyph glyph-name="afii10071" unicode="ё" horiz-adv-x="972" d="M100 492c0 39.333 4.50293 88.335 13.5029 147.002s27.5 115.667 55.5 171s69 102.5 123 141.5s126 58.5 216 58.5c64 0 117.5 -9.66699 160.5 -29s78.167 -44 105.5 -74s48.166 -63.333 62.499 -100s24.666 -72.834 30.999 -108.501s9.83301 -68.167 10.5 -97.5 s1 -52.333 1 -69v-47h-691c0 -57.333 4.5 -111.5 13.5 -162.5s25.5 -96.333 49.5 -136s56.833 -71.167 98.5 -94.5s94.5 -35 158.5 -35c60 0 113.833 5.83301 161.5 17.5s99.5 31.167 155.5 58.5l25 -59c-56 -30 -110.667 -52.167 -164 -66.5s-112 -21.5 -176 -21.5 c-82 0 -149.667 13.333 -203 40s-95.333 63.167 -126 109.5s-51.834 100.166 -63.501 161.499s-17.5 126.333 -17.5 195zM190.003 551.002h605c0 57.333 -4.83301 109.833 -14.5 157.5s-25.5 89 -47.5 124s-51.333 62.333 -88 82s-82.334 29.5 -137.001 29.5 c-57.333 0 -105.166 -10.833 -143.499 -32.5s-69.833 -51 -94.5 -88s-43 -79 -55 -126s-20.333 -95.833 -25 -146.5zM289.003 1255c0 19.333 6.16699 34.833 18.5 46.5s26.5 17.5 42.5 17.5c19.333 0 35.166 -5.83301 47.499 -17.5s18.5 -27.167 18.5 -46.5 c0 -18 -6.16699 -32.667 -18.5 -44s-28.166 -17 -47.499 -17c-18 0 -32.667 5.83301 -44 17.5s-17 26.167 -17 43.5zM594.003 1255c0 19.333 6.16699 34.833 18.5 46.5s26.5 17.5 42.5 17.5c19.333 0 35.166 -5.83301 47.499 -17.5s18.5 -27.167 18.5 -46.5 c0 -18 -6.16699 -32.667 -18.5 -44s-28.166 -17 -47.499 -17c-18 0 -32.667 5.83301 -44 17.5s-17 26.167 -17 43.5z"/>
    <glyph glyph-name="afii10099" unicode="ђ" horiz-adv-x="999" d="M16 1167l0.000976562 59.998h119v223h84v-223h436v-60h-436v-286c69.333 30 132.166 51.833 188.499 65.5s108.833 20.5 157.5 20.5c108 0 191 -40.333 249 -121s87 -211.667 87 -393c0 -66.667 -6.5 -130.167 -19.5 -190.5s-35.167 -113 -66.5 -158 s-73 -80.833 -125 -107.5s-117.333 -40 -196 -40v63c53.333 1.33301 100 10.333 140 27s73.667 42 101 76s47.833 78.333 61.5 133s20.5 121.667 20.5 201c0 83.333 -6.5 153.333 -19.5 210s-31 102 -54 136s-51.667 58.167 -86 72.5s-72.5 21.5 -114.5 21.5 c-23.333 0 -49 -2.66699 -77 -8s-56.333 -12.166 -85 -20.499s-56.667 -17.666 -84 -27.999s-53.333 -20.833 -78 -31.5v-809h-82c0 195.333 -0.333008 389.833 -1 583.5s-1 388.167 -1 583.5h-119z"/>
    <glyph glyph-name="afii10100" unicode="ѓ" horiz-adv-x="757" d="M121 0v997h620v-71h-538v-926h-82zM324 1206l219 303l73 -63l-249 -275z"/>
    <glyph glyph-name="afii10101" unicode="є" horiz-adv-x="903" d="M100 479c0 50.667 5.49707 106.996 16.4971 168.996s31.833 120 62.5 174s73.334 99.167 128.001 135.5s126.334 54.5 215.001 54.5c49.333 0 97.833 -4.16699 145.5 -12.5s92.167 -21.166 133.5 -38.499l-25 -66c-52 19.333 -98 31.333 -138 36s-76 7 -108 7 c-110.667 0 -193.167 -36.167 -247.5 -108.5s-85.166 -169.166 -92.499 -290.499c70.667 2.66699 141.667 4.33398 213 5.00098s142.333 1.66699 213 3v-70c-72.667 0 -144 0.333008 -214 1s-141.333 1 -214 1c0 -58.667 5.16699 -113.5 15.5 -164.5 s27.833 -95.667 52.5 -134s57.5 -68.833 98.5 -91.5s92.167 -34 153.5 -34c57.333 0 108.5 5.83301 153.5 17.5s94.833 29.167 149.5 52.5l25 -59c-40.667 -23.333 -89.5 -42.166 -146.5 -56.499s-116.833 -21.5 -179.5 -21.5c-76.667 0 -140.834 12.167 -192.501 36.5 s-93.667 58 -126 101s-55.666 94.667 -69.999 155s-21.5 126.5 -21.5 198.5z"/>
    <glyph glyph-name="afii10102" unicode="ѕ" horiz-adv-x="856" d="M88 59l31.002 62.001c57.333 -28.667 110.166 -47.167 158.499 -55.5s91.166 -12.5 128.499 -12.5c39.333 0 76 4.16699 110 12.5s63.667 20.666 89 36.999s45.166 37.166 59.499 62.499s21.5 55.666 21.5 90.999c0 31.333 -7.16699 58.333 -21.5 81 s-33.166 42.5 -56.499 59.5s-50 31.333 -80 43s-60.667 22.834 -92 33.501c-40.667 13.333 -80.5 27.666 -119.5 42.999s-73.5 33.5 -103.5 54.5s-53.833 46.167 -71.5 75.5s-26.5 64.666 -26.5 105.999c0 46.667 8.5 86.334 25.5 119.001s40.5 59.167 70.5 79.5 s64.5 35.333 103.5 45s80.167 14.5 123.5 14.5c31.333 0 72.666 -3.83301 123.999 -11.5s99 -22.5 143 -44.5c-2.66699 -5.33301 -7.16699 -16.166 -13.5 -32.499s-10.833 -27.166 -13.5 -32.499c-48 19.333 -92.167 32.666 -132.5 39.999s-76.833 11 -109.5 11 c-68 0 -124.833 -15 -170.5 -45s-68.5 -78.333 -68.5 -145c0 -27.333 7.83301 -51.666 23.5 -72.999s35 -39.833 58 -55.5s48.5 -29 76.5 -40s54.333 -20.5 79 -28.5c40.667 -13.333 81.167 -27.333 121.5 -42s76.333 -32.5 108 -53.5s57 -47.5 76 -79.5s28.5 -72 28.5 -120 s-9.5 -89 -28.5 -123s-45 -62.333 -78 -85s-71.333 -39 -115 -49s-89.167 -15 -136.5 -15c-57.333 0 -114.666 5.66699 -171.999 17s-107.333 30 -150 56z"/>
    <glyph glyph-name="afii10103" unicode="і" horiz-adv-x="425" d="M145 1249c0 19.333 6.5 35.833 19.5 49.5s28.5 20.5 46.5 20.5c19.333 0 35.833 -6.83301 49.5 -20.5s20.5 -30.167 20.5 -49.5c0 -18 -6.83301 -33.333 -20.5 -46s-30.167 -19 -49.5 -19c-18 0 -33.5 6.5 -46.5 19.5s-19.5 28.167 -19.5 45.5zM170 0l2 997h82v-997h-84z "/>
    <glyph glyph-name="afii10104" unicode="ї" horiz-adv-x="425" d="M0 1241c0 19.333 6.16699 34.833 18.5 46.5s26.5 17.5 42.5 17.5c19.333 0 35.166 -5.83301 47.499 -17.5s18.5 -27.167 18.5 -46.5c0 -18 -6.16699 -32.667 -18.5 -44s-28.166 -17 -47.499 -17c-18 0 -32.667 5.66699 -44 17s-17 26 -17 44zM172 0v997h82v-997h-82z M305 1241c0 19.333 6.16699 34.833 18.5 46.5s26.833 17.5 43.5 17.5c19.333 0 35 -5.83301 47 -17.5s18 -27.167 18 -46.5c0 -18 -6.16699 -32.667 -18.5 -44s-27.833 -17 -46.5 -17c-18 0 -32.833 5.66699 -44.5 17s-17.5 26 -17.5 44z"/>
    <glyph glyph-name="afii10105" unicode="ј" horiz-adv-x="442" d="M-53 -381c49.333 26 89.333 51.667 120 77s54.834 51.666 72.501 78.999s29.834 57 36.501 89s10 69 10 111l-2 1022h84v-1007c-1.33301 -56 -6.33301 -105.167 -15 -147.5s-24.334 -80.333 -47.001 -114s-52.834 -64 -90.501 -91s-85.167 -52.833 -142.5 -77.5 c-2.66699 6.66699 -7 16.834 -13 30.501s-10.333 23.167 -13 28.5zM160 1249c0 19.333 6.5 35.833 19.5 49.5s28.167 20.5 45.5 20.5c19.333 0 35.833 -6.83301 49.5 -20.5s20.5 -30.167 20.5 -49.5c0 -18 -6.83301 -33.333 -20.5 -46s-30.167 -19 -49.5 -19 c-18 0 -33.333 6.33301 -46 19s-19 28 -19 46z"/>
    <glyph glyph-name="afii10106" unicode="љ" horiz-adv-x="1503" d="M14 33c54.667 20.667 98.168 49.001 130.501 85.001s57 83 74 141s29.167 128 36.5 210s13.666 178.333 18.999 289l13 239h485v-407h352c61.333 0 112.5 -9.16699 153.5 -27.5s73.5 -41.833 97.5 -70.5s41.167 -60.5 51.5 -95.5s15.5 -68.833 15.5 -101.5 c0 -48 -7.83301 -90.333 -23.5 -127s-37.5 -67.334 -65.5 -92.001s-60.833 -43.5 -98.5 -56.5s-77.5 -19.5 -119.5 -19.5h-445v926h-332l-8 -174c-5.33301 -102.667 -11.833 -197.667 -19.5 -285s-21.667 -164.5 -42 -231.5s-50.333 -123 -90 -168 s-94.167 -77.167 -163.5 -96.5zM772.001 72.001h355.998c66.667 0 122 18.667 166 56s66 93 66 167c0 42 -7.16699 77.333 -21.5 106s-33.166 52 -56.499 70s-49.666 30.667 -78.999 38s-59 11 -89 11h-342v-448z"/>
    <glyph glyph-name="afii10107" unicode="њ" horiz-adv-x="1482" d="M121 997h81.998v-413h467v413h82v-413h346c61.333 0 112.833 -9 154.5 -27s74.834 -41 99.501 -69s42.334 -59 53.001 -93s16 -68 16 -102c0 -48 -7.83301 -90 -23.5 -126s-37.5 -66.333 -65.5 -91s-60.667 -43.5 -98 -56.5s-77.333 -19.5 -120 -19.5h-444v512h-467v-512 h-80zM751.998 72l355.999 0.000976562c66.667 0 121.834 18.333 165.501 55s65.5 92 65.5 166c0 42 -7.16699 77 -21.5 105s-33 50.667 -56 68s-49.167 29.666 -78.5 36.999s-59 11 -89 11h-342v-442z"/>
    <glyph glyph-name="afii10108" unicode="ћ" horiz-adv-x="987" d="M0 1165l0.00195312 60.0039h133v227h84v-227h416v-60h-416v-291c70.667 36.667 139.5 65.667 206.5 87s124.5 32 172.5 32c65.333 0 116.166 -9.83301 152.499 -29.5s63 -44.167 80 -73.5s27.167 -61.833 30.5 -97.5s5 -69.834 5 -102.501v-690h-84v659 c0 38 -2 73.167 -6 105.5s-13.167 60.166 -27.5 83.499s-34.833 41.166 -61.5 53.499s-63.334 18.5 -110.001 18.5c-56 0 -116.667 -12.333 -182 -37s-124 -51.334 -176 -80.001v-803h-84v1165h-133z"/>
    <glyph glyph-name="afii10109" unicode="ќ" horiz-adv-x="901" d="M121 0v1001h82v-442h241c39.333 0 76.166 9.83301 110.499 29.5s62.5 60.5 84.5 122.5l53.5 145.5l52.5 144.5h80l-100 -280c-16.667 -48 -35.167 -88.667 -55.5 -122s-49.5 -56.333 -87.5 -69c48 -13.333 82.833 -36.666 104.5 -69.999s40.5 -74 56.5 -122 c2.66699 -6.66699 9.5 -26.834 20.5 -60.501l37 -108.5l37 -108.5c11 -33.667 17.833 -53.834 20.5 -60.501h-82l-112 332v-2c-23.333 66.667 -52.166 110.667 -86.499 132s-74.5 32 -120.5 32h-254v-494h-82zM369 1157l219 303l74 -63l-250 -275z"/>
    <glyph glyph-name="afii10110" unicode="ў" horiz-adv-x="858" d="M-16 -418l13.9951 67.998c42 -8 74.333 -13.833 97 -17.5s45.667 -5.5 69 -5.5c18 0 35.167 1 51.5 3s31.333 7.83301 45 17.5s26.834 24.834 39.501 45.501s25.334 49.334 38.001 86.001l72 223h-45l-34 101.5l-59.5 179l-72.5 217l-74 217l-60.5 179.5l-33.5 101h84 c2.66699 -9.33301 9.16699 -30 19.5 -62l37 -112.5l45 -137.5l45 -137.5l37.5 -112.5c10.667 -32 17.334 -52.667 20.001 -62l103 -316h8c2.66699 6.66699 7.16699 19.667 13.5 39l22.5 72l29.5 96l34.5 113l197 620h86c-4 -15.333 -12.5 -42.333 -25.5 -81l-46 -142 l-59.5 -184.5l-65.5 -204.5l-65.5 -204.5l-60.5 -183.5l-46 -142.5c-12.333 -39.667 -21.166 -66.167 -26.499 -79.5c-22 -68 -49.667 -121.833 -83 -161.5s-83 -59.5 -149 -59.5c-20.667 1.33301 -47.667 3.33301 -81 6s-73.666 10 -120.999 22zM120.995 1329 l62.9971 40.998c32.667 -48 69.834 -87 111.501 -117s84.5 -45 128.5 -45c32.667 0 71.834 10.333 117.501 31s99.167 61 160.5 121l35 -29c-56 -75.333 -110.833 -127.666 -164.5 -156.999s-105.167 -44 -154.5 -44c-31.333 0 -61.333 5.5 -90 16.5 s-55.667 25.833 -81 44.5s-48.666 39.834 -69.999 63.501s-40 48.5 -56 74.5z"/>
    <glyph glyph-name="afii10193" unicode="џ" horiz-adv-x="974" d="M121 0v997h84v-925h567v925h82v-997h-330v-281h-73v281h-330z"/>
    <glyph glyph-name="afii10050" unicode="Ґ" horiz-adv-x="966" d="M164 0v1399h702v256h76v-330h-688l-2 -1325h-88z"/>
    <glyph glyph-name="afii10098" unicode="ґ" horiz-adv-x="757" d="M121 0v997h549v199h65v-270h-532v-926h-82z"/>
    <glyph glyph-name="afii10846" unicode="ә" horiz-adv-x="931" d="M86 463l-0.00195312 47.0059h688c0 57.333 -4.33301 111.666 -13 162.999s-25 96.666 -49 135.999s-56.5 70.666 -97.5 93.999s-93.5 35 -157.5 35c-60 0 -113.667 -5.83301 -161 -17.5s-99 -30.5 -155 -56.5l-24 60c54.667 30 108.5 51.833 161.5 65.5 s111.833 20.5 176.5 20.5c82 0 149.5 -13.333 202.5 -40s94.5 -62.834 124.5 -108.501s50.833 -99.334 62.5 -161.001s17.5 -126.5 17.5 -194.5c0 -26 -1.66699 -57.167 -5 -93.5s-10.166 -73.5 -20.499 -111.5s-24.666 -75.833 -42.999 -113.5s-42.5 -71.5 -72.5 -101.5 s-66.833 -54.167 -110.5 -72.5s-95.5 -27.5 -155.5 -27.5c-62.667 0 -115.667 9.5 -159 28.5s-78.5 43.5 -105.5 73.5s-47.833 63.5 -62.5 100.5s-25 73.167 -31 108.5s-9.33301 67.666 -10 96.999s-1 52.333 -1 69zM169.998 446.006 c0 -57.333 4.83203 -109.832 14.499 -157.499s25.334 -88.834 47.001 -123.501s51 -61.667 88 -81s82.833 -29 137.5 -29c56 0 103 11 141 33s69.333 51 94 87s43.167 77.667 55.5 125s20.5 96 24.5 146h-602z"/>
    <glyph glyph-name="uni2000" unicode=" " horiz-adv-x="907"/>
    <glyph glyph-name="uni2001" unicode=" " horiz-adv-x="1815"/>
    <glyph glyph-name="uni2002" unicode=" " horiz-adv-x="907"/>
    <glyph glyph-name="uni2003" unicode=" " horiz-adv-x="1815"/>
    <glyph glyph-name="uni2004" unicode=" " horiz-adv-x="605"/>
    <glyph glyph-name="uni2005" unicode=" " horiz-adv-x="453"/>
    <glyph glyph-name="uni2006" unicode=" " horiz-adv-x="302"/>
    <glyph glyph-name="uni2007" unicode=" " horiz-adv-x="302"/>
    <glyph glyph-name="uni2008" unicode=" " horiz-adv-x="226"/>
    <glyph glyph-name="uni2009" unicode=" " horiz-adv-x="363"/>
    <glyph glyph-name="uni200A" unicode=" " horiz-adv-x="100"/>
    <glyph glyph-name="uni2010" unicode="‐" horiz-adv-x="684" d="M104 481v80h476v-80h-476z"/>
    <glyph glyph-name="uni2011" unicode="‑" horiz-adv-x="684" d="M104 481v80h476v-80h-476z"/>
    <glyph glyph-name="figuredash" unicode="‒" horiz-adv-x="684" d="M104 481v80h476v-80h-476z"/>
    <glyph glyph-name="endash" unicode="–" horiz-adv-x="1024" d="M55 479v78h920v-78h-920z"/>
    <glyph glyph-name="emdash" unicode="—" horiz-adv-x="2048" d="M55 479v78h1927v-78h-1927z"/>
    <glyph glyph-name="quoteleft" unicode="‘" horiz-adv-x="399" d="M127 1212c0 19.333 3.00098 40.001 9.00098 62.001s14.833 43.833 26.5 65.5s25.667 42.5 42 62.5s34.833 36.667 55.5 50l23 -29c-42 -52 -63.333 -106.333 -64 -163c18 -2.66699 32.5 -9.83398 43.5 -21.501s16.5 -27.167 16.5 -46.5s-6.83301 -36.5 -20.5 -51.5 s-30.834 -22.5 -51.501 -22.5c-23.333 0 -42.5 8.16699 -57.5 24.5s-22.5 39.5 -22.5 69.5z"/>
    <glyph glyph-name="quoteright" unicode="’" horiz-adv-x="399" d="M129 1149c23.333 27.333 39.832 54.6689 49.499 82.002s15.167 54.666 16.5 81.999c-19.333 2.66699 -34.5 9.66699 -45.5 21s-16.5 26.666 -16.5 45.999s6.83301 36.5 20.5 51.5s30.834 22.5 51.501 22.5c23.333 0 42.5 -8.16699 57.5 -24.5s22.5 -39.5 22.5 -69.5 c0 -19.333 -3.16699 -39.833 -9.5 -61.5s-15.333 -43.5 -27 -65.5s-25.667 -42.833 -42 -62.5s-34.5 -36.5 -54.5 -50.5z"/>
    <glyph glyph-name="quotesinglbase" unicode="‚" horiz-adv-x="296" d="M68 -188c23.333 27.333 39.6699 57.667 49.0029 91s14.666 63.666 15.999 90.999c-19.333 2.66699 -34.333 9.66699 -45 21s-16 26 -16 44c0 20.667 6.83301 38.5 20.5 53.5s30.5 22.5 50.5 22.5c23.333 0 42.5 -8.16699 57.5 -24.5s22.5 -39.5 22.5 -69.5 c0 -19.333 -3 -40.833 -9 -64.5s-14.833 -47.5 -26.5 -71.5s-25.334 -46.667 -41.001 -68s-33.834 -38.666 -54.501 -51.999z"/>
    <glyph glyph-name="quotedblleft" unicode="“" horiz-adv-x="571" d="M125 1212c0 39.333 12.334 82 37.001 128s56.667 83.333 96 112l25 -29c-23.333 -27.333 -39.833 -54.666 -49.5 -81.999s-15.167 -54.333 -16.5 -81c18 -2.66699 32.333 -9.83398 43 -21.501s16 -27.167 16 -46.5s-6.33301 -36.5 -19 -51.5s-29.334 -22.5 -50.001 -22.5 c-24.667 0 -44.5 8.16699 -59.5 24.5s-22.5 39.5 -22.5 69.5zM317.001 1212c0 19.333 3.16699 40.001 9.5 62.001s15.333 43.833 27 65.5s25.667 42.5 42 62.5s34.833 36.667 55.5 50l24 -29c-44 -52 -65.667 -106.333 -65 -163c18 -2.66699 32.333 -9.83398 43 -21.501 s16 -27.167 16 -46.5s-6.5 -36.5 -19.5 -51.5s-30.5 -22.5 -52.5 -22.5c-23.333 0 -42.5 8.16699 -57.5 24.5s-22.5 39.5 -22.5 69.5z"/>
    <glyph glyph-name="quotedblright" unicode="”" horiz-adv-x="571" d="M127 1149c23.333 27.333 40.168 54.6689 50.501 82.002s16.166 54.666 17.499 81.999c-19.333 2.66699 -34.5 9.66699 -45.5 21s-16.5 26.666 -16.5 45.999s6.5 36.5 19.5 51.5s30.5 22.5 52.5 22.5c23.333 0 42.5 -8.16699 57.5 -24.5s22.5 -39.5 22.5 -69.5 c0 -19.333 -3.16699 -39.833 -9.5 -61.5s-15.333 -43.5 -27 -65.5s-25.667 -42.833 -42 -62.5s-34.5 -36.5 -54.5 -50.5zM319.002 1149c23.333 27.333 39.833 54.6689 49.5 82.002s15.167 54.666 16.5 81.999c-18 2.66699 -32.333 9.66699 -43 21s-16 26.666 -16 45.999 s6.5 36.5 19.5 51.5s30.167 22.5 51.5 22.5c23.333 0 42.5 -8.16699 57.5 -24.5s22.5 -39.5 22.5 -69.5c0 -19.333 -3 -39.833 -9 -61.5s-14.833 -43.5 -26.5 -65.5s-25.667 -42.833 -42 -62.5s-34.833 -36.5 -55.5 -50.5z"/>
    <glyph glyph-name="quotedblbase" unicode="„" horiz-adv-x="495" d="M68 -188c23.333 27.333 39.6699 57.667 49.0029 91s14.666 63.666 15.999 90.999c-19.333 2.66699 -34.333 9.66699 -45 21s-16 26 -16 44c0 20.667 6.83301 38.5 20.5 53.5s30.5 22.5 50.5 22.5c23.333 0 42.5 -8.16699 57.5 -24.5s22.5 -39.5 22.5 -69.5 c0 -19.333 -3 -40.833 -9 -64.5s-14.833 -47.5 -26.5 -71.5s-25.334 -46.667 -41.001 -68s-33.834 -38.666 -54.501 -51.999zM264.004 -187.999c23.333 27.333 39.832 57.667 49.499 91s14.5 63.666 14.5 90.999c-18 2.66699 -32.5 9.66699 -43.5 21s-16.5 26 -16.5 44 c0 20.667 6.5 38.5 19.5 53.5s30.5 22.5 52.5 22.5c23.333 0 42.5 -8.16699 57.5 -24.5s22.5 -39.5 22.5 -69.5c0 -19.333 -3.16699 -40.833 -9.5 -64.5s-15.166 -47.5 -26.499 -71.5s-25 -46.667 -41 -68s-34 -38.666 -54 -51.999z"/>
    <glyph glyph-name="bullet" unicode="•" horiz-adv-x="555" d="M121 551c0 45.333 15 83.333 45 114s66.667 46 110 46c45.333 0 83 -15.333 113 -46s45 -68.667 45 -114c0 -44 -15 -81.333 -45 -112s-67.667 -46 -113 -46c-44 0 -80.833 15.333 -110.5 46s-44.5 68 -44.5 112z"/>
    <glyph glyph-name="ellipsis" unicode="…" horiz-adv-x="1085" d="M88 66c0 19.333 7.5 36 22.5 50s32.167 21 51.5 21s36 -7 50 -21s21 -30.667 21 -50s-7.16699 -36.5 -21.5 -51.5s-30.833 -22.5 -49.5 -22.5c-19.333 0 -36.5 7.5 -51.5 22.5s-22.5 32.167 -22.5 51.5zM451 66c0 19.333 7.16699 36 21.5 50s31.5 21 51.5 21 c19.333 0 35.833 -7 49.5 -21s20.5 -30.667 20.5 -50s-6.83301 -36.5 -20.5 -51.5s-30.167 -22.5 -49.5 -22.5c-20.667 0 -38 7.5 -52 22.5s-21 32.167 -21 51.5zM825 66c0 19.333 7.5 36 22.5 50s32.167 21 51.5 21s36.166 -7 50.499 -21s21.5 -30.667 21.5 -50 s-7.16699 -36.5 -21.5 -51.5s-31.166 -22.5 -50.499 -22.5s-36.5 7.5 -51.5 22.5s-22.5 32.167 -22.5 51.5z"/>
    <glyph glyph-name="uni202F" unicode=" " horiz-adv-x="363"/>
    <glyph glyph-name="guilsinglleft" unicode="‹" horiz-adv-x="614" d="M137 338v68l283 299l39 -33l-230 -301l232 -299l-39 -33z"/>
    <glyph glyph-name="guilsinglright" unicode="›" horiz-adv-x="614" d="M127 72l229 299l-227 301l39 33l283 -299v-68l-285 -299z"/>
    <glyph glyph-name="uni205F" unicode=" " horiz-adv-x="453"/>
    <glyph glyph-name="dong" unicode="₫" d="M123 0v61h805v-61h-805zM145 559c0 66.667 6.1709 128.332 18.5039 184.999s32.166 105.5 59.499 146.5s62.5 73.167 105.5 96.5s95.167 35 156.5 35c35.333 0 76.666 -5.5 123.999 -16.5s93.666 -28.833 138.999 -53.5v191h-285v61h285v193h79v-193h109v-61h-109v-993 h-77v94h-2c-39.333 -31.333 -84.333 -56.666 -135 -75.999s-101.334 -29 -152.001 -29c-58.667 0 -108.167 10.667 -148.5 32s-72.833 51 -97.5 89s-42.5 82.333 -53.5 133s-16.5 106 -16.5 166zM227.004 556.998c0 -66.667 6.16699 -122.166 18.5 -166.499 s29.5 -79.833 51.5 -106.5s48.667 -45.834 80 -57.501s65.333 -17.5 102 -17.5c20.667 0 43.667 3 69 9s50.166 14.167 74.499 24.5s47.5 22.333 69.5 36s40.667 28.167 56 43.5v552c-30 19.333 -68.667 36.5 -116 51.5s-94 22.5 -140 22.5 c-35.333 0 -69.166 -6.5 -101.499 -19.5s-60.5 -34.5 -84.5 -64.5s-43.167 -70.167 -57.5 -120.5s-21.5 -112.5 -21.5 -186.5z"/>
    <glyph glyph-name="Euro" unicode="€" d="M49 567v58.002h832v-58h-656c2.66699 -66.667 11.167 -130.667 25.5 -192s38.333 -115.333 72 -162s78.5 -84 134.5 -112s127.667 -42 215 -42c31.333 0 75.333 3.16699 132 9.5s121.667 18.166 195 35.499l17 -65c-22 -8 -47.667 -15.167 -77 -21.5 s-60 -11.833 -92 -16.5s-64.167 -8.33398 -96.5 -11.001s-61.833 -4 -88.5 -4c-88.667 0 -165.167 13.667 -229.5 41s-117.333 66.166 -159 116.499s-73.5 111.333 -95.5 183s-35 151.834 -39 240.501h-90zM49 745.002l0.000976562 55.998h94 c5.33301 66.667 18.666 133.834 39.999 201.501s52.5 128.834 93.5 183.501s93.5 99.334 157.5 134.001s142.667 52 236 52c68 0 130 -5.16699 186 -15.5s103.667 -22.833 143 -37.5l-20 -70c-52 19.333 -106.333 32.333 -163 39s-104.667 10 -144 10 c-69.333 0 -130 -11.833 -182 -35.5s-96.167 -57 -132.5 -100s-65 -95.333 -86 -157s-35.167 -129.834 -42.5 -204.501h652v-56h-832z"/>
    <glyph glyph-name="trademark" unicode="™" horiz-adv-x="1329" d="M86 1341v56h469v-56h-205v-559h-63v559h-201zM627 780v617h65c18 -35.333 35.167 -70.833 51.5 -106.5s33.5 -71.167 51.5 -106.5l56.5 -118.5l55.5 -119.5l117 238l104 213h62v-617h-60v500l-49 -99.5c-16 -33.667 -33 -66.834 -51 -99.501l-49.5 -98 c-16.333 -32.667 -32.5 -66.667 -48.5 -102h-55l-47.5 100c-15 32.667 -30.833 65.334 -47.5 98.001l-47 97.5l-47 99.5h-2v-496h-59z"/>
    <glyph glyph-name="uniE000" unicode="" horiz-adv-x="993" d="M0 0v993h993v-993h-993z"/>
    </font>
</defs>
</svg>
