<?xml version="1.0" encoding="UTF-8" standalone="no"?>
<!DOCTYPE svg PUBLIC "-//W3C//DTD SVG 1.1//EN" "http://www.w3.org/Graphics/SVG/1.1/DTD/svg11.dtd">
<svg>
<metadata>
Created by FontForge 20090914 at Wed Mar 20 16:43:17 2013
 By www-data
Copyright (c) 2006 ParachuteÂ¨, www.parachute.gr.  All rights reserved.
</metadata>
<defs>
<font id="pf_agora_sans_pro_Rg" horiz-adv-x="1818">
  <font-face font-family="PF Agora Sans Pro" font-weight="400" font-stretch="normal" units-per-em="1000" panose-1="2 0 5 0 0 0 0 2 0 4" ascent="750" descent="-250" x-height="487" cap-height="685" bbox="-340.001 -262.003 1760 941.005" underline-thickness="50" underline-position="-50" unicode-range="U+0020-U+FB05"/>
<missing-glyph horiz-adv-x="436" d="M0 685h436v-685h-436v685zM368 40l-150 266l-150 -266h300zM368 645h-300l150 -266zM40 72l153 271l-153 271v-542zM396 70v547l-153 -275z"/>
    <glyph glyph-name="fj" unicode="fj" horiz-adv-x="554" d="M425 647c-21.333 3.33301 -42.833 6.33301 -64.5 9s-41.5 4 -59.5 4c-22 0 -40.833 -1.5 -56.5 -4.5s-28.667 -8.66699 -39 -17s-18 -19.666 -23 -33.999s-7.5 -32.833 -7.5 -55.5v-61h300v-432c0 -33.333 -1 -63.333 -3 -90s-8.66699 -50.834 -20 -72.501 s-29 -41.5 -53 -59.5s-57.667 -35 -101 -51c-3.33301 9.33301 -6.83301 18.333 -10.5 27l-11.5 26c24.667 14 44.667 26.833 60 38.5s27.333 24 36 37s14.5 27.5 17.5 43.5s4.5 34.667 4.5 56v417h-219c0 -71.333 -0.166992 -142.666 -0.5 -213.999 s-0.5 -142.666 -0.5 -213.999h-79v428h-68v44c11.333 3.33301 22.833 6.33301 34.5 9s23.167 5.66699 34.5 9v79c0 30 4.83301 55.167 14.5 75.5s23 36.666 40 48.999s37.333 21.166 61 26.499s49.167 8 76.5 8c23.333 -0.666992 48.5 -2.5 75.5 -5.5 s51.5 -7.16699 73.5 -12.5z"/>
    <glyph glyph-name="ffj" unicode="ffj" horiz-adv-x="838" d="M712 660c-23.333 4 -45.501 7.16309 -66.501 9.49609s-40.833 3.5 -59.5 3.5c-42 0 -72.5 -7.66699 -91.5 -23s-28.5 -45 -28.5 -89v-73h292v-444c0 -38 -2.5 -70.333 -7.5 -97s-14 -50 -27 -70s-31 -37.333 -54 -52s-52.5 -28.667 -88.5 -42l-22 53 c24.667 14 44.667 26.833 60 38.5s27.333 24 36 37s14.5 27.5 17.5 43.5s4.5 34.667 4.5 56v417h-211v-428h-80v428h-211c0 -71.333 -0.166992 -142.666 -0.5 -213.999s-0.5 -142.666 -0.5 -213.999h-79v428h-68v44c11.333 3.33301 22.833 6.33301 34.5 9 s23.167 5.66699 34.5 9v58c0 54.667 17 96.334 51 125.001s82.333 43 145 43c22.667 0 44.834 -1.33301 66.501 -4s45.167 -7.66699 70.5 -15c15.333 15.333 35.333 26.333 60 33s52 10 82 10c24.667 0 50.5 -1.66699 77.5 -5s52.167 -7.66602 75.5 -12.999z M386.999 573.996c0 24.667 2.99902 45.998 8.99902 63.998c-17.333 4.66699 -33.666 7.83398 -48.999 9.50098s-29 2.5 -41 2.5c-25.333 0 -46.333 -2.33301 -63 -7s-30 -12 -40 -22s-17.167 -22.667 -21.5 -38s-6.5 -33.666 -6.5 -54.999v-40h213z"/>
    <glyph glyph-name="ff" unicode="ff" horiz-adv-x="644" d="M292 716c22 0 43.667 -1.16992 65 -3.50293s44 -7.16602 68 -14.499c27.333 27.333 67 41 119 41c14.667 0 31 -1 49 -3s35.667 -5.33301 53 -10l-12 -60c-12 2 -24.5 3.66699 -37.5 5s-24.833 2 -35.5 2c-30 0 -53.333 -6.16699 -70 -18.5s-25 -34.5 -25 -66.5v-100h143 v-60h-143v-428h-80v428h-211c0 -71.333 -0.166992 -142.666 -0.5 -213.999s-0.5 -142.666 -0.5 -213.999h-79v428h-68v44c11.333 3.33301 22.833 6.33301 34.5 9s23.167 5.66699 34.5 9v65c1.33301 52 19 91.833 53 119.5s81.667 41.5 143 41.5zM387 587.997 c0 9.33301 0.333008 18.167 1 26.5s2 16.166 4 23.499c-16 4 -31.5 7 -46.5 9s-28.167 3 -39.5 3c-25.333 0 -46.333 -2.33301 -63 -7s-30 -12 -40 -22s-17.167 -22.667 -21.5 -38s-6.5 -33.666 -6.5 -54.999v-40h212v100z"/>
    <glyph glyph-name="fi" unicode="fi" horiz-adv-x="544" d="M383 0l0.00292969 427.996h-208c0 -71.333 -0.166992 -142.666 -0.5 -213.999s-0.5 -142.666 -0.5 -213.999h-79v428h-68v44c11.333 3.33301 22.833 6.33301 34.5 9s23.167 5.66699 34.5 9v62c0 33.333 4.33301 61.333 13 84s21 40.834 37 54.501 s35.833 23.334 59.5 29.001s50.5 8.5 80.5 8.5c23.333 -0.666992 48.666 -2.5 75.999 -5.5s52.333 -7.16699 75 -12.5l-12 -63c-22.667 3.33301 -45.334 6.33301 -68.001 9s-43.334 4 -62.001 4c-42 0 -72.5 -7.5 -91.5 -22.5s-28.5 -44.5 -28.5 -88.5v-61h289v-488h-81z "/>
    <glyph glyph-name="fl" unicode="fl" horiz-adv-x="556" d="M319 428l-143.999 -0.00195312c0 -71.333 -0.166992 -142.666 -0.5 -213.999s-0.5 -142.666 -0.5 -213.999h-79v428h-68v44c11.333 3.33301 22.833 6.33301 34.5 9s23.167 5.66699 34.5 9v52c0 34 4.33301 62.5 13 85.5s21.334 41.167 38.001 54.5s37.5 22.833 62.5 28.5 s53.5 8.5 85.5 8.5c20.667 -1.33301 42.167 -2.83301 64.5 -4.5s43.166 -4.16699 62.499 -7.5l54 9c0 -120 -0.166992 -239.333 -0.5 -358s-0.5 -238 -0.5 -358h-79v642c-17.333 2.66699 -34.833 5 -52.5 7s-33.834 3 -48.501 3c-42 0 -72.5 -7.66699 -91.5 -23 s-28.5 -45 -28.5 -89v-52h144v-60z"/>
    <glyph glyph-name="ffi" unicode="ffi" horiz-adv-x="836" d="M675 0l0.000976562 427.999h-209v-428h-80v428h-211c0 -71.333 -0.166992 -142.666 -0.5 -213.999s-0.5 -142.666 -0.5 -213.999h-79v428h-68v44c11.333 3.33301 22.833 6.33301 34.5 9s23.167 5.66699 34.5 9v65c0 28 5 52.167 15 72.5s23.833 37.166 41.5 50.499 s38.667 23.166 63 29.499s51.166 9.5 80.499 9.5c21.333 0 42.833 -1.5 64.5 -4.5s44.5 -8.16699 68.5 -15.5c16.667 15.333 37.667 26.166 63 32.499s54.333 9.5 87 9.5c23.333 0 48.5 -1.66699 75.5 -5s51.833 -7.66602 74.5 -12.999l-12 -63 c-21.333 4 -43 7.33301 -65 10s-41.667 4 -59 4c-22 0 -41 -1.5 -57 -4.5s-29.167 -8.66699 -39.5 -17s-18 -19.666 -23 -33.999s-7.5 -32.833 -7.5 -55.5v-72h290v-489h-81zM387.001 579.999c0 11.333 0.833008 21.665 2.5 30.998s4.16699 18.333 7.5 27 c-17.333 4.66699 -33.833 7.83398 -49.5 9.50098s-29.5 2.5 -41.5 2.5c-25.333 0 -46.333 -2.33301 -63 -7s-30 -12 -40 -22s-17.167 -22.667 -21.5 -38s-6.5 -33.666 -6.5 -54.999v-39h212v91z"/>
    <glyph glyph-name="ffl" unicode="ffl" horiz-adv-x="849" d="M467 561c0 -12.667 -0.166016 -25.002 -0.499023 -37.002s-0.5 -24 -0.5 -36h145v-60h-145v-428h-80v428h-211c0 -71.333 -0.166992 -142.666 -0.5 -213.999s-0.5 -142.666 -0.5 -213.999h-79v428h-68v44c11.333 3.33301 22.833 6.33301 34.5 9s23.167 5.66699 34.5 9v43 c-2.66699 59.333 12.833 104.666 46.5 135.999s83.5 47 149.5 47c22.667 0 44.834 -1.33301 66.501 -4s45.167 -7.66699 70.5 -15c33.333 28 78.666 42 135.999 42c23.333 0 49.5 -1 78.5 -3s55.833 -4.66699 80.5 -8l45 9v-737h-81v662c-17.333 2.66699 -34.833 5 -52.5 7 s-33.834 3 -48.501 3c-42 0 -72.5 -7.66699 -91.5 -23s-28.5 -44.666 -28.5 -87.999zM387.001 487.998c0 12.667 -0.166992 25.8311 -0.5 39.498s-0.166016 27 0.500977 40s1.66699 25.333 3 37s3.66602 21.5 6.99902 29.5v4c-17.333 4.66699 -33.833 7.83398 -49.5 9.50098 s-29.5 2.5 -41.5 2.5c-25.333 0 -46.333 -2.33301 -63 -7s-30 -12 -40 -22s-17.167 -22.667 -21.5 -38s-6.5 -33.666 -6.5 -54.999v-40h212z"/>
    <glyph glyph-name="ft" unicode="ft" horiz-adv-x="674" d="M95 429l-67.999 0.000976562v44l69 18v82c0 48.667 13.333 85.834 40 111.501s65.667 38.5 117 38.5c14.667 0 33.167 -0.833008 55.5 -2.5s42.166 -4.83398 59.499 -9.50098l-12 -60c-12 2 -26.667 3.66699 -44 5s-31 2 -41 2c-32 0 -56 -6.16699 -72 -18.5 s-24 -34.5 -24 -66.5v-84h224l27 114l50 9v-124h148v-59h-148v-289c0 -23.333 4.33301 -42.5 13 -57.5s26.667 -22.5 54 -22.5c23.333 0 54 5.66699 92 17l13 -55c-18 -8.66699 -37.833 -15.334 -59.5 -20.001s-42.5 -7 -62.5 -7c-87.333 0 -131 40 -131 120v314h-220v-429 h-80v429z"/>
    <glyph glyph-name=".notdef" horiz-adv-x="436" d="M0 685h436v-685h-436v685zM368 40l-150 266l-150 -266h300zM368 645h-300l150 -266zM40 72l153 271l-153 271v-542zM396 70v547l-153 -275z"/>
    <glyph glyph-name="space" unicode=" " horiz-adv-x="272"/>
    <glyph glyph-name="exclam" unicode="!" horiz-adv-x="225" d="M153 696l-2 -297l-9 -229h-55l-10 229l-4 297h80zM113 93c15.333 0 28 -5 38 -15s15 -22 15 -36c0 -14.667 -5.16699 -27.167 -15.5 -37.5s-22.833 -15.5 -37.5 -15.5c-15.333 0 -28.166 5.16699 -38.499 15.5s-15.5 22.833 -15.5 37.5c0 14 5.16699 26 15.5 36 s23.166 15 38.499 15z"/>
    <glyph glyph-name="quotedbl" unicode="&quot;" horiz-adv-x="272" d="M169 482l-14 203h73l-13 -203h-46zM60 482l-14 203h74l-15 -203h-45z"/>
    <glyph glyph-name="numbersign" unicode="#" horiz-adv-x="533" d="M418 410l-37 -168h75l-9 -47h-76l-42 -195h-52l42 195h-146l-43 -195h-52l43 195h-75l9 47h76l37 168h-80l9 46h81l39 172h51l-38 -172h147l38 172h52l-38 -172h69l-9 -46h-71zM183 242h147l36 168h-146z"/>
    <glyph glyph-name="dollar" unicode="$" horiz-adv-x="558" d="M292 731l38.001 -0.000976562v-64c20.667 -1.33301 42 -4.83301 64 -10.5s42.333 -14.167 61 -25.5l-20 -56c-25.333 11.333 -45.666 19 -60.999 23s-30 6.66699 -44 8v-241c21.333 -8 42.166 -16.5 62.499 -25.5s38.5 -20.167 54.5 -33.5s28.833 -29.5 38.5 -48.5 s14.5 -42.5 14.5 -70.5c0 -27.333 -4.33301 -51.166 -13 -71.499s-20.5 -37.833 -35.5 -52.5s-32.833 -26.5 -53.5 -35.5s-43.334 -15.5 -68.001 -19.5v-83h-38v806zM258.001 -75.001h-37v80c-26.667 2.66699 -53 7.66699 -79 15s-50.667 18 -74 32l25 58 c31.333 -16 56.833 -26.333 76.5 -31s36.834 -8 51.501 -10v260c-20 6.66699 -39 14.667 -57 24s-33.833 20.333 -47.5 33s-24.334 27.667 -32.001 45s-11.5 38 -11.5 62c0 48.667 14 87.167 42 115.5s63.333 46.833 106 55.5v67h37v-806zM430.001 187.999 c0 29.333 -9.5 52 -28.5 68s-42.833 29.333 -71.5 40v-225c32 5.33301 56.667 17.333 74 36s26 45.667 26 81zM142.001 498.999c0 -30 7.33301 -52 22 -66s33.667 -25.667 57 -35v203c-22 -6 -40.667 -17 -56 -33s-23 -39 -23 -69z"/>
    <glyph glyph-name="percent" unicode="%" horiz-adv-x="820" d="M345 463c0 -24 -2.49902 -47.999 -7.49902 -71.999s-13.833 -45.5 -26.5 -64.5s-29.334 -34.5 -50.001 -46.5s-46.334 -18 -77.001 -18c-34 0 -61.667 5.66699 -83 17s-38 26.5 -50 45.5s-20.167 40.333 -24.5 64s-6.5 48.167 -6.5 73.5 c0 22.667 2.16699 46.167 6.5 70.5s12.5 46.666 24.5 66.999s28.833 37 50.5 50s49.834 19.5 84.501 19.5c35.333 0 63.5 -6.66699 84.5 -20s37 -30.333 48 -51s18.167 -43 21.5 -67s5 -46.667 5 -68zM277.001 462.001c0 14 -0.667969 29.998 -2.00098 47.998 s-5 34.833 -11 50.5s-15.167 28.834 -27.5 39.501s-29.166 16 -50.499 16c-22 0 -39.5 -5.16699 -52.5 -15.5s-22.833 -23.166 -29.5 -38.499s-11 -32 -13 -50s-3 -35 -3 -51c0 -20.667 1.16699 -40 3.5 -58s7 -33.667 14 -47s17 -23.833 30 -31.5s29.833 -11.5 50.5 -11.5 c18.667 0 34 4.5 46 13.5s21.333 20.667 28 35s11.167 30.333 13.5 48s3.5 35.167 3.5 52.5zM292 -22.001h-56l294 723h54zM800 197.999c0 -24 -2.49902 -47.999 -7.49902 -71.999s-13.833 -45.5 -26.5 -64.5s-29.334 -34.5 -50.001 -46.5s-46.334 -18 -77.001 -18 c-34 0 -61.667 5.66699 -83 17s-38 26.5 -50 45.5s-20.167 40.333 -24.5 64s-6.5 48.167 -6.5 73.5c0 22.667 2.16699 46.167 6.5 70.5s12.5 46.666 24.5 66.999s28.833 37 50.5 50s49.834 19.5 84.501 19.5c35.333 0 63.5 -6.66699 84.5 -20s37 -30.333 48 -51 s18.167 -43 21.5 -67s5 -46.667 5 -68zM732.001 197c0 14 -0.667969 29.998 -2.00098 47.998s-5 34.833 -11 50.5s-15.167 28.834 -27.5 39.501s-29.166 16 -50.499 16c-22 0 -39.5 -5.16699 -52.5 -15.5s-22.833 -23.166 -29.5 -38.499s-11 -32 -13 -50s-3 -35 -3 -51 c0 -20.667 1.16699 -40 3.5 -58s7 -33.667 14 -47s17 -23.833 30 -31.5s29.833 -11.5 50.5 -11.5c18.667 0 34 4.5 46 13.5s21.333 20.667 28 35s11.167 30.333 13.5 48s3.5 35.167 3.5 52.5z"/>
    <glyph glyph-name="ampersand" unicode="&amp;" horiz-adv-x="726" d="M254 -11c-30.667 0 -59.3359 4.00293 -86.0029 12.0029s-50 20 -70 36s-35.667 36.167 -47 60.5s-17 52.833 -17 85.5c0 44.667 14.333 84.667 43 120s69.667 67.666 123 96.999c-20 28 -34 52.5 -42 73.5s-12 41.833 -12 62.5c0 18.667 3 36.667 9 54 s15 32.666 27 45.999s27 24 45 32s39.333 12 64 12c26 0 48.167 -3.83301 66.5 -11.5s33.333 -17.667 45 -30s20.334 -26.333 26.001 -42s8.5 -31.834 8.5 -48.501c0 -18.667 -3.33301 -35.834 -10 -51.501s-16 -30.167 -28 -43.5s-26.5 -26.166 -43.5 -38.499 s-35.833 -24.5 -56.5 -36.5c15.333 -22.667 32.333 -46.167 51 -70.5l57 -73.5l36.5 -42.5c12.333 -14.333 25.166 -28.5 38.499 -42.5c14 13.333 27.167 28 39.5 44s23.333 34.333 33 55s17.834 44 24.501 70s11.334 55.667 14.001 89h67 c-2 -36 -6.66699 -68.833 -14 -98.5s-16.666 -56.667 -27.999 -81s-24.5 -46.5 -39.5 -66.5s-31.833 -38.667 -50.5 -56c24 -23.333 48.833 -43.666 74.5 -60.999s50.834 -31.333 75.501 -42l-31 -56c-11.333 4.66699 -24.333 11.167 -39 19.5s-29.667 17.666 -45 27.999 s-30.833 21.5 -46.5 33.5s-29.834 24 -42.501 36c-32.667 -24 -68 -42.333 -106 -55s-76 -19 -114 -19zM337.998 213.003l-53.499 68.9971c-17.667 22.667 -33.834 44.334 -48.501 65.001c-36.667 -20 -67.167 -42.667 -91.5 -68s-36.5 -56 -36.5 -92 c0 -23.333 3.83301 -43.666 11.5 -60.999s18.167 -31.666 31.5 -42.999s29 -19.833 47 -25.5s37 -8.5 57 -8.5c28 0 56.833 5 86.5 15s58.5 24.333 86.5 43c-17.333 17.333 -33.333 35 -48 53zM218.999 541c0 -16.667 4.16797 -33.834 12.501 -51.501 s19.833 -36.834 34.5 -57.501c14 7.33301 27.167 14.833 39.5 22.5s23.333 16.167 33 25.5s17.167 19.5 22.5 30.5s8 23.5 8 37.5c0 22 -7 39.833 -21 53.5s-33.667 20.5 -59 20.5c-13.333 0 -24.333 -2.66699 -33 -8s-15.834 -12.166 -21.501 -20.499 s-9.66699 -17.166 -12 -26.499s-3.5 -18 -3.5 -26z"/>
    <glyph glyph-name="quotesingle" unicode="'" horiz-adv-x="193" d="M74 482l-14 203h75l-15 -203h-46z"/>
    <glyph glyph-name="parenleft" unicode="(" horiz-adv-x="285" d="M60 285c0 55.333 5.49902 105.999 16.499 151.999s24.333 87 40 123s31.834 66.833 48.501 92.5s31 45.834 43 60.501l35 -22c-7.33301 -11.333 -17.166 -28.5 -29.499 -51.5s-24.333 -51.5 -36 -85.5s-21.667 -73.5 -30 -118.5s-12.5 -94.833 -12.5 -149.5 c0 -61.333 4.16699 -116 12.5 -164s18.333 -89.833 30 -125.5s23.667 -65.167 36 -88.5s22.5 -41.333 30.5 -54l-36 -25c-11.333 14 -25.333 34.167 -42 60.5s-32.834 58.5 -48.501 96.5s-29.167 81.833 -40.5 131.5s-17 105.5 -17 167.5z"/>
    <glyph glyph-name="parenright" unicode=")" horiz-adv-x="287" d="M216 285c0 -62 -5.66895 -117.832 -17.002 -167.499s-24.833 -93.5 -40.5 -131.5s-32 -70.167 -49 -96.5s-31.167 -46.5 -42.5 -60.5l-35 25c8 12.667 18.167 30.667 30.5 54s24.333 52.833 36 88.5s21.667 77.5 30 125.5s12.5 102.667 12.5 164 c0 54.667 -4.16699 104.5 -12.5 149.5s-18.333 84.5 -30 118.5s-23.667 62.5 -36 85.5s-22.166 40.167 -29.499 51.5l35 22c12 -14.667 26.333 -34.834 43 -60.501s32.834 -56.5 48.501 -92.5s29 -77 40 -123s16.5 -96.667 16.5 -152z"/>
    <glyph glyph-name="asterisk" unicode="*" horiz-adv-x="389" d="M215 577l49.998 26.499l51 27.5c11.333 -12.667 18.333 -25.167 21 -37.5s4.66699 -26.166 6 -41.499c-20 -2 -39.667 -4.33301 -59 -7s-39 -5 -59 -7l84 -79c-17.333 -22 -39 -38.333 -65 -49l-50 106l-49 -105c-13.333 5.33301 -25.166 11.5 -35.499 18.5 s-20.833 16.833 -31.5 29.5l84 80l-113 15c1.33301 16 4 30.333 8 43s10 25 18 37l101 -57c-3.33301 18.667 -7.16602 37.5 -11.499 56.5s-8.16602 37.833 -11.499 56.5c7.33301 2 14.666 3.33301 21.999 4s14.666 1 21.999 1s14.333 -0.333008 21 -1s13.334 -2 20.001 -4 l-23 -113v0z"/>
    <glyph glyph-name="plus" unicode="+" horiz-adv-x="558" d="M313 270v-168h-60v168h-164v58h164v162h60v-162h163v-58h-163z"/>
    <glyph glyph-name="comma" unicode="," horiz-adv-x="210" d="M48 44c0 14 5.33301 26.332 16 36.999s23.667 16 39 16c17.333 0 31.333 -6.16699 42 -18.5s16 -27.5 16 -45.5c0 -14 -2.5 -28.667 -7.5 -44s-12 -30.166 -21 -44.499s-19.667 -27.5 -32 -39.5s-25.833 -21.667 -40.5 -29l-20 26c26.667 26 41.667 57 45 93 c-11.333 3.33301 -20.333 9.33301 -27 18s-10 19 -10 31z"/>
    <glyph glyph-name="hyphen" unicode="-" horiz-adv-x="366" d="M54 230v68h258v-68h-258z"/>
    <glyph glyph-name="period" unicode="." horiz-adv-x="208" d="M154 44c0 -15.333 -5.33301 -28.166 -16 -38.499s-23 -15.5 -37 -15.5c-15.333 0 -28.166 5.16699 -38.499 15.5s-15.5 23.166 -15.5 38.499c0 14.667 5.16699 27.167 15.5 37.5s22.833 15.5 37.5 15.5c15.333 0 28.166 -5.16699 38.499 -15.5s15.5 -22.833 15.5 -37.5z "/>
    <glyph glyph-name="slash" unicode="/" horiz-adv-x="333" d="M69 -28h-54l256 729h54z"/>
    <glyph glyph-name="zero" unicode="0" horiz-adv-x="558" d="M523 329c0 -40 -3.99902 -79.998 -11.999 -119.998s-21.167 -76 -39.5 -108s-43 -58 -74 -78s-69.5 -30 -115.5 -30c-52 0 -94.167 9.66699 -126.5 29s-57.5 44.666 -75.5 75.999s-30.167 67 -36.5 107s-9.5 80.667 -9.5 122c0 37.333 3.33301 76.5 10 117.5 s19 78.5 37 112.5s43.167 62 75.5 84s74.5 33 126.5 33c35.333 0 65.666 -5.33301 90.999 -16s47 -24.834 65 -42.501s32.5 -38.167 43.5 -61.5s19.5 -47.833 25.5 -73.5s10 -51.5 12 -77.5s3 -50.667 3 -74zM441.001 327.002c0 26 -1.1709 55.3301 -3.50391 87.9971 s-8.83301 63.334 -19.5 92.001s-26.5 52.834 -47.5 72.501s-50.167 29.5 -87.5 29.5s-67.166 -9.33301 -89.499 -28s-39.166 -42.167 -50.499 -70.5s-18.666 -59.166 -21.999 -92.499s-5 -64.333 -5 -93c0 -37.333 2.16699 -72.333 6.5 -105s12.5 -61 24.5 -85 s28.833 -43 50.5 -57s50.167 -21 85.5 -21c32 0 58.333 8 79 24s36.834 36.833 48.501 62.5s19.667 54.667 24 87s6.5 64.5 6.5 96.5z"/>
    <glyph glyph-name="one" unicode="1" horiz-adv-x="558" d="M247 585l-149 -10v56l155 33h74v-664h-80v585z"/>
    <glyph glyph-name="two" unicode="2" horiz-adv-x="558" d="M154 61h327.998v-61h-441v55l62 58l72 68c24.667 24 48.834 48.833 72.501 74.5s44.834 51.5 63.501 77.5s33.667 51.667 45 77s17 49.666 17 72.999c0 42.667 -12.667 73.834 -38 93.501s-58.333 29.5 -99 29.5c-16.667 0 -39.5 -2.83301 -68.5 -8.5 s-62.833 -20.167 -101.5 -43.5l-28 48c20 14.667 40 26.667 60 36s39.167 16.666 57.5 21.999s35.5 9 51.5 11s30.333 3 43 3c30 0 57.667 -3.66699 83 -11s47 -18.666 65 -33.999s32.167 -34.5 42.5 -57.5s15.5 -49.833 15.5 -80.5c0 -40 -11 -80 -33 -120 s-48.667 -78.5 -80 -115.5s-64.5 -71.667 -99.5 -104l-91.5 -85.5z"/>
    <glyph glyph-name="three" unicode="3" horiz-adv-x="558" d="M352 598l-282.997 1.00195v65h390c2.66699 -8.66699 5 -17.167 7 -25.5l6 -24.5l-207 -206l3 -7h15c29.333 0 56.666 -3.83301 81.999 -11.5s47.166 -19.334 65.499 -35.001s32.666 -35.5 42.999 -59.5s15.5 -52.667 15.5 -86c0 -36.667 -6.66699 -68.667 -20 -96 s-31.166 -50 -53.499 -68s-48.333 -31.5 -78 -40.5s-60.834 -13.5 -93.501 -13.5c-38 0.666992 -73.5 4 -106.5 10s-64.167 15.667 -93.5 29l20 58c36.667 -10.667 68.167 -18.334 94.5 -23.001s49.5 -7 69.5 -7c54.667 0 98.167 12 130.5 36s48.5 62 48.5 114 c0 44 -16.167 77 -48.5 99s-78.5 33 -138.5 33c-9.33301 0 -18.333 -0.333008 -27 -1s-18 -1.66699 -28 -3l-15 48l206 207z"/>
    <glyph glyph-name="four" unicode="4" horiz-adv-x="558" d="M429 184v-184.002h-78c0 30.667 0.166992 61.334 0.5 92.001s0.5 61.334 0.5 92.001h-320v58l312 422h85v-420h97v-60h-97zM347 567.998l-118 -162l-120 -162h244v324h-6z"/>
    <glyph glyph-name="five" unicode="5" horiz-adv-x="558" d="M251 354c-19.333 0 -38.6621 -2.33301 -57.9951 -7s-38 -11.334 -56 -20.001l-48 32l20 305h355v-65h-288l-13 -202l40.5 12c17.667 5.33301 41.5 8 71.5 8c27.333 0 54.166 -3.83301 80.499 -11.5s49.666 -19.834 69.999 -36.501s36.833 -38.167 49.5 -64.5 s19 -57.833 19 -94.5c0 -37.333 -6.66699 -69.666 -20 -96.999s-31 -50 -53 -68s-47.5 -31.5 -76.5 -40.5s-59.167 -13.5 -90.5 -13.5c-36.667 0 -72.5 3 -107.5 9s-67.5 16.333 -97.5 31l19 58c37.333 -11.333 69.166 -19.166 95.499 -23.499s49.833 -6.5 70.5 -6.5 c54 0 97.167 12 129.5 36s48.5 62.333 48.5 115c0 24 -4.33301 45 -13 63s-20.334 33 -35.001 45s-31.834 21 -51.501 27s-40.167 9 -61.5 9z"/>
    <glyph glyph-name="six" unicode="6" horiz-adv-x="558" d="M137 366c25.333 13.333 51.333 24.834 78 34.501s57 14.5 91 14.5c26 0 51.167 -3.83301 75.5 -11.5s45.833 -19.834 64.5 -36.501s33.5 -38 44.5 -64s16.5 -57.333 16.5 -94c0 -34 -5.5 -64.333 -16.5 -91s-26.333 -49.167 -46 -67.5s-43.334 -32.5 -71.001 -42.5 s-58.167 -15 -91.5 -15c-45.333 0 -82.833 8.16699 -112.5 24.5s-53.167 38.5 -70.5 66.5s-29.5 60.833 -36.5 98.5s-10.5 77.834 -10.5 120.501c0 54 5.33301 103.667 16 149s26.834 84.5 48.501 117.5s49 58.667 82 77s72.167 27.5 117.5 27.5 c35.333 0 65.5 -3.66699 90.5 -11s43.167 -14 54.5 -20c-3.33301 -9.33301 -6.33301 -18.833 -9 -28.5s-5.66699 -19.167 -9 -28.5c-24.667 9.33301 -47.667 15.666 -69 18.999s-40 5 -56 5c-37.333 0 -67.666 -9 -90.999 -27s-42 -39.833 -56 -65.5 s-23.833 -52.167 -29.5 -79.5s-8.83398 -50.333 -9.50098 -69zM291 352.001c-24.667 0 -46.668 -2.50098 -66.001 -7.50098s-35.666 -10.667 -48.999 -17s-23.666 -12.166 -30.999 -17.499s-11.333 -8.33301 -12 -9v-21c0 -21.333 1.5 -45 4.5 -71s9.83301 -50.333 20.5 -73 s25.834 -41.667 45.501 -57s46.5 -23 80.5 -23c47.333 0 83.166 14 107.499 42s36.5 63.667 36.5 107c0 21.333 -2.33301 41 -7 59s-12.334 33.5 -23.001 46.5s-24.667 23.167 -42 30.5s-39 11 -65 11z"/>
    <glyph glyph-name="seven" unicode="7" horiz-adv-x="558" d="M78 599v65h405v-59l-273 -605h-77l271 599h-326z"/>
    <glyph glyph-name="eight" unicode="8" horiz-adv-x="558" d="M162 508c0 -16.667 3.99902 -31.002 11.999 -43.002s19 -22.667 33 -32s30.333 -18.333 49 -27l61 -28c34.667 23.333 58.834 44.833 72.501 64.5s20.5 39.834 20.5 60.501c0 11.333 -2.33301 23.333 -7 36s-12 24.334 -22 35.001s-23.167 19.5 -39.5 26.5 s-35.833 10.5 -58.5 10.5s-41.667 -3.66699 -57 -11s-27.833 -16.333 -37.5 -27s-16.5 -22 -20.5 -34s-6 -22.333 -6 -31zM276.999 52.998c48 0 85.002 12.166 111.002 36.499s39 54.833 39 91.5c0 19.333 -4.66699 36.166 -14 50.499s-22.5 27.5 -39.5 39.5 s-37.667 23.5 -62 34.5l-81.5 35.5c-20 -12 -36.333 -25.167 -49 -39.5s-22.834 -28.666 -30.501 -42.999s-13 -28.666 -16 -42.999s-4.5 -27.833 -4.5 -40.5c0 -16.667 3 -32.5 9 -47.5s15.167 -28 27.5 -39s27.666 -19.667 45.999 -26s39.833 -9.5 64.5 -9.5z M487.001 513.997c0 -12 -1.32812 -24.6631 -3.99512 -37.9961s-7.66699 -26.833 -15 -40.5s-17.333 -27.834 -30 -42.501s-29.334 -29.334 -50.001 -44.001c15.333 -8 30.166 -17.5 44.499 -28.5s26.833 -23.833 37.5 -38.5s19.167 -30.834 25.5 -48.501 s9.5 -36.834 9.5 -57.501c0 -26 -5.33301 -50.167 -16 -72.5s-26 -41.833 -46 -58.5s-44.333 -29.667 -73 -39s-60.667 -14 -96 -14c-73.333 0 -129.333 16 -168 48s-58 73.667 -58 125c0 16.667 2 34.334 6 53.001s10.667 37 20 55s22 35.333 38 52s35.667 31.667 59 45 c-32 18.667 -55.333 38.167 -70 58.5s-22 46.833 -22 79.5c0 24 5.16699 46.167 15.5 66.5s24.666 38 42.999 53s40.166 26.833 65.499 35.5s53 13 83 13c23.333 0 46.833 -3 70.5 -9s45.167 -15.5 64.5 -28.5s35.166 -29.833 47.499 -50.5s18.5 -45.334 18.5 -74.001z"/>
    <glyph glyph-name="nine" unicode="9" horiz-adv-x="558" d="M413 301c-24.667 -14.667 -50.5059 -26.6699 -77.5059 -36.0029s-57.5 -14 -91.5 -14c-26.667 0 -52.167 3.83301 -76.5 11.5s-45.666 19.834 -63.999 36.501s-33 38 -44 64s-16.5 57.333 -16.5 94c0 34 5.5 64.333 16.5 91s26.333 49.334 46 68.001s43.334 33 71.001 43 s58.167 15 91.5 15c44.667 0 81.834 -8.16699 111.501 -24.5s53.334 -38.666 71.001 -66.999s30 -61.333 37 -99s10.5 -77.834 10.5 -120.501c0 -54 -5.33301 -103.5 -16 -148.5s-26.834 -83.833 -48.501 -116.5s-49.167 -58.167 -82.5 -76.5s-72.333 -27.5 -117 -27.5 c-36 0 -67.833 3.5 -95.5 10.5s-47.167 13.5 -58.5 19.5c3.33301 9.33301 6.33301 18.833 9 28.5s5.66699 19.167 9 28.5c24.667 -9.33301 49.167 -15.666 73.5 -18.999s44.5 -5 60.5 -5c36.667 0 66.834 9 90.501 27s42.334 39.833 56.001 65.5s23.334 52.167 29.001 79.5 s9.16699 50.333 10.5 69zM258.994 313.997c24.667 0 46.668 2.50293 66.001 7.50293s35.666 10.667 48.999 17s23.5 12.166 30.5 17.499s11.167 8.33301 12.5 9v22c0 20.667 -1.5 43.667 -4.5 69s-9.83301 49.166 -20.5 71.499s-25.834 41.166 -45.501 56.499 s-46.5 23 -80.5 23c-48 0 -84 -13.5 -108 -40.5s-36 -62.167 -36 -105.5c0 -21.333 2.33301 -41 7 -59s12.334 -33.5 23.001 -46.5s24.667 -23.167 42 -30.5s39 -11 65 -11z"/>
    <glyph glyph-name="colon" unicode=":" horiz-adv-x="205" d="M158 46c0 -14.667 -4.83301 -27.334 -14.5 -38.001s-22.5 -16 -38.5 -16c-15.333 0 -28.166 5.33301 -38.499 16s-15.5 23.334 -15.5 38.001s5.16699 27.167 15.5 37.5s22.833 15.5 37.5 15.5c15.333 0 28.166 -5.16699 38.499 -15.5s15.5 -22.833 15.5 -37.5zM158 360 c0 -15.333 -5.33105 -28.168 -15.998 -38.501s-23 -15.5 -37 -15.5c-14.667 0 -27.334 5.33301 -38.001 16s-16 23.334 -16 38.001c0 15.333 5.16699 28 15.5 38s22.833 15 37.5 15c15.333 0 28.166 -5 38.499 -15s15.5 -22.667 15.5 -38z"/>
    <glyph glyph-name="semicolon" unicode=";" horiz-adv-x="205" d="M158 360c0 -15.333 -5.33105 -28.168 -15.998 -38.501s-23 -15.5 -37 -15.5c-14.667 0 -27.334 5.33301 -38.001 16s-16 23.334 -16 38.001c0 15.333 5.16699 28 15.5 38s22.833 15 37.5 15c15.333 0 28.166 -5 38.499 -15s15.5 -22.667 15.5 -38zM48.002 43.998 c0 14 5.33301 26.333 16 37s23.667 16 39 16c17.333 0 31.333 -6.16699 42 -18.5s16 -27.5 16 -45.5c0 -14 -2.5 -28.5 -7.5 -43.5s-12 -29.667 -21 -44s-19.667 -27.5 -32 -39.5s-25.833 -21.667 -40.5 -29l-20 27c27.333 24.667 42.333 55 45 91 c-11.333 3.33301 -20.333 9.33301 -27 18s-10 19 -10 31z"/>
    <glyph glyph-name="less" unicode="&lt;" horiz-adv-x="558" d="M482 71l-398 201v50l398 200v-68l-325 -156l325 -160v-67z"/>
    <glyph glyph-name="equal" unicode="=" horiz-adv-x="558" d="M77 345v58h403v-58h-403zM77 200v57h403v-57h-403z"/>
    <glyph glyph-name="greater" unicode="&gt;" horiz-adv-x="558" d="M84 138l325 160l-325 156v68l398 -200v-50l-398 -201v67z"/>
    <glyph glyph-name="question" unicode="?" horiz-adv-x="441" d="M255 444c22 19.333 39.499 37.998 52.499 55.998s19.5 38 19.5 60c0 14 -2.83301 25.833 -8.5 35.5s-13.334 17.5 -23.001 23.5s-21.167 10.5 -34.5 13.5s-27.666 4.5 -42.999 4.5c-20 0 -42.5 -1.66699 -67.5 -5s-54.833 -10.666 -89.5 -21.999l-9.5 31l-9.5 31 c32 11.333 63.833 19.5 95.5 24.5s60.167 7.5 85.5 7.5c64 0 111.833 -12.5 143.5 -37.5s47.5 -59.833 47.5 -104.5c0 -24.667 -5.33301 -47.167 -16 -67.5s-24 -39.166 -40 -56.499s-33.333 -33.666 -52 -48.999s-36 -30.666 -52 -45.999s-29.333 -30.833 -40 -46.5 s-16 -32.5 -16 -50.5c0 -11.333 1 -22.5 3 -33.5s4 -23.833 6 -38.5l-66 -9c-4.66699 19.333 -7.83398 36.666 -9.50098 51.999s-2.5 28.333 -2.5 39c0 18.667 2.83301 35.667 8.5 51s13.834 30.166 24.501 44.499s23.834 29 39.501 44s33.5 31.167 53.5 48.5z M242.999 40.998c0 -14.667 -5.16699 -26.833 -15.5 -36.5s-22.5 -14.5 -36.5 -14.5c-14.667 0 -27.167 5 -37.5 15s-15.5 22 -15.5 36s5 26 15 36s22.333 15 37 15c15.333 0 28 -5 38 -15s15 -22 15 -36z"/>
    <glyph glyph-name="at" unicode="@" horiz-adv-x="926" d="M482 697c56.667 0 107.504 -8.33203 152.504 -24.999s83.167 -40 114.5 -70s55.333 -66.167 72 -108.5s25 -89.166 25 -140.499c-0.666992 -35.333 -6.16699 -66.333 -16.5 -93s-24 -48.834 -41 -66.501s-36.333 -31 -58 -40s-43.834 -13.5 -66.501 -13.5 c-21.333 0 -43 4.66699 -65 14s-38 24 -48 44c-16 -16 -36.167 -29.167 -60.5 -39.5s-50.166 -15.5 -77.499 -15.5c-23.333 0 -42.333 3.83301 -57 11.5s-26.334 17.334 -35.001 29.001s-14.5 24 -17.5 37s-4.5 25.167 -4.5 36.5c0 33.333 10.833 59.833 32.5 79.5 s52.5 31.5 92.5 35.5l114 10v22c0 31.333 -5.33301 52.833 -16 64.5s-31 17.5 -61 17.5c-17.333 0 -36.166 -1.83301 -56.499 -5.5s-41.5 -9.16699 -63.5 -16.5l-8 26c-1.33301 3.33301 -2.66602 7.5 -3.99902 12.5s-3 9.16699 -5 12.5c23.333 10 48.166 17.833 74.499 23.5 s52.166 8.5 77.499 8.5c40 0 71.5 -9.66699 94.5 -29s34.5 -53.333 34.5 -102v-159c0 -19.333 5.5 -34.5 16.5 -45.5s28.167 -16.5 51.5 -16.5c13.333 0 26.666 3 39.999 9s25.5 15.333 36.5 28s20 28.834 27 48.501s10.5 43.167 10.5 70.5 c0 45.333 -7.16699 86.166 -21.5 122.499s-34.833 67 -61.5 92s-58.667 44.167 -96 57.5s-79.333 20 -126 20s-90.834 -8 -132.501 -24s-78 -38.333 -109 -67s-55.667 -62.334 -74 -101.001s-27.5 -80.667 -27.5 -126c0 -46 8 -88.333 24 -127s38.167 -72.334 66.5 -101.001 s61.666 -51 99.999 -67s79.833 -24 124.5 -24c18.667 0 38.667 1.33301 60 4s44.666 8.66699 69.999 18l17 -49c-19.333 -8.66699 -42 -15.5 -68 -20.5s-51.667 -7.5 -77 -7.5c-56 0 -107.167 9.33301 -153.5 28s-86 44.5 -119 77.5s-58.5 72.167 -76.5 117.5 s-27 95 -27 149s10.5 103.833 31.5 149.5s49.833 85.167 86.5 118.5s79.334 59.333 128.001 78s100.667 28 156 28zM445.004 325.001c-20 -2 -36.999 -8.33301 -50.999 -19s-21 -25 -21 -43c0 -20.667 5.16699 -36.5 15.5 -47.5s27.166 -16.5 50.499 -16.5 c31.333 0 64.333 14.333 99 43v91z"/>
    <glyph glyph-name="A" unicode="A" horiz-adv-x="579" d="M479 0l-28 89.5l-28 89.5h-270l-28 -89.5l-28 -89.5h-87l118 357l108 328h108l224 -685h-89zM403 244l-46 152.5l-47 151.5l-20 67h-3l-20 -68l-22 -72.5l-22 -72l-23 -75.5l-26 -83h229z"/>
    <glyph glyph-name="B" unicode="B" horiz-adv-x="609" d="M80 684h246.001c33.333 0 62.666 -4.33301 87.999 -13s46.333 -20.834 63 -36.501s29.167 -34.167 37.5 -55.5s12.5 -44.666 12.5 -69.999c0 -28 -6.83301 -55.667 -20.5 -83s-38.167 -50 -73.5 -68c22.667 -7.33301 41.167 -17.833 55.5 -31.5s25.833 -28.667 34.5 -45 s14.667 -33 18 -50s5 -32.167 5 -45.5c0 -28 -5.16699 -53.5 -15.5 -76.5s-24.333 -42.667 -42 -59s-38.167 -28.833 -61.5 -37.5s-48 -13 -74 -13h-273v684zM462.001 194c0 16.667 -2.83398 32.832 -8.50098 48.499s-14.167 29.5 -25.5 41.5s-25.666 21.5 -42.999 28.5 s-37.333 10.5 -60 10.5h-161v-258h161c24.667 0 45.667 3.5 63 10.5s31.5 16.333 42.5 28s19 25.334 24 41.001s7.5 32.167 7.5 49.5zM442 501.998c0 34 -10.5 62 -31.5 84s-55.5 33 -103.5 33h-143v-232h143c44 0 77.5 10.333 100.5 31s34.5 48.667 34.5 84z"/>
    <glyph glyph-name="C" unicode="C" horiz-adv-x="593" d="M360 696c37.333 0 70.3291 -2.83203 98.9961 -8.49902s53.334 -12.167 74.001 -19.5l-18 -63c-27.333 9.33301 -53.333 15.5 -78 18.5s-47.667 4.5 -69 4.5c-37.333 0 -69.833 -6.66699 -97.5 -20s-50.5 -32.5 -68.5 -57.5s-31.5 -55.5 -40.5 -91.5 s-13.5 -76.333 -13.5 -121c0 -39.333 3.16699 -75.833 9.5 -109.5s17.833 -63 34.5 -88s39.334 -44.667 68.001 -59s65.334 -21.5 110.001 -21.5c8.66699 0 19.667 0.5 33 1.5s27.333 2.5 42 4.5s29.667 4.5 45 7.5s29.666 6.5 42.999 10.5l16 -60 c-12 -4.66699 -25.833 -9 -41.5 -13s-32.167 -7.33301 -49.5 -10s-34.833 -4.83398 -52.5 -6.50098s-34.5 -2.5 -50.5 -2.5c-54.667 0 -100.667 8.33301 -138 25s-67.666 40.167 -90.999 70.5s-40.166 66.833 -50.499 109.5s-15.5 89.667 -15.5 141 c0 24.667 1.83301 50.5 5.5 77.5s10 53.833 19 80.5s21 52 36 76s33.5 45.167 55.5 63.5s48.167 33 78.5 44s65.5 16.5 105.5 16.5z"/>
    <glyph glyph-name="D" unicode="D" horiz-adv-x="644" d="M80 0l0.00195312 684.999h223c55.333 0 101.166 -9.16699 137.499 -27.5s65.166 -43.166 86.499 -74.499s36.166 -67.5 44.499 -108.5s12.5 -84.5 12.5 -130.5c0 -46.667 -4.66699 -90.834 -14 -132.501s-25.166 -78.167 -47.499 -109.5s-52 -56.166 -89 -74.499 s-83.5 -27.5 -139.5 -27.5h-214zM167.002 619.999v-553.998h117c10 0 22.333 0.666992 37 2s29.834 4.66602 45.501 9.99902s31.167 13.666 46.5 24.999s29.166 27 41.499 47s22.333 45.167 30 75.5s11.5 67.5 11.5 111.5c0 44.667 -3.5 82.667 -10.5 114 s-16.167 57.5 -27.5 78.5s-24.333 37.5 -39 49.5s-29.667 21 -45 27s-30.333 9.83301 -45 11.5s-28 2.5 -40 2.5h-122z"/>
    <glyph glyph-name="E" unicode="E" horiz-adv-x="564" d="M80 0v684h417v-64h-332v-227h280v-62h-280v-266h348v-65h-433z"/>
    <glyph glyph-name="F" unicode="F" horiz-adv-x="534" d="M80 0v684h414v-65h-329v-231h272v-64h-272v-324h-85z"/>
    <glyph glyph-name="G" unicode="G" horiz-adv-x="629" d="M375 696c36.667 0 69.8291 -2.83496 99.4961 -8.50195s54.834 -12.167 75.501 -19.5l-17 -63c-28.667 9.33301 -55.667 15.5 -81 18.5s-48.666 4.5 -69.999 4.5c-40 0 -74.833 -6.83301 -104.5 -20.5s-54 -33.167 -73 -58.5s-33.167 -56 -42.5 -92s-14 -76.667 -14 -122 c0 -38 3.16699 -73.667 9.5 -107s17.5 -62.166 33.5 -86.499s37.667 -43.666 65 -57.999s62 -21.5 104 -21.5c8.66699 0 18.334 0.333008 29.001 1s21.5 1.66699 32.5 3s21.667 2.83301 32 4.5s19.5 3.83398 27.5 6.50098v275h79v-328c-34 -11.333 -68.5 -19.5 -103.5 -24.5 s-69.5 -7.5 -103.5 -7.5c-54 0 -99.5 8.5 -136.5 25.5s-67.167 40.667 -90.5 71s-40.166 66.833 -50.499 109.5s-15.5 89.667 -15.5 141c0 24 1.83301 49.667 5.5 77s10 54.166 19 80.499s21.333 51.5 37 75.5s35.167 45.167 58.5 63.5s51 33 83 44s69.333 16.5 112 16.5z "/>
    <glyph glyph-name="H" unicode="H" horiz-adv-x="653" d="M486 0v327h-320c0 -54.667 0.166992 -109.167 0.5 -163.5s0.5 -108.833 0.5 -163.5h-87v684h87c0 -48.667 -0.166992 -96.667 -0.5 -144s-0.5 -95.333 -0.5 -144h320v288h87v-684h-87z"/>
    <glyph glyph-name="I" unicode="I" horiz-adv-x="264" d="M90 0v685h84v-685h-84z"/>
    <glyph glyph-name="J" unicode="J" horiz-adv-x="309" d="M124 685h85l-1 -554c0 -43.333 -5 -81.333 -15 -114s-24.667 -61.334 -44 -86.001s-43.333 -46 -72 -64s-62 -33.667 -100 -47l-24 61c32 18 58.833 35.333 80.5 52s39.167 34.334 52.5 53.001s22.833 39.167 28.5 61.5s8.5 48.5 8.5 78.5z"/>
    <glyph glyph-name="K" unicode="K" horiz-adv-x="580" d="M164 0h-84v685h84v-311l299 311h96l-265 -273l275 -412h-95l-235 355l-75 -77v-278z"/>
    <glyph glyph-name="L" unicode="L" horiz-adv-x="537" d="M80 0v684h85v-621h362v-63h-447z"/>
    <glyph glyph-name="M" unicode="M" horiz-adv-x="821" d="M414 159l65.5 146l65.5 147l104 232h92v-684h-82v535h-2l-60 -137l-35.5 -78.5l-36.5 -79.5l-38 -86l-39 -86h-79l-65 148l-44 98.5l-45 98.5l-26 61l-26 60h-2c0 -89.333 -0.166992 -178.333 -0.5 -267s-0.5 -177.667 -0.5 -267h-80v684h96l102 -232l130 -293h6z"/>
    <glyph glyph-name="N" unicode="N" horiz-adv-x="682" d="M520 139l-0.000976562 545h82v-684h-83l-264 413l-90 144c-0.666992 0 -1.16699 -0.166992 -1.5 -0.5s-1.16602 -0.5 -2.49902 -0.5v-556h-81v684h85l125.5 -194l124.5 -194l100 -157h5z"/>
    <glyph glyph-name="O" unicode="O" horiz-adv-x="698" d="M638 340c0 -49.333 -5.99902 -95.3291 -17.999 -137.996s-29.833 -79.5 -53.5 -110.5s-53.334 -55.333 -89.001 -73s-76.834 -26.5 -123.501 -26.5c-53.333 0 -98.5 8.16699 -135.5 24.5s-67.333 39.5 -91 69.5s-40.834 66.167 -51.501 108.5s-16 89.833 -16 142.5 c0 47.333 5.16699 92.666 15.5 135.999s27 81.5 50 114.5s53.333 59.167 91 78.5s83.5 29 137.5 29c54.667 0 100.334 -9.83301 137.001 -29.5s65.834 -45.834 87.501 -78.501s37 -70.334 46 -113.001s13.5 -87.334 13.5 -134.001zM549.001 337.004 c0 34 -2.50098 68.332 -7.50098 102.999s-14.5 66.167 -28.5 94.5s-33.667 51.5 -59 69.5s-58.666 27 -99.999 27s-75.333 -8.33301 -102 -25s-47.667 -38.834 -63 -66.501s-26 -59.167 -32 -94.5s-9 -71.666 -9 -108.999c0 -91.333 16 -160.666 48 -207.999 s84.667 -71 158 -71c33.333 0 62.333 7.33301 87 22s45 34.667 61 60s27.833 55 35.5 89s11.5 70.333 11.5 109z"/>
    <glyph glyph-name="P" unicode="P" horiz-adv-x="555" d="M517 486c0 -20.667 -3.16797 -43 -9.50098 -67s-17.333 -46.167 -33 -66.5s-36.667 -37.333 -63 -51s-59.166 -20.5 -98.499 -20.5h-148l1 -281h-86v685h224c31.333 0 60 -4.16699 86 -12.5s48.5 -20.833 67.5 -37.5s33.667 -37.5 44 -62.5s15.5 -53.833 15.5 -86.5z M164.999 620l0.00195312 -274.999h136c16 0 31.667 2.16699 47 6.5s29.166 11.833 41.499 22.5s22.166 24.834 29.499 42.501s11 39.834 11 66.501c0 23.333 -3.33301 43.666 -10 60.999s-16 31.666 -28 42.999s-26.167 19.666 -42.5 24.999s-33.833 8 -52.5 8h-132z"/>
    <glyph glyph-name="Q" unicode="Q" horiz-adv-x="699" d="M637 339c0 -36.667 -3.33398 -71.499 -10.001 -104.499s-16.5 -63.167 -29.5 -90.5s-29.167 -51.5 -48.5 -72.5s-42 -37.833 -68 -50.5l154 -41c-5.33301 -11.333 -10 -23.166 -14 -35.499s-8.33301 -24.166 -13 -35.499l-112.5 37.5l-112.5 38.5l-30 4 c-52.667 3.33301 -97.5 13.166 -134.5 29.499s-67.333 39 -91 68s-40.834 64.5 -51.501 106.5s-16 90 -16 144c0 47.333 5.16699 92.666 15.5 135.999s27 81.5 50 114.5s53.167 59.167 90.5 78.5s83 29 137 29c54.667 0 100.334 -9.83301 137.001 -29.5 s65.834 -46 87.501 -79s37 -70.833 46 -113.5s13.5 -87.334 13.5 -134.001zM548.999 337.001c0 33.333 -2.5 67.332 -7.5 101.999s-14.5 66.167 -28.5 94.5s-33.833 51.5 -59.5 69.5s-59.167 27 -100.5 27s-75.333 -8.33301 -102 -25s-47.667 -38.834 -63 -66.501 s-26 -59.167 -32 -94.5s-9 -71.666 -9 -108.999c0 -91.333 16.167 -160.666 48.5 -207.999s84.833 -71 157.5 -71c34 0 63.333 7.33301 88 22s45 34.667 61 60s27.833 55 35.5 89s11.5 70.667 11.5 110z"/>
    <glyph glyph-name="R" unicode="R" horiz-adv-x="587" d="M519 496c0 -40.667 -10.168 -77.498 -30.501 -110.498s-50.5 -55.167 -90.5 -66.5c26.667 -8 46 -23.167 58 -45.5s22 -47.5 30 -75.5l56 -198h-85l-54 188c-6.66699 22 -14.167 40.167 -22.5 54.5s-17.666 25.666 -27.999 33.999s-22.166 14 -35.499 17 s-28.333 4.5 -45 4.5h-108v-298h-84v685h235c67.333 0 118.166 -17.333 152.499 -52s51.5 -80.334 51.5 -137.001zM301.999 363.002c13.333 0 27.667 1.66504 43 4.99805s29.5 9.83301 42.5 19.5s23.667 22.834 32 39.501s12.5 38.334 12.5 65.001 c0 22.667 -3.33301 42.167 -10 58.5s-16 29.5 -28 39.5s-26 17.333 -42 22s-33.333 7 -52 7h-136v-256h138z"/>
    <glyph glyph-name="S" unicode="S" horiz-adv-x="573" d="M290 696c28.667 0 59.8311 -2.83398 93.498 -8.50098s65.167 -17.167 94.5 -34.5l-27 -60c-32.667 14.667 -62.667 24.167 -90 28.5s-52.333 6.5 -75 6.5c-40 0 -72.667 -10.167 -98 -30.5s-38 -51.5 -38 -93.5c0 -18.667 4.33301 -34.334 13 -47.001 s20.334 -23.167 35.001 -31.5s31 -15.333 49 -21s36.667 -10.834 56 -15.501c24.667 -6 50 -12.833 76 -20.5s49.667 -18.667 71 -33s38.833 -33.166 52.5 -56.499s20.5 -53.666 20.5 -90.999c0 -34 -6.16699 -63.333 -18.5 -88s-29.666 -45 -51.999 -61 s-49 -27.833 -80 -35.5s-64.833 -11.5 -101.5 -11.5c-36 0 -73.333 4 -112 12s-75 21.667 -109 41l29 62c40.667 -19.333 76.667 -32 108 -38s59.666 -9 84.999 -9c52 0 92.5 9.16699 121.5 27.5s43.5 51.833 43.5 100.5c0 20.667 -3.66699 37.834 -11 51.501 s-17.666 25 -30.999 34s-29 16.667 -47 23s-37.333 12.166 -58 17.499c-30 8 -58.667 16.333 -86 25s-51.5 19.667 -72.5 33s-37.667 30.333 -50 51s-18.5 47 -18.5 79c0 30.667 5.66699 58 17 82s27 44.333 47 61s43.833 29.334 71.5 38.001s58.167 13 91.5 13z"/>
    <glyph glyph-name="T" unicode="T" horiz-adv-x="563" d="M240 0v618h-220v67h523v-67h-219l-1 -618h-83z"/>
    <glyph glyph-name="U" unicode="U" horiz-adv-x="665" d="M594 246c0 -38 -5.33105 -72.668 -15.998 -104.001s-26.834 -58.166 -48.501 -80.499s-48.834 -39.5 -81.501 -51.5s-71.334 -18 -116.001 -18c-91.333 0 -157.5 22.5 -198.5 67.5s-61.5 107.167 -61.5 186.5v439h84v-440c0 -62.667 15.333 -109.667 46 -141 s74.334 -47 131.001 -47s100.5 15.5 131.5 46.5s46.5 78.167 46.5 141.5l-1 440h84v-439z"/>
    <glyph glyph-name="V" unicode="V" horiz-adv-x="554" d="M281 88l40 140l135 457h88l-217 -685h-100l-217 685h90l137 -458l39 -139h5z"/>
    <glyph glyph-name="W" unicode="W" horiz-adv-x="837" d="M406 561l-16.5 -76l-16.5 -76c-1.33301 -7.33301 -9.83301 -45 -25.5 -113l-66.5 -296h-103l-168 684h88l46 -203.5l47 -203.5l18.5 -87l19.5 -87h5l36 163l24 108l23.5 103l23 102l23.5 105h90l110 -413c1.33301 -4 4 -13.333 8 -28l13 -49l14 -52.5 c4.66699 -17 8 -29.5 10 -37.5h6l20 91l19 91l44 199l45 199h84l-85.5 -356.5l-80.5 -327.5h-100l-54 203.5l-55 206.5l-19 75c-6 24.667 -12.667 49.667 -20 75z"/>
    <glyph glyph-name="X" unicode="X" horiz-adv-x="557" d="M227 356l-102 164l-103 164h96l81 -137l82 -137l165 274h95l-106.5 -166l-105.5 -166l219 -352h-94l-89.5 147.5l-89.5 148.5l-174 -296h-93l219 356v0z"/>
    <glyph glyph-name="Y" unicode="Y" horiz-adv-x="536" d="M220 296l-210 389h89l94 -180l70 -139h4l76 145l95 174h87l-216 -385v-300h-89v296z"/>
    <glyph glyph-name="Z" unicode="Z" horiz-adv-x="532" d="M47 685h446v-64l-367 -552l385 -1v-68h-489v64l366 553h-341v68z"/>
    <glyph glyph-name="bracketleft" unicode="[" horiz-adv-x="260" d="M54 -160v857h171v-54h-97v-748h97v-55h-171z"/>
    <glyph glyph-name="backslash" unicode="\" horiz-adv-x="333" d="M15 701h53l257 -729h-55z"/>
    <glyph glyph-name="bracketright" unicode="]" horiz-adv-x="260" d="M33 -160v55h97v748h-97v54h170v-857h-170z"/>
    <glyph glyph-name="asciicircum" unicode="^" horiz-adv-x="443" d="M354 381l-135 237l-68 -119l-68 -118h-62l87.5 150l87.5 150h48l172 -300h-62z"/>
    <glyph glyph-name="underscore" unicode="_" horiz-adv-x="500" d="M0 -132v47h500v-47h-500z"/>
    <glyph glyph-name="grave" unicode="`" horiz-adv-x="487" d="M132 674l60 57l123 -162l-38 -34z"/>
    <glyph glyph-name="a" unicode="a" horiz-adv-x="530" d="M227 225c-33.333 -1.33301 -57.999 -9.66699 -73.999 -25s-24 -35.333 -24 -60c0 -28.667 7 -50 21 -64s37 -21 69 -21c21.333 0 43.166 5.5 65.499 16.5s44.833 26.833 67.5 47.5v114zM431.001 60.999l66.001 -0.00195312l5 -48c-12 -6 -25.833 -10.833 -41.5 -14.5 s-30.167 -5.5 -43.5 -5.5c-19.333 0 -34.333 4 -45 12s-16.667 24.667 -18 50l-1 1c-18.667 -16 -36.667 -28.333 -54 -37s-33.166 -15 -47.499 -19s-27.333 -6.33301 -39 -7s-21.167 -1 -28.5 -1c-28 0 -51.167 4.66699 -69.5 14s-32.833 21 -43.5 35 s-18.167 29.167 -22.5 45.5s-6.5 31.5 -6.5 45.5c0 42.667 15.167 76.834 45.5 102.501s76.833 40.5 139.5 44.5l125 8v31c0 40.667 -7.33301 69.334 -22 86.001s-42.334 25 -83.001 25c-24 0 -49 -2.33301 -75 -7s-51.333 -11.334 -76 -20.001l-18 55 c28 12.667 58.667 22.334 92 29.001s65.333 10 96 10c51.333 0 91.666 -12 120.999 -36s44 -66 44 -126v-273z"/>
    <glyph glyph-name="b" unicode="b" horiz-adv-x="521" d="M142 457c28.667 16 55.166 27.166 79.499 33.499s46.833 9.5 67.5 9.5c35.333 0 64.833 -6.5 88.5 -19.5s42.5 -31 56.5 -54s24 -50.333 30 -82s9 -65.834 9 -102.501c0 -34 -3.5 -66.167 -10.5 -96.5s-18.667 -56.666 -35 -78.999s-38 -40.166 -65 -53.499 s-60.5 -20 -100.5 -20c-33.333 0 -67.666 3.66699 -102.999 11s-69 18.333 -101 33v674h82v-143l-3 -107zM272.999 431.999c-23.333 0 -46.833 -4.16504 -70.5 -12.498s-44.5 -17.833 -62.5 -28.5v-311c20.667 -9.33301 41 -15.5 61 -18.5s38.667 -4.5 56 -4.5 c20.667 0 39.167 3 55.5 9s30.166 16.167 41.499 30.5s20 33.166 26 56.499s9 52.333 9 87c0 38.667 -2.83301 70.5 -8.5 95.5s-13.667 44.667 -24 59s-22.666 24.166 -36.999 29.499s-29.833 8 -46.5 8z"/>
    <glyph glyph-name="c" unicode="c" horiz-adv-x="456" d="M132 246c0 -27.333 2.33398 -52.332 7.00098 -74.999s12.334 -42.5 23.001 -59.5s25 -30.167 43 -39.5s40.667 -14 68 -14c25.333 0 49 2.66699 71 8s45.333 13 70 23l22 -54c-21.333 -11.333 -46.833 -21 -76.5 -29s-60.834 -12 -93.501 -12 c-40.667 0 -75 6.16699 -103 18.5s-50.5 29.5 -67.5 51.5s-29.167 47.833 -36.5 77.5s-11 61.834 -11 96.501c0 26 3 54.167 9 84.5s17.167 58.666 33.5 84.999s39 48.166 68 65.499s66.5 26 112.5 26c22 0 44.667 -1.5 68 -4.5s47.666 -9.83301 72.999 -20.5l-19 -59 c-23.333 8 -44.333 13 -63 15s-36 3 -52 3c-47.333 0 -83.5 -17 -108.5 -51s-37.5 -79.333 -37.5 -136z"/>
    <glyph glyph-name="d" unicode="d" horiz-adv-x="522" d="M383 46l-2.00098 2c-20 -16.667 -43.5 -29.834 -70.5 -39.501s-53.5 -14.5 -79.5 -14.5c-35.333 0 -64.666 6.5 -87.999 19.5s-42 30.5 -56 52.5s-24 47.5 -30 76.5s-9 59.833 -9 92.5c0 37.333 3.5 72 10.5 104s18.333 59.833 34 83.5s36.167 42.334 61.5 56.001 s56 20.5 92 20.5c9.33301 0 19.833 -0.666992 31.5 -2s23.5 -3.5 35.5 -6.5s23.833 -6.66699 35.5 -11s22.5 -9.83301 32.5 -16.5v248h82v-711h-80v46zM380.999 399c-5.33301 4 -12.668 8.00195 -22.001 12.002s-19.666 7.83301 -30.999 11.5s-23.166 6.5 -35.499 8.5 s-23.833 3 -34.5 3c-17.333 0 -33.5 -3.16699 -48.5 -9.5s-28.333 -17.166 -40 -32.499s-20.834 -35.833 -27.501 -61.5s-10 -57.834 -10 -96.501c0 -34 3 -62.333 9 -85s14.167 -40.834 24.5 -54.501s23 -23.334 38 -29.001s31.5 -8.5 49.5 -8.5c10 0 21.167 1.5 33.5 4.5 s24.5 7 36.5 12s23.167 10.333 33.5 16s18.5 11.5 24.5 17.5v292z"/>
    <glyph glyph-name="e" unicode="e" horiz-adv-x="505" d="M264 439c-23.333 0 -43 -4.33203 -59 -12.999s-29.167 -20.334 -39.5 -35.001s-18 -31.667 -23 -51s-8.16699 -39.333 -9.5 -60h249c0 23.333 -2 44.833 -6 64.5s-10.5 36.5 -19.5 50.5s-21 24.833 -36 32.5s-33.833 11.5 -56.5 11.5zM262 499.001 c32.667 0 60.165 -4.33203 82.498 -12.999s40.833 -20 55.5 -34s26 -29.667 34 -47s13.833 -34.666 17.5 -51.999s5.83398 -33.666 6.50098 -48.999s1 -28 1 -38v-39h-327c0 -22.667 2 -44.334 6 -65.001s11.333 -38.834 22 -54.501s25 -28.167 43 -37.5s40.667 -14 68 -14 c28.667 0 54.834 3 78.501 9s49.5 14.667 77.5 26l20 -52c-29.333 -15.333 -58.833 -26.666 -88.5 -33.999s-60.834 -11 -93.501 -11c-43.333 0 -79 6.66699 -107 20s-50.167 31.166 -66.5 53.499s-27.666 48.666 -33.999 78.999s-9.5 62.5 -9.5 96.5 c0 14.667 1 31.167 3 49.5s5.83301 36.833 11.5 55.5s13.5 37.167 23.5 55.5s23 34.5 39 48.5s35.167 25.333 57.5 34s48.833 13 79.5 13z"/>
    <glyph glyph-name="f" unicode="f" horiz-adv-x="365" d="M106 429h-67.999v44l69 18v79c0 48.667 13.167 85.834 39.5 111.501s65.5 38.5 117.5 38.5c14 0 30.167 -0.833008 48.5 -2.5s36.166 -4.83398 53.499 -9.50098l-11 -59c-12 2 -24.667 3.66699 -38 5s-25.333 2 -36 2c-31.333 0 -55 -6.16699 -71 -18.5 s-24 -34.5 -24 -66.5v-82h143v-60h-143l-1 -429h-79v429z"/>
    <glyph glyph-name="g" unicode="g" horiz-adv-x="549" d="M127 199c-16.667 9.33301 -31.499 23.833 -44.499 43.5s-19.5 46.834 -19.5 81.501c0 31.333 5.66699 58.166 17 80.499s26.333 40.5 45 54.5s39.667 24.333 63 31s46.666 10 69.999 10c16.667 0 32.834 -0.833008 48.501 -2.5s30.5 -4.83398 44.5 -9.50098h158v-52h-76 l-2 -5c11.333 -12 19.833 -27.167 25.5 -45.5s8.5 -37.5 8.5 -57.5c0 -26.667 -5.16699 -50.334 -15.5 -71.001s-24.5 -38.167 -42.5 -52.5s-39.5 -25.166 -64.5 -32.499s-52.5 -11 -82.5 -11h-54c-24 0 -43.167 -2.33301 -57.5 -7s-21.5 -14.667 -21.5 -30 c0 -10.667 4.66699 -18.834 14 -24.501s21.666 -8.5 36.999 -8.5h128c60 0 106 -12.667 138 -38s48 -62 48 -110c0 -24 -5.5 -45.833 -16.5 -65.5s-26.833 -36.5 -47.5 -50.5s-45.834 -24.667 -75.501 -32s-62.834 -11 -99.501 -11c-42 0 -76.5 4 -103.5 12 s-48.333 18.667 -64 32s-26.5 28.5 -32.5 45.5s-9 34.833 -9 53.5c0 28 7.16699 52 21.5 72s28.833 34 43.5 42c-19.333 4 -34.166 12 -44.499 24s-15.5 27.667 -15.5 47c0 14.667 2.33301 26.834 7 36.501s10.834 17.834 18.501 24.501s16 11.667 25 15s17.5 6 25.5 8z M183.001 30c-6.66699 -2 -13.501 -6 -20.501 -12s-13.333 -13.167 -19 -21.5s-10.334 -17.333 -14.001 -27s-5.5 -19.167 -5.5 -28.5c0 -12.667 1.83301 -24.834 5.5 -36.501s10.834 -22 21.501 -31s25 -16.167 43 -21.5s41.667 -8 71 -8c46.667 0 82.5 8.83301 107.5 26.5 s37.5 41.167 37.5 70.5c0 10 -1.33301 20.333 -4 31s-8.16699 20.334 -16.5 29.001s-20.166 15.667 -35.499 21s-35.333 8 -60 8h-111zM382 328c0 12.667 -1.83398 25.6641 -5.50098 38.9971s-10.167 25.333 -19.5 36s-21.666 19.334 -36.999 26.001s-34.333 10 -57 10 c-38.667 0 -67.834 -9.66699 -87.501 -29s-29.5 -46.666 -29.5 -81.999c0 -33.333 9.66699 -59.833 29 -79.5s45.333 -29.5 78 -29.5c18.667 0 35.834 2.16699 51.501 6.5s29.167 11 40.5 20s20.333 20.333 27 34s10 29.834 10 48.501z"/>
    <glyph glyph-name="h" unicode="h" horiz-adv-x="514" d="M144 445c30 15.333 60.498 28.165 91.498 38.498s57.5 15.5 79.5 15.5c33.333 0 59.333 -4.83301 78 -14.5s32.667 -22 42 -37s15 -31.833 17 -50.5s3 -37 3 -55v-342h-81v322c0 16.667 -0.833008 31.834 -2.5 45.501s-5.33398 25.334 -11.001 35.001 s-14.167 17 -25.5 22s-26.666 7.5 -45.999 7.5c-23.333 0 -48.666 -5 -75.999 -15s-51.666 -21 -72.999 -33v-384h-82v711h81v-158l-3 -104z"/>
    <glyph glyph-name="i" unicode="i" horiz-adv-x="254" d="M85 0v488h81v-488h-81zM181 616c0 -14 -5.33301 -26.333 -16 -37s-23.667 -16 -39 -16c-14 0 -26.333 5.33301 -37 16s-16 23 -16 37c0 15.333 5.33301 28.166 16 38.499s23 15.5 37 15.5c15.333 0 28.333 -5.16699 39 -15.5s16 -23.166 16 -38.499z"/>
    <glyph glyph-name="j" unicode="j" horiz-adv-x="265" d="M94 488h81.002v-182.5v-127v-82.5v-49c0 -12 -0.166992 -21 -0.5 -27s-0.5 -11.333 -0.5 -16c-1.33301 -30 -5 -56.167 -11 -78.5s-15.833 -42 -29.5 -59s-31.334 -32.167 -53.001 -45.5s-48.5 -26 -80.5 -38c-4.66699 9.33301 -8.83398 18.5 -12.501 27.5l-11.5 27.5 c24 14 43.667 26.833 59 38.5s27.333 24 36 37s14.667 27.5 18 43.5s5 34.667 5 56v475zM83.002 616c0 15.333 5.16699 28.166 15.5 38.499s22.833 15.5 37.5 15.5s27.334 -5.16699 38.001 -15.5s16 -23.166 16 -38.499c0 -14.667 -5.33301 -27.167 -16 -37.5 s-23.334 -15.5 -38.001 -15.5s-27.167 5.16699 -37.5 15.5s-15.5 22.833 -15.5 37.5z"/>
    <glyph glyph-name="k" unicode="k" horiz-adv-x="453" d="M143 286l99 100.998l99 101h92l-94 -96l-95 -96c5.33301 -7.33301 10.833 -14.166 16.5 -20.499s11.167 -13.166 16.5 -20.499l171 -255h-90l-82 123.5l-81 123.5l-55 -55v-192h-82v710h82v-310l-4 -111z"/>
    <glyph glyph-name="l" unicode="l" horiz-adv-x="228" d="M153 0h-80v711h81z"/>
    <glyph glyph-name="m" unicode="m" horiz-adv-x="809" d="M668 0v322c0 17.333 -1.16699 32.833 -3.5 46.5s-6.66602 25.167 -12.999 34.5s-15.333 16.333 -27 21s-26.834 7 -45.501 7c-10.667 0 -22.334 -1.16699 -35.001 -3.5s-25.334 -5.33301 -38.001 -9s-24.834 -8.16699 -36.501 -13.5s-22.167 -11 -31.5 -17 c2.66699 -11.333 4.33398 -23 5.00098 -35s1 -22.333 1 -31v-322h-81v338c0 32 -7.16699 55.333 -21.5 70s-33.5 22 -57.5 22s-48.833 -4.5 -74.5 -13.5s-49.167 -20.167 -70.5 -33.5v-383h-81v488h79l1 -44l4 -3c27.333 18 55.333 31.833 84 41.5s55.667 14.5 81 14.5 c26 0 49 -4.66699 69 -14s36.333 -24.333 49 -45c12 8 25.167 15.667 39.5 23s29.333 13.833 45 19.5s31.334 10 47.001 13s30.5 4.5 44.5 4.5c34.667 0 61.834 -5.16699 81.501 -15.5s34.5 -23.333 44.5 -39s16.333 -33.167 19 -52.5s4 -38 4 -56v-335h-82z"/>
    <glyph glyph-name="n" unicode="n" horiz-adv-x="514" d="M374 0v321.998c0 16.667 -0.833008 31.834 -2.5 45.501s-5.33398 25.334 -11.001 35.001s-14.167 17 -25.5 22s-26.666 7.5 -45.999 7.5c-23.333 0 -48.666 -5 -75.999 -15s-51.666 -21 -72.999 -33v-384h-82v488h80l1 -42l3 -2c27.333 17.333 56.666 30.833 87.999 40.5 s58.666 14.5 81.999 14.5c33.333 0 59.5 -4.83301 78.5 -14.5s33.333 -22 43 -37s15.667 -31.833 18 -50.5s3.5 -37 3.5 -55v-342h-81z"/>
    <glyph glyph-name="o" unicode="o" horiz-adv-x="528" d="M480 243c0 -31.333 -3.49805 -62 -10.498 -92s-19 -56.833 -36 -80.5s-39.833 -42.667 -68.5 -57s-64.334 -21.5 -107.001 -21.5c-40 0 -73.5 6.83301 -100.5 20.5s-48.5 31.834 -64.5 54.501s-27.5 49 -34.5 79s-10.5 61.667 -10.5 95c0 32.667 4 64.334 12 95.001 s20.667 58 38 82s40 43.333 68 58s62 22 102 22c40.667 0 74.667 -7.33301 102 -22s49.166 -33.834 65.499 -57.501s27.833 -50.834 34.5 -81.501s10 -62 10 -94zM395.002 241c0 22 -1.5 44.332 -4.5 66.999s-9.16699 43.5 -18.5 62.5s-22.333 34.5 -39 46.5 s-38.334 18 -65.001 18c-27.333 0 -49.666 -5.83301 -66.999 -17.5s-31 -26.667 -41 -45s-17 -39.166 -21 -62.499s-6 -46.333 -6 -69c0 -24 1.66699 -47.333 5 -70s9.83301 -42.5 19.5 -59.5s23.334 -30.667 41.001 -41s40.834 -15.5 69.501 -15.5 c26.667 0 48.167 5.5 64.5 16.5s29.166 25.5 38.499 43.5s15.666 38 18.999 60s5 44 5 66z"/>
    <glyph glyph-name="p" unicode="p" horiz-adv-x="521" d="M143 441c20 16 42.832 28.835 68.499 38.502s51.5 14.5 77.5 14.5c34.667 0 63.834 -6.5 87.501 -19.5s42.5 -30.667 56.5 -53s24 -48.333 30 -78s9 -60.834 9 -93.501c0 -36 -3.5 -69.667 -10.5 -101s-18.167 -58.666 -33.5 -81.999s-35.5 -41.833 -60.5 -55.5 s-55.5 -20.5 -91.5 -20.5c-9.33301 0 -19.833 0.5 -31.5 1.5s-23.667 2.66699 -36 5s-24.5 5.66602 -36.5 9.99902s-23 10.166 -33 17.499v-233h-81v696h79l1 -43zM139.999 87.002c5.33301 -4 12.667 -8 22 -12s19.5 -7.83301 30.5 -11.5s22.5 -6.5 34.5 -8.5 s23.667 -3 35 -3c17.333 0 33.666 3.16699 48.999 9.5s28.833 17.333 40.5 33s20.834 36.334 27.501 62.001s10 57.5 10 95.5c0 34 -3 62.167 -9 84.5s-14.333 40.166 -25 53.499s-23.5 22.833 -38.5 28.5s-31.5 8.5 -49.5 8.5c-10 0 -21.167 -1.5 -33.5 -4.5 s-24.5 -7 -36.5 -12s-23 -10.333 -33 -16s-18 -11.5 -24 -17.5v-290z"/>
    <glyph glyph-name="q" unicode="q" horiz-adv-x="522" d="M375 29c-28 -15.333 -53.332 -25.833 -75.999 -31.5s-43.667 -8.5 -63 -8.5c-35.333 0 -64.833 5.83301 -88.5 17.5s-42.834 28 -57.501 49s-25.167 46 -31.5 75s-9.5 60.833 -9.5 95.5c0 36 3.5 70.333 10.5 103s18.667 61.334 35 86.001s38.333 44.167 66 58.5 s62.5 21.5 104.5 21.5c35.333 0 69.833 -3.83301 103.5 -11.5s65.167 -18.167 94.5 -31.5c0 -110.667 -0.166992 -220.834 -0.5 -330.501s-0.5 -219.5 -0.5 -329.5h-80v128v52.5c0 17.667 0.333008 35.167 1 52.5zM248.001 55c23.333 0 46.835 4.16699 70.502 12.5 s44.5 17.5 62.5 27.5v315c-19.333 8.66699 -38.5 14.5 -57.5 17.5s-37.167 4.5 -54.5 4.5c-40.667 0 -73.334 -14.833 -98.001 -44.5s-37.667 -78.167 -39 -145.5c0 -36.667 2.83301 -67 8.5 -91s13.5 -43.167 23.5 -57.5s22.167 -24.333 36.5 -30s30.166 -8.5 47.499 -8.5z "/>
    <glyph glyph-name="r" unicode="r" horiz-adv-x="351" d="M152 419c12 10.667 25.3311 20.834 39.998 30.501s29.667 18.167 45 25.5s30.333 13.333 45 18s28.334 7 41.001 7c7.33301 0 13.333 -1.66699 18 -5s7 -10 7 -20c0 -4 -0.833008 -9.33301 -2.5 -16s-3.66699 -13.5 -6 -20.5s-5.16602 -13.833 -8.49902 -20.5 s-7 -12.334 -11 -17.001l-84.5 -10.5l-84.5 -10.5v-380h-82v488h80l-3 -65z"/>
    <glyph glyph-name="s" unicode="s" horiz-adv-x="446" d="M65 88c31.333 -14 59.998 -22.998 85.998 -26.998s47.667 -6 65 -6c15.333 0 29.833 1.33301 43.5 4s25.5 7 35.5 13s17.833 14 23.5 24s8.5 22.333 8.5 37c0 12.667 -2.83301 23.5 -8.5 32.5s-13.334 16.667 -23.001 23s-20.834 11.833 -33.501 16.5 s-26 9.33398 -40 14.001l-61.5 22c-19.667 7.33301 -37.167 16.166 -52.5 26.499s-27.666 22.833 -36.999 37.5s-14 33.334 -14 56.001c0 23.333 4.66699 43.666 14 60.999s22 31.666 38 42.999s34.667 19.666 56 24.999s44.333 8 69 8c10 0 21.333 -0.666992 34 -2 s25.5 -3.33301 38.5 -6s25.833 -6.16699 38.5 -10.5s24.334 -9.83301 35.001 -16.5l-25 -57c-25.333 10 -47.666 16.833 -66.999 20.5s-37.666 5.5 -54.999 5.5c-12.667 0 -25 -1.16699 -37 -3.5s-22.5 -6.33301 -31.5 -12s-16.333 -13.167 -22 -22.5 s-8.5 -20.666 -8.5 -33.999c0 -10.667 3.5 -19.834 10.5 -27.501s15.833 -14.5 26.5 -20.5s22 -11 34 -15l33 -11l61 -20.5c20 -7 38 -16 54 -27s28.833 -24.667 38.5 -41s14.5 -37.5 14.5 -63.5c0 -24.667 -4.83301 -45.834 -14.5 -63.501s-23 -32.167 -40 -43.5 s-37.333 -19.666 -61 -24.999s-49.5 -8 -77.5 -8c-14.667 0 -29.834 0.833008 -45.501 2.5s-31.167 4 -46.5 7s-30.166 7 -44.499 12s-26.833 10.5 -37.5 16.5z"/>
    <glyph glyph-name="t" unicode="t" horiz-adv-x="356" d="M172 612v-123.999h147v-59h-148v-289c0 -23.333 4.5 -42.5 13.5 -57.5s27.167 -22.5 54.5 -22.5c22 0 52.667 5.66699 92 17l13 -55c-18 -8.66699 -37.833 -15.334 -59.5 -20.001s-42.5 -7 -62.5 -7c-87.333 0 -131 40 -131 120v314h-71v43l75 23l25 108z"/>
    <glyph glyph-name="u" unicode="u" horiz-adv-x="504" d="M199 -11c-33.333 0 -59.332 4.66504 -77.999 13.998s-32.667 21.5 -42 36.5s-15.166 31.833 -17.499 50.5s-3.5 37 -3.5 55v343h81v-323c0 -17.333 0.833008 -32.666 2.5 -45.999s5.33398 -24.666 11.001 -33.999s14 -16.5 25 -21.5s26.167 -7.5 45.5 -7.5 c18.667 0 41.167 5 67.5 15s51.166 25.667 74.499 47v370c13.333 0 26.666 0.166992 39.999 0.5s26.666 0.5 39.999 0.5v-489h-79l-1 55l-2 2c-16 -14 -32 -25.5 -48 -34.5s-31.167 -16 -45.5 -21s-27.5 -8.33301 -39.5 -10s-22.333 -2.5 -31 -2.5z"/>
    <glyph glyph-name="v" unicode="v" horiz-adv-x="463" d="M9 487l83.001 -0.000976562c13.333 -42.667 27.166 -84.5 41.499 -125.5l41.5 -124.5c9.33301 -28 18.5 -57 27.5 -87s18.167 -59 27.5 -87h5c2 4.66699 4.83301 13.334 8.5 26.001l13 44.5l17 55.5l19.5 61l79 237h82l-176 -487h-98z"/>
    <glyph glyph-name="w" unicode="w" horiz-adv-x="720" d="M522 81l36 149l70 258h82l-145 -488h-89l-71 226l-49 173h-5l-45 -173l-65 -226h-89l-143 488h82l69 -252l38 -155h5l41 161l70 246h79l81 -257l42 -150h6z"/>
    <glyph glyph-name="x" unicode="x" horiz-adv-x="432" d="M336 0l-60 102l-61 102l-61.5 -102l-61.5 -102h-88l164 255l-74.5 116l-74.5 117h91l53 -90.5l53 -90.5l54 90.5l54 90.5h90l-76 -116l-76 -115l82.5 -128.5l82.5 -128.5h-91v0z"/>
    <glyph glyph-name="y" unicode="y" horiz-adv-x="460" d="M260 155l22.998 74.001l26.5 84.5l27.5 88l28 86.5h83l-47 -143l-48.5 -146.5l-49 -146l-47.5 -141.5c-12 -38.667 -29 -69.334 -51 -92.001s-52 -34 -90 -34c-7.33301 0.666992 -19.166 1.5 -35.499 2.5s-39.5 5.83301 -69.5 14.5l13 57 c18 -4 32.833 -6.83301 44.5 -8.5s23.167 -2.5 34.5 -2.5c19.333 0 35.333 4.66699 48 14s23.334 27.333 32.001 54l28 87h-39l-153 485h79l100 -335c6.66699 -21.333 12.167 -41.333 16.5 -60s7.83301 -32.667 10.5 -42h5z"/>
    <glyph glyph-name="z" unicode="z" horiz-adv-x="411" d="M120 60h280v-60h-388v51l273 370l-3 7h-240v60h347v-53l-272 -369z"/>
    <glyph glyph-name="braceleft" unicode="{" horiz-adv-x="265" d="M190 -169c-22.667 0 -40.3311 4.49805 -52.998 13.498s-22.167 20 -28.5 33s-10.166 26.667 -11.499 41s-2 26.833 -2 37.5v211c0 10 -0.666992 20.5 -2 31.5s-4.33301 21.5 -9 31.5s-11.334 18.833 -20.001 26.5s-20.334 12.834 -35.001 15.501v45 c24 4.66699 41 17.167 51 37.5s15 43.166 15 68.499v113c0 14 0.333008 30.5 1 49.5s3.66699 37.167 9 54.5s14 32 26 44s29.333 18 52 18h59v-54h-23c-18 0 -30.833 -6.16699 -38.5 -18.5s-11.5 -28.166 -11.5 -47.499v-162c0 -13.333 -0.833008 -26.666 -2.5 -39.999 s-4.66699 -25.5 -9 -36.5s-10.333 -20.667 -18 -29s-17.834 -14.5 -30.501 -18.5c14.667 -8 26 -16.833 34 -26.5s14 -20.667 18 -33s6.33301 -26.333 7 -42s1 -33.5 1 -53.5v-191c0 -18 2.83301 -33.333 8.5 -46s18.167 -19 37.5 -19h27v-54h-52z"/>
    <glyph glyph-name="bar" unicode="|" horiz-adv-x="243" d="M89 -139v839h58v-839h-58z"/>
    <glyph glyph-name="braceright" unicode="}" horiz-adv-x="265" d="M24 -169l0.00292969 54.002h27c19.333 0 31.833 6.33301 37.5 19s8.5 28 8.5 46v191c0 20 0.333008 37.833 1 53.5s3 29.667 7 42s10 23.333 18 33s19.333 18.5 34 26.5c-12.667 4 -22.834 10.167 -30.501 18.5s-13.667 18 -18 29s-7.33301 23.167 -9 36.5 s-2.5 26.666 -2.5 39.999v162c0 19.333 -3.83301 35.166 -11.5 47.499s-20.5 18.5 -38.5 18.5h-23v54h59c22.667 0 40 -6 52 -18s20.667 -26.667 26 -44s8.33301 -35.5 9 -54.5s1 -35.5 1 -49.5v-113c0 -25.333 5 -48.166 15 -68.499s27 -32.833 51 -37.5v-45 c-14.667 -2.66699 -26.334 -7.83398 -35.001 -15.501s-15.334 -16.5 -20.001 -26.5s-7.66699 -20.5 -9 -31.5s-2 -21.5 -2 -31.5v-211c0 -10.667 -0.666992 -23.167 -2 -37.5s-5.16602 -28 -11.499 -41s-15.833 -24 -28.5 -33s-30.334 -13.5 -53.001 -13.5h-52z"/>
    <glyph glyph-name="asciitilde" unicode="~" horiz-adv-x="558" d="M385 247c-20 0 -39.166 2.49902 -57.499 7.49902s-36 10.333 -53 16l-48.5 16c-15.333 5 -30 7.5 -44 7.5l-73 -47l-34 28c11.333 26 26.833 46.667 46.5 62s42.167 23 67.5 23c15.333 0 32.333 -2.5 51 -7.5s37.5 -10.333 56.5 -16l54.5 -16 c17.333 -5 32.666 -7.5 45.999 -7.5l68 48l33 -27c-10.667 -25.333 -25.667 -46.166 -45 -62.499s-42 -24.5 -68 -24.5z"/>
    <glyph glyph-name="exclamdown" unicode="¡" horiz-adv-x="225" d="M141 315l4.00098 -161.501l4 -161.5c0 -6 0.333008 -18.833 1 -38.5s1.16699 -40.667 1.5 -63s0.666016 -43.166 0.999023 -62.499s0.5 -32 0.5 -38h-81c1.33301 43.333 2.33301 86.333 3 129s1.66699 85.667 3 129l4 133.5c1.33301 44.333 3 88.833 5 133.5h54z M165.001 442.999c0 -14 -4.99902 -26 -14.999 -36s-22.667 -15 -38 -15s-28 5 -38 15s-15 22 -15 36c0 14.667 5.16699 27.167 15.5 37.5s23.166 15.5 38.499 15.5c14 0 26.167 -5.16699 36.5 -15.5s15.5 -22.833 15.5 -37.5z"/>
    <glyph glyph-name="cent" unicode="¢" horiz-adv-x="558" d="M280 -5c-36.667 2 -67.4961 9.49707 -92.4961 22.4971s-45.167 30.333 -60.5 52s-26.333 46.834 -33 75.501s-10 59.667 -10 93c0 24.667 2.66699 51.334 8 80.001s15.166 55.667 29.499 81s34.333 47.166 60 65.499s58.5 29.5 98.5 33.5v92h45v-91 c19.333 -0.666992 39.166 -2.66699 59.499 -6s41.5 -9.66602 63.5 -18.999l-19 -59c-21.333 7.33301 -40.333 12 -57 14s-32.334 3.33301 -47.001 4v-375c22 1.33301 42.833 4.5 62.5 9.5s40.5 12.167 62.5 21.5l22 -54c-18.667 -10.667 -40.834 -19.667 -66.501 -27 s-52.5 -11.666 -80.5 -12.999v-80h-45v80zM168.004 245.997c0 -24.667 1.83301 -47.501 5.5 -68.501s9.83398 -39.667 18.501 -56s20.167 -29.833 34.5 -40.5s32.166 -17.667 53.499 -21v369c-36.667 -8 -64.5 -28.167 -83.5 -60.5s-28.5 -73.166 -28.5 -122.499z"/>
    <glyph glyph-name="sterling" unicode="£" horiz-adv-x="558" d="M146 364l4.99316 106.997c2 28 6.83301 54.333 14.5 79s19.334 46 35.001 64s35.334 32.167 59.001 42.5s52.167 15.5 85.5 15.5c14.667 0 29.5 -0.833008 44.5 -2.5s29.833 -4 44.5 -7s28.334 -6.5 41.001 -10.5s24 -8.33301 34 -13l-24 -61 c-28 12 -53.167 19.5 -75.5 22.5s-41.833 4.5 -58.5 4.5c-24 0 -43.667 -3.33301 -59 -10s-27.666 -16.167 -36.999 -28.5s-16 -27 -20 -44s-6.66699 -35.833 -8 -56.5l-5 -102h185v-53h-188l-4 -81c-0.666992 -16 -2 -32.5 -4 -49.5s-5 -33 -9 -48 s-9.16699 -28.833 -15.5 -41.5s-13.833 -22.667 -22.5 -30h339v-61h-443l1 60c15.333 6.66699 27.833 16.334 37.5 29.001s17.334 26.834 23.001 42.501s9.83398 32.334 12.501 50.001s4.33398 34.5 5.00098 50.5l4 79h-67v53h70z"/>
    <glyph glyph-name="currency" unicode="¤" horiz-adv-x="550" d="M140 306c0 -18.667 3.5 -36 10.5 -52s16.5 -30 28.5 -42s26.167 -21.5 42.5 -28.5s33.833 -10.5 52.5 -10.5c18 0 35 3.5 51 10.5s30.167 16.5 42.5 28.5s22 26 29 42s10.5 33.333 10.5 52c0 18 -3.5 35.167 -10.5 51.5s-16.5 30.5 -28.5 42.5s-26.167 21.5 -42.5 28.5 s-33.5 10.5 -51.5 10.5c-18.667 0 -36.167 -3.5 -52.5 -10.5s-30.5 -16.5 -42.5 -28.5s-21.5 -26.167 -28.5 -42.5s-10.5 -33.5 -10.5 -51.5zM59 484l37.001 38.0029l64 -64c33.333 26 71.666 39 114.999 39c40.667 0 78.667 -13 114 -39l63 64l39 -39l-65 -62 c13.333 -18 23 -36.333 29 -55s9 -38.334 9 -59.001c0 -21.333 -3.33301 -41.5 -10 -60.5s-16 -37.167 -28 -54.5l65 -60l-39 -40l-64 63c-18 -14.667 -36.5 -24.667 -55.5 -30s-38.167 -8 -57.5 -8c-20 0 -39.333 2.66699 -58 8s-37.334 15.333 -56.001 30l-65 -64l-38 40 l64 61c-15.333 19.333 -25.666 38.666 -30.999 57.999s-8 37.666 -8 54.999c0 20 3 40 9 60s16 38.333 30 55z"/>
    <glyph glyph-name="yen" unicode="¥" horiz-adv-x="558" d="M70 288v40h139l-83.5 168l-83.5 168h85l88 -190l60 -129h4l31 64l30 64l91 191h82l-172 -336h142v-40h-413zM483 238v-41h-166v-197h-83v197h-164v41h413z"/>
    <glyph glyph-name="brokenbar" unicode="¦" horiz-adv-x="243" d="M89 342v358h58v-358h-58zM147 243v-382h-58v382h58z"/>
    <glyph glyph-name="section" unicode="§" horiz-adv-x="472" d="M416 307c0 -23.333 -4.84082 -45.8359 -14.5078 -67.5029s-27.834 -43.5 -54.501 -65.5c16.667 -10 29.834 -20.667 39.501 -32s17.167 -22.5 22.5 -33.5s8.83301 -21.5 10.5 -31.5s2.5 -18.333 2.5 -25c0 -27.333 -5.33301 -50.833 -16 -70.5s-25.167 -36 -43.5 -49 s-39.666 -22.667 -63.999 -29s-50.166 -9.5 -77.499 -9.5c-33.333 0 -62.333 2.83301 -87 8.5s-46.667 11.5 -66 17.5l16 54c30.667 -10 57 -16.5 79 -19.5s41.667 -4.5 59 -4.5c41.333 0 72.333 8.5 93 25.5s31 40.167 31 69.5c0 23.333 -8.16699 42.166 -24.5 56.499 s-38.5 28.166 -66.5 41.499l-67.5 29.5c-23 9.66699 -44.167 20.834 -63.5 33.501s-35.166 27.667 -47.499 45s-18.5 39 -18.5 65c0 24.667 6 48.334 18 71.001s30.667 43 56 61c-22 15.333 -38 31 -48 47s-15 35 -15 57c0 25.333 4.66699 47.5 14 66.5s22.333 35 39 48 s36.334 22.667 59.001 29s47.334 9.5 74.001 9.5c32 0 60.333 -2.33301 85 -7s45.667 -10.667 63 -18l-19 -55c-27.333 8.66699 -51.5 14.334 -72.5 17.001s-40.167 4 -57.5 4c-30 0 -56 -7 -78 -21s-33 -36.333 -33 -67c0 -14 5 -26.5 15 -37.5s22.833 -21.167 38.5 -30.5 s32.834 -18.166 51.501 -26.499l54 -24.5c14 -6.66699 27.833 -14 41.5 -22s25.834 -17.333 36.501 -28s19.334 -22.667 26.001 -36s10 -28.666 10 -45.999zM345.992 290.997c0 18.667 -5.16602 34.333 -15.499 47s-23.5 23.667 -39.5 33s-33.5 17.833 -52.5 25.5 s-37.5 16.167 -55.5 25.5c-16.667 -13.333 -29.5 -27.166 -38.5 -41.499s-13.5 -30.166 -13.5 -47.499c0 -20 5 -36.333 15 -49s23 -23.334 39 -32.001s34 -16.834 54 -24.501s39.667 -16.5 59 -26.5c15.333 15.333 27.166 31.333 35.499 48s12.5 30.667 12.5 42z"/>
    <glyph glyph-name="dieresis" unicode="¨" horiz-adv-x="470" d="M379 603c0 -12.667 -4.66699 -23.167 -14 -31.5s-21 -12.5 -35 -12.5c-12.667 0 -23 4.16699 -31 12.5s-12 18.833 -12 31.5s4.33301 23.167 13 31.5s18.667 12.5 30 12.5c14 0 25.667 -4 35 -12s14 -18.667 14 -32zM191 603c0 -12.667 -4.33203 -23.167 -12.999 -31.5 s-19.667 -12.5 -33 -12.5s-24.333 4.16699 -33 12.5s-13 18.833 -13 31.5s4.66699 23.167 14 31.5s19.666 12.5 30.999 12.5c14 0 25.333 -4 34 -12s13 -18.667 13 -32z"/>
    <glyph glyph-name="copyright" unicode="©" horiz-adv-x="835" d="M785 333c0 -50 -9.66699 -97.167 -29 -141.5s-45.833 -83 -79.5 -116s-72.834 -59 -117.501 -78s-92 -28.5 -142 -28.5c-50.667 0 -98.167 9.5 -142.5 28.5s-83.166 45 -116.499 78s-59.666 71.667 -78.999 116s-29 91.5 -29 141.5s9.66699 97 29 141 s45.666 82.5 78.999 115.5s72.166 59 116.499 78s91.833 28.5 142.5 28.5c50 0 97.333 -9.5 142 -28.5s83.834 -45 117.501 -78s60.167 -71.5 79.5 -115.5s29 -91 29 -141zM741 333c0 44 -8.5 85.5 -25.5 124.5s-40 73 -69 102s-63.333 51.833 -103 68.5 s-81.834 25 -126.501 25c-44 0 -85.667 -8.33301 -125 -25s-73.833 -39.5 -103.5 -68.5s-53 -63 -70 -102s-25.5 -80.5 -25.5 -124.5s8.5 -85.5 25.5 -124.5s40.333 -73 70 -102s64.167 -51.833 103.5 -68.5s81 -25 125 -25c44.667 0 86.834 8.33301 126.501 25 s74 39.5 103 68.5s52 63 69 102s25.5 80.5 25.5 124.5zM276 325c0 -28 2.33008 -53.998 6.99707 -77.998s13 -44.833 25 -62.5s28.333 -31.5 49 -41.5s46.667 -15 78 -15c6.66699 0 14.834 0.333008 24.501 1s19.834 1.66699 30.501 3s21.334 3 32.001 5 s20.667 4.33301 30 7l11 -45c-16.667 -6.66699 -38.167 -12.167 -64.5 -16.5s-51.166 -6.5 -74.499 -6.5c-39.333 0 -72.333 6 -99 18s-48.5 29 -65.5 51s-29.167 48.167 -36.5 78.5s-11 64.166 -11 101.499c0 26 3.16699 54.167 9.5 84.5s17.666 58.166 33.999 83.499 s38.5 46.5 66.5 63.5s64 25.5 108 25.5c28 0 52 -2 72 -6s37 -8.66699 51 -14l-13 -48c-19.333 7.33301 -38 12 -56 14s-34.667 3 -50 3c-52.667 0 -92.167 -18.333 -118.5 -55s-39.5 -87 -39.5 -151z"/>
    <glyph glyph-name="ordfeminine" unicode="ª" horiz-adv-x="348" d="M293 318l44.999 -0.000976562l4 -43c-9.33301 -4 -20.166 -7 -32.499 -9s-23.166 -3 -32.499 -3c-11.333 0 -21.333 2.33301 -30 7s-14.667 13.667 -18 27c-22.667 -17.333 -43.334 -27.666 -62.001 -30.999s-32.667 -5 -42 -5c-20.667 0 -37.834 3.16699 -51.501 9.5 s-24.5 14.166 -32.5 23.499s-13.5 19.666 -16.5 30.999s-4.5 22 -4.5 32c0 24 6.5 42.667 19.5 56s29.667 23.333 50 30s42.833 10.834 67.5 12.501s48.334 2.83398 71.001 3.50098v17c0 25.333 -4.5 42.666 -13.5 51.999s-26.167 14 -51.5 14 c-31.333 0 -66 -6.66699 -104 -20c-2 7.33301 -4.5 15 -7.5 23l-8.5 23c20.667 9.33301 42.667 16.333 66 21s46 7 68 7c36.667 0 65.167 -8.16699 85.5 -24.5s30.5 -45.166 30.5 -86.499v-167zM144.999 310.999c11.333 0 24.999 3.33398 40.999 10.001s30 14.667 42 24v72 c-17.333 0 -34.166 -0.666992 -50.499 -2s-31 -3.83301 -44 -7.5s-23.5 -9 -31.5 -16s-12 -16.833 -12 -29.5c0 -16.667 4.33301 -29.334 13 -38.001s22.667 -13 42 -13z"/>
    <glyph glyph-name="guillemotleft" unicode="«" horiz-adv-x="433" d="M60 208l146 159l34 -26l-101 -153l101 -152l-33 -25l-147 158v39zM207 208l147 159l34 -26l-101 -153l101 -152l-33 -25l-148 158v39z"/>
    <glyph glyph-name="logicalnot" unicode="¬" horiz-adv-x="558" d="M476 102h-61v168h-326v58h387v-226z"/>
    <glyph glyph-name="sfthyphen" unicode="­" horiz-adv-x="366" d="M54 230v68h258v-68h-258z"/>
    <glyph glyph-name="registered" unicode="®" horiz-adv-x="581" d="M528 471c0 -33.333 -6.33496 -64.5 -19.002 -93.5s-30 -54.167 -52 -75.5s-47.667 -38.333 -77 -51s-60.666 -19 -93.999 -19c-34 0 -65.667 6.33301 -95 19s-55 29.667 -77 51s-39.333 46.5 -52 75.5s-19 60.167 -19 93.5s6.33301 64.5 19 93.5s29.834 54.333 51.501 76 s47.334 38.834 77.001 51.501s61.5 19 95.5 19c33.333 0 64.666 -6.33301 93.999 -19s55 -29.834 77 -51.501s39.333 -47 52 -76s19 -60.167 19 -93.5zM491.998 471c0 28 -5.33105 54.5 -15.998 79.5s-25.167 46.833 -43.5 65.5s-40.166 33.5 -65.499 44.5 s-52.333 16.5 -81 16.5s-55.667 -5.5 -81 -16.5s-47.333 -25.833 -66 -44.5s-33.334 -40.5 -44.001 -65.5s-16 -51.5 -16 -79.5s5.33301 -54.5 16 -79.5s25.334 -46.667 44.001 -65s40.5 -33 65.5 -44s52.167 -16.5 81.5 -16.5s56.666 5.5 81.999 16.5 s47.166 25.667 65.499 44s32.666 40 42.999 65s15.5 51.5 15.5 79.5zM348 537c0 18.667 -5.16797 31.832 -15.501 39.499s-22.166 11.5 -35.499 11.5h-53v-102h52c13.333 0 25.333 3.33301 36 10s16 20.334 16 41.001zM350.999 327.998l-56.001 126.001h-51v-126h-44v292 h100c28 0 50.333 -6.66699 67 -20s25 -34 25 -62c0 -12.667 -4.16699 -26.834 -12.5 -42.501s-22.166 -27.5 -41.499 -35.5l61 -132h-48z"/>
    <glyph glyph-name="macron" unicode="¯" horiz-adv-x="503" d="M84 656h329v-64h-329v64z"/>
    <glyph glyph-name="degree" unicode="°" horiz-adv-x="347" d="M312 538c0 -18.667 -3.33008 -36.167 -9.99707 -52.5s-16 -30.5 -28 -42.5s-26.167 -21.333 -42.5 -28s-33.833 -10 -52.5 -10c-20.667 0 -39.334 3.33301 -56.001 10s-30.834 16 -42.501 28s-20.667 26 -27 42s-9.5 33.667 -9.5 53c0 18 3.5 35.167 10.5 51.5 s16.667 30.666 29 42.999s26.666 22.166 42.999 29.499s33.833 11 52.5 11s36.167 -3.66699 52.5 -11s30.5 -17.166 42.5 -29.499s21.333 -26.666 28 -42.999s10 -33.5 10 -51.5zM264.003 537c0 24.667 -8.49902 45.5 -25.499 62.5s-37.167 25.5 -60.5 25.5 c-24 0 -44.167 -8.5 -60.5 -25.5s-24.5 -37.833 -24.5 -62.5c0 -23.333 8.16699 -43.333 24.5 -60s36.5 -25 60.5 -25c11.333 0 22.166 2.16699 32.499 6.5s19.5 10.333 27.5 18s14.333 16.667 19 27s7 21.5 7 33.5z"/>
    <glyph glyph-name="plusminus" unicode="±" horiz-adv-x="558" d="M313 268v-162h-61v162h-163v59h163v157h61v-157h162v-59h-162zM475 53v-53h-386v53h386z"/>
    <glyph glyph-name="twosuperior" unicode="²" horiz-adv-x="364" d="M302 648c0 -22 -6.16895 -44.168 -18.502 -66.501s-27.666 -43.833 -45.999 -64.5s-38.166 -40.334 -59.499 -59.001l-59 -50c34 0 67.5 -0.166992 100.5 -0.5s66.167 -0.5 99.5 -0.5v-52h-297v45c22 16.667 45.333 35.834 70 57.501s47.5 43.834 68.5 66.501 s38.333 44.5 52 65.5s20.5 39.167 20.5 54.5c0 21.333 -7.33301 36.666 -22 45.999s-34 14 -58 14c-10 0 -23.833 -1.66699 -41.5 -5s-40.167 -12.666 -67.5 -27.999l-26 43c28 19.333 54.5 31.833 79.5 37.5s46.167 8.5 63.5 8.5c42 0 76 -9.16699 102 -27.5 s39 -46.5 39 -84.5z"/>
    <glyph glyph-name="threesuperior" unicode="³" horiz-adv-x="364" d="M210 702l-170 -0.00195312v52h263l10 -38c-7.33301 -6 -14.666 -12.5 -21.999 -19.5l-25.5 -24l-33 -30.5l-43.5 -41c18 -1.33301 35.167 -4.66602 51.5 -9.99902s30.666 -12.666 42.999 -21.999s22 -21 29 -35s10.5 -30.333 10.5 -49c0 -21.333 -4.5 -40.333 -13.5 -57 s-20.833 -30.667 -35.5 -42s-31.667 -20 -51 -26s-39.333 -9 -60 -9c-27.333 0 -52.5 1.83301 -75.5 5.5s-44.833 10.167 -65.5 19.5l17 49c30 -9.33301 54.333 -14.666 73 -15.999s34 -2 46 -2c28.667 0 52 6.66699 70 20s27 32.666 27 57.999 c0 24 -10.167 41.167 -30.5 51.5s-45.5 15.5 -75.5 15.5c-14.667 0 -30 -1 -46 -3l-13 36l122 112z"/>
    <glyph glyph-name="acute" unicode="´" horiz-adv-x="492" d="M230 535l-36 31l123 162l58 -54z"/>
    <glyph glyph-name="mu" unicode="µ" horiz-adv-x="511" d="M140 1l-0.00292969 -208.999h-82v698h81v-326c0 -33.333 7 -59.5 21 -78.5s40 -28.5 78 -28.5c18.667 0 39.5 4.83301 62.5 14.5s46.167 25.167 69.5 46.5v372h82c0 -82 -0.166992 -163.833 -0.5 -245.5s-0.5 -163.167 -0.5 -244.5h-80v55l-3 2 c-17.333 -14.667 -33.333 -26.334 -48 -35.001s-28.5 -15.167 -41.5 -19.5s-25.167 -7.16602 -36.5 -8.49902s-22.666 -2 -33.999 -2c-13.333 0 -25.166 1.16699 -35.499 3.5s-19.166 5.16602 -26.499 8.49902z"/>
    <glyph glyph-name="mu" unicode="μ" horiz-adv-x="511" d="M140 1l-0.00292969 -208.999h-82v698h81v-326c0 -33.333 7 -59.5 21 -78.5s40 -28.5 78 -28.5c18.667 0 39.5 4.83301 62.5 14.5s46.167 25.167 69.5 46.5v372h82c0 -82 -0.166992 -163.833 -0.5 -245.5s-0.5 -163.167 -0.5 -244.5h-80v55l-3 2 c-17.333 -14.667 -33.333 -26.334 -48 -35.001s-28.5 -15.167 -41.5 -19.5s-25.167 -7.16602 -36.5 -8.49902s-22.666 -2 -33.999 -2c-13.333 0 -25.166 1.16699 -35.499 3.5s-19.166 5.16602 -26.499 8.49902z"/>
    <glyph glyph-name="paragraph" unicode="¶" horiz-adv-x="524" d="M225 325c-26 0 -50.166 4.66699 -72.499 14s-41.5 22 -57.5 38s-28.667 35 -38 57s-14 46 -14 72c0 25.333 4.5 49.333 13.5 72s21.667 42.5 38 59.5s35.666 30.5 57.999 40.5s46.5 15 72.5 15h206v-887h-59v828h-68l1 -828h-61v519h-19z"/>
    <glyph glyph-name="periodcentered" unicode="·" horiz-adv-x="205" d="M158 286c0 -15.333 -5.33105 -28.168 -15.998 -38.501s-23 -15.5 -37 -15.5c-14.667 0 -27.334 5.33301 -38.001 16s-16 23.334 -16 38.001c0 15.333 5.16699 28 15.5 38s23.166 15 38.499 15c14.667 0 27.167 -5 37.5 -15s15.5 -22.667 15.5 -38z"/>
    <glyph glyph-name="cedilla" unicode="¸" horiz-adv-x="447" d="M288 17l-31 -39.5l-31 -40.5c32.667 -1.33301 59 -8.5 79 -21.5s30 -32.167 30 -57.5c0 -28 -14.5 -52 -43.5 -72s-74.167 -30 -135.5 -30v36c36 3.33301 64.667 9.66602 86 18.999s32 22.666 32 39.999c0 8.66699 -3 15.834 -9 21.501s-13.833 9.83398 -23.5 12.501 s-20.5 4.5 -32.5 5.5s-24 1.5 -36 1.5l-13 19l48.5 63l48.5 62l15.5 -9.5z"/>
    <glyph glyph-name="onesuperior" unicode="¹" horiz-adv-x="364" d="M152 690l-100 -14l-9 44l118 34h58v-399h-67v335z"/>
    <glyph glyph-name="ordmasculine" unicode="º" horiz-adv-x="353" d="M328 428c0 -20.667 -2.49902 -41 -7.49902 -61s-13.5 -37.667 -25.5 -53s-28 -27.833 -48 -37.5s-45 -14.5 -75 -14.5c-28 0 -51.333 4.5 -70 13.5s-33.834 21.167 -45.501 36.5s-19.834 33 -24.501 53s-7 41 -7 63c0 21.333 2.83301 42.166 8.5 62.499 s14.5 38.333 26.5 54s27.833 28.334 47.5 38.001s43.5 14.5 71.5 14.5c28.667 0 52.5 -4.83301 71.5 -14.5s34.333 -22.334 46 -38.001s19.834 -33.667 24.501 -54s7 -41.166 7 -62.499zM261.001 428c0 12.667 -1.00098 25.999 -3.00098 39.999s-6 26.667 -12 38 s-14.333 20.833 -25 28.5s-24.667 11.5 -42 11.5s-31.5 -3.66699 -42.5 -11s-19.833 -16.666 -26.5 -27.999s-11.167 -24 -13.5 -38s-3.5 -28 -3.5 -42c0 -14.667 1 -28.834 3 -42.501s6 -25.667 12 -36s14.667 -18.666 26 -24.999s26.333 -9.5 45 -9.5 c16.667 0 30.334 3.33301 41.001 10s19 15.5 25 26.5s10.167 23.333 12.5 37s3.5 27.167 3.5 40.5z"/>
    <glyph glyph-name="guillemotright" unicode="»" horiz-adv-x="433" d="M379 169l-147 -158l-33 25l100 152l-100 153l34 26l146 -159v-39zM231 169l-147 -158l-33 25l101 152l-101 153l34 26l146 -159v-39z"/>
    <glyph glyph-name="onequarter" unicode="¼" horiz-adv-x="820" d="M687 110v-111h-65v111h-203v45l204 244h64v-238h62v-51h-62zM284 -22h-56l294 723h54zM199 600l-100 -14l-9 44l118 34h58v-399h-67v335zM619 319l-128 -158h132v158h-4z"/>
    <glyph glyph-name="onehalf" unicode="½" horiz-adv-x="820" d="M746 293c0 -22 -6.16895 -44.168 -18.502 -66.501s-27.666 -43.833 -45.999 -64.5s-38.166 -40.334 -59.499 -59.001l-59 -50c34 0 67.5 -0.166992 100.5 -0.5s66.167 -0.5 99.5 -0.5v-52h-297v45c22 16.667 45.333 35.834 70 57.501s47.5 43.834 68.5 66.501 s38.333 44.5 52 65.5s20.5 39.167 20.5 54.5c0 21.333 -7.33301 36.666 -22 45.999s-34 14 -58 14c-10 0 -23.833 -1.66699 -41.5 -5s-40.167 -12.666 -67.5 -27.999l-26 43c28 19.333 54.5 31.833 79.5 37.5s46.167 8.5 63.5 8.5c42 0 76 -9.16699 102 -27.5 s39 -46.5 39 -84.5zM263.998 -22.001h-56l294 723h54zM180.998 599.999l-100 -14l-9 44l118 34h58v-399h-67v335z"/>
    <glyph glyph-name="threequarters" unicode="¾" horiz-adv-x="820" d="M719 110v-111h-65v111h-203v45l204 244h64v-238h62v-51h-62zM236 612l-170 -0.00195312v52h263l10 -38c-7.33301 -6 -14.666 -12.5 -21.999 -19.5l-25.5 -24l-33 -30.5l-43.5 -41c18 -1.33301 35.167 -4.66602 51.5 -9.99902s30.666 -12.666 42.999 -21.999 s22 -21 29 -35s10.5 -30.333 10.5 -49c0 -21.333 -4.5 -40.333 -13.5 -57s-20.833 -30.667 -35.5 -42s-31.667 -20 -51 -26s-39.333 -9 -60 -9c-27.333 0 -52.5 1.83301 -75.5 5.5s-44.833 10.167 -65.5 19.5l17 49c30 -9.33301 54.333 -14.666 73 -15.999s34 -2 46 -2 c28.667 0 52 6.66699 70 20s27 32.666 27 57.999c0 24 -10.167 41.167 -30.5 51.5s-45.5 15.5 -75.5 15.5c-14.667 0 -30 -1 -46 -3l-13 36l122 112zM312 -22.002h-56l294 723h54zM651 318.998l-128 -158h132v158h-4z"/>
    <glyph glyph-name="questiondown" unicode="¿" horiz-adv-x="441" d="M199 33c-22 -17.333 -39.166 -33.834 -51.499 -49.501s-18.5 -34.5 -18.5 -56.5c0 -28 10 -48.167 30 -60.5s46 -18.5 78 -18.5c20.667 0 43.334 1.5 68.001 4.5s54.667 10.167 90 21.5l18 -60c-32 -11.333 -63.833 -19.666 -95.5 -24.999s-60.167 -8 -85.5 -8 c-62.667 0 -109.834 12.167 -141.501 36.5s-48.167 57.5 -49.5 99.5c0 32 8.66699 60.5 26 85.5s38 47.167 62 66.5c22 17.333 41 33.333 57 48s29.167 28.5 39.5 41.5s18.166 26 23.499 39s8 26.5 8 40.5c0 11.333 -0.833008 22.5 -2.5 33.5s-3.5 23.833 -5.5 38.5l66 9 c8 -39.333 12 -69.666 12 -90.999c0 -18.667 -3 -35.834 -9 -51.501s-14.5 -31.167 -25.5 -46.5s-24.333 -30.833 -40 -46.5s-33.5 -32.5 -53.5 -50.5zM212.001 442.999c0 14.667 5.16797 27.167 15.501 37.5s22.5 15.5 36.5 15.5c15.333 0 28.166 -5.16699 38.499 -15.5 s15.5 -22.833 15.5 -37.5c0 -14 -5.16699 -26 -15.5 -36s-22.833 -15 -37.5 -15s-27.167 5 -37.5 15s-15.5 22 -15.5 36z"/>
    <glyph glyph-name="Agrave" unicode="À" horiz-adv-x="579" d="M479 0l-28 89.5l-28 89.5h-270l-28 -89.5l-28 -89.5h-87l118 357l108 328h108l224 -685h-89zM403 244l-46 152.5l-47 151.5l-20 67h-3l-20 -68l-22 -72.5l-22 -72l-23 -75.5l-26 -83h229zM146 868l60 55l123 -161l-39 -33z"/>
    <glyph glyph-name="Aacute" unicode="Á" horiz-adv-x="579" d="M479 0l-28 89.5l-28 89.5h-270l-28 -89.5l-28 -89.5h-87l118 357l108 328h108l224 -685h-89zM403 244l-46 152.5l-47 151.5l-20 67h-3l-20 -68l-22 -72.5l-22 -72l-23 -75.5l-26 -83h229zM297 729l-38 31l123 161l60 -53z"/>
    <glyph glyph-name="Acircumflex" unicode="Â" horiz-adv-x="579" d="M479 0l-28 89.5l-28 89.5h-270l-28 -89.5l-28 -89.5h-87l118 357l108 328h108l224 -685h-89zM403 244l-46 152.5l-47 151.5l-20 67h-3l-20 -68l-22 -72.5l-22 -72l-23 -75.5l-26 -83h229zM442 730l-155 89l-154 -90l-23 28l150 138h55l152 -136z"/>
    <glyph glyph-name="Atilde" unicode="Ã" horiz-adv-x="579" d="M479 0l-28 89.5l-28 89.5h-270l-28 -89.5l-28 -89.5h-87l118 357l108 328h108l224 -685h-89zM403 244l-46 152.5l-47 151.5l-20 67h-3l-20 -68l-22 -72.5l-22 -72l-23 -75.5l-26 -83h229zM361 762c-15.333 0 -29.6689 1.99902 -43.002 5.99902s-26 8.5 -38 13.5 s-23.333 9.5 -34 13.5s-20.667 6 -30 6l-57 -39l-28 22c8 22.667 19.667 40.834 35 54.501s32.666 20.5 51.999 20.5c12 0 24.5 -2 37.5 -6s25.833 -8.5 38.5 -13.5s24.834 -9.5 36.501 -13.5s22.167 -6 31.5 -6l57 40l28 -22c-7.33301 -22.667 -18.666 -41 -33.999 -55 s-32.666 -21 -51.999 -21z"/>
    <glyph glyph-name="Adieresis" unicode="Ä" horiz-adv-x="579" d="M479 0l-28 89.5l-28 89.5h-270l-28 -89.5l-28 -89.5h-87l118 357l108 328h108l224 -685h-89zM403 244l-46 152.5l-47 151.5l-20 67h-3l-20 -68l-22 -72.5l-22 -72l-23 -75.5l-26 -83h229zM240 771c0 -13.333 -4.33301 -24 -13 -32s-19.667 -12 -33 -12s-24.333 4 -33 12 s-13 18.667 -13 32c0 12 4.5 22.333 13.5 31s19.167 13 30.5 13c14 0 25.5 -4 34.5 -12s13.5 -18.667 13.5 -32zM427 771c0 -13.333 -4.66602 -24 -13.999 -32s-21 -12 -35 -12c-12 0 -22 4 -30 12s-12 18.667 -12 32c0 12 4.16699 22.333 12.5 31s18.166 13 29.499 13 c14 0 25.667 -4 35 -12s14 -18.667 14 -32z"/>
    <glyph glyph-name="Aring" unicode="Å" horiz-adv-x="579" d="M479 0l-28 89.5l-28 89.5h-270l-28 -89.5l-28 -89.5h-87l118 357l108 328h108l224 -685h-89zM403 244l-46 152.5l-47 151.5l-20 67h-3l-20 -68l-22 -72.5l-22 -72l-23 -75.5l-26 -83h229zM290 706c-15.333 0 -29.666 2.66309 -42.999 7.99609s-24.833 12.833 -34.5 22.5 s-17.334 20.834 -23.001 33.501s-8.5 26.334 -8.5 41.001c0 14 2.83301 27.333 8.5 40s13.334 23.834 23.001 33.501s21.167 17.334 34.5 23.001s27.666 8.5 42.999 8.5c14.667 0 28.5 -2.83301 41.5 -8.5s24.333 -13.167 34 -22.5s17.167 -20.5 22.5 -33.5s8 -26.5 8 -40.5 c0 -30 -10.167 -55 -30.5 -75s-45.5 -30 -75.5 -30zM290 872.996c-19.333 0 -34.833 -6.16699 -46.5 -18.5s-17.5 -27.833 -17.5 -46.5c0 -17.333 5.83301 -32 17.5 -44s27.167 -18 46.5 -18c18 0 32.667 6 44 18s17 26.667 17 44c0 18 -5.66699 33.333 -17 46 s-26 19 -44 19z"/>
    <glyph glyph-name="AE" unicode="Æ" horiz-adv-x="946" d="M486 205h-259l-127 -205h-90l427 684h445v-62h-311v-231h260v-61h-260v-267h327v-63h-412v205zM265 270h221v347h-5z"/>
    <glyph glyph-name="Ccedilla" unicode="Ç" horiz-adv-x="593" d="M360 696c37.333 0 70.3271 -2.83105 98.9941 -8.49805s53.334 -12.167 74.001 -19.5l-18 -63c-27.333 9.33301 -53.333 15.5 -78 18.5s-47.667 4.5 -69 4.5c-37.333 0 -69.833 -6.66699 -97.5 -20s-50.5 -32.5 -68.5 -57.5s-31.5 -55.5 -40.5 -91.5 s-13.5 -76.333 -13.5 -121c0 -39.333 3.16699 -75.833 9.5 -109.5s17.833 -63 34.5 -88s39.334 -44.667 68.001 -59s65.334 -21.5 110.001 -21.5c8.66699 0 19.667 0.5 33 1.5s27.333 2.5 42 4.5s29.667 4.5 45 7.5s29.666 6.5 42.999 10.5l16 -60 c-10.667 -4 -23 -7.83301 -37 -11.5s-28.667 -6.83398 -44 -9.50098s-31.166 -4.83398 -47.499 -6.50098s-31.833 -2.83398 -46.5 -3.50098c-9.33301 -11.333 -18.5 -23.333 -27.5 -36l-27.5 -37c32.667 -1.33301 59 -8.5 79 -21.5s30 -32.167 30 -57.5 c0 -28 -14.5 -52 -43.5 -72s-74.167 -30 -135.5 -30v36c36 3.33301 64.667 9.66602 86 18.999s32 22.666 32 39.999c0 8.66699 -3 15.834 -9 21.501s-13.833 9.83398 -23.5 12.501s-20.5 4.5 -32.5 5.5s-24 1.5 -36 1.5l-13 19c13.333 16.667 26 33.334 38 50.001 s24.667 33 38 49c-49.333 2.66699 -91.166 12.834 -125.499 30.501s-62.166 41.5 -83.499 71.5s-36.666 65.667 -45.999 107s-14 86.666 -14 135.999c0 24.667 1.83301 50.5 5.5 77.5s10 53.833 19 80.5s21 52 36 76s33.5 45.167 55.5 63.5s48.167 33 78.5 44 s65.5 16.5 105.5 16.5z"/>
    <glyph glyph-name="Egrave" unicode="È" horiz-adv-x="564" d="M80 0v684h417v-64h-332v-227h280v-62h-280v-266h348v-65h-433zM177 868l60 55l123 -161l-39 -33z"/>
    <glyph glyph-name="Eacute" unicode="É" horiz-adv-x="564" d="M80 0v684h417v-64h-332v-227h280v-62h-280v-266h348v-65h-433zM302 729l-38 31l123 161l60 -53z"/>
    <glyph glyph-name="Ecircumflex" unicode="Ê" horiz-adv-x="564" d="M80 0v684h417v-64h-332v-227h280v-62h-280v-266h348v-65h-433zM447 730l-155 89l-154 -90l-23 28l150 138h55l152 -136z"/>
    <glyph glyph-name="Edieresis" unicode="Ë" horiz-adv-x="564" d="M80 0v684h417v-64h-332v-227h280v-62h-280v-266h348v-65h-433zM437 771c0 -13.333 -4.66602 -24 -13.999 -32s-21 -12 -35 -12c-12 0 -22 4 -30 12s-12 18.667 -12 32c0 12 4.16699 22.333 12.5 31s18.166 13 29.499 13c14 0 25.667 -4 35 -12s14 -18.667 14 -32z M250.001 771c0 -13.333 -4.33301 -24 -13 -32s-19.667 -12 -33 -12s-24.333 4 -33 12s-13 18.667 -13 32c0 12 4.5 22.333 13.5 31s19.167 13 30.5 13c14 0 25.5 -4 34.5 -12s13.5 -18.667 13.5 -32z"/>
    <glyph glyph-name="Igrave" unicode="Ì" horiz-adv-x="264" d="M90 0v685h84v-685h-84zM-3 868l60 55l123 -161l-39 -33z"/>
    <glyph glyph-name="Iacute" unicode="Í" horiz-adv-x="264" d="M90 0v685h84v-685h-84zM135 729l-38 31l123 161l60 -53z"/>
    <glyph glyph-name="Icircumflex" unicode="Î" horiz-adv-x="264" d="M90 0v685h84v-685h-84zM286 730l-155 89l-154 -90l-23 28l150 138h55l152 -136z"/>
    <glyph glyph-name="Idieresis" unicode="Ï" horiz-adv-x="264" d="M90 0v685h84v-685h-84zM273 771c0 -13.333 -4.66602 -24 -13.999 -32s-21 -12 -35 -12c-12 0 -22 4 -30 12s-12 18.667 -12 32c0 12 4.16699 22.333 12.5 31s18.166 13 29.499 13c14 0 25.667 -4 35 -12s14 -18.667 14 -32zM86.001 771c0 -13.333 -4.33301 -24 -13 -32 s-19.667 -12 -33 -12s-24.333 4 -33 12s-13 18.667 -13 32c0 12 4.5 22.333 13.5 31s19.167 13 30.5 13c14 0 25.5 -4 34.5 -12s13.5 -18.667 13.5 -32z"/>
    <glyph glyph-name="Eth" unicode="Ð" horiz-adv-x="644" d="M80 0l0.00195312 328.999h-62v61h62v295h223c55.333 0 101.166 -9.16699 137.499 -27.5s65.166 -43.166 86.499 -74.499s36.166 -67.5 44.499 -108.5s12.5 -84.5 12.5 -130.5c0 -46.667 -4.66699 -90.834 -14 -132.501s-25.166 -78.167 -47.499 -109.5 s-52 -56.166 -89 -74.499s-83.5 -27.5 -139.5 -27.5h-214zM167.002 619.999v-229.998h158v-61h-158v-263h117c10 0 22.333 0.666992 37 2s29.834 4.66602 45.501 9.99902s31.167 13.666 46.5 24.999s29.166 27 41.499 47s22.333 45.167 30 75.5s11.5 67.5 11.5 111.5 c0 44.667 -3.5 82.667 -10.5 114s-16.167 57.5 -27.5 78.5s-24.333 37.5 -39 49.5s-29.667 21 -45 27s-30.333 9.83301 -45 11.5s-28 2.5 -40 2.5h-122z"/>
    <glyph glyph-name="Ntilde" unicode="Ñ" horiz-adv-x="682" d="M520 139l-0.000976562 545h82v-684h-83l-264 413l-90 144c-0.666992 0 -1.16699 -0.166992 -1.5 -0.5s-1.16602 -0.5 -2.49902 -0.5v-556h-81v684h85l125.5 -194l124.5 -194l100 -157h5zM409.999 765c-15.333 0 -29.6689 1.99902 -43.002 5.99902s-26 8.5 -38 13.5 s-23.333 9.5 -34 13.5s-20.667 6 -30 6l-57 -39l-28 22c8 22.667 19.667 40.834 35 54.501s32.666 20.5 51.999 20.5c12 0 24.5 -2 37.5 -6s25.833 -8.5 38.5 -13.5s24.834 -9.5 36.501 -13.5s22.167 -6 31.5 -6l57 40l28 -22c-7.33301 -22.667 -18.666 -41 -33.999 -55 s-32.666 -21 -51.999 -21z"/>
    <glyph glyph-name="Ograve" unicode="Ò" horiz-adv-x="698" d="M638 340c0 -49.333 -5.99902 -95.3291 -17.999 -137.996s-29.833 -79.5 -53.5 -110.5s-53.334 -55.333 -89.001 -73s-76.834 -26.5 -123.501 -26.5c-53.333 0 -98.5 8.16699 -135.5 24.5s-67.333 39.5 -91 69.5s-40.834 66.167 -51.501 108.5s-16 89.833 -16 142.5 c0 47.333 5.16699 92.666 15.5 135.999s27 81.5 50 114.5s53.333 59.167 91 78.5s83.5 29 137.5 29c54.667 0 100.334 -9.83301 137.001 -29.5s65.834 -45.834 87.501 -78.501s37 -70.334 46 -113.001s13.5 -87.334 13.5 -134.001zM549.001 337.004 c0 34 -2.50098 68.332 -7.50098 102.999s-14.5 66.167 -28.5 94.5s-33.667 51.5 -59 69.5s-58.666 27 -99.999 27s-75.333 -8.33301 -102 -25s-47.667 -38.834 -63 -66.501s-26 -59.167 -32 -94.5s-9 -71.666 -9 -108.999c0 -91.333 16 -160.666 48 -207.999 s84.667 -71 158 -71c33.333 0 62.333 7.33301 87 22s45 34.667 61 60s27.833 55 35.5 89s11.5 70.333 11.5 109zM213 868.003l60 55l123 -161l-39 -33z"/>
    <glyph glyph-name="Oacute" unicode="Ó" horiz-adv-x="698" d="M638 340c0 -49.333 -5.99902 -95.3291 -17.999 -137.996s-29.833 -79.5 -53.5 -110.5s-53.334 -55.333 -89.001 -73s-76.834 -26.5 -123.501 -26.5c-53.333 0 -98.5 8.16699 -135.5 24.5s-67.333 39.5 -91 69.5s-40.834 66.167 -51.501 108.5s-16 89.833 -16 142.5 c0 47.333 5.16699 92.666 15.5 135.999s27 81.5 50 114.5s53.333 59.167 91 78.5s83.5 29 137.5 29c54.667 0 100.334 -9.83301 137.001 -29.5s65.834 -45.834 87.501 -78.501s37 -70.334 46 -113.001s13.5 -87.334 13.5 -134.001zM549.001 337.004 c0 34 -2.50098 68.332 -7.50098 102.999s-14.5 66.167 -28.5 94.5s-33.667 51.5 -59 69.5s-58.666 27 -99.999 27s-75.333 -8.33301 -102 -25s-47.667 -38.834 -63 -66.501s-26 -59.167 -32 -94.5s-9 -71.666 -9 -108.999c0 -91.333 16 -160.666 48 -207.999 s84.667 -71 158 -71c33.333 0 62.333 7.33301 87 22s45 34.667 61 60s27.833 55 35.5 89s11.5 70.333 11.5 109zM341 729.003l-38 31l123 161l60 -53z"/>
    <glyph glyph-name="Ocircumflex" unicode="Ô" horiz-adv-x="698" d="M638 340c0 -49.333 -5.99902 -95.3291 -17.999 -137.996s-29.833 -79.5 -53.5 -110.5s-53.334 -55.333 -89.001 -73s-76.834 -26.5 -123.501 -26.5c-53.333 0 -98.5 8.16699 -135.5 24.5s-67.333 39.5 -91 69.5s-40.834 66.167 -51.501 108.5s-16 89.833 -16 142.5 c0 47.333 5.16699 92.666 15.5 135.999s27 81.5 50 114.5s53.333 59.167 91 78.5s83.5 29 137.5 29c54.667 0 100.334 -9.83301 137.001 -29.5s65.834 -45.834 87.501 -78.501s37 -70.334 46 -113.001s13.5 -87.334 13.5 -134.001zM549.001 337.004 c0 34 -2.50098 68.332 -7.50098 102.999s-14.5 66.167 -28.5 94.5s-33.667 51.5 -59 69.5s-58.666 27 -99.999 27s-75.333 -8.33301 -102 -25s-47.667 -38.834 -63 -66.501s-26 -59.167 -32 -94.5s-9 -71.666 -9 -108.999c0 -91.333 16 -160.666 48 -207.999 s84.667 -71 158 -71c33.333 0 62.333 7.33301 87 22s45 34.667 61 60s27.833 55 35.5 89s11.5 70.333 11.5 109zM511 730.003l-155 89l-154 -90l-23 28l150 138h55l152 -136z"/>
    <glyph glyph-name="Otilde" unicode="Õ" horiz-adv-x="698" d="M638 340c0 -49.333 -5.99902 -95.3291 -17.999 -137.996s-29.833 -79.5 -53.5 -110.5s-53.334 -55.333 -89.001 -73s-76.834 -26.5 -123.501 -26.5c-53.333 0 -98.5 8.16699 -135.5 24.5s-67.333 39.5 -91 69.5s-40.834 66.167 -51.501 108.5s-16 89.833 -16 142.5 c0 47.333 5.16699 92.666 15.5 135.999s27 81.5 50 114.5s53.333 59.167 91 78.5s83.5 29 137.5 29c54.667 0 100.334 -9.83301 137.001 -29.5s65.834 -45.834 87.501 -78.501s37 -70.334 46 -113.001s13.5 -87.334 13.5 -134.001zM549.001 337.004 c0 34 -2.50098 68.332 -7.50098 102.999s-14.5 66.167 -28.5 94.5s-33.667 51.5 -59 69.5s-58.666 27 -99.999 27s-75.333 -8.33301 -102 -25s-47.667 -38.834 -63 -66.501s-26 -59.167 -32 -94.5s-9 -71.666 -9 -108.999c0 -91.333 16 -160.666 48 -207.999 s84.667 -71 158 -71c33.333 0 62.333 7.33301 87 22s45 34.667 61 60s27.833 55 35.5 89s11.5 70.333 11.5 109zM428 767.003c-15.333 0 -29.6689 1.99902 -43.002 5.99902s-26 8.5 -38 13.5s-23.333 9.5 -34 13.5s-20.667 6 -30 6l-57 -39l-28 22 c8 22.667 19.667 40.834 35 54.501s32.666 20.5 51.999 20.5c12 0 24.5 -2 37.5 -6s25.833 -8.5 38.5 -13.5s24.834 -9.5 36.501 -13.5s22.167 -6 31.5 -6l57 40l28 -22c-7.33301 -22.667 -18.666 -41 -33.999 -55s-32.666 -21 -51.999 -21z"/>
    <glyph glyph-name="Odieresis" unicode="Ö" horiz-adv-x="698" d="M638 340c0 -49.333 -5.99902 -95.3291 -17.999 -137.996s-29.833 -79.5 -53.5 -110.5s-53.334 -55.333 -89.001 -73s-76.834 -26.5 -123.501 -26.5c-53.333 0 -98.5 8.16699 -135.5 24.5s-67.333 39.5 -91 69.5s-40.834 66.167 -51.501 108.5s-16 89.833 -16 142.5 c0 47.333 5.16699 92.666 15.5 135.999s27 81.5 50 114.5s53.333 59.167 91 78.5s83.5 29 137.5 29c54.667 0 100.334 -9.83301 137.001 -29.5s65.834 -45.834 87.501 -78.501s37 -70.334 46 -113.001s13.5 -87.334 13.5 -134.001zM549.001 337.004 c0 34 -2.50098 68.332 -7.50098 102.999s-14.5 66.167 -28.5 94.5s-33.667 51.5 -59 69.5s-58.666 27 -99.999 27s-75.333 -8.33301 -102 -25s-47.667 -38.834 -63 -66.501s-26 -59.167 -32 -94.5s-9 -71.666 -9 -108.999c0 -91.333 16 -160.666 48 -207.999 s84.667 -71 158 -71c33.333 0 62.333 7.33301 87 22s45 34.667 61 60s27.833 55 35.5 89s11.5 70.333 11.5 109zM492 781.003c0 -13.333 -4.66602 -24 -13.999 -32s-21 -12 -35 -12c-12 0 -22 4 -30 12s-12 18.667 -12 32c0 12 4.16699 22.333 12.5 31s18.166 13 29.499 13 c14 0 25.667 -4 35 -12s14 -18.667 14 -32zM305.001 781.003c0 -13.333 -4.33301 -24 -13 -32s-19.667 -12 -33 -12s-24.333 4 -33 12s-13 18.667 -13 32c0 12 4.5 22.333 13.5 31s19.167 13 30.5 13c14 0 25.5 -4 34.5 -12s13.5 -18.667 13.5 -32z"/>
    <glyph glyph-name="multiply" unicode="×" horiz-adv-x="558" d="M283 247l-131 -131l-43 44l131 130l-129 129l42 41l128 -129l126 127l43 -43l-126 -127l128 -127l-42 -42z"/>
    <glyph glyph-name="Oslash" unicode="Ø" horiz-adv-x="678" d="M628 340c0 -49.333 -5.99805 -95.3311 -17.998 -137.998s-29.833 -79.5 -53.5 -110.5s-53.334 -55.333 -89.001 -73s-76.834 -26.5 -123.501 -26.5c-44.667 0 -83.5 5.66699 -116.5 17s-61.167 27.666 -84.5 48.999l-48 -64h-48l70 92 c-23.333 30 -40.333 66.167 -51 108.5s-16 89.833 -16 142.5c0 47.333 5.16699 92.666 15.5 135.999s27 81.5 50 114.5s53.333 59.167 91 78.5s83.5 29 137.5 29c42 0 78.167 -5.66699 108.5 -17s56.5 -27.333 78.5 -48l50 67h50l-73 -95c25.333 -34 43.333 -73.667 54 -119 s16 -93 16 -143zM539.002 337.002c0 33.333 -2.5 67.167 -7.5 101.5s-14.833 65.5 -29.5 93.5l-310 -413c33.333 -41.333 84 -62 152 -62c33.333 0 62.333 7.33301 87 22s45 34.667 61 60s27.833 55 35.5 89s11.5 70.333 11.5 109zM138.002 336.003 c0 -38.667 2.66602 -72.832 7.99902 -102.499s14 -55.5 26 -77.5l310 412c-15.333 19.333 -34.166 34.666 -56.499 45.999s-49.5 17 -81.5 17c-41.333 0 -75.333 -8.33301 -102 -25s-47.667 -38.834 -63 -66.501s-26 -59.167 -32 -94.5s-9 -71.666 -9 -108.999z"/>
    <glyph glyph-name="Ugrave" unicode="Ù" horiz-adv-x="665" d="M594 246c0 -38 -5.33105 -72.668 -15.998 -104.001s-26.834 -58.166 -48.501 -80.499s-48.834 -39.5 -81.501 -51.5s-71.334 -18 -116.001 -18c-91.333 0 -157.5 22.5 -198.5 67.5s-61.5 107.167 -61.5 186.5v439h84v-440c0 -62.667 15.333 -109.667 46 -141 s74.334 -47 131.001 -47s100.5 15.5 131.5 46.5s46.5 78.167 46.5 141.5l-1 440h84v-439zM209.002 867.999l60 55l123 -161l-39 -33z"/>
    <glyph glyph-name="Uacute" unicode="Ú" horiz-adv-x="665" d="M594 246c0 -38 -5.33105 -72.668 -15.998 -104.001s-26.834 -58.166 -48.501 -80.499s-48.834 -39.5 -81.501 -51.5s-71.334 -18 -116.001 -18c-91.333 0 -157.5 22.5 -198.5 67.5s-61.5 107.167 -61.5 186.5v439h84v-440c0 -62.667 15.333 -109.667 46 -141 s74.334 -47 131.001 -47s100.5 15.5 131.5 46.5s46.5 78.167 46.5 141.5l-1 440h84v-439zM319.002 728.999l-38 31l123 161l60 -53z"/>
    <glyph glyph-name="Ucircumflex" unicode="Û" horiz-adv-x="665" d="M594 246c0 -38 -5.33105 -72.668 -15.998 -104.001s-26.834 -58.166 -48.501 -80.499s-48.834 -39.5 -81.501 -51.5s-71.334 -18 -116.001 -18c-91.333 0 -157.5 22.5 -198.5 67.5s-61.5 107.167 -61.5 186.5v439h84v-440c0 -62.667 15.333 -109.667 46 -141 s74.334 -47 131.001 -47s100.5 15.5 131.5 46.5s46.5 78.167 46.5 141.5l-1 440h84v-439zM491.002 729.999l-161 87l-160 -88l-24 27l156 136h57l158 -134z"/>
    <glyph glyph-name="Udieresis" unicode="Ü" horiz-adv-x="665" d="M594 246c0 -38 -5.33105 -72.668 -15.998 -104.001s-26.834 -58.166 -48.501 -80.499s-48.834 -39.5 -81.501 -51.5s-71.334 -18 -116.001 -18c-91.333 0 -157.5 22.5 -198.5 67.5s-61.5 107.167 -61.5 186.5v439h84v-440c0 -62.667 15.333 -109.667 46 -141 s74.334 -47 131.001 -47s100.5 15.5 131.5 46.5s46.5 78.167 46.5 141.5l-1 440h84v-439zM473.002 776.999c0 -13.333 -4.66602 -24 -13.999 -32s-21 -12 -35 -12c-12 0 -22 4 -30 12s-12 18.667 -12 32c0 12 4.16699 22.333 12.5 31s18.166 13 29.499 13 c14 0 25.667 -4 35 -12s14 -18.667 14 -32zM286.003 776.999c0 -13.333 -4.33301 -24 -13 -32s-19.667 -12 -33 -12s-24.333 4 -33 12s-13 18.667 -13 32c0 12 4.5 22.333 13.5 31s19.167 13 30.5 13c14 0 25.5 -4 34.5 -12s13.5 -18.667 13.5 -32z"/>
    <glyph glyph-name="Yacute" unicode="Ý" horiz-adv-x="536" d="M220 296l-210 389h89l94 -180l70 -139h4l76 145l95 174h87l-216 -385v-300h-89v296zM261 711l-38 31l123 161l60 -53z"/>
    <glyph glyph-name="Thorn" unicode="Þ" horiz-adv-x="555" d="M517 343c0 -20.667 -3.16797 -43 -9.50098 -67s-17.333 -46.167 -33 -66.5s-36.667 -37.333 -63 -51s-59.166 -20.5 -98.499 -20.5h-148v-138h-85v685h85v-143h139c31.333 0 60 -4.16699 86 -12.5s48.5 -20.833 67.5 -37.5s33.667 -37.5 44 -62.5 s15.5 -53.833 15.5 -86.5zM164.999 477l0.00195312 -274.999h136c16 0 31.667 2.16699 47 6.5s29.166 11.833 41.499 22.5s22.166 24.834 29.499 42.501s11 39.834 11 66.501c0 23.333 -3.33301 43.666 -10 60.999s-16 31.666 -28 42.999s-26.167 19.666 -42.5 24.999 s-33.833 8 -52.5 8h-132z"/>
    <glyph glyph-name="germandbls" unicode="ß" horiz-adv-x="586" d="M470 116c0 16.667 -2.83594 31.1641 -8.50293 43.4971s-12.834 23.5 -21.501 33.5s-18.334 19.333 -29.001 28s-21 17.667 -31 27l-37 35c-12.667 12 -24.167 24.167 -34.5 36.5s-18.666 25.333 -24.999 39s-9.5 27.5 -9.5 41.5c0 18.667 5.5 35.667 16.5 51s23 30 36 44 s25 27.667 36 41s16.5 28 16.5 44c0 4 -0.833008 10.333 -2.5 19s-5.66699 17.334 -12 26.001s-16.166 16.334 -29.499 23.001s-31.333 10 -54 10c-18 0 -33.667 -3.16699 -47 -9.5s-24.166 -14.666 -32.499 -24.999s-14.5 -22.5 -18.5 -36.5s-6 -29 -6 -45v-542h-81v384 h-71v54h71v108c0 15.333 2.66699 33 8 53s15 39 29 57s33.167 33.333 57.5 46s55.833 19 94.5 19c34 0 62.167 -4.33301 84.5 -13s40 -19.5 53 -32.5s22.167 -27 27.5 -42s8 -28.5 8 -40.5c0 -24.667 -5.5 -45.834 -16.5 -63.501s-23 -33.5 -36 -47.5l-35.5 -39 c-10.667 -12 -16 -25 -16 -39c0 -17.333 7.5 -34.666 22.5 -51.999s34.167 -35 57.5 -53l43.5 -34.5c14.333 -11.667 27 -24.5 38 -38.5s19.833 -29.833 26.5 -47.5s10 -38.167 10 -61.5c-1.33301 -16.667 -5.16602 -32.834 -11.499 -48.501s-16.166 -29.5 -29.499 -41.5 s-30.333 -21.667 -51 -29s-45.667 -11 -75 -11c-24.667 0 -50 2.33301 -76 7s-48 10.667 -66 18l18 60c34.667 -12 61 -19.167 79 -21.5s32.333 -3.5 43 -3.5c28 0 49.5 6.33301 64.5 19s22.5 29.334 22.5 50.001z"/>
    <glyph glyph-name="agrave" unicode="à" horiz-adv-x="530" d="M227 225c-33.333 -1.33301 -57.999 -9.66699 -73.999 -25s-24 -35.333 -24 -60c0 -28.667 7 -50 21 -64s37 -21 69 -21c21.333 0 43.166 5.5 65.499 16.5s44.833 26.833 67.5 47.5v114zM431.001 60.999l66.001 -0.00195312l5 -48c-12 -6 -25.833 -10.833 -41.5 -14.5 s-30.167 -5.5 -43.5 -5.5c-19.333 0 -34.333 4 -45 12s-16.667 24.667 -18 50l-1 1c-18.667 -16 -36.667 -28.333 -54 -37s-33.166 -15 -47.499 -19s-27.333 -6.33301 -39 -7s-21.167 -1 -28.5 -1c-28 0 -51.167 4.66699 -69.5 14s-32.833 21 -43.5 35 s-18.167 29.167 -22.5 45.5s-6.5 31.5 -6.5 45.5c0 42.667 15.167 76.834 45.5 102.501s76.833 40.5 139.5 44.5l125 8v31c0 40.667 -7.33301 69.334 -22 86.001s-42.334 25 -83.001 25c-24 0 -49 -2.33301 -75 -7s-51.333 -11.334 -76 -20.001l-18 55 c28 12.667 58.667 22.334 92 29.001s65.333 10 96 10c51.333 0 91.666 -12 120.999 -36s44 -66 44 -126v-273zM131.002 673.997l60 57l123 -162l-38 -34z"/>
    <glyph glyph-name="aacute" unicode="á" horiz-adv-x="530" d="M227 225c-33.333 -1.33301 -57.999 -9.66699 -73.999 -25s-24 -35.333 -24 -60c0 -28.667 7 -50 21 -64s37 -21 69 -21c21.333 0 43.166 5.5 65.499 16.5s44.833 26.833 67.5 47.5v114zM431.001 60.999l66.001 -0.00195312l5 -48c-12 -6 -25.833 -10.833 -41.5 -14.5 s-30.167 -5.5 -43.5 -5.5c-19.333 0 -34.333 4 -45 12s-16.667 24.667 -18 50l-1 1c-18.667 -16 -36.667 -28.333 -54 -37s-33.166 -15 -47.499 -19s-27.333 -6.33301 -39 -7s-21.167 -1 -28.5 -1c-28 0 -51.167 4.66699 -69.5 14s-32.833 21 -43.5 35 s-18.167 29.167 -22.5 45.5s-6.5 31.5 -6.5 45.5c0 42.667 15.167 76.834 45.5 102.501s76.833 40.5 139.5 44.5l125 8v31c0 40.667 -7.33301 69.334 -22 86.001s-42.334 25 -83.001 25c-24 0 -49 -2.33301 -75 -7s-51.333 -11.334 -76 -20.001l-18 55 c28 12.667 58.667 22.334 92 29.001s65.333 10 96 10c51.333 0 91.666 -12 120.999 -36s44 -66 44 -126v-273zM240.002 534.997l-36 31l123 162l58 -54z"/>
    <glyph glyph-name="acircumflex" unicode="â" horiz-adv-x="530" d="M227 225c-33.333 -1.33301 -57.999 -9.66699 -73.999 -25s-24 -35.333 -24 -60c0 -28.667 7 -50 21 -64s37 -21 69 -21c21.333 0 43.166 5.5 65.499 16.5s44.833 26.833 67.5 47.5v114zM431.001 60.999l66.001 -0.00195312l5 -48c-12 -6 -25.833 -10.833 -41.5 -14.5 s-30.167 -5.5 -43.5 -5.5c-19.333 0 -34.333 4 -45 12s-16.667 24.667 -18 50l-1 1c-18.667 -16 -36.667 -28.333 -54 -37s-33.166 -15 -47.499 -19s-27.333 -6.33301 -39 -7s-21.167 -1 -28.5 -1c-28 0 -51.167 4.66699 -69.5 14s-32.833 21 -43.5 35 s-18.167 29.167 -22.5 45.5s-6.5 31.5 -6.5 45.5c0 42.667 15.167 76.834 45.5 102.501s76.833 40.5 139.5 44.5l125 8v31c0 40.667 -7.33301 69.334 -22 86.001s-42.334 25 -83.001 25c-24 0 -49 -2.33301 -75 -7s-51.333 -11.334 -76 -20.001l-18 55 c28 12.667 58.667 22.334 92 29.001s65.333 10 96 10c51.333 0 91.666 -12 120.999 -36s44 -66 44 -126v-273zM405.002 531.997l-155 93l-154 -94l-23 28l150 143h55l152 -141z"/>
    <glyph glyph-name="atilde" unicode="ã" horiz-adv-x="530" d="M227 225c-33.333 -1.33301 -57.999 -9.66699 -73.999 -25s-24 -35.333 -24 -60c0 -28.667 7 -50 21 -64s37 -21 69 -21c21.333 0 43.166 5.5 65.499 16.5s44.833 26.833 67.5 47.5v114zM431.001 60.999l66.001 -0.00195312l5 -48c-12 -6 -25.833 -10.833 -41.5 -14.5 s-30.167 -5.5 -43.5 -5.5c-19.333 0 -34.333 4 -45 12s-16.667 24.667 -18 50l-1 1c-18.667 -16 -36.667 -28.333 -54 -37s-33.166 -15 -47.499 -19s-27.333 -6.33301 -39 -7s-21.167 -1 -28.5 -1c-28 0 -51.167 4.66699 -69.5 14s-32.833 21 -43.5 35 s-18.167 29.167 -22.5 45.5s-6.5 31.5 -6.5 45.5c0 42.667 15.167 76.834 45.5 102.501s76.833 40.5 139.5 44.5l125 8v31c0 40.667 -7.33301 69.334 -22 86.001s-42.334 25 -83.001 25c-24 0 -49 -2.33301 -75 -7s-51.333 -11.334 -76 -20.001l-18 55 c28 12.667 58.667 22.334 92 29.001s65.333 10 96 10c51.333 0 91.666 -12 120.999 -36s44 -66 44 -126v-273zM326.002 572.997c-15.333 0 -29.6689 1.99902 -43.002 5.99902s-26 8.5 -38 13.5s-23.333 9.5 -34 13.5s-20.667 6 -30 6l-57 -39l-28 22 c8 22.667 19.667 40.834 35 54.501s32.666 20.5 51.999 20.5c12 0 24.5 -2 37.5 -6s25.833 -8.5 38.5 -13.5s24.834 -9.5 36.501 -13.5s22.167 -6 31.5 -6l57 40l28 -22c-7.33301 -22.667 -18.666 -41 -33.999 -55s-32.666 -21 -51.999 -21z"/>
    <glyph glyph-name="adieresis" unicode="ä" horiz-adv-x="530" d="M227 225c-33.333 -1.33301 -57.999 -9.66699 -73.999 -25s-24 -35.333 -24 -60c0 -28.667 7 -50 21 -64s37 -21 69 -21c21.333 0 43.166 5.5 65.499 16.5s44.833 26.833 67.5 47.5v114zM431.001 60.999l66.001 -0.00195312l5 -48c-12 -6 -25.833 -10.833 -41.5 -14.5 s-30.167 -5.5 -43.5 -5.5c-19.333 0 -34.333 4 -45 12s-16.667 24.667 -18 50l-1 1c-18.667 -16 -36.667 -28.333 -54 -37s-33.166 -15 -47.499 -19s-27.333 -6.33301 -39 -7s-21.167 -1 -28.5 -1c-28 0 -51.167 4.66699 -69.5 14s-32.833 21 -43.5 35 s-18.167 29.167 -22.5 45.5s-6.5 31.5 -6.5 45.5c0 42.667 15.167 76.834 45.5 102.501s76.833 40.5 139.5 44.5l125 8v31c0 40.667 -7.33301 69.334 -22 86.001s-42.334 25 -83.001 25c-24 0 -49 -2.33301 -75 -7s-51.333 -11.334 -76 -20.001l-18 55 c28 12.667 58.667 22.334 92 29.001s65.333 10 96 10c51.333 0 91.666 -12 120.999 -36s44 -66 44 -126v-273zM397.002 602.997c0 -12.667 -4.66699 -23.167 -14 -31.5s-21 -12.5 -35 -12.5c-12.667 0 -23 4.16699 -31 12.5s-12 18.833 -12 31.5s4.33301 23.167 13 31.5 s18.667 12.5 30 12.5c14 0 25.667 -4 35 -12s14 -18.667 14 -32zM209.002 602.997c0 -12.667 -4.33203 -23.167 -12.999 -31.5s-19.667 -12.5 -33 -12.5s-24.333 4.16699 -33 12.5s-13 18.833 -13 31.5s4.66699 23.167 14 31.5s19.666 12.5 30.999 12.5 c14 0 25.333 -4 34 -12s13 -18.667 13 -32z"/>
    <glyph glyph-name="aring" unicode="å" horiz-adv-x="530" d="M227 225c-33.333 -1.33301 -57.999 -9.66699 -73.999 -25s-24 -35.333 -24 -60c0 -28.667 7 -50 21 -64s37 -21 69 -21c21.333 0 43.166 5.5 65.499 16.5s44.833 26.833 67.5 47.5v114zM431.001 60.999l66.001 -0.00195312l5 -48c-12 -6 -25.833 -10.833 -41.5 -14.5 s-30.167 -5.5 -43.5 -5.5c-19.333 0 -34.333 4 -45 12s-16.667 24.667 -18 50l-1 1c-18.667 -16 -36.667 -28.333 -54 -37s-33.166 -15 -47.499 -19s-27.333 -6.33301 -39 -7s-21.167 -1 -28.5 -1c-28 0 -51.167 4.66699 -69.5 14s-32.833 21 -43.5 35 s-18.167 29.167 -22.5 45.5s-6.5 31.5 -6.5 45.5c0 42.667 15.167 76.834 45.5 102.501s76.833 40.5 139.5 44.5l125 8v31c0 40.667 -7.33301 69.334 -22 86.001s-42.334 25 -83.001 25c-24 0 -49 -2.33301 -75 -7s-51.333 -11.334 -76 -20.001l-18 55 c28 12.667 58.667 22.334 92 29.001s65.333 10 96 10c51.333 0 91.666 -12 120.999 -36s44 -66 44 -126v-273zM264.002 550.997c-15.333 0 -29.666 2.66309 -42.999 7.99609s-24.833 12.833 -34.5 22.5s-17.334 20.834 -23.001 33.501s-8.5 26.334 -8.5 41.001 c0 14 2.83301 27.333 8.5 40s13.334 23.834 23.001 33.501s21.167 17.334 34.5 23.001s27.666 8.5 42.999 8.5c14.667 0 28.5 -2.83301 41.5 -8.5s24.333 -13.167 34 -22.5s17.167 -20.5 22.5 -33.5s8 -26.5 8 -40.5c0 -30 -10.167 -55 -30.5 -75s-45.5 -30 -75.5 -30z M264.002 717.993c-19.333 0 -34.833 -6.16699 -46.5 -18.5s-17.5 -27.833 -17.5 -46.5c0 -17.333 5.83301 -32 17.5 -44s27.167 -18 46.5 -18c18 0 32.667 6 44 18s17 26.667 17 44c0 18 -5.66699 33.333 -17 46s-26 19 -44 19z"/>
    <glyph glyph-name="ae" unicode="æ" horiz-adv-x="792" d="M565 499c31.333 0 57.998 -4.33594 79.998 -13.0029s40 -20 54 -34s25 -29.667 33 -47s14 -34.666 18 -51.999s6.33301 -33.666 7 -48.999s1 -28 1 -38v-39h-324c0 -22.667 2 -44.334 6 -65.001s11.167 -38.667 21.5 -54s24.5 -27.666 42.5 -36.999s40.667 -14 68 -14 c28.667 0 54.5 2.83301 77.5 8.5s48.5 14.167 76.5 25.5l19 -52c-28.667 -15.333 -57.667 -26.666 -87 -33.999s-60 -11 -92 -11c-45.333 0 -81.5 6.66699 -108.5 20s-48.5 31.666 -64.5 54.999c-25.333 -19.333 -49.166 -34.166 -71.499 -44.499s-42.666 -18 -60.999 -23 s-34.5 -7.83301 -48.5 -8.5s-25.333 -1 -34 -1c-29.333 0 -53.333 4.66699 -72 14s-33.334 21 -44.001 35s-18.167 29.167 -22.5 45.5s-6.5 31.5 -6.5 45.5c0 42 15.333 76.5 46 103.5s74.334 40.833 131.001 41.5l143 1v41c0 42 -9.16699 71 -27.5 87s-47.5 24 -87.5 24 c-25.333 0 -51 -2.33301 -77 -7s-51 -11.334 -75 -20.001l-18 55c28 12.667 58.5 22.334 91.5 29.001s64.833 10 95.5 10c34 0 64.5 -6 91.5 -18s46.5 -32 58.5 -60c15.333 23.333 35.833 42.5 61.5 57.5s58.5 22.5 98.5 22.5zM210.998 51.9971 c8.66699 0 19.832 1.33203 33.499 3.99902s27.834 6.66699 42.501 12s29.334 11.833 44.001 19.5s27.667 16.5 39 26.5c-6 16.667 -10.333 34.334 -13 53.001s-4.33398 38.667 -5.00098 60h-129c-34 0 -59.667 -7.83301 -77 -23.5s-26 -36.5 -26 -62.5 c0 -29.333 7.16699 -51.5 21.5 -66.5s37.5 -22.5 69.5 -22.5zM564.996 435.996c-23.333 0 -42.833 -4.33105 -58.5 -12.998s-28.5 -20.334 -38.5 -35.001s-17.5 -31.5 -22.5 -50.5s-8.16699 -38.833 -9.5 -59.5h245c0 23.333 -1.83301 44.666 -5.5 63.999s-10 36 -19 50 s-21 24.833 -36 32.5s-33.5 11.5 -55.5 11.5z"/>
    <glyph glyph-name="ccedilla" unicode="ç" horiz-adv-x="456" d="M132 246c0 -27.333 2.33301 -52.3301 7 -74.9971s12.334 -42.5 23.001 -59.5s25 -30.167 43 -39.5s40.667 -14 68 -14c25.333 0 49 2.66699 71 8s45.333 13 70 23l22 -54c-20.667 -11.333 -45.5 -20.833 -74.5 -28.5s-59.5 -11.834 -91.5 -12.501l-43 -57 c32.667 -1.33301 59 -8.5 79 -21.5s30 -32.167 30 -57.5c0 -28 -14.5 -52 -43.5 -72s-74.167 -30 -135.5 -30v36c36 3.33301 64.667 9.66602 86 18.999s32 22.666 32 39.999c0 8.66699 -3 15.834 -9 21.501s-13.833 9.83398 -23.5 12.501s-20.5 4.5 -32.5 5.5 s-24 1.5 -36 1.5l-13 19l65 85c-33.333 4 -61.333 12.833 -84 26.5s-41 31.167 -55 52.5s-24 45.833 -30 73.5s-9 57.5 -9 89.5c0 26 3 54.167 9 84.5s17.167 58.666 33.5 84.999s39 48.166 68 65.499s66.5 26 112.5 26c22 0 44.667 -1.5 68 -4.5 s47.666 -9.83301 72.999 -20.5l-19 -59c-23.333 8 -44.333 13 -63 15s-36 3 -52 3c-47.333 0 -83.5 -17 -108.5 -51s-37.5 -79.333 -37.5 -136z"/>
    <glyph glyph-name="egrave" unicode="è" horiz-adv-x="505" d="M264 439c-23.333 0 -43 -4.33203 -59 -12.999s-29.167 -20.334 -39.5 -35.001s-18 -31.667 -23 -51s-8.16699 -39.333 -9.5 -60h249c0 23.333 -2 44.833 -6 64.5s-10.5 36.5 -19.5 50.5s-21 24.833 -36 32.5s-33.833 11.5 -56.5 11.5zM262 499.001 c32.667 0 60.165 -4.33203 82.498 -12.999s40.833 -20 55.5 -34s26 -29.667 34 -47s13.833 -34.666 17.5 -51.999s5.83398 -33.666 6.50098 -48.999s1 -28 1 -38v-39h-327c0 -22.667 2 -44.334 6 -65.001s11.333 -38.834 22 -54.501s25 -28.167 43 -37.5s40.667 -14 68 -14 c28.667 0 54.834 3 78.501 9s49.5 14.667 77.5 26l20 -52c-29.333 -15.333 -58.833 -26.666 -88.5 -33.999s-60.834 -11 -93.501 -11c-43.333 0 -79 6.66699 -107 20s-50.167 31.166 -66.5 53.499s-27.666 48.666 -33.999 78.999s-9.5 62.5 -9.5 96.5 c0 14.667 1 31.167 3 49.5s5.83301 36.833 11.5 55.5s13.5 37.167 23.5 55.5s23 34.5 39 48.5s35.167 25.333 57.5 34s48.833 13 79.5 13zM129.998 674.002l60 57l123 -162l-38 -34z"/>
    <glyph glyph-name="eacute" unicode="é" horiz-adv-x="505" d="M264 439c-23.333 0 -43 -4.33203 -59 -12.999s-29.167 -20.334 -39.5 -35.001s-18 -31.667 -23 -51s-8.16699 -39.333 -9.5 -60h249c0 23.333 -2 44.833 -6 64.5s-10.5 36.5 -19.5 50.5s-21 24.833 -36 32.5s-33.833 11.5 -56.5 11.5zM262 499.001 c32.667 0 60.165 -4.33203 82.498 -12.999s40.833 -20 55.5 -34s26 -29.667 34 -47s13.833 -34.666 17.5 -51.999s5.83398 -33.666 6.50098 -48.999s1 -28 1 -38v-39h-327c0 -22.667 2 -44.334 6 -65.001s11.333 -38.834 22 -54.501s25 -28.167 43 -37.5s40.667 -14 68 -14 c28.667 0 54.834 3 78.501 9s49.5 14.667 77.5 26l20 -52c-29.333 -15.333 -58.833 -26.666 -88.5 -33.999s-60.834 -11 -93.501 -11c-43.333 0 -79 6.66699 -107 20s-50.167 31.166 -66.5 53.499s-27.666 48.666 -33.999 78.999s-9.5 62.5 -9.5 96.5 c0 14.667 1 31.167 3 49.5s5.83301 36.833 11.5 55.5s13.5 37.167 23.5 55.5s23 34.5 39 48.5s35.167 25.333 57.5 34s48.833 13 79.5 13zM248.998 535.002l-36 31l123 162l58 -54z"/>
    <glyph glyph-name="ecircumflex" unicode="ê" horiz-adv-x="505" d="M264 439c-23.333 0 -43 -4.33203 -59 -12.999s-29.167 -20.334 -39.5 -35.001s-18 -31.667 -23 -51s-8.16699 -39.333 -9.5 -60h249c0 23.333 -2 44.833 -6 64.5s-10.5 36.5 -19.5 50.5s-21 24.833 -36 32.5s-33.833 11.5 -56.5 11.5zM262 499.001 c32.667 0 60.165 -4.33203 82.498 -12.999s40.833 -20 55.5 -34s26 -29.667 34 -47s13.833 -34.666 17.5 -51.999s5.83398 -33.666 6.50098 -48.999s1 -28 1 -38v-39h-327c0 -22.667 2 -44.334 6 -65.001s11.333 -38.834 22 -54.501s25 -28.167 43 -37.5s40.667 -14 68 -14 c28.667 0 54.834 3 78.501 9s49.5 14.667 77.5 26l20 -52c-29.333 -15.333 -58.833 -26.666 -88.5 -33.999s-60.834 -11 -93.501 -11c-43.333 0 -79 6.66699 -107 20s-50.167 31.166 -66.5 53.499s-27.666 48.666 -33.999 78.999s-9.5 62.5 -9.5 96.5 c0 14.667 1 31.167 3 49.5s5.83301 36.833 11.5 55.5s13.5 37.167 23.5 55.5s23 34.5 39 48.5s35.167 25.333 57.5 34s48.833 13 79.5 13zM421.998 532.002l-155 93l-154 -94l-23 28l150 143h55l152 -141z"/>
    <glyph glyph-name="edieresis" unicode="ë" horiz-adv-x="505" d="M264 439c-23.333 0 -43 -4.33203 -59 -12.999s-29.167 -20.334 -39.5 -35.001s-18 -31.667 -23 -51s-8.16699 -39.333 -9.5 -60h249c0 23.333 -2 44.833 -6 64.5s-10.5 36.5 -19.5 50.5s-21 24.833 -36 32.5s-33.833 11.5 -56.5 11.5zM262 499.001 c32.667 0 60.165 -4.33203 82.498 -12.999s40.833 -20 55.5 -34s26 -29.667 34 -47s13.833 -34.666 17.5 -51.999s5.83398 -33.666 6.50098 -48.999s1 -28 1 -38v-39h-327c0 -22.667 2 -44.334 6 -65.001s11.333 -38.834 22 -54.501s25 -28.167 43 -37.5s40.667 -14 68 -14 c28.667 0 54.834 3 78.501 9s49.5 14.667 77.5 26l20 -52c-29.333 -15.333 -58.833 -26.666 -88.5 -33.999s-60.834 -11 -93.501 -11c-43.333 0 -79 6.66699 -107 20s-50.167 31.166 -66.5 53.499s-27.666 48.666 -33.999 78.999s-9.5 62.5 -9.5 96.5 c0 14.667 1 31.167 3 49.5s5.83301 36.833 11.5 55.5s13.5 37.167 23.5 55.5s23 34.5 39 48.5s35.167 25.333 57.5 34s48.833 13 79.5 13zM408.998 603.002c0 -12.667 -4.66699 -23.167 -14 -31.5s-21 -12.5 -35 -12.5c-12.667 0 -23 4.16699 -31 12.5s-12 18.833 -12 31.5 s4.33301 23.167 13 31.5s18.667 12.5 30 12.5c14 0 25.667 -4 35 -12s14 -18.667 14 -32zM220.998 603.002c0 -12.667 -4.33203 -23.167 -12.999 -31.5s-19.667 -12.5 -33 -12.5s-24.333 4.16699 -33 12.5s-13 18.833 -13 31.5s4.66699 23.167 14 31.5 s19.666 12.5 30.999 12.5c14 0 25.333 -4 34 -12s13 -18.667 13 -32z"/>
    <glyph glyph-name="igrave" unicode="ì" horiz-adv-x="254" d="M85 0v488h81v-488h-81zM-6 674l60 57l123 -162l-38 -34z"/>
    <glyph glyph-name="iacute" unicode="í" horiz-adv-x="254" d="M85 0v488h81v-488h-81zM129 535l-36 31l123 162l58 -54z"/>
    <glyph glyph-name="icircumflex" unicode="î" horiz-adv-x="272" d="M97 0v488h81v-488h-81zM289 532l-155 93l-154 -94l-23 28l150 143h55l152 -141z"/>
    <glyph glyph-name="idieresis" unicode="ï" horiz-adv-x="254" d="M85 0v488h81v-488h-81zM264 603c0 -12.667 -4.66699 -23.167 -14 -31.5s-21 -12.5 -35 -12.5c-12.667 0 -23 4.16699 -31 12.5s-12 18.833 -12 31.5s4.33301 23.167 13 31.5s18.667 12.5 30 12.5c14 0 25.667 -4 35 -12s14 -18.667 14 -32zM76 603 c0 -12.667 -4.33203 -23.167 -12.999 -31.5s-19.667 -12.5 -33 -12.5s-24.333 4.16699 -33 12.5s-13 18.833 -13 31.5s4.66699 23.167 14 31.5s19.666 12.5 30.999 12.5c14 0 25.333 -4 34 -12s13 -18.667 13 -32z"/>
    <glyph glyph-name="eth" unicode="ð" horiz-adv-x="512" d="M412 692l23.999 -33l-86 -57c41.333 -46.667 72.166 -99.167 92.499 -157.5s29.833 -120.5 28.5 -186.5c0 -28.667 -3.33301 -58.667 -10 -90s-18.167 -60 -34.5 -86s-38.833 -47.5 -67.5 -64.5s-65 -25.5 -109 -25.5c-42.667 0 -77.5 7 -104.5 21 s-48.167 31.833 -63.5 53.5s-25.833 45.667 -31.5 72s-8.5 51.5 -8.5 75.5c0 30 4.33301 59 13 87s21.834 53 39.501 75s39.5 39.667 65.5 53s56 20 90 20c19.333 0 39.5 -2 60.5 -6s41.833 -11.667 62.5 -23c-19.333 56 -45.333 104 -78 144l-92 -62l-24 33l88 59 c-15.333 16 -31.666 31 -48.999 45s-35.333 27 -54 39l27 46c48 -24.667 91.333 -55.667 130 -93zM255.999 388c-24.667 0 -45.498 -5.33594 -62.498 -16.0029s-30.833 -24.167 -41.5 -40.5s-18.334 -34.666 -23.001 -54.999s-7 -40.166 -7 -59.499 c0 -17.333 1.5 -35.5 4.5 -54.5s9.16699 -36.5 18.5 -52.5s22.666 -29.167 39.999 -39.5s40.666 -15.5 69.999 -15.5c28.667 0 52 6.5 70 19.5s32 29.333 42 49s16.667 40.667 20 63s5 42.5 5 60.5c0 18.667 -1 35.834 -3 51.501s-5 33.167 -9 52.5 c-23.333 15.333 -45.666 25.333 -66.999 30s-40.333 7 -57 7z"/>
    <glyph glyph-name="ntilde" unicode="ñ" horiz-adv-x="514" d="M374 0v321.998c0 16.667 -0.833008 31.834 -2.5 45.501s-5.33398 25.334 -11.001 35.001s-14.167 17 -25.5 22s-26.666 7.5 -45.999 7.5c-23.333 0 -48.666 -5 -75.999 -15s-51.666 -21 -72.999 -33v-384h-82v488h80l1 -42l3 -2c27.333 17.333 56.666 30.833 87.999 40.5 s58.666 14.5 81.999 14.5c33.333 0 59.5 -4.83301 78.5 -14.5s33.333 -22 43 -37s15.667 -31.833 18 -50.5s3.5 -37 3.5 -55v-342h-81zM318 584.998c-15.333 0 -29.6689 1.99902 -43.002 5.99902s-26 8.5 -38 13.5s-23.333 9.5 -34 13.5s-20.667 6 -30 6l-57 -39l-28 22 c8 22.667 19.667 40.834 35 54.501s32.666 20.5 51.999 20.5c12 0 24.5 -2 37.5 -6s25.833 -8.5 38.5 -13.5s24.834 -9.5 36.501 -13.5s22.167 -6 31.5 -6l57 40l28 -22c-7.33301 -22.667 -18.666 -41 -33.999 -55s-32.666 -21 -51.999 -21z"/>
    <glyph glyph-name="ograve" unicode="ò" horiz-adv-x="528" d="M480 243c0 -31.333 -3.49805 -62 -10.498 -92s-19 -56.833 -36 -80.5s-39.833 -42.667 -68.5 -57s-64.334 -21.5 -107.001 -21.5c-40 0 -73.5 6.83301 -100.5 20.5s-48.5 31.834 -64.5 54.501s-27.5 49 -34.5 79s-10.5 61.667 -10.5 95c0 32.667 4 64.334 12 95.001 s20.667 58 38 82s40 43.333 68 58s62 22 102 22c40.667 0 74.667 -7.33301 102 -22s49.166 -33.834 65.499 -57.501s27.833 -50.834 34.5 -81.501s10 -62 10 -94zM395.002 241c0 22 -1.5 44.332 -4.5 66.999s-9.16699 43.5 -18.5 62.5s-22.333 34.5 -39 46.5 s-38.334 18 -65.001 18c-27.333 0 -49.666 -5.83301 -66.999 -17.5s-31 -26.667 -41 -45s-17 -39.166 -21 -62.499s-6 -46.333 -6 -69c0 -24 1.66699 -47.333 5 -70s9.83301 -42.5 19.5 -59.5s23.334 -30.667 41.001 -41s40.834 -15.5 69.501 -15.5 c26.667 0 48.167 5.5 64.5 16.5s29.166 25.5 38.499 43.5s15.666 38 18.999 60s5 44 5 66zM137.002 673.999l60 57l123 -162l-38 -34z"/>
    <glyph glyph-name="oacute" unicode="ó" horiz-adv-x="528" d="M480 243c0 -31.333 -3.49805 -62 -10.498 -92s-19 -56.833 -36 -80.5s-39.833 -42.667 -68.5 -57s-64.334 -21.5 -107.001 -21.5c-40 0 -73.5 6.83301 -100.5 20.5s-48.5 31.834 -64.5 54.501s-27.5 49 -34.5 79s-10.5 61.667 -10.5 95c0 32.667 4 64.334 12 95.001 s20.667 58 38 82s40 43.333 68 58s62 22 102 22c40.667 0 74.667 -7.33301 102 -22s49.166 -33.834 65.499 -57.501s27.833 -50.834 34.5 -81.501s10 -62 10 -94zM395.002 241c0 22 -1.5 44.332 -4.5 66.999s-9.16699 43.5 -18.5 62.5s-22.333 34.5 -39 46.5 s-38.334 18 -65.001 18c-27.333 0 -49.666 -5.83301 -66.999 -17.5s-31 -26.667 -41 -45s-17 -39.166 -21 -62.499s-6 -46.333 -6 -69c0 -24 1.66699 -47.333 5 -70s9.83301 -42.5 19.5 -59.5s23.334 -30.667 41.001 -41s40.834 -15.5 69.501 -15.5 c26.667 0 48.167 5.5 64.5 16.5s29.166 25.5 38.499 43.5s15.666 38 18.999 60s5 44 5 66zM270.002 534.999l-36 31l123 162l58 -54z"/>
    <glyph glyph-name="ocircumflex" unicode="ô" horiz-adv-x="528" d="M480 243c0 -31.333 -3.49805 -62 -10.498 -92s-19 -56.833 -36 -80.5s-39.833 -42.667 -68.5 -57s-64.334 -21.5 -107.001 -21.5c-40 0 -73.5 6.83301 -100.5 20.5s-48.5 31.834 -64.5 54.501s-27.5 49 -34.5 79s-10.5 61.667 -10.5 95c0 32.667 4 64.334 12 95.001 s20.667 58 38 82s40 43.333 68 58s62 22 102 22c40.667 0 74.667 -7.33301 102 -22s49.166 -33.834 65.499 -57.501s27.833 -50.834 34.5 -81.501s10 -62 10 -94zM395.002 241c0 22 -1.5 44.332 -4.5 66.999s-9.16699 43.5 -18.5 62.5s-22.333 34.5 -39 46.5 s-38.334 18 -65.001 18c-27.333 0 -49.666 -5.83301 -66.999 -17.5s-31 -26.667 -41 -45s-17 -39.166 -21 -62.499s-6 -46.333 -6 -69c0 -24 1.66699 -47.333 5 -70s9.83301 -42.5 19.5 -59.5s23.334 -30.667 41.001 -41s40.834 -15.5 69.501 -15.5 c26.667 0 48.167 5.5 64.5 16.5s29.166 25.5 38.499 43.5s15.666 38 18.999 60s5 44 5 66zM425.002 531.999l-155 93l-154 -94l-23 28l150 143h55l152 -141z"/>
    <glyph glyph-name="otilde" unicode="õ" horiz-adv-x="528" d="M480 243c0 -31.333 -3.49805 -62 -10.498 -92s-19 -56.833 -36 -80.5s-39.833 -42.667 -68.5 -57s-64.334 -21.5 -107.001 -21.5c-40 0 -73.5 6.83301 -100.5 20.5s-48.5 31.834 -64.5 54.501s-27.5 49 -34.5 79s-10.5 61.667 -10.5 95c0 32.667 4 64.334 12 95.001 s20.667 58 38 82s40 43.333 68 58s62 22 102 22c40.667 0 74.667 -7.33301 102 -22s49.166 -33.834 65.499 -57.501s27.833 -50.834 34.5 -81.501s10 -62 10 -94zM395.002 241c0 22 -1.5 44.332 -4.5 66.999s-9.16699 43.5 -18.5 62.5s-22.333 34.5 -39 46.5 s-38.334 18 -65.001 18c-27.333 0 -49.666 -5.83301 -66.999 -17.5s-31 -26.667 -41 -45s-17 -39.166 -21 -62.499s-6 -46.333 -6 -69c0 -24 1.66699 -47.333 5 -70s9.83301 -42.5 19.5 -59.5s23.334 -30.667 41.001 -41s40.834 -15.5 69.501 -15.5 c26.667 0 48.167 5.5 64.5 16.5s29.166 25.5 38.499 43.5s15.666 38 18.999 60s5 44 5 66zM340.002 571.999c-15.333 0 -29.6689 1.99902 -43.002 5.99902s-26 8.5 -38 13.5s-23.333 9.5 -34 13.5s-20.667 6 -30 6l-57 -39l-28 22c8 22.667 19.667 40.834 35 54.501 s32.666 20.5 51.999 20.5c12 0 24.5 -2 37.5 -6s25.833 -8.5 38.5 -13.5s24.834 -9.5 36.501 -13.5s22.167 -6 31.5 -6l57 40l28 -22c-7.33301 -22.667 -18.666 -41 -33.999 -55s-32.666 -21 -51.999 -21z"/>
    <glyph glyph-name="odieresis" unicode="ö" horiz-adv-x="528" d="M480 243c0 -31.333 -3.49805 -62 -10.498 -92s-19 -56.833 -36 -80.5s-39.833 -42.667 -68.5 -57s-64.334 -21.5 -107.001 -21.5c-40 0 -73.5 6.83301 -100.5 20.5s-48.5 31.834 -64.5 54.501s-27.5 49 -34.5 79s-10.5 61.667 -10.5 95c0 32.667 4 64.334 12 95.001 s20.667 58 38 82s40 43.333 68 58s62 22 102 22c40.667 0 74.667 -7.33301 102 -22s49.166 -33.834 65.499 -57.501s27.833 -50.834 34.5 -81.501s10 -62 10 -94zM395.002 241c0 22 -1.5 44.332 -4.5 66.999s-9.16699 43.5 -18.5 62.5s-22.333 34.5 -39 46.5 s-38.334 18 -65.001 18c-27.333 0 -49.666 -5.83301 -66.999 -17.5s-31 -26.667 -41 -45s-17 -39.166 -21 -62.499s-6 -46.333 -6 -69c0 -24 1.66699 -47.333 5 -70s9.83301 -42.5 19.5 -59.5s23.334 -30.667 41.001 -41s40.834 -15.5 69.501 -15.5 c26.667 0 48.167 5.5 64.5 16.5s29.166 25.5 38.499 43.5s15.666 38 18.999 60s5 44 5 66zM410.002 602.999c0 -12.667 -4.66699 -23.167 -14 -31.5s-21 -12.5 -35 -12.5c-12.667 0 -23 4.16699 -31 12.5s-12 18.833 -12 31.5s4.33301 23.167 13 31.5s18.667 12.5 30 12.5 c14 0 25.667 -4 35 -12s14 -18.667 14 -32zM222.002 602.999c0 -12.667 -4.33203 -23.167 -12.999 -31.5s-19.667 -12.5 -33 -12.5s-24.333 4.16699 -33 12.5s-13 18.833 -13 31.5s4.66699 23.167 14 31.5s19.666 12.5 30.999 12.5c14 0 25.333 -4 34 -12s13 -18.667 13 -32 z"/>
    <glyph glyph-name="divide" unicode="÷" horiz-adv-x="558" d="M330 457c0 -14 -4.83301 -25.999 -14.5 -35.999s-21.167 -15 -34.5 -15c-14 0 -26 5.16699 -36 15.5s-15 22.166 -15 35.499c0 14 4.83301 25.833 14.5 35.5s21.5 14.5 35.5 14.5s25.833 -4.83301 35.5 -14.5s14.5 -21.5 14.5 -35.5zM85 270.001v58h389v-58h-389z M330 140.001c0 -14 -4.83301 -25.999 -14.5 -35.999s-21.167 -15 -34.5 -15c-14 0 -26 5.16699 -36 15.5s-15 22.166 -15 35.499c0 14 4.83301 25.667 14.5 35s21.5 14 35.5 14s25.833 -4.66699 35.5 -14s14.5 -21 14.5 -35z"/>
    <glyph glyph-name="oslash" unicode="ø" horiz-adv-x="511" d="M259 498c30.667 0 57.167 -4.16895 79.5 -12.502s41.833 -20.166 58.5 -35.499l36 47c6.66699 0 13.334 0.166992 20.001 0.5s13.334 0.5 20.001 0.5l-54 -70c19.333 -24.667 32.833 -53.167 40.5 -85.5s11.5 -65.5 11.5 -99.5c0 -31.333 -3.5 -62 -10.5 -92 s-19 -56.667 -36 -80s-39.833 -42.166 -68.5 -56.499s-64.334 -21.5 -107.001 -21.5c-58.667 0 -104.334 14.333 -137.001 43l-33 -42c-7.33301 0 -14.5 -0.166992 -21.5 -0.5s-14.167 -0.5 -21.5 -0.5l53 67c-18 23.333 -30.667 50.666 -38 81.999s-11 64.333 -11 99 c0 32.667 4 64.334 12 95.001s20.667 58 38 82s39.833 43.333 67.5 58s61.5 22 101.5 22zM386 240.998c0 20 -1.49805 40.833 -4.49805 62.5s-8.83301 41.5 -17.5 59.5l-203 -270c10 -11.333 23 -20.5 39 -27.5s35.667 -10.5 59 -10.5c26.667 0 48.167 5.5 64.5 16.5 s29.166 25.5 38.499 43.5s15.666 38 18.999 60s5 44 5 66zM259.002 433.998c-26.667 0 -48.6689 -5.66602 -66.002 -16.999s-31 -26 -41 -44s-17.167 -38.333 -21.5 -61s-6.5 -45.334 -6.5 -68.001c0 -20.667 1.5 -41.5 4.5 -62.5s8.16699 -39.833 15.5 -56.5l204 268 c-9.33301 12.667 -21.166 22.667 -35.499 30s-32.166 11 -53.499 11z"/>
    <glyph glyph-name="ugrave" unicode="ù" horiz-adv-x="504" d="M199 -11c-33.333 0 -59.332 4.66504 -77.999 13.998s-32.667 21.5 -42 36.5s-15.166 31.833 -17.499 50.5s-3.5 37 -3.5 55v343h81v-323c0 -17.333 0.833008 -32.666 2.5 -45.999s5.33398 -24.666 11.001 -33.999s14 -16.5 25 -21.5s26.167 -7.5 45.5 -7.5 c18.667 0 41.167 5 67.5 15s51.166 25.667 74.499 47v370c13.333 0 26.666 0.166992 39.999 0.5s26.666 0.5 39.999 0.5v-489h-79l-1 55l-2 2c-16 -14 -32 -25.5 -48 -34.5s-31.167 -16 -45.5 -21s-27.5 -8.33301 -39.5 -10s-22.333 -2.5 -31 -2.5zM128.001 673.998l60 57 l123 -162l-38 -34z"/>
    <glyph glyph-name="uacute" unicode="ú" horiz-adv-x="504" d="M199 -11c-33.333 0 -59.332 4.66504 -77.999 13.998s-32.667 21.5 -42 36.5s-15.166 31.833 -17.499 50.5s-3.5 37 -3.5 55v343h81v-323c0 -17.333 0.833008 -32.666 2.5 -45.999s5.33398 -24.666 11.001 -33.999s14 -16.5 25 -21.5s26.167 -7.5 45.5 -7.5 c18.667 0 41.167 5 67.5 15s51.166 25.667 74.499 47v370c13.333 0 26.666 0.166992 39.999 0.5s26.666 0.5 39.999 0.5v-489h-79l-1 55l-2 2c-16 -14 -32 -25.5 -48 -34.5s-31.167 -16 -45.5 -21s-27.5 -8.33301 -39.5 -10s-22.333 -2.5 -31 -2.5zM247.001 534.998l-36 31 l123 162l58 -54z"/>
    <glyph glyph-name="ucircumflex" unicode="û" horiz-adv-x="504" d="M199 -11c-33.333 0 -59.332 4.66504 -77.999 13.998s-32.667 21.5 -42 36.5s-15.166 31.833 -17.499 50.5s-3.5 37 -3.5 55v343h81v-323c0 -17.333 0.833008 -32.666 2.5 -45.999s5.33398 -24.666 11.001 -33.999s14 -16.5 25 -21.5s26.167 -7.5 45.5 -7.5 c18.667 0 41.167 5 67.5 15s51.166 25.667 74.499 47v370c13.333 0 26.666 0.166992 39.999 0.5s26.666 0.5 39.999 0.5v-489h-79l-1 55l-2 2c-16 -14 -32 -25.5 -48 -34.5s-31.167 -16 -45.5 -21s-27.5 -8.33301 -39.5 -10s-22.333 -2.5 -31 -2.5zM407.001 531.998l-155 93 l-154 -94l-23 28l150 143h55l152 -141z"/>
    <glyph glyph-name="udieresis" unicode="ü" horiz-adv-x="504" d="M199 -11c-33.333 0 -59.332 4.66504 -77.999 13.998s-32.667 21.5 -42 36.5s-15.166 31.833 -17.499 50.5s-3.5 37 -3.5 55v343h81v-323c0 -17.333 0.833008 -32.666 2.5 -45.999s5.33398 -24.666 11.001 -33.999s14 -16.5 25 -21.5s26.167 -7.5 45.5 -7.5 c18.667 0 41.167 5 67.5 15s51.166 25.667 74.499 47v370c13.333 0 26.666 0.166992 39.999 0.5s26.666 0.5 39.999 0.5v-489h-79l-1 55l-2 2c-16 -14 -32 -25.5 -48 -34.5s-31.167 -16 -45.5 -21s-27.5 -8.33301 -39.5 -10s-22.333 -2.5 -31 -2.5zM399.001 602.998 c0 -12.667 -4.66699 -23.167 -14 -31.5s-21 -12.5 -35 -12.5c-12.667 0 -23 4.16699 -31 12.5s-12 18.833 -12 31.5s4.33301 23.167 13 31.5s18.667 12.5 30 12.5c14 0 25.667 -4 35 -12s14 -18.667 14 -32zM211.001 602.998c0 -12.667 -4.33203 -23.167 -12.999 -31.5 s-19.667 -12.5 -33 -12.5s-24.333 4.16699 -33 12.5s-13 18.833 -13 31.5s4.66699 23.167 14 31.5s19.666 12.5 30.999 12.5c14 0 25.333 -4 34 -12s13 -18.667 13 -32z"/>
    <glyph glyph-name="yacute" unicode="ý" horiz-adv-x="460" d="M260 155l22.998 74.001l26.5 84.5l27.5 88l28 86.5h83l-47 -143l-48.5 -146.5l-49 -146l-47.5 -141.5c-12 -38.667 -29 -69.334 -51 -92.001s-52 -34 -90 -34c-7.33301 0.666992 -19.166 1.5 -35.499 2.5s-39.5 5.83301 -69.5 14.5l13 57 c18 -4 32.833 -6.83301 44.5 -8.5s23.167 -2.5 34.5 -2.5c19.333 0 35.333 4.66699 48 14s23.334 27.333 32.001 54l28 87h-39l-153 485h79l100 -335c6.66699 -21.333 12.167 -41.333 16.5 -60s7.83301 -32.667 10.5 -42h5zM218.998 535.001l-36 31l123 162l58 -54z"/>
    <glyph glyph-name="thorn" unicode="þ" horiz-adv-x="521" d="M58 685l80.998 -0.00292969v-244l1 -1c19.333 15.333 42.333 28.166 69 38.499s53 15.5 79 15.5c34.667 0 63.834 -6.5 87.501 -19.5s42.834 -30.5 57.501 -52.5s25 -47.5 31 -76.5s9 -59.833 9 -92.5c0 -37.333 -3.5 -72.166 -10.5 -104.499 s-18.333 -60.166 -34 -83.499s-36.167 -41.666 -61.5 -54.999s-56 -20 -92 -20c-9.33301 0 -19.833 0.666992 -31.5 2s-23.5 3.33301 -35.5 6s-23.833 6.33398 -35.5 11.001s-22.5 10 -32.5 16l-1 -233h-81v893zM139.998 88.9971c5.33301 -4 12.667 -8.00195 22 -12.002 s19.666 -7.83301 30.999 -11.5s23 -6.5 35 -8.5s23.667 -3 35 -3c16.667 0 32.667 3.16699 48 9.5s28.833 17.333 40.5 33s20.834 36.334 27.501 62.001s10 57.5 10 95.5c0 34 -3 62.167 -9 84.5s-14.167 40.333 -24.5 54s-23 23.334 -38 29.001s-31.5 8.5 -49.5 8.5 c-10 0 -21.167 -1.5 -33.5 -4.5s-24.5 -7 -36.5 -12s-23.167 -10.333 -33.5 -16s-18.5 -11.5 -24.5 -17.5v-291z"/>
    <glyph glyph-name="ydieresis" unicode="ÿ" horiz-adv-x="460" d="M260 155l22.998 74.001l26.5 84.5l27.5 88l28 86.5h83l-47 -143l-48.5 -146.5l-49 -146l-47.5 -141.5c-12 -38.667 -29 -69.334 -51 -92.001s-52 -34 -90 -34c-7.33301 0.666992 -19.166 1.5 -35.499 2.5s-39.5 5.83301 -69.5 14.5l13 57 c18 -4 32.833 -6.83301 44.5 -8.5s23.167 -2.5 34.5 -2.5c19.333 0 35.333 4.66699 48 14s23.334 27.333 32.001 54l28 87h-39l-153 485h79l100 -335c6.66699 -21.333 12.167 -41.333 16.5 -60s7.83301 -32.667 10.5 -42h5zM378.998 603.001 c0 -12.667 -4.66699 -23.167 -14 -31.5s-21 -12.5 -35 -12.5c-12.667 0 -23 4.16699 -31 12.5s-12 18.833 -12 31.5s4.33301 23.167 13 31.5s18.667 12.5 30 12.5c14 0 25.667 -4 35 -12s14 -18.667 14 -32zM190.998 603.001c0 -12.667 -4.33203 -23.167 -12.999 -31.5 s-19.667 -12.5 -33 -12.5s-24.333 4.16699 -33 12.5s-13 18.833 -13 31.5s4.66699 23.167 14 31.5s19.666 12.5 30.999 12.5c14 0 25.333 -4 34 -12s13 -18.667 13 -32z"/>
    <glyph glyph-name="Amacron" unicode="Ā" horiz-adv-x="579" d="M479 0l-28 89.5l-28 89.5h-270l-28 -89.5l-28 -89.5h-87l118 357l108 328h108l224 -685h-89zM403 244l-46 152.5l-47 151.5l-20 67h-3l-20 -68l-22 -72.5l-22 -72l-23 -75.5l-26 -83h229zM127 811h326v-64h-326v64z"/>
    <glyph glyph-name="amacron" unicode="ā" horiz-adv-x="530" d="M227 225c-33.333 -1.33301 -57.999 -9.66699 -73.999 -25s-24 -35.333 -24 -60c0 -28.667 7 -50 21 -64s37 -21 69 -21c21.333 0 43.166 5.5 65.499 16.5s44.833 26.833 67.5 47.5v114zM431.001 60.999l66.001 -0.00195312l5 -48c-12 -6 -25.833 -10.833 -41.5 -14.5 s-30.167 -5.5 -43.5 -5.5c-19.333 0 -34.333 4 -45 12s-16.667 24.667 -18 50l-1 1c-18.667 -16 -36.667 -28.333 -54 -37s-33.166 -15 -47.499 -19s-27.333 -6.33301 -39 -7s-21.167 -1 -28.5 -1c-28 0 -51.167 4.66699 -69.5 14s-32.833 21 -43.5 35 s-18.167 29.167 -22.5 45.5s-6.5 31.5 -6.5 45.5c0 42.667 15.167 76.834 45.5 102.501s76.833 40.5 139.5 44.5l125 8v31c0 40.667 -7.33301 69.334 -22 86.001s-42.334 25 -83.001 25c-24 0 -49 -2.33301 -75 -7s-51.333 -11.334 -76 -20.001l-18 55 c28 12.667 58.667 22.334 92 29.001s65.333 10 96 10c51.333 0 91.666 -12 120.999 -36s44 -66 44 -126v-273zM93.002 655.997h329v-64h-329v64z"/>
    <glyph glyph-name="Abreve" unicode="Ă" horiz-adv-x="579" d="M479 0l-28 89.5l-28 89.5h-270l-28 -89.5l-28 -89.5h-87l118 357l108 328h108l224 -685h-89zM403 244l-46 152.5l-47 151.5l-20 67h-3l-20 -68l-22 -72.5l-22 -72l-23 -75.5l-26 -83h229zM284 730c-17.333 0 -33.6699 3.16797 -49.0029 9.50098 s-29.666 14.666 -42.999 24.999s-25.833 22.333 -37.5 36s-22.5 27.5 -32.5 41.5l47 33c18 -24.667 37.5 -44.667 58.5 -60s41.167 -23 60.5 -23c6 0 13.333 0.666992 22 2s18.834 4.5 30.501 9.5s24.834 12.667 39.501 23s31.334 24.5 50.001 42.5l27 -25 c-29.333 -42 -58.833 -71.5 -88.5 -88.5s-57.834 -25.5 -84.501 -25.5z"/>
    <glyph glyph-name="abreve" unicode="ă" horiz-adv-x="530" d="M227 225c-33.333 -1.33301 -57.999 -9.66699 -73.999 -25s-24 -35.333 -24 -60c0 -28.667 7 -50 21 -64s37 -21 69 -21c21.333 0 43.166 5.5 65.499 16.5s44.833 26.833 67.5 47.5v114zM431.001 60.999l66.001 -0.00195312l5 -48c-12 -6 -25.833 -10.833 -41.5 -14.5 s-30.167 -5.5 -43.5 -5.5c-19.333 0 -34.333 4 -45 12s-16.667 24.667 -18 50l-1 1c-18.667 -16 -36.667 -28.333 -54 -37s-33.166 -15 -47.499 -19s-27.333 -6.33301 -39 -7s-21.167 -1 -28.5 -1c-28 0 -51.167 4.66699 -69.5 14s-32.833 21 -43.5 35 s-18.167 29.167 -22.5 45.5s-6.5 31.5 -6.5 45.5c0 42.667 15.167 76.834 45.5 102.501s76.833 40.5 139.5 44.5l125 8v31c0 40.667 -7.33301 69.334 -22 86.001s-42.334 25 -83.001 25c-24 0 -49 -2.33301 -75 -7s-51.333 -11.334 -76 -20.001l-18 55 c28 12.667 58.667 22.334 92 29.001s65.333 10 96 10c51.333 0 91.666 -12 120.999 -36s44 -66 44 -126v-273zM250.002 550.997c-17.333 0 -33.6689 3.16699 -49.002 9.5s-29.666 14.833 -42.999 25.5s-25.833 22.667 -37.5 36s-22.5 27 -32.5 41l47 34 c18 -25.333 37.333 -45.5 58 -60.5s40.667 -22.5 60 -22.5c6 0 13.5 0.5 22.5 1.5s19.333 4 31 9s24.834 12.667 39.501 23s31.334 24.5 50.001 42.5l27 -25c-29.333 -42 -58.833 -71.5 -88.5 -88.5s-57.834 -25.5 -84.501 -25.5z"/>
    <glyph glyph-name="Aogonek" unicode="Ą" horiz-adv-x="579" d="M510 0c-14 -17.333 -25.168 -36.1689 -33.501 -56.502s-12.5 -38.166 -12.5 -53.499c0 -19.333 5.33301 -32.666 16 -39.999s25 -11 43 -11c13.333 0 26.333 1.33301 39 4l33 7l6 -32c-16 -8 -33.333 -14.333 -52 -19s-37.334 -7 -56.001 -7 c-31.333 0 -55.166 6.33301 -71.499 19s-24.5 30.334 -24.5 53.001c0 8.66699 1 18.5 3 29.5s6 22.833 12 35.5s14.167 25.667 24.5 39s23.5 26.666 39.5 39.999c-9.33301 28 -18.166 56.167 -26.499 84.5l-26.5 86.5h-270l-28 -89.5l-28 -89.5h-87l118 357l108 328h108 l224 -685h-58zM402.999 243.997l-46 152.5l-47 151.5l-20 67h-3l-20 -68l-22 -72.5l-22 -72l-23 -75.5l-26 -83h229z"/>
    <glyph glyph-name="aogonek" unicode="ą" horiz-adv-x="530" d="M431 61l66.002 -0.00585938l5 -48c-11.333 -6 -24.333 -10.667 -39 -14s-28.667 -5.33301 -42 -6c-11.333 -17.333 -20.666 -35.166 -27.999 -53.499s-11 -34.166 -11 -47.499c0 -19.333 5.33301 -32.666 16 -39.999s25 -11 43 -11c13.333 0 26.333 1.33301 39 4l33 7 l6 -32c-16 -8 -33.333 -14.333 -52 -19s-37.334 -7 -56.001 -7c-31.333 0 -55.166 6.33301 -71.499 19s-24.5 30.334 -24.5 53.001c0 16.667 4.33301 36.667 13 60s26.667 47.666 54 72.999c-8.66699 3.33301 -15.334 9.33301 -20.001 18s-7.33398 21.334 -8.00098 38.001 l-1 1c-18.667 -16 -36.667 -28.333 -54 -37s-33.166 -15 -47.499 -19s-27.333 -6.33301 -39 -7s-21.167 -1 -28.5 -1c-28 0 -51.167 4.66699 -69.5 14s-32.833 21 -43.5 35s-18.167 29.167 -22.5 45.5s-6.5 31.5 -6.5 45.5c0 42.667 15.167 76.834 45.5 102.501 s76.833 40.5 139.5 44.5l125 8v31c0 40.667 -7.33301 69.334 -22 86.001s-42.334 25 -83.001 25c-24 0 -49 -2.33301 -75 -7s-51.333 -11.334 -76 -20.001l-18 55c28 12.667 58.667 22.334 92 29.001s65.333 10 96 10c51.333 0 91.666 -12 120.999 -36s44 -66 44 -126v-273z M227.002 224.994c-33.333 -1.33301 -57.999 -9.66699 -73.999 -25s-24 -35.333 -24 -60c0 -28.667 7 -50 21 -64s37 -21 69 -21c21.333 0 43.166 5.5 65.499 16.5s44.833 26.833 67.5 47.5v114z"/>
    <glyph glyph-name="Cacute" unicode="Ć" horiz-adv-x="593" d="M360 696c37.333 0 70.3291 -2.83203 98.9961 -8.49902s53.334 -12.167 74.001 -19.5l-18 -63c-27.333 9.33301 -53.333 15.5 -78 18.5s-47.667 4.5 -69 4.5c-37.333 0 -69.833 -6.66699 -97.5 -20s-50.5 -32.5 -68.5 -57.5s-31.5 -55.5 -40.5 -91.5 s-13.5 -76.333 -13.5 -121c0 -39.333 3.16699 -75.833 9.5 -109.5s17.833 -63 34.5 -88s39.334 -44.667 68.001 -59s65.334 -21.5 110.001 -21.5c8.66699 0 19.667 0.5 33 1.5s27.333 2.5 42 4.5s29.667 4.5 45 7.5s29.666 6.5 42.999 10.5l16 -60 c-12 -4.66699 -25.833 -9 -41.5 -13s-32.167 -7.33301 -49.5 -10s-34.833 -4.83398 -52.5 -6.50098s-34.5 -2.5 -50.5 -2.5c-54.667 0 -100.667 8.33301 -138 25s-67.666 40.167 -90.999 70.5s-40.166 66.833 -50.499 109.5s-15.5 89.667 -15.5 141 c0 24.667 1.83301 50.5 5.5 77.5s10 53.833 19 80.5s21 52 36 76s33.5 45.167 55.5 63.5s48.167 33 78.5 44s65.5 16.5 105.5 16.5zM345.996 729.001l-38 31l123 161l60 -53z"/>
    <glyph glyph-name="cacute" unicode="ć" horiz-adv-x="456" d="M132 246c0 -27.333 2.33398 -52.332 7.00098 -74.999s12.334 -42.5 23.001 -59.5s25 -30.167 43 -39.5s40.667 -14 68 -14c25.333 0 49 2.66699 71 8s45.333 13 70 23l22 -54c-21.333 -11.333 -46.833 -21 -76.5 -29s-60.834 -12 -93.501 -12 c-40.667 0 -75 6.16699 -103 18.5s-50.5 29.5 -67.5 51.5s-29.167 47.833 -36.5 77.5s-11 61.834 -11 96.501c0 26 3 54.167 9 84.5s17.167 58.666 33.5 84.999s39 48.166 68 65.499s66.5 26 112.5 26c22 0 44.667 -1.5 68 -4.5s47.666 -9.83301 72.999 -20.5l-19 -59 c-23.333 8 -44.333 13 -63 15s-36 3 -52 3c-47.333 0 -83.5 -17 -108.5 -51s-37.5 -79.333 -37.5 -136zM234.001 535.001l-36 31l123 162l58 -54z"/>
    <glyph glyph-name="Ccircumflex" unicode="Ĉ" horiz-adv-x="593" d="M360 696c37.333 0 70.3291 -2.83203 98.9961 -8.49902s53.334 -12.167 74.001 -19.5l-18 -63c-27.333 9.33301 -53.333 15.5 -78 18.5s-47.667 4.5 -69 4.5c-37.333 0 -69.833 -6.66699 -97.5 -20s-50.5 -32.5 -68.5 -57.5s-31.5 -55.5 -40.5 -91.5 s-13.5 -76.333 -13.5 -121c0 -39.333 3.16699 -75.833 9.5 -109.5s17.833 -63 34.5 -88s39.334 -44.667 68.001 -59s65.334 -21.5 110.001 -21.5c8.66699 0 19.667 0.5 33 1.5s27.333 2.5 42 4.5s29.667 4.5 45 7.5s29.666 6.5 42.999 10.5l16 -60 c-12 -4.66699 -25.833 -9 -41.5 -13s-32.167 -7.33301 -49.5 -10s-34.833 -4.83398 -52.5 -6.50098s-34.5 -2.5 -50.5 -2.5c-54.667 0 -100.667 8.33301 -138 25s-67.666 40.167 -90.999 70.5s-40.166 66.833 -50.499 109.5s-15.5 89.667 -15.5 141 c0 24.667 1.83301 50.5 5.5 77.5s10 53.833 19 80.5s21 52 36 76s33.5 45.167 55.5 63.5s48.167 33 78.5 44s65.5 16.5 105.5 16.5zM490.996 730.001l-155 89l-154 -90l-23 28l150 138h55l152 -136z"/>
    <glyph glyph-name="ccircumflex" unicode="ĉ" horiz-adv-x="456" d="M132 246c0 -27.333 2.33398 -52.332 7.00098 -74.999s12.334 -42.5 23.001 -59.5s25 -30.167 43 -39.5s40.667 -14 68 -14c25.333 0 49 2.66699 71 8s45.333 13 70 23l22 -54c-21.333 -11.333 -46.833 -21 -76.5 -29s-60.834 -12 -93.501 -12 c-40.667 0 -75 6.16699 -103 18.5s-50.5 29.5 -67.5 51.5s-29.167 47.833 -36.5 77.5s-11 61.834 -11 96.501c0 26 3 54.167 9 84.5s17.167 58.666 33.5 84.999s39 48.166 68 65.499s66.5 26 112.5 26c22 0 44.667 -1.5 68 -4.5s47.666 -9.83301 72.999 -20.5l-19 -59 c-23.333 8 -44.333 13 -63 15s-36 3 -52 3c-47.333 0 -83.5 -17 -108.5 -51s-37.5 -79.333 -37.5 -136zM408.001 532.001l-155 93l-154 -94l-23 28l150 143h55l152 -141z"/>
    <glyph glyph-name="Cdotaccent" unicode="Ċ" horiz-adv-x="593" d="M360 696c37.333 0 70.3291 -2.83203 98.9961 -8.49902s53.334 -12.167 74.001 -19.5l-18 -63c-27.333 9.33301 -53.333 15.5 -78 18.5s-47.667 4.5 -69 4.5c-37.333 0 -69.833 -6.66699 -97.5 -20s-50.5 -32.5 -68.5 -57.5s-31.5 -55.5 -40.5 -91.5 s-13.5 -76.333 -13.5 -121c0 -39.333 3.16699 -75.833 9.5 -109.5s17.833 -63 34.5 -88s39.334 -44.667 68.001 -59s65.334 -21.5 110.001 -21.5c8.66699 0 19.667 0.5 33 1.5s27.333 2.5 42 4.5s29.667 4.5 45 7.5s29.666 6.5 42.999 10.5l16 -60 c-12 -4.66699 -25.833 -9 -41.5 -13s-32.167 -7.33301 -49.5 -10s-34.833 -4.83398 -52.5 -6.50098s-34.5 -2.5 -50.5 -2.5c-54.667 0 -100.667 8.33301 -138 25s-67.666 40.167 -90.999 70.5s-40.166 66.833 -50.499 109.5s-15.5 89.667 -15.5 141 c0 24.667 1.83301 50.5 5.5 77.5s10 53.833 19 80.5s21 52 36 76s33.5 45.167 55.5 63.5s48.167 33 78.5 44s65.5 16.5 105.5 16.5zM392.996 819.001c0 -15.333 -5.66699 -28.5 -17 -39.5s-24.666 -16.5 -39.999 -16.5s-28.333 5.5 -39 16.5s-16 24.167 -16 39.5 s5.33301 28.666 16 39.999s23.667 17 39 17s28.666 -5.66699 39.999 -17s17 -24.666 17 -39.999z"/>
    <glyph glyph-name="cdotaccent" unicode="ċ" horiz-adv-x="456" d="M132 246c0 -27.333 2.33398 -52.332 7.00098 -74.999s12.334 -42.5 23.001 -59.5s25 -30.167 43 -39.5s40.667 -14 68 -14c25.333 0 49 2.66699 71 8s45.333 13 70 23l22 -54c-21.333 -11.333 -46.833 -21 -76.5 -29s-60.834 -12 -93.501 -12 c-40.667 0 -75 6.16699 -103 18.5s-50.5 29.5 -67.5 51.5s-29.167 47.833 -36.5 77.5s-11 61.834 -11 96.501c0 26 3 54.167 9 84.5s17.167 58.666 33.5 84.999s39 48.166 68 65.499s66.5 26 112.5 26c22 0 44.667 -1.5 68 -4.5s47.666 -9.83301 72.999 -20.5l-19 -59 c-23.333 8 -44.333 13 -63 15s-36 3 -52 3c-47.333 0 -83.5 -17 -108.5 -51s-37.5 -79.333 -37.5 -136zM309.001 620.001c0 -15.333 -5 -28.166 -15 -38.499s-22 -15.5 -36 -15.5s-25.667 5.16699 -35 15.5s-14 23.166 -14 38.499s4.66699 28.333 14 39s21 16 35 16 s26 -5.33301 36 -16s15 -23.667 15 -39z"/>
    <glyph glyph-name="Ccaron" unicode="Č" horiz-adv-x="593" d="M360 696c37.333 0 70.3291 -2.83203 98.9961 -8.49902s53.334 -12.167 74.001 -19.5l-18 -63c-27.333 9.33301 -53.333 15.5 -78 18.5s-47.667 4.5 -69 4.5c-37.333 0 -69.833 -6.66699 -97.5 -20s-50.5 -32.5 -68.5 -57.5s-31.5 -55.5 -40.5 -91.5 s-13.5 -76.333 -13.5 -121c0 -39.333 3.16699 -75.833 9.5 -109.5s17.833 -63 34.5 -88s39.334 -44.667 68.001 -59s65.334 -21.5 110.001 -21.5c8.66699 0 19.667 0.5 33 1.5s27.333 2.5 42 4.5s29.667 4.5 45 7.5s29.666 6.5 42.999 10.5l16 -60 c-12 -4.66699 -25.833 -9 -41.5 -13s-32.167 -7.33301 -49.5 -10s-34.833 -4.83398 -52.5 -6.50098s-34.5 -2.5 -50.5 -2.5c-54.667 0 -100.667 8.33301 -138 25s-67.666 40.167 -90.999 70.5s-40.166 66.833 -50.499 109.5s-15.5 89.667 -15.5 141 c0 24.667 1.83301 50.5 5.5 77.5s10 53.833 19 80.5s21 52 36 76s33.5 45.167 55.5 63.5s48.167 33 78.5 44s65.5 16.5 105.5 16.5zM515.996 863.001l-152 -135h-54l-151 137l23 27l155 -91l155 91z"/>
    <glyph glyph-name="ccaron" unicode="č" horiz-adv-x="456" d="M132 246c0 -27.333 2.33398 -52.332 7.00098 -74.999s12.334 -42.5 23.001 -59.5s25 -30.167 43 -39.5s40.667 -14 68 -14c25.333 0 49 2.66699 71 8s45.333 13 70 23l22 -54c-21.333 -11.333 -46.833 -21 -76.5 -29s-60.834 -12 -93.501 -12 c-40.667 0 -75 6.16699 -103 18.5s-50.5 29.5 -67.5 51.5s-29.167 47.833 -36.5 77.5s-11 61.834 -11 96.501c0 26 3 54.167 9 84.5s17.167 58.666 33.5 84.999s39 48.166 68 65.499s66.5 26 112.5 26c22 0 44.667 -1.5 68 -4.5s47.666 -9.83301 72.999 -20.5l-19 -59 c-23.333 8 -44.333 13 -63 15s-36 3 -52 3c-47.333 0 -83.5 -17 -108.5 -51s-37.5 -79.333 -37.5 -136zM443.001 686.001l-152 -141h-54l-151 143l23 28l155 -97l155 96z"/>
    <glyph glyph-name="Dcaron" unicode="Ď" horiz-adv-x="644" d="M80 0l0.00195312 684.999h223c55.333 0 101.166 -9.16699 137.499 -27.5s65.166 -43.166 86.499 -74.499s36.166 -67.5 44.499 -108.5s12.5 -84.5 12.5 -130.5c0 -46.667 -4.66699 -90.834 -14 -132.501s-25.166 -78.167 -47.499 -109.5s-52 -56.166 -89 -74.499 s-83.5 -27.5 -139.5 -27.5h-214zM167.002 619.999v-553.998h117c10 0 22.333 0.666992 37 2s29.834 4.66602 45.501 9.99902s31.167 13.666 46.5 24.999s29.166 27 41.499 47s22.333 45.167 30 75.5s11.5 67.5 11.5 111.5c0 44.667 -3.5 82.667 -10.5 114 s-16.167 57.5 -27.5 78.5s-24.333 37.5 -39 49.5s-29.667 21 -45 27s-30.333 9.83301 -45 11.5s-28 2.5 -40 2.5h-122zM468.002 863.001l-152 -135h-54l-151 137l23 27l155 -91l155 91z"/>
    <glyph glyph-name="dcaron" unicode="ď" horiz-adv-x="639" d="M529 690c0 13.333 4.99902 24.998 14.999 34.998s22.667 15 38 15c16.667 0 30.167 -5.66699 40.5 -17s15.166 -25.666 14.499 -42.999c-1.33301 -25.333 -9.16602 -48.5 -23.499 -69.5s-34.166 -38.167 -59.499 -51.5l-20 25c20 18 30 37.667 30 59 c-23.333 6.66699 -35 22.334 -35 47.001zM382.999 45.998l-2.00098 2c-20 -16.667 -43.5 -29.834 -70.5 -39.501s-53.5 -14.5 -79.5 -14.5c-35.333 0 -64.666 6.5 -87.999 19.5s-42 30.5 -56 52.5s-24 47.5 -30 76.5s-9 59.833 -9 92.5c0 37.333 3.5 72 10.5 104 s18.333 59.833 34 83.5s36.167 42.334 61.5 56.001s56 20.5 92 20.5c9.33301 0 19.833 -0.666992 31.5 -2s23.5 -3.5 35.5 -6.5s23.833 -6.66699 35.5 -11s22.5 -9.83301 32.5 -16.5v248h82v-711h-80v46zM380.998 398.998c-5.33301 4 -12.668 8.00195 -22.001 12.002 s-19.666 7.83301 -30.999 11.5s-23.166 6.5 -35.499 8.5s-23.833 3 -34.5 3c-17.333 0 -33.5 -3.16699 -48.5 -9.5s-28.333 -17.166 -40 -32.499s-20.834 -35.833 -27.501 -61.5s-10 -57.834 -10 -96.501c0 -34 3 -62.333 9 -85s14.167 -40.834 24.5 -54.501 s23 -23.334 38 -29.001s31.5 -8.5 49.5 -8.5c10 0 21.167 1.5 33.5 4.5s24.5 7 36.5 12s23.167 10.333 33.5 16s18.5 11.5 24.5 17.5v292z"/>
    <glyph glyph-name="Dcroat" unicode="Đ" horiz-adv-x="644" d="M80 0l0.00195312 328.999h-62v61h62v295h223c55.333 0 101.166 -9.16699 137.499 -27.5s65.166 -43.166 86.499 -74.499s36.166 -67.5 44.499 -108.5s12.5 -84.5 12.5 -130.5c0 -46.667 -4.66699 -90.834 -14 -132.501s-25.166 -78.167 -47.499 -109.5 s-52 -56.166 -89 -74.499s-83.5 -27.5 -139.5 -27.5h-214zM167.002 619.999v-229.998h158v-61h-158v-263h117c10 0 22.333 0.666992 37 2s29.834 4.66602 45.501 9.99902s31.167 13.666 46.5 24.999s29.166 27 41.499 47s22.333 45.167 30 75.5s11.5 67.5 11.5 111.5 c0 44.667 -3.5 82.667 -10.5 114s-16.167 57.5 -27.5 78.5s-24.333 37.5 -39 49.5s-29.667 21 -45 27s-30.333 9.83301 -45 11.5s-28 2.5 -40 2.5h-122z"/>
    <glyph glyph-name="dcroat" unicode="đ" horiz-adv-x="522" d="M383 46l-2.00098 2.00098c-20 -16.667 -43.5 -29.834 -70.5 -39.501s-53.5 -14.5 -79.5 -14.5c-35.333 0 -64.666 6 -87.999 18s-42 28.333 -56 49s-24 45 -30 73s-9 58.333 -9 91c0 37.333 3.5 71.5 10.5 102.5s18.333 57.833 34 80.5s36.167 40.167 61.5 52.5 s56 18.5 92 18.5c9.33301 0 19.833 -0.666992 31.5 -2s23.5 -3.5 35.5 -6.5s23.833 -6.66699 35.5 -11s22.5 -9.83301 32.5 -16.5v103h-156v46h156v119h82v-119h67v-46h-67v-546h-80v46zM380.999 379.001c-5.33301 4 -12.668 8.00098 -22.001 12.001 s-19.666 7.83301 -30.999 11.5s-23.166 6.5 -35.499 8.5s-23.833 3 -34.5 3c-17.333 0 -33.5 -2.66699 -48.5 -8s-28.333 -15 -40 -29s-20.834 -33.333 -27.501 -58s-10 -56.334 -10 -95.001c0 -34 3 -61.833 9 -83.5s14.167 -38.667 24.5 -51s23 -20.833 38 -25.5 s31.5 -7 49.5 -7c10 0 21.167 1.5 33.5 4.5s24.5 7 36.5 12s23.167 10.333 33.5 16s18.5 11.5 24.5 17.5v272z"/>
    <glyph glyph-name="Emacron" unicode="Ē" horiz-adv-x="564" d="M80 0v684h417v-64h-332v-227h280v-62h-280v-266h348v-65h-433zM132 811h326v-64h-326v64z"/>
    <glyph glyph-name="emacron" unicode="ē" horiz-adv-x="505" d="M264 439c-23.333 0 -43 -4.33203 -59 -12.999s-29.167 -20.334 -39.5 -35.001s-18 -31.667 -23 -51s-8.16699 -39.333 -9.5 -60h249c0 23.333 -2 44.833 -6 64.5s-10.5 36.5 -19.5 50.5s-21 24.833 -36 32.5s-33.833 11.5 -56.5 11.5zM262 499.001 c32.667 0 60.165 -4.33203 82.498 -12.999s40.833 -20 55.5 -34s26 -29.667 34 -47s13.833 -34.666 17.5 -51.999s5.83398 -33.666 6.50098 -48.999s1 -28 1 -38v-39h-327c0 -22.667 2 -44.334 6 -65.001s11.333 -38.834 22 -54.501s25 -28.167 43 -37.5s40.667 -14 68 -14 c28.667 0 54.834 3 78.501 9s49.5 14.667 77.5 26l20 -52c-29.333 -15.333 -58.833 -26.666 -88.5 -33.999s-60.834 -11 -93.501 -11c-43.333 0 -79 6.66699 -107 20s-50.167 31.166 -66.5 53.499s-27.666 48.666 -33.999 78.999s-9.5 62.5 -9.5 96.5 c0 14.667 1 31.167 3 49.5s5.83301 36.833 11.5 55.5s13.5 37.167 23.5 55.5s23 34.5 39 48.5s35.167 25.333 57.5 34s48.833 13 79.5 13zM96.998 656.002h329v-64h-329v64z"/>
    <glyph glyph-name="Ebreve" unicode="Ĕ" horiz-adv-x="564" d="M80 0v684h417v-64h-332v-227h280v-62h-280v-266h348v-65h-433zM283 730c-17.333 0 -33.6699 3.16797 -49.0029 9.50098s-29.666 14.666 -42.999 24.999s-25.833 22.333 -37.5 36s-22.5 27.5 -32.5 41.5l47 33c18 -24.667 37.5 -44.667 58.5 -60s41.167 -23 60.5 -23 c6 0 13.333 0.666992 22 2s18.834 4.5 30.501 9.5s24.834 12.667 39.501 23s31.334 24.5 50.001 42.5l27 -25c-29.333 -42 -58.833 -71.5 -88.5 -88.5s-57.834 -25.5 -84.501 -25.5z"/>
    <glyph glyph-name="ebreve" unicode="ĕ" horiz-adv-x="505" d="M264 439c-23.333 0 -43 -4.33203 -59 -12.999s-29.167 -20.334 -39.5 -35.001s-18 -31.667 -23 -51s-8.16699 -39.333 -9.5 -60h249c0 23.333 -2 44.833 -6 64.5s-10.5 36.5 -19.5 50.5s-21 24.833 -36 32.5s-33.833 11.5 -56.5 11.5zM262 499.001 c32.667 0 60.165 -4.33203 82.498 -12.999s40.833 -20 55.5 -34s26 -29.667 34 -47s13.833 -34.666 17.5 -51.999s5.83398 -33.666 6.50098 -48.999s1 -28 1 -38v-39h-327c0 -22.667 2 -44.334 6 -65.001s11.333 -38.834 22 -54.501s25 -28.167 43 -37.5s40.667 -14 68 -14 c28.667 0 54.834 3 78.501 9s49.5 14.667 77.5 26l20 -52c-29.333 -15.333 -58.833 -26.666 -88.5 -33.999s-60.834 -11 -93.501 -11c-43.333 0 -79 6.66699 -107 20s-50.167 31.166 -66.5 53.499s-27.666 48.666 -33.999 78.999s-9.5 62.5 -9.5 96.5 c0 14.667 1 31.167 3 49.5s5.83301 36.833 11.5 55.5s13.5 37.167 23.5 55.5s23 34.5 39 48.5s35.167 25.333 57.5 34s48.833 13 79.5 13zM259.998 551.002c-17.333 0 -33.6689 3.16699 -49.002 9.5s-29.666 14.833 -42.999 25.5s-25.833 22.667 -37.5 36s-22.5 27 -32.5 41 l47 34c18 -25.333 37.333 -45.5 58 -60.5s40.667 -22.5 60 -22.5c6 0 13.5 0.5 22.5 1.5s19.333 4 31 9s24.834 12.667 39.501 23s31.334 24.5 50.001 42.5l27 -25c-29.333 -42 -58.833 -71.5 -88.5 -88.5s-57.834 -25.5 -84.501 -25.5z"/>
    <glyph glyph-name="Edotaccent" unicode="Ė" horiz-adv-x="564" d="M80 0v684h417v-64h-332v-227h280v-62h-280v-266h348v-65h-433zM367 813c0 -15.333 -5.66699 -28.5 -17 -39.5s-24.666 -16.5 -39.999 -16.5s-28.333 5.5 -39 16.5s-16 24.167 -16 39.5s5.33301 28.666 16 39.999s23.667 17 39 17s28.666 -5.66699 39.999 -17 s17 -24.666 17 -39.999z"/>
    <glyph glyph-name="edotaccent" unicode="ė" horiz-adv-x="505" d="M264 439c-23.333 0 -43 -4.33203 -59 -12.999s-29.167 -20.334 -39.5 -35.001s-18 -31.667 -23 -51s-8.16699 -39.333 -9.5 -60h249c0 23.333 -2 44.833 -6 64.5s-10.5 36.5 -19.5 50.5s-21 24.833 -36 32.5s-33.833 11.5 -56.5 11.5zM262 499.001 c32.667 0 60.165 -4.33203 82.498 -12.999s40.833 -20 55.5 -34s26 -29.667 34 -47s13.833 -34.666 17.5 -51.999s5.83398 -33.666 6.50098 -48.999s1 -28 1 -38v-39h-327c0 -22.667 2 -44.334 6 -65.001s11.333 -38.834 22 -54.501s25 -28.167 43 -37.5s40.667 -14 68 -14 c28.667 0 54.834 3 78.501 9s49.5 14.667 77.5 26l20 -52c-29.333 -15.333 -58.833 -26.666 -88.5 -33.999s-60.834 -11 -93.501 -11c-43.333 0 -79 6.66699 -107 20s-50.167 31.166 -66.5 53.499s-27.666 48.666 -33.999 78.999s-9.5 62.5 -9.5 96.5 c0 14.667 1 31.167 3 49.5s5.83301 36.833 11.5 55.5s13.5 37.167 23.5 55.5s23 34.5 39 48.5s35.167 25.333 57.5 34s48.833 13 79.5 13zM319.998 619.002c0 -15.333 -5.66699 -28.5 -17 -39.5s-24.666 -16.5 -39.999 -16.5s-28.333 5.5 -39 16.5s-16 24.167 -16 39.5 s5.33301 28.666 16 39.999s23.667 17 39 17s28.666 -5.66699 39.999 -17s17 -24.666 17 -39.999z"/>
    <glyph glyph-name="Eogonek" unicode="Ę" horiz-adv-x="564" d="M493 0c-13.333 -17.333 -24.167 -36.002 -32.5 -56.002s-12.5 -37.667 -12.5 -53c0 -19.333 5.33301 -32.666 16 -39.999s25 -11 43 -11c13.333 0 26.333 1.33301 39 4l33 7l6 -32c-16 -8 -33.333 -14.333 -52 -19s-37.334 -7 -56.001 -7 c-31.333 0 -55.166 6.33301 -71.499 19s-24.5 30.334 -24.5 53.001c0 16.667 4.5 37 13.5 61s27.5 48.667 55.5 74h-370v684h417v-64h-332v-227h280v-62h-280v-266h348v-65h-20z"/>
    <glyph glyph-name="eogonek" unicode="ę" horiz-adv-x="505" d="M262 499c32.667 0 60.1641 -4.33105 82.4971 -12.998s40.833 -20 55.5 -34s26 -29.667 34 -47s13.833 -34.666 17.5 -51.999s5.83398 -33.666 6.50098 -48.999s1 -28 1 -38v-39h-327c0 -22.667 2 -44.334 6 -65.001s11.333 -38.834 22 -54.501s25 -28.167 43 -37.5 s40.667 -14 68 -14c28.667 0 54.834 3 78.501 9s49.5 14.667 77.5 26l20 -52c-21.333 -12 -41.333 -20.667 -60 -26c-10 -16 -18.167 -32.333 -24.5 -49s-9.5 -31.334 -9.5 -44.001c0 -19.333 5.33301 -32.666 16 -39.999s25 -11 43 -11c13.333 0 26.333 1.33301 39 4l33 7 l6 -32c-16 -8 -33.333 -14.333 -52 -19s-37.334 -7 -56.001 -7c-31.333 0 -55.166 6.33301 -71.499 19s-24.5 30.334 -24.5 53.001c0 13.333 2.66699 29.166 8 47.499s16 37.5 32 57.5c-10 -1.33301 -20 -2.5 -30 -3.5s-20.333 -1.5 -31 -1.5c-43.333 0 -79 6.66699 -107 20 s-50.167 31.166 -66.5 53.499s-27.666 48.666 -33.999 78.999s-9.5 62.5 -9.5 96.5c0 14.667 1 31.167 3 49.5s5.83301 36.833 11.5 55.5s13.5 37.167 23.5 55.5s23 34.5 39 48.5s35.167 25.333 57.5 34s48.833 13 79.5 13zM263.997 439.002 c-23.333 0 -43 -4.33203 -59 -12.999s-29.167 -20.334 -39.5 -35.001s-18 -31.667 -23 -51s-8.16699 -39.333 -9.5 -60h249c0 23.333 -2 44.833 -6 64.5s-10.5 36.5 -19.5 50.5s-21 24.833 -36 32.5s-33.833 11.5 -56.5 11.5z"/>
    <glyph glyph-name="Ecaron" unicode="Ě" horiz-adv-x="564" d="M80 0v684h417v-64h-332v-227h280v-62h-280v-266h348v-65h-433zM459 863l-152 -135h-54l-151 137l23 27l155 -91l155 91z"/>
    <glyph glyph-name="ecaron" unicode="ě" horiz-adv-x="505" d="M264 439c-23.333 0 -43 -4.33203 -59 -12.999s-29.167 -20.334 -39.5 -35.001s-18 -31.667 -23 -51s-8.16699 -39.333 -9.5 -60h249c0 23.333 -2 44.833 -6 64.5s-10.5 36.5 -19.5 50.5s-21 24.833 -36 32.5s-33.833 11.5 -56.5 11.5zM262 499.001 c32.667 0 60.165 -4.33203 82.498 -12.999s40.833 -20 55.5 -34s26 -29.667 34 -47s13.833 -34.666 17.5 -51.999s5.83398 -33.666 6.50098 -48.999s1 -28 1 -38v-39h-327c0 -22.667 2 -44.334 6 -65.001s11.333 -38.834 22 -54.501s25 -28.167 43 -37.5s40.667 -14 68 -14 c28.667 0 54.834 3 78.501 9s49.5 14.667 77.5 26l20 -52c-29.333 -15.333 -58.833 -26.666 -88.5 -33.999s-60.834 -11 -93.501 -11c-43.333 0 -79 6.66699 -107 20s-50.167 31.166 -66.5 53.499s-27.666 48.666 -33.999 78.999s-9.5 62.5 -9.5 96.5 c0 14.667 1 31.167 3 49.5s5.83301 36.833 11.5 55.5s13.5 37.167 23.5 55.5s23 34.5 39 48.5s35.167 25.333 57.5 34s48.833 13 79.5 13zM437.998 686.002l-152 -141h-54l-151 143l23 28l155 -97l155 96z"/>
    <glyph glyph-name="Gcircumflex" unicode="Ĝ" horiz-adv-x="629" d="M375 696c36.667 0 69.8291 -2.83496 99.4961 -8.50195s54.834 -12.167 75.501 -19.5l-17 -63c-28.667 9.33301 -55.667 15.5 -81 18.5s-48.666 4.5 -69.999 4.5c-40 0 -74.833 -6.83301 -104.5 -20.5s-54 -33.167 -73 -58.5s-33.167 -56 -42.5 -92s-14 -76.667 -14 -122 c0 -38 3.16699 -73.667 9.5 -107s17.5 -62.166 33.5 -86.499s37.667 -43.666 65 -57.999s62 -21.5 104 -21.5c8.66699 0 18.334 0.333008 29.001 1s21.5 1.66699 32.5 3s21.667 2.83301 32 4.5s19.5 3.83398 27.5 6.50098v275h79v-328c-34 -11.333 -68.5 -19.5 -103.5 -24.5 s-69.5 -7.5 -103.5 -7.5c-54 0 -99.5 8.5 -136.5 25.5s-67.167 40.667 -90.5 71s-40.166 66.833 -50.499 109.5s-15.5 89.667 -15.5 141c0 24 1.83301 49.667 5.5 77s10 54.166 19 80.499s21.333 51.5 37 75.5s35.167 45.167 58.5 63.5s51 33 83 44s69.333 16.5 112 16.5z M509.995 729.998l-155 89l-154 -90l-23 28l150 138h55l152 -136z"/>
    <glyph glyph-name="gcircumflex" unicode="ĝ" horiz-adv-x="549" d="M127 199c-16.667 9.33301 -31.499 23.833 -44.499 43.5s-19.5 46.834 -19.5 81.501c0 31.333 5.66699 58.166 17 80.499s26.333 40.5 45 54.5s39.667 24.333 63 31s46.666 10 69.999 10c16.667 0 32.834 -0.833008 48.501 -2.5s30.5 -4.83398 44.5 -9.50098h158v-52h-76 l-2 -5c11.333 -12 19.833 -27.167 25.5 -45.5s8.5 -37.5 8.5 -57.5c0 -26.667 -5.16699 -50.334 -15.5 -71.001s-24.5 -38.167 -42.5 -52.5s-39.5 -25.166 -64.5 -32.499s-52.5 -11 -82.5 -11h-54c-24 0 -43.167 -2.33301 -57.5 -7s-21.5 -14.667 -21.5 -30 c0 -10.667 4.66699 -18.834 14 -24.501s21.666 -8.5 36.999 -8.5h128c60 0 106 -12.667 138 -38s48 -62 48 -110c0 -24 -5.5 -45.833 -16.5 -65.5s-26.833 -36.5 -47.5 -50.5s-45.834 -24.667 -75.501 -32s-62.834 -11 -99.501 -11c-42 0 -76.5 4 -103.5 12 s-48.333 18.667 -64 32s-26.5 28.5 -32.5 45.5s-9 34.833 -9 53.5c0 28 7.16699 52 21.5 72s28.833 34 43.5 42c-19.333 4 -34.166 12 -44.499 24s-15.5 27.667 -15.5 47c0 14.667 2.33301 26.834 7 36.501s10.834 17.834 18.501 24.501s16 11.667 25 15s17.5 6 25.5 8z M183.001 30c-6.66699 -2 -13.501 -6 -20.501 -12s-13.333 -13.167 -19 -21.5s-10.334 -17.333 -14.001 -27s-5.5 -19.167 -5.5 -28.5c0 -12.667 1.83301 -24.834 5.5 -36.501s10.834 -22 21.501 -31s25 -16.167 43 -21.5s41.667 -8 71 -8c46.667 0 82.5 8.83301 107.5 26.5 s37.5 41.167 37.5 70.5c0 10 -1.33301 20.333 -4 31s-8.16699 20.334 -16.5 29.001s-20.166 15.667 -35.499 21s-35.333 8 -60 8h-111zM382 328c0 12.667 -1.83398 25.6641 -5.50098 38.9971s-10.167 25.333 -19.5 36s-21.666 19.334 -36.999 26.001s-34.333 10 -57 10 c-38.667 0 -67.834 -9.66699 -87.501 -29s-29.5 -46.666 -29.5 -81.999c0 -33.333 9.66699 -59.833 29 -79.5s45.333 -29.5 78 -29.5c18.667 0 35.834 2.16699 51.501 6.5s29.167 11 40.5 20s20.333 20.333 27 34s10 29.834 10 48.501zM415.999 531.997l-155 93l-154 -94 l-23 28l150 143h55l152 -141z"/>
    <glyph glyph-name="Gbreve" unicode="Ğ" horiz-adv-x="629" d="M375 696c36.667 0 69.8291 -2.83496 99.4961 -8.50195s54.834 -12.167 75.501 -19.5l-17 -63c-28.667 9.33301 -55.667 15.5 -81 18.5s-48.666 4.5 -69.999 4.5c-40 0 -74.833 -6.83301 -104.5 -20.5s-54 -33.167 -73 -58.5s-33.167 -56 -42.5 -92s-14 -76.667 -14 -122 c0 -38 3.16699 -73.667 9.5 -107s17.5 -62.166 33.5 -86.499s37.667 -43.666 65 -57.999s62 -21.5 104 -21.5c8.66699 0 18.334 0.333008 29.001 1s21.5 1.66699 32.5 3s21.667 2.83301 32 4.5s19.5 3.83398 27.5 6.50098v275h79v-328c-34 -11.333 -68.5 -19.5 -103.5 -24.5 s-69.5 -7.5 -103.5 -7.5c-54 0 -99.5 8.5 -136.5 25.5s-67.167 40.667 -90.5 71s-40.166 66.833 -50.499 109.5s-15.5 89.667 -15.5 141c0 24 1.83301 49.667 5.5 77s10 54.166 19 80.499s21.333 51.5 37 75.5s35.167 45.167 58.5 63.5s51 33 83 44s69.333 16.5 112 16.5z M346.995 729.998c-17.333 0 -33.6699 3.16797 -49.0029 9.50098s-29.666 14.666 -42.999 24.999s-25.833 22.333 -37.5 36s-22.5 27.5 -32.5 41.5l47 33c18 -24.667 37.5 -44.667 58.5 -60s41.167 -23 60.5 -23c6 0 13.333 0.666992 22 2s18.834 4.5 30.501 9.5 s24.834 12.667 39.501 23s31.334 24.5 50.001 42.5l27 -25c-29.333 -42 -58.833 -71.5 -88.5 -88.5s-57.834 -25.5 -84.501 -25.5z"/>
    <glyph glyph-name="gbreve" unicode="ğ" horiz-adv-x="549" d="M127 199c-16.667 9.33301 -31.499 23.833 -44.499 43.5s-19.5 46.834 -19.5 81.501c0 31.333 5.66699 58.166 17 80.499s26.333 40.5 45 54.5s39.667 24.333 63 31s46.666 10 69.999 10c16.667 0 32.834 -0.833008 48.501 -2.5s30.5 -4.83398 44.5 -9.50098h158v-52h-76 l-2 -5c11.333 -12 19.833 -27.167 25.5 -45.5s8.5 -37.5 8.5 -57.5c0 -26.667 -5.16699 -50.334 -15.5 -71.001s-24.5 -38.167 -42.5 -52.5s-39.5 -25.166 -64.5 -32.499s-52.5 -11 -82.5 -11h-54c-24 0 -43.167 -2.33301 -57.5 -7s-21.5 -14.667 -21.5 -30 c0 -10.667 4.66699 -18.834 14 -24.501s21.666 -8.5 36.999 -8.5h128c60 0 106 -12.667 138 -38s48 -62 48 -110c0 -24 -5.5 -45.833 -16.5 -65.5s-26.833 -36.5 -47.5 -50.5s-45.834 -24.667 -75.501 -32s-62.834 -11 -99.501 -11c-42 0 -76.5 4 -103.5 12 s-48.333 18.667 -64 32s-26.5 28.5 -32.5 45.5s-9 34.833 -9 53.5c0 28 7.16699 52 21.5 72s28.833 34 43.5 42c-19.333 4 -34.166 12 -44.499 24s-15.5 27.667 -15.5 47c0 14.667 2.33301 26.834 7 36.501s10.834 17.834 18.501 24.501s16 11.667 25 15s17.5 6 25.5 8z M183.001 30c-6.66699 -2 -13.501 -6 -20.501 -12s-13.333 -13.167 -19 -21.5s-10.334 -17.333 -14.001 -27s-5.5 -19.167 -5.5 -28.5c0 -12.667 1.83301 -24.834 5.5 -36.501s10.834 -22 21.501 -31s25 -16.167 43 -21.5s41.667 -8 71 -8c46.667 0 82.5 8.83301 107.5 26.5 s37.5 41.167 37.5 70.5c0 10 -1.33301 20.333 -4 31s-8.16699 20.334 -16.5 29.001s-20.166 15.667 -35.499 21s-35.333 8 -60 8h-111zM382 328c0 12.667 -1.83398 25.6641 -5.50098 38.9971s-10.167 25.333 -19.5 36s-21.666 19.334 -36.999 26.001s-34.333 10 -57 10 c-38.667 0 -67.834 -9.66699 -87.501 -29s-29.5 -46.666 -29.5 -81.999c0 -33.333 9.66699 -59.833 29 -79.5s45.333 -29.5 78 -29.5c18.667 0 35.834 2.16699 51.501 6.5s29.167 11 40.5 20s20.333 20.333 27 34s10 29.834 10 48.501zM264.999 550.997 c-17.333 0 -33.6689 3.16699 -49.002 9.5s-29.666 14.833 -42.999 25.5s-25.833 22.667 -37.5 36s-22.5 27 -32.5 41l47 34c18 -25.333 37.333 -45.5 58 -60.5s40.667 -22.5 60 -22.5c6 0 13.5 0.5 22.5 1.5s19.333 4 31 9s24.834 12.667 39.501 23s31.334 24.5 50.001 42.5 l27 -25c-29.333 -42 -58.833 -71.5 -88.5 -88.5s-57.834 -25.5 -84.501 -25.5z"/>
    <glyph glyph-name="Gdotaccent" unicode="Ġ" horiz-adv-x="629" d="M375 696c36.667 0 69.8291 -2.83496 99.4961 -8.50195s54.834 -12.167 75.501 -19.5l-17 -63c-28.667 9.33301 -55.667 15.5 -81 18.5s-48.666 4.5 -69.999 4.5c-40 0 -74.833 -6.83301 -104.5 -20.5s-54 -33.167 -73 -58.5s-33.167 -56 -42.5 -92s-14 -76.667 -14 -122 c0 -38 3.16699 -73.667 9.5 -107s17.5 -62.166 33.5 -86.499s37.667 -43.666 65 -57.999s62 -21.5 104 -21.5c8.66699 0 18.334 0.333008 29.001 1s21.5 1.66699 32.5 3s21.667 2.83301 32 4.5s19.5 3.83398 27.5 6.50098v275h79v-328c-34 -11.333 -68.5 -19.5 -103.5 -24.5 s-69.5 -7.5 -103.5 -7.5c-54 0 -99.5 8.5 -136.5 25.5s-67.167 40.667 -90.5 71s-40.166 66.833 -50.499 109.5s-15.5 89.667 -15.5 141c0 24 1.83301 49.667 5.5 77s10 54.166 19 80.499s21.333 51.5 37 75.5s35.167 45.167 58.5 63.5s51 33 83 44s69.333 16.5 112 16.5z M424.995 811.998c0 -15.333 -5.66699 -28.5 -17 -39.5s-24.666 -16.5 -39.999 -16.5s-28.333 5.5 -39 16.5s-16 24.167 -16 39.5s5.33301 28.666 16 39.999s23.667 17 39 17s28.666 -5.66699 39.999 -17s17 -24.666 17 -39.999z"/>
    <glyph glyph-name="gdotaccent" unicode="ġ" horiz-adv-x="549" d="M127 199c-16.667 9.33301 -31.499 23.833 -44.499 43.5s-19.5 46.834 -19.5 81.501c0 31.333 5.66699 58.166 17 80.499s26.333 40.5 45 54.5s39.667 24.333 63 31s46.666 10 69.999 10c16.667 0 32.834 -0.833008 48.501 -2.5s30.5 -4.83398 44.5 -9.50098h158v-52h-76 l-2 -5c11.333 -12 19.833 -27.167 25.5 -45.5s8.5 -37.5 8.5 -57.5c0 -26.667 -5.16699 -50.334 -15.5 -71.001s-24.5 -38.167 -42.5 -52.5s-39.5 -25.166 -64.5 -32.499s-52.5 -11 -82.5 -11h-54c-24 0 -43.167 -2.33301 -57.5 -7s-21.5 -14.667 -21.5 -30 c0 -10.667 4.66699 -18.834 14 -24.501s21.666 -8.5 36.999 -8.5h128c60 0 106 -12.667 138 -38s48 -62 48 -110c0 -24 -5.5 -45.833 -16.5 -65.5s-26.833 -36.5 -47.5 -50.5s-45.834 -24.667 -75.501 -32s-62.834 -11 -99.501 -11c-42 0 -76.5 4 -103.5 12 s-48.333 18.667 -64 32s-26.5 28.5 -32.5 45.5s-9 34.833 -9 53.5c0 28 7.16699 52 21.5 72s28.833 34 43.5 42c-19.333 4 -34.166 12 -44.499 24s-15.5 27.667 -15.5 47c0 14.667 2.33301 26.834 7 36.501s10.834 17.834 18.501 24.501s16 11.667 25 15s17.5 6 25.5 8z M183.001 30c-6.66699 -2 -13.501 -6 -20.501 -12s-13.333 -13.167 -19 -21.5s-10.334 -17.333 -14.001 -27s-5.5 -19.167 -5.5 -28.5c0 -12.667 1.83301 -24.834 5.5 -36.501s10.834 -22 21.501 -31s25 -16.167 43 -21.5s41.667 -8 71 -8c46.667 0 82.5 8.83301 107.5 26.5 s37.5 41.167 37.5 70.5c0 10 -1.33301 20.333 -4 31s-8.16699 20.334 -16.5 29.001s-20.166 15.667 -35.499 21s-35.333 8 -60 8h-111zM382 328c0 12.667 -1.83398 25.6641 -5.50098 38.9971s-10.167 25.333 -19.5 36s-21.666 19.334 -36.999 26.001s-34.333 10 -57 10 c-38.667 0 -67.834 -9.66699 -87.501 -29s-29.5 -46.666 -29.5 -81.999c0 -33.333 9.66699 -59.833 29 -79.5s45.333 -29.5 78 -29.5c18.667 0 35.834 2.16699 51.501 6.5s29.167 11 40.5 20s20.333 20.333 27 34s10 29.834 10 48.501zM316.999 618.997 c0 -15.333 -5.66699 -28.5 -17 -39.5s-24.666 -16.5 -39.999 -16.5s-28.333 5.5 -39 16.5s-16 24.167 -16 39.5s5.33301 28.666 16 39.999s23.667 17 39 17s28.666 -5.66699 39.999 -17s17 -24.666 17 -39.999z"/>
    <glyph glyph-name="Gcommaaccent" unicode="Ģ" horiz-adv-x="629" d="M375 696c36.667 0 69.8291 -2.83496 99.4961 -8.50195s54.834 -12.167 75.501 -19.5l-17 -63c-28.667 9.33301 -55.667 15.5 -81 18.5s-48.666 4.5 -69.999 4.5c-40 0 -74.833 -6.83301 -104.5 -20.5s-54 -33.167 -73 -58.5s-33.167 -56 -42.5 -92s-14 -76.667 -14 -122 c0 -38 3.16699 -73.667 9.5 -107s17.5 -62.166 33.5 -86.499s37.667 -43.666 65 -57.999s62 -21.5 104 -21.5c8.66699 0 18.334 0.333008 29.001 1s21.5 1.66699 32.5 3s21.667 2.83301 32 4.5s19.5 3.83398 27.5 6.50098v275h79v-328c-34 -11.333 -68.5 -19.5 -103.5 -24.5 s-69.5 -7.5 -103.5 -7.5c-54 0 -99.5 8.5 -136.5 25.5s-67.167 40.667 -90.5 71s-40.166 66.833 -50.499 109.5s-15.5 89.667 -15.5 141c0 24 1.83301 49.667 5.5 77s10 54.166 19 80.499s21.333 51.5 37 75.5s35.167 45.167 58.5 63.5s51 33 83 44s69.333 16.5 112 16.5z M294.995 -90.002c0 13.333 4.99902 24.998 14.999 34.998s22.667 15 38 15c16.667 0 30.167 -5.66699 40.5 -17s15.166 -25.666 14.499 -42.999c-1.33301 -25.333 -9.16602 -48.5 -23.499 -69.5s-34.166 -38.167 -59.499 -51.5l-20 25c20 18 30 37.667 30 59 c-23.333 6.66699 -35 22.334 -35 47.001z"/>
    <glyph glyph-name="gcommaaccent" unicode="ģ" horiz-adv-x="549" d="M127 199c-16.667 9.33301 -31.499 23.833 -44.499 43.5s-19.5 46.834 -19.5 81.501c0 31.333 5.66699 58.166 17 80.499s26.333 40.5 45 54.5s39.667 24.333 63 31s46.666 10 69.999 10c16.667 0 32.834 -0.833008 48.501 -2.5s30.5 -4.83398 44.5 -9.50098h158v-52h-76 l-2 -5c11.333 -12 19.833 -27.167 25.5 -45.5s8.5 -37.5 8.5 -57.5c0 -26.667 -5.16699 -50.334 -15.5 -71.001s-24.5 -38.167 -42.5 -52.5s-39.5 -25.166 -64.5 -32.499s-52.5 -11 -82.5 -11h-54c-24 0 -43.167 -2.33301 -57.5 -7s-21.5 -14.667 -21.5 -30 c0 -10.667 4.66699 -18.834 14 -24.501s21.666 -8.5 36.999 -8.5h128c60 0 106 -12.667 138 -38s48 -62 48 -110c0 -24 -5.5 -45.833 -16.5 -65.5s-26.833 -36.5 -47.5 -50.5s-45.834 -24.667 -75.501 -32s-62.834 -11 -99.501 -11c-42 0 -76.5 4 -103.5 12 s-48.333 18.667 -64 32s-26.5 28.5 -32.5 45.5s-9 34.833 -9 53.5c0 28 7.16699 52 21.5 72s28.833 34 43.5 42c-19.333 4 -34.166 12 -44.499 24s-15.5 27.667 -15.5 47c0 14.667 2.33301 26.834 7 36.501s10.834 17.834 18.501 24.501s16 11.667 25 15s17.5 6 25.5 8z M183.001 30c-6.66699 -2 -13.501 -6 -20.501 -12s-13.333 -13.167 -19 -21.5s-10.334 -17.333 -14.001 -27s-5.5 -19.167 -5.5 -28.5c0 -12.667 1.83301 -24.834 5.5 -36.501s10.834 -22 21.501 -31s25 -16.167 43 -21.5s41.667 -8 71 -8c46.667 0 82.5 8.83301 107.5 26.5 s37.5 41.167 37.5 70.5c0 10 -1.33301 20.333 -4 31s-8.16699 20.334 -16.5 29.001s-20.166 15.667 -35.499 21s-35.333 8 -60 8h-111zM382 328c0 12.667 -1.83398 25.6641 -5.50098 38.9971s-10.167 25.333 -19.5 36s-21.666 19.334 -36.999 26.001s-34.333 10 -57 10 c-38.667 0 -67.834 -9.66699 -87.501 -29s-29.5 -46.666 -29.5 -81.999c0 -33.333 9.66699 -59.833 29 -79.5s45.333 -29.5 78 -29.5c18.667 0 35.834 2.16699 51.501 6.5s29.167 11 40.5 20s20.333 20.333 27 34s10 29.834 10 48.501zM315.999 595.997 c0 -13.333 -5.33203 -25.001 -15.999 -35.001s-23.667 -15 -39 -15c-16.667 0 -30.167 5.5 -40.5 16.5s-15.5 25.167 -15.5 42.5v2c1.33301 25.333 9.33301 48 24 68s35 36.667 61 50l20 -25c-10 -9.33301 -17.5 -18.5 -22.5 -27.5s-7.5 -18.5 -7.5 -28.5 c11.333 -3.33301 20.166 -9.16602 26.499 -17.499s9.5 -18.5 9.5 -30.5z"/>
    <glyph glyph-name="Hcircumflex" unicode="Ĥ" horiz-adv-x="653" d="M486 0v327h-320c0 -54.667 0.166992 -109.167 0.5 -163.5s0.5 -108.833 0.5 -163.5h-87v684h87c0 -48.667 -0.166992 -96.667 -0.5 -144s-0.5 -95.333 -0.5 -144h320v288h87v-684h-87zM472 730l-155 89l-154 -90l-23 28l150 138h55l152 -136z"/>
    <glyph glyph-name="hcircumflex" unicode="ĥ" horiz-adv-x="514" d="M144 445c30 15.333 60.498 28.165 91.498 38.498s57.5 15.5 79.5 15.5c33.333 0 59.333 -4.83301 78 -14.5s32.667 -22 42 -37s15 -31.833 17 -50.5s3 -37 3 -55v-342h-81v322c0 16.667 -0.833008 31.834 -2.5 45.501s-5.33398 25.334 -11.001 35.001 s-14.167 17 -25.5 22s-26.666 7.5 -45.999 7.5c-23.333 0 -48.666 -5 -75.999 -15s-51.666 -21 -72.999 -33v-384h-82v711h81v-158l-3 -104zM254.998 742.999l-155 89l-154 -90l-23 28l150 138h55l152 -136z"/>
    <glyph glyph-name="Hbar" unicode="Ħ" horiz-adv-x="653" d="M486 0v327h-319v-327h-87v507h-66v47h66v130h87v-130h319v130h87v-130h64v-47h-64v-507h-87zM486 396v111h-319v-111h319z"/>
    <glyph glyph-name="hbar" unicode="ħ" horiz-adv-x="533" d="M393 0l-0.00292969 291.997c0 16.667 -0.833008 31.834 -2.5 45.501s-5.33398 25.334 -11.001 35.001s-14.167 17 -25.5 22s-26.666 7.5 -45.999 7.5c-23.333 0 -48.666 -5 -75.999 -15s-51.666 -21 -72.999 -33v-354h-82v528h-72v47h72v136h81v-136h182v-47h-182v-116 c30.667 16.667 61.834 30.334 93.501 41.001s59.167 16 82.5 16c33.333 0 59.333 -4.83301 78 -14.5s32.667 -22 42 -37s15 -31.833 17 -50.5s3 -37 3 -55v-312h-81z"/>
    <glyph glyph-name="Itilde" unicode="Ĩ" horiz-adv-x="264" d="M90 0v685h84v-685h-84zM205 754c-15.333 0 -29.6689 1.99902 -43.002 5.99902s-26 8.5 -38 13.5s-23.333 9.5 -34 13.5s-20.667 6 -30 6l-57 -39l-28 22c8 22.667 19.667 40.834 35 54.501s32.666 20.5 51.999 20.5c12 0 24.5 -2 37.5 -6s25.833 -8.5 38.5 -13.5 s24.834 -9.5 36.501 -13.5s22.167 -6 31.5 -6l57 40l28 -22c-7.33301 -22.667 -18.666 -41 -33.999 -55s-32.666 -21 -51.999 -21z"/>
    <glyph glyph-name="itilde" unicode="ĩ" horiz-adv-x="254" d="M85 0v488h81v-488h-81zM201 576c-15.333 0 -29.6689 1.99902 -43.002 5.99902s-26 8.5 -38 13.5s-23.333 9.5 -34 13.5s-20.667 6 -30 6l-57 -39l-28 22c8 22.667 19.667 40.834 35 54.501s32.666 20.5 51.999 20.5c12 0 24.5 -2 37.5 -6s25.833 -8.5 38.5 -13.5 s24.834 -9.5 36.501 -13.5s22.167 -6 31.5 -6l57 40l28 -22c-7.33301 -22.667 -18.666 -41 -33.999 -55s-32.666 -21 -51.999 -21z"/>
    <glyph glyph-name="Imacron" unicode="Ī" horiz-adv-x="264" d="M90 0v685h84v-685h-84zM-31 811h326v-64h-326v64z"/>
    <glyph glyph-name="imacron" unicode="ī" horiz-adv-x="254" d="M85 0v488h81v-488h-81zM-39 656h329v-64h-329v64z"/>
    <glyph glyph-name="Ibreve" unicode="Ĭ" horiz-adv-x="264" d="M126 733c-17.333 0 -33.6699 3.16797 -49.0029 9.50098s-29.666 14.666 -42.999 24.999s-25.833 22.333 -37.5 36s-22.5 27.5 -32.5 41.5l47 33c18 -24.667 37.5 -44.667 58.5 -60s41.167 -23 60.5 -23c6 0 13.333 0.666992 22 2s18.834 4.5 30.501 9.5 s24.834 12.667 39.501 23s31.334 24.5 50.001 42.5l27 -25c-29.333 -42 -58.833 -71.5 -88.5 -88.5s-57.834 -25.5 -84.501 -25.5zM89.9961 0.000976562v685h84v-685h-84z"/>
    <glyph glyph-name="ibreve" unicode="ĭ" horiz-adv-x="275" d="M85 0v488h81v-488h-81zM132 551c-17.333 0 -33.6689 3.16699 -49.002 9.5s-29.666 14.833 -42.999 25.5s-25.833 22.667 -37.5 36s-22.5 27 -32.5 41l47 34c18 -25.333 37.333 -45.5 58 -60.5s40.667 -22.5 60 -22.5c6 0 13.5 0.5 22.5 1.5s19.333 4 31 9 s24.834 12.667 39.501 23s31.334 24.5 50.001 42.5l27 -25c-29.333 -42 -58.833 -71.5 -88.5 -88.5s-57.834 -25.5 -84.501 -25.5z"/>
    <glyph glyph-name="Iogonek" unicode="Į" horiz-adv-x="264" d="M147 0c-13.333 -17.333 -24 -36.0029 -32 -56.0029s-12 -37.333 -12 -52c0 -19.333 5.33301 -32.666 16 -39.999s25 -11 43 -11c13.333 0 26.333 1.33301 39 4l33 7l6 -32c-16 -8 -33.333 -14.333 -52 -19s-37.334 -7 -56.001 -7c-31.333 0 -55.166 6.33301 -71.499 19 s-24.5 30.334 -24.5 53.001c0 16.667 4.5 36.834 13.5 60.501s27.167 48.167 54.5 73.5h-14v685h84v-685h-27z"/>
    <glyph glyph-name="iogonek" unicode="į" horiz-adv-x="254" d="M137 0c-12.667 -17.333 -22.666 -35.335 -29.999 -54.002s-11 -35 -11 -49c0 -19.333 5.33301 -32.666 16 -39.999s25 -11 43 -11c13.333 0 26.333 1.33301 39 4l33 7l6 -32c-16 -8 -33.333 -14.333 -52 -19s-37.334 -7 -56.001 -7c-31.333 0 -55.166 6.33301 -71.499 19 s-24.5 30.334 -24.5 53.001c0 16 4.16699 35.5 12.5 58.5s25.166 46.5 50.499 70.5h-7v488h81v-488h-29zM181.001 615.998c0 -14 -5.33301 -26.333 -16 -37s-23.667 -16 -39 -16c-14 0 -26.333 5.33301 -37 16s-16 23 -16 37c0 15.333 5.33301 28.166 16 38.499 s23 15.5 37 15.5c15.333 0 28.333 -5.16699 39 -15.5s16 -23.166 16 -38.499z"/>
    <glyph glyph-name="Idotaccent" unicode="İ" horiz-adv-x="264" d="M90 0v685h84v-685h-84zM187 811c0 -15.333 -5.66699 -28.5 -17 -39.5s-24.666 -16.5 -39.999 -16.5s-28.333 5.5 -39 16.5s-16 24.167 -16 39.5s5.33301 28.666 16 39.999s23.667 17 39 17s28.666 -5.66699 39.999 -17s17 -24.666 17 -39.999z"/>
    <glyph glyph-name="dotlessi" unicode="ı" horiz-adv-x="254" d="M85 0v488h81v-488h-81z"/>
    <glyph glyph-name="IJ" unicode="Ĳ" horiz-adv-x="553" d="M90 0v685h84v-685h-84zM368 685h85l-1 -554c0 -43.333 -5 -81.333 -15 -114s-24.667 -61.334 -44 -86.001s-43.333 -46 -72 -64s-62 -33.667 -100 -47l-24 61c32 18 58.833 35.333 80.5 52s39.167 34.334 52.5 53.001s22.833 39.167 28.5 61.5s8.5 48.5 8.5 78.5z"/>
    <glyph glyph-name="ij" unicode="ĳ" horiz-adv-x="474" d="M85 0v488h81v-488h-81zM181 616c0 -14 -5.33301 -26.333 -16 -37s-23.667 -16 -39 -16c-14 0 -26.333 5.33301 -37 16s-16 23 -16 37c0 15.333 5.33301 28.166 16 38.499s23 15.5 37 15.5c15.333 0 28.333 -5.16699 39 -15.5s16 -23.166 16 -38.499zM313 488h81.002 v-182.5v-127v-82.5v-49c0 -12 -0.166992 -21 -0.5 -27s-0.5 -11.333 -0.5 -16c-1.33301 -30 -5 -56.167 -11 -78.5s-15.833 -42 -29.5 -59s-31.334 -32.167 -53.001 -45.5s-48.5 -26 -80.5 -38c-4.66699 9.33301 -8.83398 18.5 -12.501 27.5l-11.5 27.5 c24 14 43.667 26.833 59 38.5s27.333 24 36 37s14.667 27.5 18 43.5s5 34.667 5 56v475zM302.002 616c0 15.333 5.16699 28.166 15.5 38.499s22.833 15.5 37.5 15.5s27.334 -5.16699 38.001 -15.5s16 -23.166 16 -38.499c0 -14.667 -5.33301 -27.167 -16 -37.5 s-23.334 -15.5 -38.001 -15.5s-27.167 5.16699 -37.5 15.5s-15.5 22.833 -15.5 37.5z"/>
    <glyph glyph-name="Jcircumflex" unicode="Ĵ" horiz-adv-x="322" d="M124 686h85l-1 -554c0 -43.333 -5 -81.333 -15 -114s-24.667 -61.334 -44 -86.001s-43.333 -46 -72 -64s-62 -33.667 -100 -47l-24 61c32 18 58.833 35.333 80.5 52s39.167 34.334 52.5 53.001s22.833 39.167 28.5 61.5s8.5 48.5 8.5 78.5zM321 730l-155 89l-154 -90 l-23 28l150 138h55l152 -136z"/>
    <glyph glyph-name="jcircumflex" unicode="ĵ" horiz-adv-x="297" d="M105 488h81.002v-399v-43c0 -14 -0.333008 -28 -1 -42c-1.33301 -30 -5 -56.167 -11 -78.5s-15.833 -42 -29.5 -59s-31.334 -32.167 -53.001 -45.5s-48.5 -26 -80.5 -38c-4.66699 9.33301 -8.83398 18.5 -12.501 27.5l-11.5 27.5c24 14 43.667 26.833 59 38.5 s27.333 24 36 37s14.667 27.5 18 43.5s5 34.667 5 56v475zM302.002 532l-155 93l-154 -94l-23 28l150 143h55l152 -141z"/>
    <glyph glyph-name="Kcommaaccent" unicode="Ķ" horiz-adv-x="580" d="M164 0h-84v685h84v-311l299 311h96l-265 -273l275 -412h-95l-235 355l-75 -77v-278zM242 -90c0 13.333 4.99902 24.998 14.999 34.998s22.667 15 38 15c16.667 0 30.167 -5.66699 40.5 -17s15.166 -25.666 14.499 -42.999c-1.33301 -25.333 -9.16602 -48.5 -23.499 -69.5 s-34.166 -38.167 -59.499 -51.5l-20 25c20 18 30 37.667 30 59c-23.333 6.66699 -35 22.334 -35 47.001z"/>
    <glyph glyph-name="kcommaaccent" unicode="ķ" horiz-adv-x="453" d="M143 286l99 100.998l99 101h92l-94 -96l-95 -96c5.33301 -7.33301 10.833 -14.166 16.5 -20.499s11.167 -13.166 16.5 -20.499l171 -255h-90l-82 123.5l-81 123.5l-55 -55v-192h-82v710h82v-310l-4 -111zM175 -90.002c0 13.333 4.99902 24.998 14.999 34.998 s22.667 15 38 15c16.667 0 30.167 -5.66699 40.5 -17s15.166 -25.666 14.499 -42.999c-1.33301 -25.333 -9.16602 -48.5 -23.499 -69.5s-34.166 -38.167 -59.499 -51.5l-20 25c20 18 30 37.667 30 59c-23.333 6.66699 -35 22.334 -35 47.001z"/>
    <glyph glyph-name="kgreenlandic" unicode="ĸ" horiz-adv-x="453" d="M143 286l99 100.998l99 101h92l-94 -96l-95 -96c5.33301 -7.33301 10.833 -14.166 16.5 -20.499s11.167 -13.166 16.5 -20.499l171 -255h-90l-82 123.5l-81 123.5l-55 -55v-192h-82v487h82v-87l-4 -111z"/>
    <glyph glyph-name="Lacute" unicode="Ĺ" horiz-adv-x="537" d="M80 0v684h85v-621h362v-63h-447zM132 729l-38 31l123 161l60 -53z"/>
    <glyph glyph-name="lacute" unicode="ĺ" horiz-adv-x="228" d="M153 0h-80v711h81zM109 739l-38 31l123 161l60 -53z"/>
    <glyph glyph-name="Lcommaaccent" unicode="Ļ" horiz-adv-x="537" d="M80 0v684h85v-621h362v-63h-447zM234 -90c0 13.333 4.99902 24.998 14.999 34.998s22.667 15 38 15c16.667 0 30.167 -5.66699 40.5 -17s15.166 -25.666 14.499 -42.999c-1.33301 -25.333 -9.16602 -48.5 -23.499 -69.5s-34.166 -38.167 -59.499 -51.5l-20 25 c20 18 30 37.667 30 59c-23.333 6.66699 -35 22.334 -35 47.001z"/>
    <glyph glyph-name="lcommaaccent" unicode="ļ" horiz-adv-x="228" d="M153 0h-80v711h81zM59 -90c0 13.333 4.99902 24.998 14.999 34.998s22.667 15 38 15c16.667 0 30.167 -5.66699 40.5 -17s15.166 -25.666 14.499 -42.999c-1.33301 -25.333 -9.16602 -48.5 -23.499 -69.5s-34.166 -38.167 -59.499 -51.5l-20 25c20 18 30 37.667 30 59 c-23.333 6.66699 -35 22.334 -35 47.001z"/>
    <glyph glyph-name="Lcaron" unicode="Ľ" horiz-adv-x="537" d="M80 0v684h85v-621h362v-63h-447zM348 624c0 13.333 4.99902 24.998 14.999 34.998s22.667 15 38 15c16.667 0 30.167 -5.66699 40.5 -17s15.166 -25.666 14.499 -42.999c-1.33301 -25.333 -9.16602 -48.5 -23.499 -69.5s-34.166 -38.167 -59.499 -51.5l-20 25 c20 18 30 37.667 30 59c-23.333 6.66699 -35 22.334 -35 47.001z"/>
    <glyph glyph-name="lcaron" unicode="ľ" horiz-adv-x="390" d="M273 663c0 13.333 4.99902 24.998 14.999 34.998s22.667 15 38 15c16.667 0 30.167 -5.66699 40.5 -17s15.166 -25.666 14.499 -42.999c-1.33301 -25.333 -9.16602 -48.5 -23.499 -69.5s-34.166 -38.167 -59.499 -51.5l-20 25c20 18 30 37.667 30 59 c-23.333 6.66699 -35 22.334 -35 47.001zM212.999 -0.00195312h-80v711h81z"/>
    <glyph glyph-name="Ldot" unicode="Ŀ" horiz-adv-x="537" d="M80 0v684h85v-621h362v-63h-447zM457 385c0 -15.333 -5.66699 -28.5 -17 -39.5s-24.666 -16.5 -39.999 -16.5s-28.333 5.5 -39 16.5s-16 24.167 -16 39.5s5.33301 28.666 16 39.999s23.667 17 39 17s28.666 -5.66699 39.999 -17s17 -24.666 17 -39.999z"/>
    <glyph glyph-name="ldot" unicode="ŀ" horiz-adv-x="374" d="M380 350c0 -15.333 -5.66699 -28.5 -17 -39.5s-24.666 -16.5 -39.999 -16.5s-28.333 5.5 -39 16.5s-16 24.167 -16 39.5s5.33301 28.666 16 39.999s23.667 17 39 17s28.666 -5.66699 39.999 -17s17 -24.666 17 -39.999zM213 0h-80v711h81z"/>
    <glyph glyph-name="Lslash" unicode="Ł" horiz-adv-x="537" d="M80 0v238l-71 -41l-28 44l99 56v387h85v-338l125 72l27 -42l-152 -88v-225h362v-63h-447z"/>
    <glyph glyph-name="lslash" unicode="ł" horiz-adv-x="274" d="M175 398l93 53c4.66699 -7.33301 9 -14.5 13 -21.5s8.33301 -13.833 13 -20.5l-58.5 -34.5l-60.5 -34.5v-340h-80v294l-89 -52l-26 43l115 66v360h81z"/>
    <glyph glyph-name="Nacute" unicode="Ń" horiz-adv-x="682" d="M520 139l-0.000976562 545h82v-684h-83l-264 413l-90 144c-0.666992 0 -1.16699 -0.166992 -1.5 -0.5s-1.16602 -0.5 -2.49902 -0.5v-556h-81v684h85l125.5 -194l124.5 -194l100 -157h5zM337.999 715l-38 31l123 161l60 -53z"/>
    <glyph glyph-name="nacute" unicode="ń" horiz-adv-x="514" d="M374 0v321.998c0 16.667 -0.833008 31.834 -2.5 45.501s-5.33398 25.334 -11.001 35.001s-14.167 17 -25.5 22s-26.666 7.5 -45.999 7.5c-23.333 0 -48.666 -5 -75.999 -15s-51.666 -21 -72.999 -33v-384h-82v488h80l1 -42l3 -2c27.333 17.333 56.666 30.833 87.999 40.5 s58.666 14.5 81.999 14.5c33.333 0 59.5 -4.83301 78.5 -14.5s33.333 -22 43 -37s15.667 -31.833 18 -50.5s3.5 -37 3.5 -55v-342h-81zM220 534.998l-36 31l123 162l58 -54z"/>
    <glyph glyph-name="Ncommaaccent" unicode="Ņ" horiz-adv-x="682" d="M520 139l-0.000976562 545h82v-684h-83l-264 413l-90 144c-0.666992 0 -1.16699 -0.166992 -1.5 -0.5s-1.16602 -0.5 -2.49902 -0.5v-556h-81v684h85l125.5 -194l124.5 -194l100 -157h5zM277.999 -90c0 13.333 4.99902 24.998 14.999 34.998s22.667 15 38 15 c16.667 0 30.167 -5.66699 40.5 -17s15.166 -25.666 14.499 -42.999c-1.33301 -25.333 -9.16602 -48.5 -23.499 -69.5s-34.166 -38.167 -59.499 -51.5l-20 25c20 18 30 37.667 30 59c-23.333 6.66699 -35 22.334 -35 47.001z"/>
    <glyph glyph-name="ncommaaccent" unicode="ņ" horiz-adv-x="514" d="M374 0v321.998c0 16.667 -0.833008 31.834 -2.5 45.501s-5.33398 25.334 -11.001 35.001s-14.167 17 -25.5 22s-26.666 7.5 -45.999 7.5c-23.333 0 -48.666 -5 -75.999 -15s-51.666 -21 -72.999 -33v-384h-82v488h80l1 -42l3 -2c27.333 17.333 56.666 30.833 87.999 40.5 s58.666 14.5 81.999 14.5c33.333 0 59.5 -4.83301 78.5 -14.5s33.333 -22 43 -37s15.667 -31.833 18 -50.5s3.5 -37 3.5 -55v-342h-81zM210 -90.002c0 13.333 4.99902 24.998 14.999 34.998s22.667 15 38 15c16.667 0 30.167 -5.66699 40.5 -17 s15.166 -25.666 14.499 -42.999c-1.33301 -25.333 -9.16602 -48.5 -23.499 -69.5s-34.166 -38.167 -59.499 -51.5l-20 25c20 18 30 37.667 30 59c-23.333 6.66699 -35 22.334 -35 47.001z"/>
    <glyph glyph-name="Ncaron" unicode="Ň" horiz-adv-x="682" d="M520 139l-0.000976562 545h82v-684h-83l-264 413l-90 144c-0.666992 0 -1.16699 -0.166992 -1.5 -0.5s-1.16602 -0.5 -2.49902 -0.5v-556h-81v684h85l125.5 -194l124.5 -194l100 -157h5zM535.999 863l-152 -135h-54l-151 137l23 27l155 -91l155 91z"/>
    <glyph glyph-name="ncaron" unicode="ň" horiz-adv-x="514" d="M374 0v321.998c0 16.667 -0.833008 31.834 -2.5 45.501s-5.33398 25.334 -11.001 35.001s-14.167 17 -25.5 22s-26.666 7.5 -45.999 7.5c-23.333 0 -48.666 -5 -75.999 -15s-51.666 -21 -72.999 -33v-384h-82v488h80l1 -42l3 -2c27.333 17.333 56.666 30.833 87.999 40.5 s58.666 14.5 81.999 14.5c33.333 0 59.5 -4.83301 78.5 -14.5s33.333 -22 43 -37s15.667 -31.833 18 -50.5s3.5 -37 3.5 -55v-342h-81zM428 685.998l-152 -141h-54l-151 143l23 28l155 -97l155 96z"/>
    <glyph glyph-name="napostrophe" unicode="ŉ" horiz-adv-x="595" d="M455 0v321.998c0 16.667 -0.833008 31.834 -2.5 45.501s-5.33398 25.334 -11.001 35.001s-14.167 17 -25.5 22s-26.666 7.5 -45.999 7.5c-23.333 0 -48.666 -5 -75.999 -15s-51.666 -21 -72.999 -33v-384h-82v488h80l1 -42l3 -2c27.333 17.333 56.666 30.833 87.999 40.5 s58.666 14.5 81.999 14.5c33.333 0 59.5 -4.83301 78.5 -14.5s33.333 -22 43 -37s15.667 -31.833 18 -50.5s3.5 -37 3.5 -55v-342h-81zM1 610.998c0 13.333 4.99902 24.998 14.999 34.998s22.667 15 38 15c16.667 0 30.167 -5.66699 40.5 -17s15.166 -25.666 14.499 -42.999 c-1.33301 -25.333 -9.16602 -48.5 -23.499 -69.5s-34.166 -38.167 -59.499 -51.5l-20 25c20 18 30 37.667 30 59c-23.333 6.66699 -35 22.334 -35 47.001z"/>
    <glyph glyph-name="Eng" unicode="Ŋ" horiz-adv-x="682" d="M520 139l-0.000976562 545h82l-1 -729c0 -47.333 -14.333 -83 -43 -107s-67 -36 -115 -36c-13.333 0 -28.333 1 -45 3s-32.334 4.66699 -47.001 8c2 10 3.66699 20 5 30s3 20 5 30c12 -1.33301 24.333 -2.5 37 -3.5s24.334 -1.5 35.001 -1.5 c24.667 0 46.167 5.83301 64.5 17.5s27.5 31.167 27.5 58.5v36l-66.5 104l-69 108.5l-69 108l-65.5 102.5l-90 144c-0.666992 0 -1.16699 -0.166992 -1.5 -0.5s-1.16602 -0.5 -2.49902 -0.5v-556h-81v684h85l125.5 -194l124.5 -194l100 -157h5z"/>
    <glyph glyph-name="eng" unicode="ŋ" horiz-adv-x="514" d="M310 499c33.333 0 59.502 -4.83203 78.502 -14.499s33.333 -22 43 -37s15.834 -31.833 18.501 -50.5s4 -37 4 -55v-256v-48c0 -16 -0.333008 -32 -1 -48c-1.33301 -48.667 -15.833 -85.167 -43.5 -109.5s-66.5 -36.5 -116.5 -36.5c-13.333 0 -28.333 0.833008 -45 2.5 s-32.334 4.16699 -47.001 7.5l9 57c11.333 -1.33301 22.666 -2.5 33.999 -3.5s21.666 -1.5 30.999 -1.5c30 0 53.833 6 71.5 18s26.5 34.333 26.5 67v331c0 17.333 -1 32.833 -3 46.5s-6 25.167 -12 34.5s-14.667 16.5 -26 21.5s-26 7.5 -44 7.5 c-23.333 0 -48.666 -5 -75.999 -15s-51.333 -21 -72 -33v-384h-82v488h81v-41l3 -2c28 17.333 57.167 30.666 87.5 39.999s57.166 14 80.499 14z"/>
    <glyph glyph-name="Omacron" unicode="Ō" horiz-adv-x="698" d="M638 340c0 -49.333 -5.99902 -95.3291 -17.999 -137.996s-29.833 -79.5 -53.5 -110.5s-53.334 -55.333 -89.001 -73s-76.834 -26.5 -123.501 -26.5c-53.333 0 -98.5 8.16699 -135.5 24.5s-67.333 39.5 -91 69.5s-40.834 66.167 -51.501 108.5s-16 89.833 -16 142.5 c0 47.333 5.16699 92.666 15.5 135.999s27 81.5 50 114.5s53.333 59.167 91 78.5s83.5 29 137.5 29c54.667 0 100.334 -9.83301 137.001 -29.5s65.834 -45.834 87.501 -78.501s37 -70.334 46 -113.001s13.5 -87.334 13.5 -134.001zM549.001 337.004 c0 34 -2.50098 68.332 -7.50098 102.999s-14.5 66.167 -28.5 94.5s-33.667 51.5 -59 69.5s-58.666 27 -99.999 27s-75.333 -8.33301 -102 -25s-47.667 -38.834 -63 -66.501s-26 -59.167 -32 -94.5s-9 -71.666 -9 -108.999c0 -91.333 16 -160.666 48 -207.999 s84.667 -71 158 -71c33.333 0 62.333 7.33301 87 22s45 34.667 61 60s27.833 55 35.5 89s11.5 70.333 11.5 109zM186 811.003h326v-64h-326v64z"/>
    <glyph glyph-name="omacron" unicode="ō" horiz-adv-x="528" d="M480 243c0 -31.333 -3.49805 -62 -10.498 -92s-19 -56.833 -36 -80.5s-39.833 -42.667 -68.5 -57s-64.334 -21.5 -107.001 -21.5c-40 0 -73.5 6.83301 -100.5 20.5s-48.5 31.834 -64.5 54.501s-27.5 49 -34.5 79s-10.5 61.667 -10.5 95c0 32.667 4 64.334 12 95.001 s20.667 58 38 82s40 43.333 68 58s62 22 102 22c40.667 0 74.667 -7.33301 102 -22s49.166 -33.834 65.499 -57.501s27.833 -50.834 34.5 -81.501s10 -62 10 -94zM395.002 241c0 22 -1.5 44.332 -4.5 66.999s-9.16699 43.5 -18.5 62.5s-22.333 34.5 -39 46.5 s-38.334 18 -65.001 18c-27.333 0 -49.666 -5.83301 -66.999 -17.5s-31 -26.667 -41 -45s-17 -39.166 -21 -62.499s-6 -46.333 -6 -69c0 -24 1.66699 -47.333 5 -70s9.83301 -42.5 19.5 -59.5s23.334 -30.667 41.001 -41s40.834 -15.5 69.501 -15.5 c26.667 0 48.167 5.5 64.5 16.5s29.166 25.5 38.499 43.5s15.666 38 18.999 60s5 44 5 66zM102.002 655.999h329v-64h-329v64z"/>
    <glyph glyph-name="Obreve" unicode="Ŏ" horiz-adv-x="698" d="M638 340c0 -49.333 -5.99902 -95.3291 -17.999 -137.996s-29.833 -79.5 -53.5 -110.5s-53.334 -55.333 -89.001 -73s-76.834 -26.5 -123.501 -26.5c-53.333 0 -98.5 8.16699 -135.5 24.5s-67.333 39.5 -91 69.5s-40.834 66.167 -51.501 108.5s-16 89.833 -16 142.5 c0 47.333 5.16699 92.666 15.5 135.999s27 81.5 50 114.5s53.333 59.167 91 78.5s83.5 29 137.5 29c54.667 0 100.334 -9.83301 137.001 -29.5s65.834 -45.834 87.501 -78.501s37 -70.334 46 -113.001s13.5 -87.334 13.5 -134.001zM549.001 337.004 c0 34 -2.50098 68.332 -7.50098 102.999s-14.5 66.167 -28.5 94.5s-33.667 51.5 -59 69.5s-58.666 27 -99.999 27s-75.333 -8.33301 -102 -25s-47.667 -38.834 -63 -66.501s-26 -59.167 -32 -94.5s-9 -71.666 -9 -108.999c0 -91.333 16 -160.666 48 -207.999 s84.667 -71 158 -71c33.333 0 62.333 7.33301 87 22s45 34.667 61 60s27.833 55 35.5 89s11.5 70.333 11.5 109zM348 730.003c-17.333 0 -33.6699 3.16797 -49.0029 9.50098s-29.666 14.666 -42.999 24.999s-25.833 22.333 -37.5 36s-22.5 27.5 -32.5 41.5l47 33 c18 -24.667 37.5 -44.667 58.5 -60s41.167 -23 60.5 -23c6 0 13.333 0.666992 22 2s18.834 4.5 30.501 9.5s24.834 12.667 39.501 23s31.334 24.5 50.001 42.5l27 -25c-29.333 -42 -58.833 -71.5 -88.5 -88.5s-57.834 -25.5 -84.501 -25.5z"/>
    <glyph glyph-name="obreve" unicode="ŏ" horiz-adv-x="528" d="M480 243c0 -31.333 -3.49805 -62 -10.498 -92s-19 -56.833 -36 -80.5s-39.833 -42.667 -68.5 -57s-64.334 -21.5 -107.001 -21.5c-40 0 -73.5 6.83301 -100.5 20.5s-48.5 31.834 -64.5 54.501s-27.5 49 -34.5 79s-10.5 61.667 -10.5 95c0 32.667 4 64.334 12 95.001 s20.667 58 38 82s40 43.333 68 58s62 22 102 22c40.667 0 74.667 -7.33301 102 -22s49.166 -33.834 65.499 -57.501s27.833 -50.834 34.5 -81.501s10 -62 10 -94zM395.002 241c0 22 -1.5 44.332 -4.5 66.999s-9.16699 43.5 -18.5 62.5s-22.333 34.5 -39 46.5 s-38.334 18 -65.001 18c-27.333 0 -49.666 -5.83301 -66.999 -17.5s-31 -26.667 -41 -45s-17 -39.166 -21 -62.499s-6 -46.333 -6 -69c0 -24 1.66699 -47.333 5 -70s9.83301 -42.5 19.5 -59.5s23.334 -30.667 41.001 -41s40.834 -15.5 69.501 -15.5 c26.667 0 48.167 5.5 64.5 16.5s29.166 25.5 38.499 43.5s15.666 38 18.999 60s5 44 5 66zM265.002 550.999c-17.333 0 -33.6689 3.16699 -49.002 9.5s-29.666 14.833 -42.999 25.5s-25.833 22.667 -37.5 36s-22.5 27 -32.5 41l47 34c18 -25.333 37.333 -45.5 58 -60.5 s40.667 -22.5 60 -22.5c6 0 13.5 0.5 22.5 1.5s19.333 4 31 9s24.834 12.667 39.501 23s31.334 24.5 50.001 42.5l27 -25c-29.333 -42 -58.833 -71.5 -88.5 -88.5s-57.834 -25.5 -84.501 -25.5z"/>
    <glyph glyph-name="Ohungarumlaut" unicode="Ő" horiz-adv-x="698" d="M638 340c0 -49.333 -5.99902 -95.3291 -17.999 -137.996s-29.833 -79.5 -53.5 -110.5s-53.334 -55.333 -89.001 -73s-76.834 -26.5 -123.501 -26.5c-53.333 0 -98.5 8.16699 -135.5 24.5s-67.333 39.5 -91 69.5s-40.834 66.167 -51.501 108.5s-16 89.833 -16 142.5 c0 47.333 5.16699 92.666 15.5 135.999s27 81.5 50 114.5s53.333 59.167 91 78.5s83.5 29 137.5 29c54.667 0 100.334 -9.83301 137.001 -29.5s65.834 -45.834 87.501 -78.501s37 -70.334 46 -113.001s13.5 -87.334 13.5 -134.001zM549.001 337.004 c0 34 -2.50098 68.332 -7.50098 102.999s-14.5 66.167 -28.5 94.5s-33.667 51.5 -59 69.5s-58.666 27 -99.999 27s-75.333 -8.33301 -102 -25s-47.667 -38.834 -63 -66.501s-26 -59.167 -32 -94.5s-9 -71.666 -9 -108.999c0 -91.333 16 -160.666 48 -207.999 s84.667 -71 158 -71c33.333 0 62.333 7.33301 87 22s45 34.667 61 60s27.833 55 35.5 89s11.5 70.333 11.5 109zM415 731.003l-40 29l117 166l64 -49zM292 731.003l-41 29l117 166l64 -49z"/>
    <glyph glyph-name="ohungarumlaut" unicode="ő" horiz-adv-x="528" d="M480 243c0 -31.333 -3.49805 -62 -10.498 -92s-19 -56.833 -36 -80.5s-39.833 -42.667 -68.5 -57s-64.334 -21.5 -107.001 -21.5c-40 0 -73.5 6.83301 -100.5 20.5s-48.5 31.834 -64.5 54.501s-27.5 49 -34.5 79s-10.5 61.667 -10.5 95c0 32.667 4 64.334 12 95.001 s20.667 58 38 82s40 43.333 68 58s62 22 102 22c40.667 0 74.667 -7.33301 102 -22s49.166 -33.834 65.499 -57.501s27.833 -50.834 34.5 -81.501s10 -62 10 -94zM395.002 241c0 22 -1.5 44.332 -4.5 66.999s-9.16699 43.5 -18.5 62.5s-22.333 34.5 -39 46.5 s-38.334 18 -65.001 18c-27.333 0 -49.666 -5.83301 -66.999 -17.5s-31 -26.667 -41 -45s-17 -39.166 -21 -62.499s-6 -46.333 -6 -69c0 -24 1.66699 -47.333 5 -70s9.83301 -42.5 19.5 -59.5s23.334 -30.667 41.001 -41s40.834 -15.5 69.501 -15.5 c26.667 0 48.167 5.5 64.5 16.5s29.166 25.5 38.499 43.5s15.666 38 18.999 60s5 44 5 66zM185.002 533.999l-36 28l117 167l60 -49zM312.002 533.999l-36 28l117 167l60 -49z"/>
    <glyph glyph-name="OE" unicode="Œ" horiz-adv-x="810" d="M342 695c34 0 64.6689 -3.99902 92.002 -11.999h330v-62h-312v-231h261v-61h-261v-267h328v-62h-367c-11.333 -2 -22.833 -3.66699 -34.5 -5s-23.834 -2 -36.501 -2c-53.333 0 -98.5 8 -135.5 24s-67.333 39 -91 69s-40.834 66.167 -51.501 108.5s-16 89.833 -16 142.5 c0 47.333 5.16699 92.666 15.5 135.999s27 81.5 50 114.5s53.333 59.167 91 78.5s83.5 29 137.5 29zM342.002 56.001l11.9971 -0.000976562c4 0 8 0.333008 12 1v572c-3.33301 0 -7.16602 0.166992 -11.499 0.5s-8.83301 0.5 -13.5 0.5 c-41.333 0 -75.166 -8.33301 -101.499 -25s-47.166 -38.834 -62.499 -66.501s-26 -59.167 -32 -94.5s-9 -71.666 -9 -108.999c0 -91.333 16 -160.666 48 -207.999s84.667 -71 158 -71z"/>
    <glyph glyph-name="oe" unicode="œ" horiz-adv-x="832" d="M784 40c-29.333 -15.333 -58.498 -26.6699 -87.498 -34.0029s-59.833 -11 -92.5 -11c-47.333 0 -85 8 -113 24s-49.333 38 -64 66c-16 -27.333 -38.167 -49.666 -66.5 -66.999s-65.5 -26 -111.5 -26c-40 0 -73.333 6.83301 -100 20.5s-48.167 31.834 -64.5 54.501 s-28 49 -35 79s-10.5 61.667 -10.5 95c0 32.667 4 64.334 12 95.001s20.667 58 38 82s39.833 43.333 67.5 58s61.5 22 101.5 22c44.667 0 80.5 -9.16699 107.5 -27.5s48.167 -41.833 63.5 -70.5c7.33301 13.333 16.166 26 26.499 38s22.5 22.5 36.5 31.5 s30.167 16.167 48.5 21.5s39.166 8 62.499 8c31.333 0 58 -4.33301 80 -13s40.167 -20 54.5 -34s25.5 -29.5 33.5 -46.5s14 -34.167 18 -51.5s6.33301 -33.666 7 -48.999s1 -28 1 -38v-38h-325c0 -22.667 2 -44.334 6 -65.001s11.167 -39 21.5 -55s24.5 -28.667 42.5 -38 s40.667 -14 68 -14c28.667 0 54.5 2.83301 77.5 8.5s48.5 14.5 76.5 26.5zM386.002 240.996c0 22 -1.66797 44.332 -5.00098 66.999s-9.5 43.5 -18.5 62.5s-22 34.5 -39 46.5s-38.833 18 -65.5 18c-27.333 0 -49.666 -5.83301 -66.999 -17.5s-31 -26.667 -41 -45 s-16.833 -39.166 -20.5 -62.499s-5.5 -46.333 -5.5 -69c0 -24 1.66699 -47.333 5 -70s9.83301 -42.5 19.5 -59.5s23.167 -30.667 40.5 -41s40.333 -15.5 69 -15.5c26.667 0 48.334 5.5 65.001 16.5s29.667 25.5 39 43.5s15.666 38 18.999 60s5 44 5 66zM720.001 277.995 c0 24 -2 45.668 -6 65.001s-10.5 36 -19.5 50s-21 24.833 -36 32.5s-33.5 11.5 -55.5 11.5c-23.333 0 -43 -4.33301 -59 -13s-29 -20.334 -39 -35.001s-17.5 -31.667 -22.5 -51s-8.16699 -39.333 -9.5 -60h247z"/>
    <glyph glyph-name="Racute" unicode="Ŕ" horiz-adv-x="587" d="M519 496c0 -40.667 -10.168 -77.498 -30.501 -110.498s-50.5 -55.167 -90.5 -66.5c26.667 -8 46 -23.167 58 -45.5s22 -47.5 30 -75.5l56 -198h-85l-54 188c-6.66699 22 -14.167 40.167 -22.5 54.5s-17.666 25.666 -27.999 33.999s-22.166 14 -35.499 17 s-28.333 4.5 -45 4.5h-108v-298h-84v685h235c67.333 0 118.166 -17.333 152.499 -52s51.5 -80.334 51.5 -137.001zM301.999 363.002c13.333 0 27.667 1.66504 43 4.99805s29.5 9.83301 42.5 19.5s23.667 22.834 32 39.501s12.5 38.334 12.5 65.001 c0 22.667 -3.33301 42.167 -10 58.5s-16 29.5 -28 39.5s-26 17.333 -42 22s-33.333 7 -52 7h-136v-256h138zM265 729l-38 31l123 161l60 -53z"/>
    <glyph glyph-name="racute" unicode="ŕ" horiz-adv-x="351" d="M152 419c12 10.667 25.3311 20.834 39.998 30.501s29.667 18.167 45 25.5s30.333 13.333 45 18s28.334 7 41.001 7c7.33301 0 13.333 -1.66699 18 -5s7 -10 7 -20c0 -4 -0.833008 -9.33301 -2.5 -16s-3.66699 -13.5 -6 -20.5s-5.16602 -13.833 -8.49902 -20.5 s-7 -12.334 -11 -17.001l-84.5 -10.5l-84.5 -10.5v-380h-82v488h80l-3 -65zM141.998 535l-36 31l123 162l58 -54z"/>
    <glyph glyph-name="Rcommaaccent" unicode="Ŗ" horiz-adv-x="587" d="M519 496c0 -40.667 -10.168 -77.498 -30.501 -110.498s-50.5 -55.167 -90.5 -66.5c26.667 -8 46 -23.167 58 -45.5s22 -47.5 30 -75.5l56 -198h-85l-54 188c-6.66699 22 -14.167 40.167 -22.5 54.5s-17.666 25.666 -27.999 33.999s-22.166 14 -35.499 17 s-28.333 4.5 -45 4.5h-108v-298h-84v685h235c67.333 0 118.166 -17.333 152.499 -52s51.5 -80.334 51.5 -137.001zM301.999 363.002c13.333 0 27.667 1.66504 43 4.99805s29.5 9.83301 42.5 19.5s23.667 22.834 32 39.501s12.5 38.334 12.5 65.001 c0 22.667 -3.33301 42.167 -10 58.5s-16 29.5 -28 39.5s-26 17.333 -42 22s-33.333 7 -52 7h-136v-256h138zM241 -90c0 13.333 4.99902 24.998 14.999 34.998s22.667 15 38 15c16.667 0 30.167 -5.66699 40.5 -17s15.166 -25.666 14.499 -42.999 c-1.33301 -25.333 -9.16602 -48.5 -23.499 -69.5s-34.166 -38.167 -59.499 -51.5l-20 25c20 18 30 37.667 30 59c-23.333 6.66699 -35 22.334 -35 47.001z"/>
    <glyph glyph-name="rcommaaccent" unicode="ŗ" horiz-adv-x="351" d="M152 419c12 10.667 25.3311 20.834 39.998 30.501s29.667 18.167 45 25.5s30.333 13.333 45 18s28.334 7 41.001 7c7.33301 0 13.333 -1.66699 18 -5s7 -10 7 -20c0 -4 -0.833008 -9.33301 -2.5 -16s-3.66699 -13.5 -6 -20.5s-5.16602 -13.833 -8.49902 -20.5 s-7 -12.334 -11 -17.001l-84.5 -10.5l-84.5 -10.5v-380h-82v488h80l-3 -65zM57.998 -90c0 13.333 4.99902 24.998 14.999 34.998s22.667 15 38 15c16.667 0 30.167 -5.66699 40.5 -17s15.166 -25.666 14.499 -42.999c-1.33301 -25.333 -9.16602 -48.5 -23.499 -69.5 s-34.166 -38.167 -59.499 -51.5l-20 25c20 18 30 37.667 30 59c-23.333 6.66699 -35 22.334 -35 47.001z"/>
    <glyph glyph-name="Rcaron" unicode="Ř" horiz-adv-x="587" d="M519 496c0 -40.667 -10.168 -77.498 -30.501 -110.498s-50.5 -55.167 -90.5 -66.5c26.667 -8 46 -23.167 58 -45.5s22 -47.5 30 -75.5l56 -198h-85l-54 188c-6.66699 22 -14.167 40.167 -22.5 54.5s-17.666 25.666 -27.999 33.999s-22.166 14 -35.499 17 s-28.333 4.5 -45 4.5h-108v-298h-84v685h235c67.333 0 118.166 -17.333 152.499 -52s51.5 -80.334 51.5 -137.001zM301.999 363.002c13.333 0 27.667 1.66504 43 4.99805s29.5 9.83301 42.5 19.5s23.667 22.834 32 39.501s12.5 38.334 12.5 65.001 c0 22.667 -3.33301 42.167 -10 58.5s-16 29.5 -28 39.5s-26 17.333 -42 22s-33.333 7 -52 7h-136v-256h138zM446 863l-152 -135h-54l-151 137l23 27l155 -91l155 91z"/>
    <glyph glyph-name="rcaron" unicode="ř" horiz-adv-x="351" d="M152 419c12 10.667 25.3311 20.834 39.998 30.501s29.667 18.167 45 25.5s30.333 13.333 45 18s28.334 7 41.001 7c7.33301 0 13.333 -1.66699 18 -5s7 -10 7 -20c0 -4 -0.833008 -9.33301 -2.5 -16s-3.66699 -13.5 -6 -20.5s-5.16602 -13.833 -8.49902 -20.5 s-7 -12.334 -11 -17.001l-84.5 -10.5l-84.5 -10.5v-380h-82v488h80l-3 -65zM341.998 686l-152 -141h-54l-151 143l23 28l155 -97l155 96z"/>
    <glyph glyph-name="Sacute" unicode="Ś" horiz-adv-x="573" d="M290 696c28.667 0 59.8311 -2.83398 93.498 -8.50098s65.167 -17.167 94.5 -34.5l-27 -60c-32.667 14.667 -62.667 24.167 -90 28.5s-52.333 6.5 -75 6.5c-40 0 -72.667 -10.167 -98 -30.5s-38 -51.5 -38 -93.5c0 -18.667 4.33301 -34.334 13 -47.001 s20.334 -23.167 35.001 -31.5s31 -15.333 49 -21s36.667 -10.834 56 -15.501c24.667 -6 50 -12.833 76 -20.5s49.667 -18.667 71 -33s38.833 -33.166 52.5 -56.499s20.5 -53.666 20.5 -90.999c0 -34 -6.16699 -63.333 -18.5 -88s-29.666 -45 -51.999 -61 s-49 -27.833 -80 -35.5s-64.833 -11.5 -101.5 -11.5c-36 0 -73.333 4 -112 12s-75 21.667 -109 41l29 62c40.667 -19.333 76.667 -32 108 -38s59.666 -9 84.999 -9c52 0 92.5 9.16699 121.5 27.5s43.5 51.833 43.5 100.5c0 20.667 -3.66699 37.834 -11 51.501 s-17.666 25 -30.999 34s-29 16.667 -47 23s-37.333 12.166 -58 17.499c-30 8 -58.667 16.333 -86 25s-51.5 19.667 -72.5 33s-37.667 30.333 -50 51s-18.5 47 -18.5 79c0 30.667 5.66699 58 17 82s27 44.333 47 61s43.833 29.334 71.5 38.001s58.167 13 91.5 13z M272.997 726.999l-38 31l123 161l60 -53z"/>
    <glyph glyph-name="sacute" unicode="ś" horiz-adv-x="446" d="M65 88c31.333 -14 59.998 -22.998 85.998 -26.998s47.667 -6 65 -6c15.333 0 29.833 1.33301 43.5 4s25.5 7 35.5 13s17.833 14 23.5 24s8.5 22.333 8.5 37c0 12.667 -2.83301 23.5 -8.5 32.5s-13.334 16.667 -23.001 23s-20.834 11.833 -33.501 16.5 s-26 9.33398 -40 14.001l-61.5 22c-19.667 7.33301 -37.167 16.166 -52.5 26.499s-27.666 22.833 -36.999 37.5s-14 33.334 -14 56.001c0 23.333 4.66699 43.666 14 60.999s22 31.666 38 42.999s34.667 19.666 56 24.999s44.333 8 69 8c10 0 21.333 -0.666992 34 -2 s25.5 -3.33301 38.5 -6s25.833 -6.16699 38.5 -10.5s24.334 -9.83301 35.001 -16.5l-25 -57c-25.333 10 -47.666 16.833 -66.999 20.5s-37.666 5.5 -54.999 5.5c-12.667 0 -25 -1.16699 -37 -3.5s-22.5 -6.33301 -31.5 -12s-16.333 -13.167 -22 -22.5 s-8.5 -20.666 -8.5 -33.999c0 -10.667 3.5 -19.834 10.5 -27.501s15.833 -14.5 26.5 -20.5s22 -11 34 -15l33 -11l61 -20.5c20 -7 38 -16 54 -27s28.833 -24.667 38.5 -41s14.5 -37.5 14.5 -63.5c0 -24.667 -4.83301 -45.834 -14.5 -63.501s-23 -32.167 -40 -43.5 s-37.333 -19.666 -61 -24.999s-49.5 -8 -77.5 -8c-14.667 0 -29.834 0.833008 -45.501 2.5s-31.167 4 -46.5 7s-30.166 7 -44.499 12s-26.833 10.5 -37.5 16.5zM205.998 535.002l-36 31l123 162l58 -54z"/>
    <glyph glyph-name="Scircumflex" unicode="Ŝ" horiz-adv-x="573" d="M290 696c28.667 0 59.8311 -2.83398 93.498 -8.50098s65.167 -17.167 94.5 -34.5l-27 -60c-32.667 14.667 -62.667 24.167 -90 28.5s-52.333 6.5 -75 6.5c-40 0 -72.667 -10.167 -98 -30.5s-38 -51.5 -38 -93.5c0 -18.667 4.33301 -34.334 13 -47.001 s20.334 -23.167 35.001 -31.5s31 -15.333 49 -21s36.667 -10.834 56 -15.501c24.667 -6 50 -12.833 76 -20.5s49.667 -18.667 71 -33s38.833 -33.166 52.5 -56.499s20.5 -53.666 20.5 -90.999c0 -34 -6.16699 -63.333 -18.5 -88s-29.666 -45 -51.999 -61 s-49 -27.833 -80 -35.5s-64.833 -11.5 -101.5 -11.5c-36 0 -73.333 4 -112 12s-75 21.667 -109 41l29 62c40.667 -19.333 76.667 -32 108 -38s59.666 -9 84.999 -9c52 0 92.5 9.16699 121.5 27.5s43.5 51.833 43.5 100.5c0 20.667 -3.66699 37.834 -11 51.501 s-17.666 25 -30.999 34s-29 16.667 -47 23s-37.333 12.166 -58 17.499c-30 8 -58.667 16.333 -86 25s-51.5 19.667 -72.5 33s-37.667 30.333 -50 51s-18.5 47 -18.5 79c0 30.667 5.66699 58 17 82s27 44.333 47 61s43.833 29.334 71.5 38.001s58.167 13 91.5 13z M446.997 729.999l-155 89l-154 -90l-23 28l150 138h55l152 -136z"/>
    <glyph glyph-name="scircumflex" unicode="ŝ" horiz-adv-x="446" d="M65 88c31.333 -14 59.998 -22.998 85.998 -26.998s47.667 -6 65 -6c15.333 0 29.833 1.33301 43.5 4s25.5 7 35.5 13s17.833 14 23.5 24s8.5 22.333 8.5 37c0 12.667 -2.83301 23.5 -8.5 32.5s-13.334 16.667 -23.001 23s-20.834 11.833 -33.501 16.5 s-26 9.33398 -40 14.001l-61.5 22c-19.667 7.33301 -37.167 16.166 -52.5 26.499s-27.666 22.833 -36.999 37.5s-14 33.334 -14 56.001c0 23.333 4.66699 43.666 14 60.999s22 31.666 38 42.999s34.667 19.666 56 24.999s44.333 8 69 8c10 0 21.333 -0.666992 34 -2 s25.5 -3.33301 38.5 -6s25.833 -6.16699 38.5 -10.5s24.334 -9.83301 35.001 -16.5l-25 -57c-25.333 10 -47.666 16.833 -66.999 20.5s-37.666 5.5 -54.999 5.5c-12.667 0 -25 -1.16699 -37 -3.5s-22.5 -6.33301 -31.5 -12s-16.333 -13.167 -22 -22.5 s-8.5 -20.666 -8.5 -33.999c0 -10.667 3.5 -19.834 10.5 -27.501s15.833 -14.5 26.5 -20.5s22 -11 34 -15l33 -11l61 -20.5c20 -7 38 -16 54 -27s28.833 -24.667 38.5 -41s14.5 -37.5 14.5 -63.5c0 -24.667 -4.83301 -45.834 -14.5 -63.501s-23 -32.167 -40 -43.5 s-37.333 -19.666 -61 -24.999s-49.5 -8 -77.5 -8c-14.667 0 -29.834 0.833008 -45.501 2.5s-31.167 4 -46.5 7s-30.166 7 -44.499 12s-26.833 10.5 -37.5 16.5zM383.998 532.002l-155 93l-154 -94l-23 28l150 143h55l152 -141z"/>
    <glyph glyph-name="Scedilla" unicode="Ş" horiz-adv-x="573" d="M290 696c28.667 0 59.833 -2.83496 93.5 -8.50195s65.167 -17.167 94.5 -34.5l-27 -60c-32.667 14.667 -62.667 24.167 -90 28.5s-52.333 6.5 -75 6.5c-40 0 -72.667 -10.167 -98 -30.5s-38 -51.5 -38 -93.5c0 -18.667 4.33301 -34.334 13 -47.001 s20.334 -23.167 35.001 -31.5s31 -15.333 49 -21s36.667 -10.834 56 -15.501c24.667 -6 50 -12.833 76 -20.5s49.667 -18.667 71 -33s38.833 -33.166 52.5 -56.499s20.5 -53.666 20.5 -90.999c0 -31.333 -5.33301 -58.833 -16 -82.5s-25.667 -43.5 -45 -59.5 s-42.333 -28.333 -69 -37s-56.334 -14 -89.001 -16l-21.5 -28l-20.5 -28c32.667 -1.33301 59 -8.5 79 -21.5s30 -32.167 30 -57.5c0 -28 -14.5 -52 -43.5 -72s-74.167 -30 -135.5 -30v36c36 3.33301 64.667 9.66602 86 18.999s32 22.666 32 39.999 c0 8.66699 -3 15.834 -9 21.501s-13.833 9.83398 -23.5 12.501s-20.5 4.5 -32.5 5.5s-24 1.5 -36 1.5l-13 19l31 40.5l31 40.5c-34 1.33301 -69.167 5.83301 -105.5 13.5s-70.5 20.834 -102.5 39.501l29 62c40.667 -19.333 76.667 -32 108 -38s59.666 -9 84.999 -9 c52 0 92.5 9.16699 121.5 27.5s43.5 51.833 43.5 100.5c0 20.667 -3.66699 37.834 -11 51.501s-17.666 25 -30.999 34s-29 16.667 -47 23s-37.333 12.166 -58 17.499c-30 8 -58.667 16.333 -86 25s-51.5 19.667 -72.5 33s-37.667 30.333 -50 51s-18.5 47 -18.5 79 c0 30.667 5.66699 58 17 82s27 44.333 47 61s43.833 29.334 71.5 38.001s58.167 13 91.5 13z"/>
    <glyph glyph-name="scedilla" unicode="ş" horiz-adv-x="446" d="M65 88c31.333 -14 59.998 -22.9971 85.998 -26.9971s47.667 -6 65 -6c15.333 0 29.833 1.33301 43.5 4s25.5 7 35.5 13s17.833 14 23.5 24s8.5 22.333 8.5 37c0 12.667 -2.83301 23.5 -8.5 32.5s-13.334 16.667 -23.001 23s-20.834 11.833 -33.501 16.5 s-26 9.33398 -40 14.001l-61.5 22c-19.667 7.33301 -37.167 16.166 -52.5 26.499s-27.666 22.833 -36.999 37.5s-14 33.334 -14 56.001c0 23.333 4.66699 43.666 14 60.999s22 31.666 38 42.999s34.667 19.666 56 24.999s44.333 8 69 8c10 0 21.333 -0.666992 34 -2 s25.5 -3.33301 38.5 -6s25.833 -6.16699 38.5 -10.5s24.334 -9.83301 35.001 -16.5l-25 -57c-25.333 10 -47.666 16.833 -66.999 20.5s-37.666 5.5 -54.999 5.5c-12.667 0 -25 -1.16699 -37 -3.5s-22.5 -6.33301 -31.5 -12s-16.333 -13.167 -22 -22.5 s-8.5 -20.666 -8.5 -33.999c0 -10.667 3.5 -19.834 10.5 -27.501s15.833 -14.5 26.5 -20.5s22 -11 34 -15l33 -11l61 -20.5c20 -7 38 -16 54 -27s28.833 -24.667 38.5 -41s14.5 -37.5 14.5 -63.5c0 -44.667 -15.167 -78.167 -45.5 -100.5s-69.5 -35.166 -117.5 -38.499 l-44 -58c32.667 -1.33301 59 -8.5 79 -21.5s30 -32.167 30 -57.5c0 -28 -14.5 -52 -43.5 -72s-74.167 -30 -135.5 -30v36c36 3.33301 64.667 9.66602 86 18.999s32 22.666 32 39.999c0 8.66699 -3 15.834 -9 21.501s-13.833 9.83398 -23.5 12.501s-20.5 4.5 -32.5 5.5 s-24 1.5 -36 1.5l-13 19c11.333 14 22 28 32 42s20.333 27.667 31 41c-27.333 1.33301 -55.333 5.16602 -84 11.499s-53 15.166 -73 26.499z"/>
    <glyph glyph-name="Scaron" unicode="Š" horiz-adv-x="573" d="M290 696c28.667 0 59.8311 -2.83398 93.498 -8.50098s65.167 -17.167 94.5 -34.5l-27 -60c-32.667 14.667 -62.667 24.167 -90 28.5s-52.333 6.5 -75 6.5c-40 0 -72.667 -10.167 -98 -30.5s-38 -51.5 -38 -93.5c0 -18.667 4.33301 -34.334 13 -47.001 s20.334 -23.167 35.001 -31.5s31 -15.333 49 -21s36.667 -10.834 56 -15.501c24.667 -6 50 -12.833 76 -20.5s49.667 -18.667 71 -33s38.833 -33.166 52.5 -56.499s20.5 -53.666 20.5 -90.999c0 -34 -6.16699 -63.333 -18.5 -88s-29.666 -45 -51.999 -61 s-49 -27.833 -80 -35.5s-64.833 -11.5 -101.5 -11.5c-36 0 -73.333 4 -112 12s-75 21.667 -109 41l29 62c40.667 -19.333 76.667 -32 108 -38s59.666 -9 84.999 -9c52 0 92.5 9.16699 121.5 27.5s43.5 51.833 43.5 100.5c0 20.667 -3.66699 37.834 -11 51.501 s-17.666 25 -30.999 34s-29 16.667 -47 23s-37.333 12.166 -58 17.499c-30 8 -58.667 16.333 -86 25s-51.5 19.667 -72.5 33s-37.667 30.333 -50 51s-18.5 47 -18.5 79c0 30.667 5.66699 58 17 82s27 44.333 47 61s43.833 29.334 71.5 38.001s58.167 13 91.5 13z M463.997 862.999l-152 -135h-54l-151 137l23 27l155 -91l155 91z"/>
    <glyph glyph-name="scaron" unicode="š" horiz-adv-x="446" d="M65 88c31.333 -14 59.998 -22.998 85.998 -26.998s47.667 -6 65 -6c15.333 0 29.833 1.33301 43.5 4s25.5 7 35.5 13s17.833 14 23.5 24s8.5 22.333 8.5 37c0 12.667 -2.83301 23.5 -8.5 32.5s-13.334 16.667 -23.001 23s-20.834 11.833 -33.501 16.5 s-26 9.33398 -40 14.001l-61.5 22c-19.667 7.33301 -37.167 16.166 -52.5 26.499s-27.666 22.833 -36.999 37.5s-14 33.334 -14 56.001c0 23.333 4.66699 43.666 14 60.999s22 31.666 38 42.999s34.667 19.666 56 24.999s44.333 8 69 8c10 0 21.333 -0.666992 34 -2 s25.5 -3.33301 38.5 -6s25.833 -6.16699 38.5 -10.5s24.334 -9.83301 35.001 -16.5l-25 -57c-25.333 10 -47.666 16.833 -66.999 20.5s-37.666 5.5 -54.999 5.5c-12.667 0 -25 -1.16699 -37 -3.5s-22.5 -6.33301 -31.5 -12s-16.333 -13.167 -22 -22.5 s-8.5 -20.666 -8.5 -33.999c0 -10.667 3.5 -19.834 10.5 -27.501s15.833 -14.5 26.5 -20.5s22 -11 34 -15l33 -11l61 -20.5c20 -7 38 -16 54 -27s28.833 -24.667 38.5 -41s14.5 -37.5 14.5 -63.5c0 -24.667 -4.83301 -45.834 -14.5 -63.501s-23 -32.167 -40 -43.5 s-37.333 -19.666 -61 -24.999s-49.5 -8 -77.5 -8c-14.667 0 -29.834 0.833008 -45.501 2.5s-31.167 4 -46.5 7s-30.166 7 -44.499 12s-26.833 10.5 -37.5 16.5zM398.998 686.002l-152 -141h-54l-151 143l23 28l155 -97l155 96z"/>
    <glyph glyph-name="Tcommaaccent" unicode="Ţ" horiz-adv-x="563" d="M240 0v618h-220v67h523v-67h-219l-1 -618h-83zM227 -90c0 13.333 4.99902 24.998 14.999 34.998s22.667 15 38 15c16.667 0 30.167 -5.66699 40.5 -17s15.166 -25.666 14.499 -42.999c-1.33301 -25.333 -9.16602 -48.5 -23.499 -69.5s-34.166 -38.167 -59.499 -51.5 l-20 25c20 18 30 37.667 30 59c-23.333 6.66699 -35 22.334 -35 47.001z"/>
    <glyph glyph-name="tcommaaccent" unicode="ţ" horiz-adv-x="356" d="M172 612v-123.999h147v-59h-148v-289c0 -23.333 4.5 -42.5 13.5 -57.5s27.167 -22.5 54.5 -22.5c22 0 52.667 5.66699 92 17l13 -55c-18 -8.66699 -37.833 -15.334 -59.5 -20.001s-42.5 -7 -62.5 -7c-87.333 0 -131 40 -131 120v314h-71v43l75 23l25 108zM134 -89.999 c0 13.333 4.99902 24.998 14.999 34.998s22.667 15 38 15c16.667 0 30.167 -5.66699 40.5 -17s15.166 -25.666 14.499 -42.999c-1.33301 -25.333 -9.16602 -48.5 -23.499 -69.5s-34.166 -38.167 -59.499 -51.5l-20 25c20 18 30 37.667 30 59 c-23.333 6.66699 -35 22.334 -35 47.001z"/>
    <glyph glyph-name="Tcaron" unicode="Ť" horiz-adv-x="563" d="M240 0v618h-220v67h523v-67h-219l-1 -618h-83zM459 863l-152 -135h-54l-151 137l23 27l155 -91l155 91z"/>
    <glyph glyph-name="tcaron" unicode="ť" horiz-adv-x="440" d="M314 648c0 13.333 4.99902 24.998 14.999 34.998s22.667 15 38 15c16.667 0 30.167 -5.66699 40.5 -17s15.166 -25.666 14.499 -42.999c-1.33301 -25.333 -9.16602 -48.5 -23.499 -69.5s-34.166 -38.167 -59.499 -51.5l-20 25c20 18 30 37.667 30 59 c-23.333 6.66699 -35 22.334 -35 47.001zM171.999 611.998v-123.999h147v-59h-148v-289c0 -23.333 4.5 -42.5 13.5 -57.5s27.167 -22.5 54.5 -22.5c22 0 52.667 5.66699 92 17l13 -55c-18 -8.66699 -37.833 -15.334 -59.5 -20.001s-42.5 -7 -62.5 -7 c-87.333 0 -131 40 -131 120v314h-71v43l75 23l25 108z"/>
    <glyph glyph-name="Tbar" unicode="Ŧ" horiz-adv-x="563" d="M240 0v340h-162v52h162v226h-220v67h523v-67h-219l-1 -226h151v-52h-151v-340h-83z"/>
    <glyph glyph-name="tbar" unicode="ŧ" horiz-adv-x="369" d="M170 346l143.998 0.000976562v-51h-144v-162c0.666992 -20.667 5.5 -38 14.5 -52s26.5 -21 52.5 -21c12 0 25.5 1.33301 40.5 4s32.167 6.66699 51.5 12c2.66699 -9.33301 4.83398 -18.5 6.50098 -27.5s3.83398 -18.167 6.50098 -27.5c-18 -8 -37.833 -14.333 -59.5 -19 s-42.5 -7 -62.5 -7c-40 0 -71.833 9.16699 -95.5 27.5s-35.5 50.166 -35.5 95.499v177h-69v51h69v83h-71v43l75 22l25 109l52 8v-123h147v-59h-147v-83z"/>
    <glyph glyph-name="Utilde" unicode="Ũ" horiz-adv-x="665" d="M594 246c0 -38 -5.33105 -72.668 -15.998 -104.001s-26.834 -58.166 -48.501 -80.499s-48.834 -39.5 -81.501 -51.5s-71.334 -18 -116.001 -18c-91.333 0 -157.5 22.5 -198.5 67.5s-61.5 107.167 -61.5 186.5v439h84v-440c0 -62.667 15.333 -109.667 46 -141 s74.334 -47 131.001 -47s100.5 15.5 131.5 46.5s46.5 78.167 46.5 141.5l-1 440h84v-439zM406.002 759.999c-15.333 0 -29.6689 1.99902 -43.002 5.99902s-26 8.5 -38 13.5s-23.333 9.5 -34 13.5s-20.667 6 -30 6l-57 -39l-28 22c8 22.667 19.667 40.834 35 54.501 s32.666 20.5 51.999 20.5c12 0 24.5 -2 37.5 -6s25.833 -8.5 38.5 -13.5s24.834 -9.5 36.501 -13.5s22.167 -6 31.5 -6l57 40l28 -22c-7.33301 -22.667 -18.666 -41 -33.999 -55s-32.666 -21 -51.999 -21z"/>
    <glyph glyph-name="utilde" unicode="ũ" horiz-adv-x="504" d="M199 -11c-33.333 0 -59.332 4.66504 -77.999 13.998s-32.667 21.5 -42 36.5s-15.166 31.833 -17.499 50.5s-3.5 37 -3.5 55v343h81v-323c0 -17.333 0.833008 -32.666 2.5 -45.999s5.33398 -24.666 11.001 -33.999s14 -16.5 25 -21.5s26.167 -7.5 45.5 -7.5 c18.667 0 41.167 5 67.5 15s51.166 25.667 74.499 47v370c13.333 0 26.666 0.166992 39.999 0.5s26.666 0.5 39.999 0.5v-489h-79l-1 55l-2 2c-16 -14 -32 -25.5 -48 -34.5s-31.167 -16 -45.5 -21s-27.5 -8.33301 -39.5 -10s-22.333 -2.5 -31 -2.5zM324.001 571.998 c-15.333 0 -29.6689 1.99902 -43.002 5.99902s-26 8.5 -38 13.5s-23.333 9.5 -34 13.5s-20.667 6 -30 6l-57 -39l-28 22c8 22.667 19.667 40.834 35 54.501s32.666 20.5 51.999 20.5c12 0 24.5 -2 37.5 -6s25.833 -8.5 38.5 -13.5s24.834 -9.5 36.501 -13.5 s22.167 -6 31.5 -6l57 40l28 -22c-7.33301 -22.667 -18.666 -41 -33.999 -55s-32.666 -21 -51.999 -21z"/>
    <glyph glyph-name="Umacron" unicode="Ū" horiz-adv-x="665" d="M594 246c0 -38 -5.33105 -72.668 -15.998 -104.001s-26.834 -58.166 -48.501 -80.499s-48.834 -39.5 -81.501 -51.5s-71.334 -18 -116.001 -18c-91.333 0 -157.5 22.5 -198.5 67.5s-61.5 107.167 -61.5 186.5v439h84v-440c0 -62.667 15.333 -109.667 46 -141 s74.334 -47 131.001 -47s100.5 15.5 131.5 46.5s46.5 78.167 46.5 141.5l-1 440h84v-439zM168.002 810.999h326v-64h-326v64z"/>
    <glyph glyph-name="umacron" unicode="ū" horiz-adv-x="504" d="M199 -11c-33.333 0 -59.332 4.66504 -77.999 13.998s-32.667 21.5 -42 36.5s-15.166 31.833 -17.499 50.5s-3.5 37 -3.5 55v343h81v-323c0 -17.333 0.833008 -32.666 2.5 -45.999s5.33398 -24.666 11.001 -33.999s14 -16.5 25 -21.5s26.167 -7.5 45.5 -7.5 c18.667 0 41.167 5 67.5 15s51.166 25.667 74.499 47v370c13.333 0 26.666 0.166992 39.999 0.5s26.666 0.5 39.999 0.5v-489h-79l-1 55l-2 2c-16 -14 -32 -25.5 -48 -34.5s-31.167 -16 -45.5 -21s-27.5 -8.33301 -39.5 -10s-22.333 -2.5 -31 -2.5zM82.001 655.998h329v-64 h-329v64z"/>
    <glyph glyph-name="Ubreve" unicode="Ŭ" horiz-adv-x="665" d="M594 246c0 -38 -5.33105 -72.668 -15.998 -104.001s-26.834 -58.166 -48.501 -80.499s-48.834 -39.5 -81.501 -51.5s-71.334 -18 -116.001 -18c-91.333 0 -157.5 22.5 -198.5 67.5s-61.5 107.167 -61.5 186.5v439h84v-440c0 -62.667 15.333 -109.667 46 -141 s74.334 -47 131.001 -47s100.5 15.5 131.5 46.5s46.5 78.167 46.5 141.5l-1 440h84v-439zM346.002 724.999c-17.333 0 -33.6689 3.16699 -49.002 9.5s-29.666 14.833 -42.999 25.5s-25.833 22.667 -37.5 36s-22.5 27 -32.5 41l47 34c18 -25.333 37.333 -45.5 58 -60.5 s40.667 -22.5 60 -22.5c6 0 13.5 0.5 22.5 1.5s19.333 4 31 9s24.834 12.667 39.501 23s31.334 24.5 50.001 42.5l27 -25c-29.333 -42 -58.833 -71.5 -88.5 -88.5s-57.834 -25.5 -84.501 -25.5z"/>
    <glyph glyph-name="ubreve" unicode="ŭ" horiz-adv-x="504" d="M199 -11c-33.333 0 -59.332 4.66504 -77.999 13.998s-32.667 21.5 -42 36.5s-15.166 31.833 -17.499 50.5s-3.5 37 -3.5 55v343h81v-323c0 -17.333 0.833008 -32.666 2.5 -45.999s5.33398 -24.666 11.001 -33.999s14 -16.5 25 -21.5s26.167 -7.5 45.5 -7.5 c18.667 0 41.167 5 67.5 15s51.166 25.667 74.499 47v370c13.333 0 26.666 0.166992 39.999 0.5s26.666 0.5 39.999 0.5v-489h-79l-1 55l-2 2c-16 -14 -32 -25.5 -48 -34.5s-31.167 -16 -45.5 -21s-27.5 -8.33301 -39.5 -10s-22.333 -2.5 -31 -2.5zM241.001 550.998 c-17.333 0 -33.6689 3.16699 -49.002 9.5s-29.666 14.833 -42.999 25.5s-25.833 22.667 -37.5 36s-22.5 27 -32.5 41l47 34c18 -25.333 37.333 -45.5 58 -60.5s40.667 -22.5 60 -22.5c6 0 13.5 0.5 22.5 1.5s19.333 4 31 9s24.834 12.667 39.501 23s31.334 24.5 50.001 42.5 l27 -25c-29.333 -42 -58.833 -71.5 -88.5 -88.5s-57.834 -25.5 -84.501 -25.5z"/>
    <glyph glyph-name="Uring" unicode="Ů" horiz-adv-x="665" d="M594 246c0 -38 -5.33105 -72.668 -15.998 -104.001s-26.834 -58.166 -48.501 -80.499s-48.834 -39.5 -81.501 -51.5s-71.334 -18 -116.001 -18c-91.333 0 -157.5 22.5 -198.5 67.5s-61.5 107.167 -61.5 186.5v439h84v-440c0 -62.667 15.333 -109.667 46 -141 s74.334 -47 131.001 -47s100.5 15.5 131.5 46.5s46.5 78.167 46.5 141.5l-1 440h84v-439zM336.002 712.999c-15.333 0 -29.666 2.66309 -42.999 7.99609s-24.833 12.833 -34.5 22.5s-17.334 20.834 -23.001 33.501s-8.5 26.334 -8.5 41.001c0 14 2.83301 27.333 8.5 40 s13.334 23.834 23.001 33.501s21.167 17.334 34.5 23.001s27.666 8.5 42.999 8.5c14.667 0 28.5 -2.83301 41.5 -8.5s24.333 -13.167 34 -22.5s17.167 -20.5 22.5 -33.5s8 -26.5 8 -40.5c0 -30 -10.167 -55 -30.5 -75s-45.5 -30 -75.5 -30zM336.002 879.995 c-19.333 0 -34.833 -6.16699 -46.5 -18.5s-17.5 -27.833 -17.5 -46.5c0 -17.333 5.83301 -32 17.5 -44s27.167 -18 46.5 -18c18 0 32.667 6 44 18s17 26.667 17 44c0 18 -5.66699 33.333 -17 46s-26 19 -44 19z"/>
    <glyph glyph-name="uring" unicode="ů" horiz-adv-x="504" d="M199 -11c-33.333 0 -59.332 4.66504 -77.999 13.998s-32.667 21.5 -42 36.5s-15.166 31.833 -17.499 50.5s-3.5 37 -3.5 55v343h81v-323c0 -17.333 0.833008 -32.666 2.5 -45.999s5.33398 -24.666 11.001 -33.999s14 -16.5 25 -21.5s26.167 -7.5 45.5 -7.5 c18.667 0 41.167 5 67.5 15s51.166 25.667 74.499 47v370c13.333 0 26.666 0.166992 39.999 0.5s26.666 0.5 39.999 0.5v-489h-79l-1 55l-2 2c-16 -14 -32 -25.5 -48 -34.5s-31.167 -16 -45.5 -21s-27.5 -8.33301 -39.5 -10s-22.333 -2.5 -31 -2.5zM253.001 550.998 c-15.333 0 -29.666 2.66309 -42.999 7.99609s-24.833 12.833 -34.5 22.5s-17.334 20.834 -23.001 33.501s-8.5 26.334 -8.5 41.001c0 14 2.83301 27.333 8.5 40s13.334 23.834 23.001 33.501s21.167 17.334 34.5 23.001s27.666 8.5 42.999 8.5 c14.667 0 28.5 -2.83301 41.5 -8.5s24.333 -13.167 34 -22.5s17.167 -20.5 22.5 -33.5s8 -26.5 8 -40.5c0 -30 -10.167 -55 -30.5 -75s-45.5 -30 -75.5 -30zM253.001 717.994c-19.333 0 -34.833 -6.16699 -46.5 -18.5s-17.5 -27.833 -17.5 -46.5 c0 -17.333 5.83301 -32 17.5 -44s27.167 -18 46.5 -18c18 0 32.667 6 44 18s17 26.667 17 44c0 18 -5.66699 33.333 -17 46s-26 19 -44 19z"/>
    </font>
</defs>
</svg>
